M48
; DRILL file KiCad 10.0.6 date 2026-09-24T16:20:38
; FORMAT={-:-/ absolute / metric / decimal}
; #@! TF.CreationDate,2026-09-24T16:20:38+03:00
; #@! TF.GenerationSoftware,Kicad,Pcbnew,10.0.6
; #@! TF.FileFunction,Plated,1,4,PTH
FMAT,2
METRIC
; #@! TA.AperFunction,Plated,PTH,ViaDrill
T1C0.200
; #@! TA.AperFunction,Plated,PTH,ViaDrill
T2C0.300
; #@! TA.AperFunction,Plated,PTH,ComponentDrill
T3C0.500
; #@! TA.AperFunction,Plated,PTH,ComponentDrill
T4C0.600
; #@! TA.AperFunction,Plated,PTH,ComponentDrill
T5C1.000
; #@! TA.AperFunction,Plated,PTH,ComponentDrill
T6C2.000
; #@! TA.AperFunction,Plated,PTH,ComponentDrill
T7C2.700
%
G90
G05
T1
X61.468Y-87.427
X61.671Y-68.783
X62.027Y-65.48
X62.146Y-88.73
X63.51Y-74.981
X63.957Y-84.785
X63.957Y-85.649
X64.922Y-78.689
X64.922Y-82.194
X66.192Y-78.689
X66.192Y-81.636
X66.194Y-70.56
X66.6Y-73.1
X67.462Y-78.823
X67.462Y-81.128
X70.256Y-72.593
X70.917Y-64.262
X71.049Y-70.612
X71.247Y-78.664
X71.272Y-80.569
X72.492Y-78.638
X72.542Y-80.01
X74.563Y-77.43
X74.93Y-74.93
X75.057Y-84.633
X75.997Y-69.342
X76.352Y-88.189
X76.352Y-93.929
X76.86Y-75.895
X77.978Y-86.512
X78.105Y-78.74
X78.105Y-82.194
X79.35Y-81.636
X79.375Y-78.664
X81.686Y-74.219
X81.915Y-78.638
X81.94Y-81.128
X84.48Y-73.609
X84.48Y-78.638
X84.48Y-80.569
X84.734Y-69.545
X85.014Y-71.857
X85.496Y-71.145
X85.725Y-78.613
X85.75Y-80.01
X86.816Y-64.41
X86.881Y-72.974
X87.757Y-66.853
X87.873Y-77.43
X87.884Y-76.048
X87.986Y-63.348
X88.265Y-70.248
X88.29Y-67.564
X88.532Y-84.087
X88.646Y-72.136
X88.742Y-66.35
X88.9Y-74.371
X89.052Y-70.358
X89.103Y-62.687
X89.56Y-74.778
X89.56Y-88.113
X89.56Y-93.828
X89.582Y-63.36
X89.725Y-70.269
X90.272Y-74.778
X90.297Y-71.976
X90.475Y-63.106
X90.557Y-63.877
X90.634Y-82.712
X90.83Y-83.694
X90.946Y-74.81
X91.313Y-66.167
X91.679Y-69.375
X91.948Y-66.167
X92.837Y-78.613
X92.862Y-82.194
X92.913Y-75.286
X93.055Y-63.754
X93.269Y-69.149
X93.37Y-70.891
X93.472Y-80.01
X93.828Y-69.676
X93.929Y-66.35
X93.929Y-71.374
X94.082Y-81.636
X94.234Y-78.664
X94.323Y-73.241
X95.91Y-72.339
X96.164Y-66.751
X96.164Y-70.917
X96.622Y-78.638
X96.622Y-81.128
X97.841Y-88.544
X97.892Y-78.689
X99.162Y-78.638
X99.162Y-80.569
X100.432Y-78.588
X100.432Y-80.01
X101.143Y-73.914
X101.6Y-66.18
X101.6Y-70.98
X102.537Y-77.391
X102.972Y-84.582
X103.581Y-64.008
X104.216Y-64.973
X104.242Y-88.341
X104.242Y-93.929
X105.918Y-59.69
X105.969Y-78.638
X105.969Y-82.194
X106.731Y-69.139
X107.239Y-78.638
X107.239Y-81.636
X108.585Y-68.809
X109.779Y-78.638
X109.779Y-81.128
X110.134Y-73.203
X111.049Y-78.638
X111.049Y-88.748
X111.76Y-72.034
X112.319Y-78.638
X112.319Y-80.569
X112.979Y-73.508
X113.589Y-78.638
X113.589Y-80.01
X115.773Y-77.419
X116.129Y-84.43
X117.196Y-76.403
X117.399Y-88.24
X117.45Y-93.828
X118.434Y-82.906
X118.594Y-83.694
X118.618Y-71.628
X120.548Y-78.588
X120.828Y-82.194
X121.818Y-78.588
X121.818Y-81.636
X124.358Y-78.588
X124.358Y-81.128
X125.628Y-78.613
X125.73Y-88.544
X126.898Y-78.588
X126.898Y-80.569
X128.168Y-78.588
X128.168Y-80.01
X130.279Y-77.391
X130.726Y-84.6
X131.978Y-93.828
X132.004Y-88.138
X132.451Y-83.581
X132.486Y-75.235
X133.604Y-86.36
X133.706Y-78.588
X133.706Y-82.194
X134.976Y-78.588
X134.976Y-81.636
X137.516Y-78.588
X137.566Y-81.128
X138.811Y-78.613
X138.836Y-88.748
X140.056Y-78.588
X140.056Y-80.569
X141.275Y-80.01
X141.376Y-78.588
X142.596Y-78.613
X143.866Y-84.48
X145.136Y-88.189
X145.136Y-93.726
X145.161Y-59.944
X145.161Y-60.452
X145.161Y-60.96
X145.161Y-61.468
X145.161Y-61.976
X145.542Y-104.902
X146.304Y-88.189
X147.828Y-92.583
X148.033Y-106.466
X148.209Y-92.583
X148.971Y-78.867
X149.454Y-78.892
X149.589Y-67.31
X149.623Y-107.497
X150.114Y-67.31
X150.573Y-106.426
X150.594Y-67.31
X151.384Y-79.464
X152.273Y-87.63
X152.273Y-88.011
X152.273Y-88.392
X153.035Y-90.75
X153.06Y-85.903
X153.518Y-85.903
X153.543Y-90.75
X153.797Y-101.473
X153.975Y-85.903
X154.051Y-90.75
X154.178Y-101.473
X154.381Y-85.903
X154.559Y-90.75
X154.559Y-101.473
X154.915Y-94.869
X154.94Y-101.473
X156.007Y-93.142
X156.007Y-93.599
X156.007Y-94.056
X156.845Y-97.663
X158.445Y-76.149
X158.445Y-76.962
X159.004Y-96.266
X159.157Y-84.227
X160.528Y-96.266
X161.849Y-76.962
T2
X76.795Y-83.605
X104.648Y-83.566
X105.791Y-88.9
X112.395Y-65.913
X129.159Y-67.564
X142.748Y-70.612
X147.828Y-75.184
X147.955Y-80.137
X149.352Y-73.025
T4
X66.271Y-100.212
X66.271Y-102.462
X68.271Y-100.212
X68.271Y-102.462
X70.271Y-100.212
X70.271Y-102.462
X72.271Y-100.212
X72.271Y-102.462
X74.271Y-100.212
X74.271Y-102.462
X76.271Y-100.212
X76.271Y-102.462
X79.455Y-100.212
X79.455Y-102.462
X81.455Y-100.212
X81.455Y-102.462
X83.455Y-100.212
X83.455Y-102.462
X85.455Y-100.212
X85.455Y-102.462
X87.455Y-100.212
X87.455Y-102.462
X89.455Y-100.212
X89.455Y-102.462
X94.163Y-100.172
X94.163Y-102.422
X96.163Y-100.172
X96.163Y-102.422
X98.163Y-100.172
X98.163Y-102.422
X100.163Y-100.172
X100.163Y-102.422
X102.163Y-100.172
X102.163Y-102.422
X104.163Y-100.172
X104.163Y-102.422
X107.347Y-100.172
X107.347Y-102.422
X109.347Y-100.172
X109.347Y-102.422
X111.347Y-100.172
X111.347Y-102.422
X113.347Y-100.172
X113.347Y-102.422
X115.347Y-100.172
X115.347Y-102.422
X117.347Y-100.172
X117.347Y-102.422
X121.928Y-100.172
X121.928Y-102.422
X123.928Y-100.172
X123.928Y-102.422
X125.928Y-100.172
X125.928Y-102.422
X127.928Y-100.172
X127.928Y-102.422
X129.928Y-100.172
X129.928Y-102.422
X131.928Y-100.172
X131.928Y-102.422
X135.112Y-100.172
X135.112Y-102.422
X137.112Y-100.172
X137.112Y-102.422
X139.112Y-100.172
X139.112Y-102.422
X141.112Y-100.172
X141.112Y-102.422
X143.112Y-100.172
X143.112Y-102.422
X145.112Y-100.172
X145.112Y-102.422
T5
X68.58Y-58.42
X71.12Y-58.42
X73.66Y-58.42
X76.2Y-58.42
X78.74Y-58.42
X81.28Y-58.42
X83.82Y-58.42
X86.36Y-58.42
X91.44Y-58.42
X93.98Y-58.42
X96.52Y-58.42
X99.06Y-58.42
X104.14Y-58.42
X106.68Y-58.42
X109.22Y-58.42
X111.76Y-58.42
X114.3Y-58.42
X116.84Y-58.42
X119.38Y-58.42
X121.92Y-58.42
X124.46Y-58.42
X127.0Y-58.42
X157.647Y-73.014
X157.647Y-87.514
X160.147Y-73.014
X162.647Y-73.014
X162.647Y-87.514
T7
X62.1Y-60.2
X62.1Y-106.8
X164.9Y-60.2
X164.9Y-106.8
T3
X162.548Y-90.104G85X163.248Y-90.104
G05
X162.548Y-98.744G85X163.248Y-98.744
G05
X166.348Y-90.104G85X167.048Y-90.104
G05
X166.348Y-98.744G85X167.048Y-98.744
G05
T6
X154.547Y-80.264G85X154.547Y-80.764
G05
X165.747Y-80.264G85X165.747Y-80.764
G05
M30
