%TF.GenerationSoftware,KiCad,Pcbnew,10.0.6*%
%TF.CreationDate,2026-09-24T16:20:38+03:00*%
%TF.ProjectId,VFD_IV6,5646445f-4956-4362-9e6b-696361645f70,rev?*%
%TF.SameCoordinates,Original*%
%TF.FileFunction,Drillmap*%
%TF.FilePolarity,Positive*%
%FSLAX45Y45*%
G04 Gerber Fmt 4.5, Leading zero omitted, Abs format (unit mm)*
G04 Created by KiCad (PCBNEW 10.0.6) date 2026-09-24 16:20:38*
%MOMM*%
%LPD*%
G01*
G04 APERTURE LIST*
%ADD10C,0.050000*%
%ADD11C,0.200000*%
%ADD12C,0.120000*%
%ADD13C,0.140000*%
G04 APERTURE END LIST*
D10*
X5842000Y-5660000D02*
X16842000Y-5660000D01*
X16842000Y-11060000D01*
X5842000Y-11060000D01*
X5842000Y-5660000D01*
D11*
D12*
X12707900Y-6747200D02*
X12827900Y-6867200D01*
X12827900Y-6747200D02*
X12707900Y-6867200D01*
D13*
X12087900Y-6807200D02*
G75*
G02*
X11947900Y-6807200I-70000J0D01*
G01*
X11947900Y-6807200D02*
G75*
G02*
X12087900Y-6807200I70000J0D01*
G01*
D11*
X6100277Y-11373984D02*
X6100277Y-11173984D01*
X6100277Y-11173984D02*
X6147896Y-11173984D01*
X6147896Y-11173984D02*
X6176467Y-11183508D01*
X6176467Y-11183508D02*
X6195515Y-11202555D01*
X6195515Y-11202555D02*
X6205039Y-11221603D01*
X6205039Y-11221603D02*
X6214562Y-11259698D01*
X6214562Y-11259698D02*
X6214562Y-11288269D01*
X6214562Y-11288269D02*
X6205039Y-11326365D01*
X6205039Y-11326365D02*
X6195515Y-11345412D01*
X6195515Y-11345412D02*
X6176467Y-11364460D01*
X6176467Y-11364460D02*
X6147896Y-11373984D01*
X6147896Y-11373984D02*
X6100277Y-11373984D01*
X6300277Y-11373984D02*
X6300277Y-11240650D01*
X6300277Y-11278746D02*
X6309801Y-11259698D01*
X6309801Y-11259698D02*
X6319324Y-11250174D01*
X6319324Y-11250174D02*
X6338372Y-11240650D01*
X6338372Y-11240650D02*
X6357420Y-11240650D01*
X6424086Y-11373984D02*
X6424086Y-11240650D01*
X6424086Y-11173984D02*
X6414562Y-11183508D01*
X6414562Y-11183508D02*
X6424086Y-11193031D01*
X6424086Y-11193031D02*
X6433610Y-11183508D01*
X6433610Y-11183508D02*
X6424086Y-11173984D01*
X6424086Y-11173984D02*
X6424086Y-11193031D01*
X6547896Y-11373984D02*
X6528848Y-11364460D01*
X6528848Y-11364460D02*
X6519324Y-11345412D01*
X6519324Y-11345412D02*
X6519324Y-11173984D01*
X6652658Y-11373984D02*
X6633610Y-11364460D01*
X6633610Y-11364460D02*
X6624086Y-11345412D01*
X6624086Y-11345412D02*
X6624086Y-11173984D01*
X6881229Y-11373984D02*
X6881229Y-11173984D01*
X6881229Y-11173984D02*
X6947896Y-11316841D01*
X6947896Y-11316841D02*
X7014562Y-11173984D01*
X7014562Y-11173984D02*
X7014562Y-11373984D01*
X7195515Y-11373984D02*
X7195515Y-11269222D01*
X7195515Y-11269222D02*
X7185991Y-11250174D01*
X7185991Y-11250174D02*
X7166943Y-11240650D01*
X7166943Y-11240650D02*
X7128848Y-11240650D01*
X7128848Y-11240650D02*
X7109801Y-11250174D01*
X7195515Y-11364460D02*
X7176467Y-11373984D01*
X7176467Y-11373984D02*
X7128848Y-11373984D01*
X7128848Y-11373984D02*
X7109801Y-11364460D01*
X7109801Y-11364460D02*
X7100277Y-11345412D01*
X7100277Y-11345412D02*
X7100277Y-11326365D01*
X7100277Y-11326365D02*
X7109801Y-11307317D01*
X7109801Y-11307317D02*
X7128848Y-11297793D01*
X7128848Y-11297793D02*
X7176467Y-11297793D01*
X7176467Y-11297793D02*
X7195515Y-11288269D01*
X7290753Y-11240650D02*
X7290753Y-11440650D01*
X7290753Y-11250174D02*
X7309801Y-11240650D01*
X7309801Y-11240650D02*
X7347896Y-11240650D01*
X7347896Y-11240650D02*
X7366943Y-11250174D01*
X7366943Y-11250174D02*
X7376467Y-11259698D01*
X7376467Y-11259698D02*
X7385991Y-11278746D01*
X7385991Y-11278746D02*
X7385991Y-11335888D01*
X7385991Y-11335888D02*
X7376467Y-11354936D01*
X7376467Y-11354936D02*
X7366943Y-11364460D01*
X7366943Y-11364460D02*
X7347896Y-11373984D01*
X7347896Y-11373984D02*
X7309801Y-11373984D01*
X7309801Y-11373984D02*
X7290753Y-11364460D01*
X7471705Y-11354936D02*
X7481229Y-11364460D01*
X7481229Y-11364460D02*
X7471705Y-11373984D01*
X7471705Y-11373984D02*
X7462182Y-11364460D01*
X7462182Y-11364460D02*
X7471705Y-11354936D01*
X7471705Y-11354936D02*
X7471705Y-11373984D01*
X7471705Y-11250174D02*
X7481229Y-11259698D01*
X7481229Y-11259698D02*
X7471705Y-11269222D01*
X7471705Y-11269222D02*
X7462182Y-11259698D01*
X7462182Y-11259698D02*
X7471705Y-11250174D01*
X7471705Y-11250174D02*
X7471705Y-11269222D01*
D12*
X5719500Y-11642500D02*
X5839500Y-11762500D01*
X5839500Y-11642500D02*
X5719500Y-11762500D01*
D11*
X6205039Y-11793984D02*
X6090753Y-11793984D01*
X6147896Y-11793984D02*
X6147896Y-11593984D01*
X6147896Y-11593984D02*
X6128848Y-11622555D01*
X6128848Y-11622555D02*
X6109801Y-11641603D01*
X6109801Y-11641603D02*
X6090753Y-11651127D01*
X6300277Y-11784460D02*
X6300277Y-11793984D01*
X6300277Y-11793984D02*
X6290753Y-11813031D01*
X6290753Y-11813031D02*
X6281229Y-11822555D01*
X6376467Y-11613031D02*
X6385991Y-11603508D01*
X6385991Y-11603508D02*
X6405039Y-11593984D01*
X6405039Y-11593984D02*
X6452658Y-11593984D01*
X6452658Y-11593984D02*
X6471705Y-11603508D01*
X6471705Y-11603508D02*
X6481229Y-11613031D01*
X6481229Y-11613031D02*
X6490753Y-11632079D01*
X6490753Y-11632079D02*
X6490753Y-11651127D01*
X6490753Y-11651127D02*
X6481229Y-11679698D01*
X6481229Y-11679698D02*
X6366943Y-11793984D01*
X6366943Y-11793984D02*
X6490753Y-11793984D01*
X6614562Y-11593984D02*
X6633610Y-11593984D01*
X6633610Y-11593984D02*
X6652658Y-11603508D01*
X6652658Y-11603508D02*
X6662182Y-11613031D01*
X6662182Y-11613031D02*
X6671705Y-11632079D01*
X6671705Y-11632079D02*
X6681229Y-11670174D01*
X6681229Y-11670174D02*
X6681229Y-11717793D01*
X6681229Y-11717793D02*
X6671705Y-11755888D01*
X6671705Y-11755888D02*
X6662182Y-11774936D01*
X6662182Y-11774936D02*
X6652658Y-11784460D01*
X6652658Y-11784460D02*
X6633610Y-11793984D01*
X6633610Y-11793984D02*
X6614562Y-11793984D01*
X6614562Y-11793984D02*
X6595515Y-11784460D01*
X6595515Y-11784460D02*
X6585991Y-11774936D01*
X6585991Y-11774936D02*
X6576467Y-11755888D01*
X6576467Y-11755888D02*
X6566943Y-11717793D01*
X6566943Y-11717793D02*
X6566943Y-11670174D01*
X6566943Y-11670174D02*
X6576467Y-11632079D01*
X6576467Y-11632079D02*
X6585991Y-11613031D01*
X6585991Y-11613031D02*
X6595515Y-11603508D01*
X6595515Y-11603508D02*
X6614562Y-11593984D01*
X6805039Y-11593984D02*
X6824086Y-11593984D01*
X6824086Y-11593984D02*
X6843134Y-11603508D01*
X6843134Y-11603508D02*
X6852658Y-11613031D01*
X6852658Y-11613031D02*
X6862182Y-11632079D01*
X6862182Y-11632079D02*
X6871705Y-11670174D01*
X6871705Y-11670174D02*
X6871705Y-11717793D01*
X6871705Y-11717793D02*
X6862182Y-11755888D01*
X6862182Y-11755888D02*
X6852658Y-11774936D01*
X6852658Y-11774936D02*
X6843134Y-11784460D01*
X6843134Y-11784460D02*
X6824086Y-11793984D01*
X6824086Y-11793984D02*
X6805039Y-11793984D01*
X6805039Y-11793984D02*
X6785991Y-11784460D01*
X6785991Y-11784460D02*
X6776467Y-11774936D01*
X6776467Y-11774936D02*
X6766943Y-11755888D01*
X6766943Y-11755888D02*
X6757420Y-11717793D01*
X6757420Y-11717793D02*
X6757420Y-11670174D01*
X6757420Y-11670174D02*
X6766943Y-11632079D01*
X6766943Y-11632079D02*
X6776467Y-11613031D01*
X6776467Y-11613031D02*
X6785991Y-11603508D01*
X6785991Y-11603508D02*
X6805039Y-11593984D01*
X6957420Y-11793984D02*
X6957420Y-11660650D01*
X6957420Y-11679698D02*
X6966943Y-11670174D01*
X6966943Y-11670174D02*
X6985991Y-11660650D01*
X6985991Y-11660650D02*
X7014563Y-11660650D01*
X7014563Y-11660650D02*
X7033610Y-11670174D01*
X7033610Y-11670174D02*
X7043134Y-11689222D01*
X7043134Y-11689222D02*
X7043134Y-11793984D01*
X7043134Y-11689222D02*
X7052658Y-11670174D01*
X7052658Y-11670174D02*
X7071705Y-11660650D01*
X7071705Y-11660650D02*
X7100277Y-11660650D01*
X7100277Y-11660650D02*
X7119324Y-11670174D01*
X7119324Y-11670174D02*
X7128848Y-11689222D01*
X7128848Y-11689222D02*
X7128848Y-11793984D01*
X7224086Y-11793984D02*
X7224086Y-11660650D01*
X7224086Y-11679698D02*
X7233610Y-11670174D01*
X7233610Y-11670174D02*
X7252658Y-11660650D01*
X7252658Y-11660650D02*
X7281229Y-11660650D01*
X7281229Y-11660650D02*
X7300277Y-11670174D01*
X7300277Y-11670174D02*
X7309801Y-11689222D01*
X7309801Y-11689222D02*
X7309801Y-11793984D01*
X7309801Y-11689222D02*
X7319324Y-11670174D01*
X7319324Y-11670174D02*
X7338372Y-11660650D01*
X7338372Y-11660650D02*
X7366943Y-11660650D01*
X7366943Y-11660650D02*
X7385991Y-11670174D01*
X7385991Y-11670174D02*
X7395515Y-11689222D01*
X7395515Y-11689222D02*
X7395515Y-11793984D01*
X7785991Y-11584460D02*
X7614563Y-11841603D01*
X8043134Y-11593984D02*
X8062182Y-11593984D01*
X8062182Y-11593984D02*
X8081229Y-11603508D01*
X8081229Y-11603508D02*
X8090753Y-11613031D01*
X8090753Y-11613031D02*
X8100277Y-11632079D01*
X8100277Y-11632079D02*
X8109801Y-11670174D01*
X8109801Y-11670174D02*
X8109801Y-11717793D01*
X8109801Y-11717793D02*
X8100277Y-11755888D01*
X8100277Y-11755888D02*
X8090753Y-11774936D01*
X8090753Y-11774936D02*
X8081229Y-11784460D01*
X8081229Y-11784460D02*
X8062182Y-11793984D01*
X8062182Y-11793984D02*
X8043134Y-11793984D01*
X8043134Y-11793984D02*
X8024086Y-11784460D01*
X8024086Y-11784460D02*
X8014563Y-11774936D01*
X8014563Y-11774936D02*
X8005039Y-11755888D01*
X8005039Y-11755888D02*
X7995515Y-11717793D01*
X7995515Y-11717793D02*
X7995515Y-11670174D01*
X7995515Y-11670174D02*
X8005039Y-11632079D01*
X8005039Y-11632079D02*
X8014563Y-11613031D01*
X8014563Y-11613031D02*
X8024086Y-11603508D01*
X8024086Y-11603508D02*
X8043134Y-11593984D01*
X8205039Y-11784460D02*
X8205039Y-11793984D01*
X8205039Y-11793984D02*
X8195515Y-11813031D01*
X8195515Y-11813031D02*
X8185991Y-11822555D01*
X8328848Y-11593984D02*
X8347896Y-11593984D01*
X8347896Y-11593984D02*
X8366944Y-11603508D01*
X8366944Y-11603508D02*
X8376467Y-11613031D01*
X8376467Y-11613031D02*
X8385991Y-11632079D01*
X8385991Y-11632079D02*
X8395515Y-11670174D01*
X8395515Y-11670174D02*
X8395515Y-11717793D01*
X8395515Y-11717793D02*
X8385991Y-11755888D01*
X8385991Y-11755888D02*
X8376467Y-11774936D01*
X8376467Y-11774936D02*
X8366944Y-11784460D01*
X8366944Y-11784460D02*
X8347896Y-11793984D01*
X8347896Y-11793984D02*
X8328848Y-11793984D01*
X8328848Y-11793984D02*
X8309801Y-11784460D01*
X8309801Y-11784460D02*
X8300277Y-11774936D01*
X8300277Y-11774936D02*
X8290753Y-11755888D01*
X8290753Y-11755888D02*
X8281229Y-11717793D01*
X8281229Y-11717793D02*
X8281229Y-11670174D01*
X8281229Y-11670174D02*
X8290753Y-11632079D01*
X8290753Y-11632079D02*
X8300277Y-11613031D01*
X8300277Y-11613031D02*
X8309801Y-11603508D01*
X8309801Y-11603508D02*
X8328848Y-11593984D01*
X8566944Y-11660650D02*
X8566944Y-11793984D01*
X8519325Y-11584460D02*
X8471706Y-11727317D01*
X8471706Y-11727317D02*
X8595515Y-11727317D01*
X8652658Y-11593984D02*
X8785991Y-11593984D01*
X8785991Y-11593984D02*
X8700277Y-11793984D01*
X8852658Y-11613031D02*
X8862182Y-11603508D01*
X8862182Y-11603508D02*
X8881229Y-11593984D01*
X8881229Y-11593984D02*
X8928849Y-11593984D01*
X8928849Y-11593984D02*
X8947896Y-11603508D01*
X8947896Y-11603508D02*
X8957420Y-11613031D01*
X8957420Y-11613031D02*
X8966944Y-11632079D01*
X8966944Y-11632079D02*
X8966944Y-11651127D01*
X8966944Y-11651127D02*
X8957420Y-11679698D01*
X8957420Y-11679698D02*
X8843134Y-11793984D01*
X8843134Y-11793984D02*
X8966944Y-11793984D01*
X9043134Y-11593984D02*
X9043134Y-11632079D01*
X9119325Y-11593984D02*
X9119325Y-11632079D01*
X9414563Y-11870174D02*
X9405039Y-11860650D01*
X9405039Y-11860650D02*
X9385991Y-11832079D01*
X9385991Y-11832079D02*
X9376468Y-11813031D01*
X9376468Y-11813031D02*
X9366944Y-11784460D01*
X9366944Y-11784460D02*
X9357420Y-11736841D01*
X9357420Y-11736841D02*
X9357420Y-11698746D01*
X9357420Y-11698746D02*
X9366944Y-11651127D01*
X9366944Y-11651127D02*
X9376468Y-11622555D01*
X9376468Y-11622555D02*
X9385991Y-11603508D01*
X9385991Y-11603508D02*
X9405039Y-11574936D01*
X9405039Y-11574936D02*
X9414563Y-11565412D01*
X9595515Y-11793984D02*
X9481230Y-11793984D01*
X9538372Y-11793984D02*
X9538372Y-11593984D01*
X9538372Y-11593984D02*
X9519325Y-11622555D01*
X9519325Y-11622555D02*
X9500277Y-11641603D01*
X9500277Y-11641603D02*
X9481230Y-11651127D01*
X9833611Y-11793984D02*
X9833611Y-11593984D01*
X9919325Y-11793984D02*
X9919325Y-11689222D01*
X9919325Y-11689222D02*
X9909801Y-11670174D01*
X9909801Y-11670174D02*
X9890753Y-11660650D01*
X9890753Y-11660650D02*
X9862182Y-11660650D01*
X9862182Y-11660650D02*
X9843134Y-11670174D01*
X9843134Y-11670174D02*
X9833611Y-11679698D01*
X10043134Y-11793984D02*
X10024087Y-11784460D01*
X10024087Y-11784460D02*
X10014563Y-11774936D01*
X10014563Y-11774936D02*
X10005039Y-11755888D01*
X10005039Y-11755888D02*
X10005039Y-11698746D01*
X10005039Y-11698746D02*
X10014563Y-11679698D01*
X10014563Y-11679698D02*
X10024087Y-11670174D01*
X10024087Y-11670174D02*
X10043134Y-11660650D01*
X10043134Y-11660650D02*
X10071706Y-11660650D01*
X10071706Y-11660650D02*
X10090753Y-11670174D01*
X10090753Y-11670174D02*
X10100277Y-11679698D01*
X10100277Y-11679698D02*
X10109801Y-11698746D01*
X10109801Y-11698746D02*
X10109801Y-11755888D01*
X10109801Y-11755888D02*
X10100277Y-11774936D01*
X10100277Y-11774936D02*
X10090753Y-11784460D01*
X10090753Y-11784460D02*
X10071706Y-11793984D01*
X10071706Y-11793984D02*
X10043134Y-11793984D01*
X10224087Y-11793984D02*
X10205039Y-11784460D01*
X10205039Y-11784460D02*
X10195515Y-11765412D01*
X10195515Y-11765412D02*
X10195515Y-11593984D01*
X10376468Y-11784460D02*
X10357420Y-11793984D01*
X10357420Y-11793984D02*
X10319325Y-11793984D01*
X10319325Y-11793984D02*
X10300277Y-11784460D01*
X10300277Y-11784460D02*
X10290753Y-11765412D01*
X10290753Y-11765412D02*
X10290753Y-11689222D01*
X10290753Y-11689222D02*
X10300277Y-11670174D01*
X10300277Y-11670174D02*
X10319325Y-11660650D01*
X10319325Y-11660650D02*
X10357420Y-11660650D01*
X10357420Y-11660650D02*
X10376468Y-11670174D01*
X10376468Y-11670174D02*
X10385992Y-11689222D01*
X10385992Y-11689222D02*
X10385992Y-11708269D01*
X10385992Y-11708269D02*
X10290753Y-11727317D01*
X10452658Y-11870174D02*
X10462182Y-11860650D01*
X10462182Y-11860650D02*
X10481230Y-11832079D01*
X10481230Y-11832079D02*
X10490753Y-11813031D01*
X10490753Y-11813031D02*
X10500277Y-11784460D01*
X10500277Y-11784460D02*
X10509801Y-11736841D01*
X10509801Y-11736841D02*
X10509801Y-11698746D01*
X10509801Y-11698746D02*
X10500277Y-11651127D01*
X10500277Y-11651127D02*
X10490753Y-11622555D01*
X10490753Y-11622555D02*
X10481230Y-11603508D01*
X10481230Y-11603508D02*
X10462182Y-11574936D01*
X10462182Y-11574936D02*
X10452658Y-11565412D01*
X10814563Y-11870174D02*
X10805039Y-11860650D01*
X10805039Y-11860650D02*
X10785992Y-11832079D01*
X10785992Y-11832079D02*
X10776468Y-11813031D01*
X10776468Y-11813031D02*
X10766944Y-11784460D01*
X10766944Y-11784460D02*
X10757420Y-11736841D01*
X10757420Y-11736841D02*
X10757420Y-11698746D01*
X10757420Y-11698746D02*
X10766944Y-11651127D01*
X10766944Y-11651127D02*
X10776468Y-11622555D01*
X10776468Y-11622555D02*
X10785992Y-11603508D01*
X10785992Y-11603508D02*
X10805039Y-11574936D01*
X10805039Y-11574936D02*
X10814563Y-11565412D01*
X10890753Y-11660650D02*
X10890753Y-11793984D01*
X10890753Y-11679698D02*
X10900277Y-11670174D01*
X10900277Y-11670174D02*
X10919325Y-11660650D01*
X10919325Y-11660650D02*
X10947896Y-11660650D01*
X10947896Y-11660650D02*
X10966944Y-11670174D01*
X10966944Y-11670174D02*
X10976468Y-11689222D01*
X10976468Y-11689222D02*
X10976468Y-11793984D01*
X11100277Y-11793984D02*
X11081230Y-11784460D01*
X11081230Y-11784460D02*
X11071706Y-11774936D01*
X11071706Y-11774936D02*
X11062182Y-11755888D01*
X11062182Y-11755888D02*
X11062182Y-11698746D01*
X11062182Y-11698746D02*
X11071706Y-11679698D01*
X11071706Y-11679698D02*
X11081230Y-11670174D01*
X11081230Y-11670174D02*
X11100277Y-11660650D01*
X11100277Y-11660650D02*
X11128849Y-11660650D01*
X11128849Y-11660650D02*
X11147896Y-11670174D01*
X11147896Y-11670174D02*
X11157420Y-11679698D01*
X11157420Y-11679698D02*
X11166944Y-11698746D01*
X11166944Y-11698746D02*
X11166944Y-11755888D01*
X11166944Y-11755888D02*
X11157420Y-11774936D01*
X11157420Y-11774936D02*
X11147896Y-11784460D01*
X11147896Y-11784460D02*
X11128849Y-11793984D01*
X11128849Y-11793984D02*
X11100277Y-11793984D01*
X11224087Y-11660650D02*
X11300277Y-11660650D01*
X11252658Y-11593984D02*
X11252658Y-11765412D01*
X11252658Y-11765412D02*
X11262182Y-11784460D01*
X11262182Y-11784460D02*
X11281230Y-11793984D01*
X11281230Y-11793984D02*
X11300277Y-11793984D01*
X11519325Y-11660650D02*
X11519325Y-11860650D01*
X11519325Y-11670174D02*
X11538372Y-11660650D01*
X11538372Y-11660650D02*
X11576468Y-11660650D01*
X11576468Y-11660650D02*
X11595515Y-11670174D01*
X11595515Y-11670174D02*
X11605039Y-11679698D01*
X11605039Y-11679698D02*
X11614563Y-11698746D01*
X11614563Y-11698746D02*
X11614563Y-11755888D01*
X11614563Y-11755888D02*
X11605039Y-11774936D01*
X11605039Y-11774936D02*
X11595515Y-11784460D01*
X11595515Y-11784460D02*
X11576468Y-11793984D01*
X11576468Y-11793984D02*
X11538372Y-11793984D01*
X11538372Y-11793984D02*
X11519325Y-11784460D01*
X11728849Y-11793984D02*
X11709801Y-11784460D01*
X11709801Y-11784460D02*
X11700277Y-11765412D01*
X11700277Y-11765412D02*
X11700277Y-11593984D01*
X11890753Y-11793984D02*
X11890753Y-11689222D01*
X11890753Y-11689222D02*
X11881230Y-11670174D01*
X11881230Y-11670174D02*
X11862182Y-11660650D01*
X11862182Y-11660650D02*
X11824087Y-11660650D01*
X11824087Y-11660650D02*
X11805039Y-11670174D01*
X11890753Y-11784460D02*
X11871706Y-11793984D01*
X11871706Y-11793984D02*
X11824087Y-11793984D01*
X11824087Y-11793984D02*
X11805039Y-11784460D01*
X11805039Y-11784460D02*
X11795515Y-11765412D01*
X11795515Y-11765412D02*
X11795515Y-11746365D01*
X11795515Y-11746365D02*
X11805039Y-11727317D01*
X11805039Y-11727317D02*
X11824087Y-11717793D01*
X11824087Y-11717793D02*
X11871706Y-11717793D01*
X11871706Y-11717793D02*
X11890753Y-11708269D01*
X11957420Y-11660650D02*
X12033611Y-11660650D01*
X11985992Y-11593984D02*
X11985992Y-11765412D01*
X11985992Y-11765412D02*
X11995515Y-11784460D01*
X11995515Y-11784460D02*
X12014563Y-11793984D01*
X12014563Y-11793984D02*
X12033611Y-11793984D01*
X12176468Y-11784460D02*
X12157420Y-11793984D01*
X12157420Y-11793984D02*
X12119325Y-11793984D01*
X12119325Y-11793984D02*
X12100277Y-11784460D01*
X12100277Y-11784460D02*
X12090753Y-11765412D01*
X12090753Y-11765412D02*
X12090753Y-11689222D01*
X12090753Y-11689222D02*
X12100277Y-11670174D01*
X12100277Y-11670174D02*
X12119325Y-11660650D01*
X12119325Y-11660650D02*
X12157420Y-11660650D01*
X12157420Y-11660650D02*
X12176468Y-11670174D01*
X12176468Y-11670174D02*
X12185992Y-11689222D01*
X12185992Y-11689222D02*
X12185992Y-11708269D01*
X12185992Y-11708269D02*
X12090753Y-11727317D01*
X12357420Y-11793984D02*
X12357420Y-11593984D01*
X12357420Y-11784460D02*
X12338373Y-11793984D01*
X12338373Y-11793984D02*
X12300277Y-11793984D01*
X12300277Y-11793984D02*
X12281230Y-11784460D01*
X12281230Y-11784460D02*
X12271706Y-11774936D01*
X12271706Y-11774936D02*
X12262182Y-11755888D01*
X12262182Y-11755888D02*
X12262182Y-11698746D01*
X12262182Y-11698746D02*
X12271706Y-11679698D01*
X12271706Y-11679698D02*
X12281230Y-11670174D01*
X12281230Y-11670174D02*
X12300277Y-11660650D01*
X12300277Y-11660650D02*
X12338373Y-11660650D01*
X12338373Y-11660650D02*
X12357420Y-11670174D01*
X12433611Y-11870174D02*
X12443134Y-11860650D01*
X12443134Y-11860650D02*
X12462182Y-11832079D01*
X12462182Y-11832079D02*
X12471706Y-11813031D01*
X12471706Y-11813031D02*
X12481230Y-11784460D01*
X12481230Y-11784460D02*
X12490753Y-11736841D01*
X12490753Y-11736841D02*
X12490753Y-11698746D01*
X12490753Y-11698746D02*
X12481230Y-11651127D01*
X12481230Y-11651127D02*
X12471706Y-11622555D01*
X12471706Y-11622555D02*
X12462182Y-11603508D01*
X12462182Y-11603508D02*
X12443134Y-11574936D01*
X12443134Y-11574936D02*
X12433611Y-11565412D01*
D13*
X5839500Y-11966500D02*
G75*
G02*
X5699500Y-11966500I-70000J0D01*
G01*
X5699500Y-11966500D02*
G75*
G02*
X5839500Y-11966500I70000J0D01*
G01*
D11*
X6205039Y-12057984D02*
X6090753Y-12057984D01*
X6147896Y-12057984D02*
X6147896Y-11857984D01*
X6147896Y-11857984D02*
X6128848Y-11886555D01*
X6128848Y-11886555D02*
X6109801Y-11905603D01*
X6109801Y-11905603D02*
X6090753Y-11915127D01*
X6300277Y-12048460D02*
X6300277Y-12057984D01*
X6300277Y-12057984D02*
X6290753Y-12077031D01*
X6290753Y-12077031D02*
X6281229Y-12086555D01*
X6471705Y-11924650D02*
X6471705Y-12057984D01*
X6424086Y-11848460D02*
X6376467Y-11991317D01*
X6376467Y-11991317D02*
X6500277Y-11991317D01*
X6614562Y-11857984D02*
X6633610Y-11857984D01*
X6633610Y-11857984D02*
X6652658Y-11867508D01*
X6652658Y-11867508D02*
X6662182Y-11877031D01*
X6662182Y-11877031D02*
X6671705Y-11896079D01*
X6671705Y-11896079D02*
X6681229Y-11934174D01*
X6681229Y-11934174D02*
X6681229Y-11981793D01*
X6681229Y-11981793D02*
X6671705Y-12019888D01*
X6671705Y-12019888D02*
X6662182Y-12038936D01*
X6662182Y-12038936D02*
X6652658Y-12048460D01*
X6652658Y-12048460D02*
X6633610Y-12057984D01*
X6633610Y-12057984D02*
X6614562Y-12057984D01*
X6614562Y-12057984D02*
X6595515Y-12048460D01*
X6595515Y-12048460D02*
X6585991Y-12038936D01*
X6585991Y-12038936D02*
X6576467Y-12019888D01*
X6576467Y-12019888D02*
X6566943Y-11981793D01*
X6566943Y-11981793D02*
X6566943Y-11934174D01*
X6566943Y-11934174D02*
X6576467Y-11896079D01*
X6576467Y-11896079D02*
X6585991Y-11877031D01*
X6585991Y-11877031D02*
X6595515Y-11867508D01*
X6595515Y-11867508D02*
X6614562Y-11857984D01*
X6805039Y-11857984D02*
X6824086Y-11857984D01*
X6824086Y-11857984D02*
X6843134Y-11867508D01*
X6843134Y-11867508D02*
X6852658Y-11877031D01*
X6852658Y-11877031D02*
X6862182Y-11896079D01*
X6862182Y-11896079D02*
X6871705Y-11934174D01*
X6871705Y-11934174D02*
X6871705Y-11981793D01*
X6871705Y-11981793D02*
X6862182Y-12019888D01*
X6862182Y-12019888D02*
X6852658Y-12038936D01*
X6852658Y-12038936D02*
X6843134Y-12048460D01*
X6843134Y-12048460D02*
X6824086Y-12057984D01*
X6824086Y-12057984D02*
X6805039Y-12057984D01*
X6805039Y-12057984D02*
X6785991Y-12048460D01*
X6785991Y-12048460D02*
X6776467Y-12038936D01*
X6776467Y-12038936D02*
X6766943Y-12019888D01*
X6766943Y-12019888D02*
X6757420Y-11981793D01*
X6757420Y-11981793D02*
X6757420Y-11934174D01*
X6757420Y-11934174D02*
X6766943Y-11896079D01*
X6766943Y-11896079D02*
X6776467Y-11877031D01*
X6776467Y-11877031D02*
X6785991Y-11867508D01*
X6785991Y-11867508D02*
X6805039Y-11857984D01*
X6957420Y-12057984D02*
X6957420Y-11924650D01*
X6957420Y-11943698D02*
X6966943Y-11934174D01*
X6966943Y-11934174D02*
X6985991Y-11924650D01*
X6985991Y-11924650D02*
X7014563Y-11924650D01*
X7014563Y-11924650D02*
X7033610Y-11934174D01*
X7033610Y-11934174D02*
X7043134Y-11953222D01*
X7043134Y-11953222D02*
X7043134Y-12057984D01*
X7043134Y-11953222D02*
X7052658Y-11934174D01*
X7052658Y-11934174D02*
X7071705Y-11924650D01*
X7071705Y-11924650D02*
X7100277Y-11924650D01*
X7100277Y-11924650D02*
X7119324Y-11934174D01*
X7119324Y-11934174D02*
X7128848Y-11953222D01*
X7128848Y-11953222D02*
X7128848Y-12057984D01*
X7224086Y-12057984D02*
X7224086Y-11924650D01*
X7224086Y-11943698D02*
X7233610Y-11934174D01*
X7233610Y-11934174D02*
X7252658Y-11924650D01*
X7252658Y-11924650D02*
X7281229Y-11924650D01*
X7281229Y-11924650D02*
X7300277Y-11934174D01*
X7300277Y-11934174D02*
X7309801Y-11953222D01*
X7309801Y-11953222D02*
X7309801Y-12057984D01*
X7309801Y-11953222D02*
X7319324Y-11934174D01*
X7319324Y-11934174D02*
X7338372Y-11924650D01*
X7338372Y-11924650D02*
X7366943Y-11924650D01*
X7366943Y-11924650D02*
X7385991Y-11934174D01*
X7385991Y-11934174D02*
X7395515Y-11953222D01*
X7395515Y-11953222D02*
X7395515Y-12057984D01*
X7785991Y-11848460D02*
X7614563Y-12105603D01*
X8043134Y-11857984D02*
X8062182Y-11857984D01*
X8062182Y-11857984D02*
X8081229Y-11867508D01*
X8081229Y-11867508D02*
X8090753Y-11877031D01*
X8090753Y-11877031D02*
X8100277Y-11896079D01*
X8100277Y-11896079D02*
X8109801Y-11934174D01*
X8109801Y-11934174D02*
X8109801Y-11981793D01*
X8109801Y-11981793D02*
X8100277Y-12019888D01*
X8100277Y-12019888D02*
X8090753Y-12038936D01*
X8090753Y-12038936D02*
X8081229Y-12048460D01*
X8081229Y-12048460D02*
X8062182Y-12057984D01*
X8062182Y-12057984D02*
X8043134Y-12057984D01*
X8043134Y-12057984D02*
X8024086Y-12048460D01*
X8024086Y-12048460D02*
X8014563Y-12038936D01*
X8014563Y-12038936D02*
X8005039Y-12019888D01*
X8005039Y-12019888D02*
X7995515Y-11981793D01*
X7995515Y-11981793D02*
X7995515Y-11934174D01*
X7995515Y-11934174D02*
X8005039Y-11896079D01*
X8005039Y-11896079D02*
X8014563Y-11877031D01*
X8014563Y-11877031D02*
X8024086Y-11867508D01*
X8024086Y-11867508D02*
X8043134Y-11857984D01*
X8205039Y-12048460D02*
X8205039Y-12057984D01*
X8205039Y-12057984D02*
X8195515Y-12077031D01*
X8195515Y-12077031D02*
X8185991Y-12086555D01*
X8328848Y-11857984D02*
X8347896Y-11857984D01*
X8347896Y-11857984D02*
X8366944Y-11867508D01*
X8366944Y-11867508D02*
X8376467Y-11877031D01*
X8376467Y-11877031D02*
X8385991Y-11896079D01*
X8385991Y-11896079D02*
X8395515Y-11934174D01*
X8395515Y-11934174D02*
X8395515Y-11981793D01*
X8395515Y-11981793D02*
X8385991Y-12019888D01*
X8385991Y-12019888D02*
X8376467Y-12038936D01*
X8376467Y-12038936D02*
X8366944Y-12048460D01*
X8366944Y-12048460D02*
X8347896Y-12057984D01*
X8347896Y-12057984D02*
X8328848Y-12057984D01*
X8328848Y-12057984D02*
X8309801Y-12048460D01*
X8309801Y-12048460D02*
X8300277Y-12038936D01*
X8300277Y-12038936D02*
X8290753Y-12019888D01*
X8290753Y-12019888D02*
X8281229Y-11981793D01*
X8281229Y-11981793D02*
X8281229Y-11934174D01*
X8281229Y-11934174D02*
X8290753Y-11896079D01*
X8290753Y-11896079D02*
X8300277Y-11877031D01*
X8300277Y-11877031D02*
X8309801Y-11867508D01*
X8309801Y-11867508D02*
X8328848Y-11857984D01*
X8576468Y-11857984D02*
X8481229Y-11857984D01*
X8481229Y-11857984D02*
X8471706Y-11953222D01*
X8471706Y-11953222D02*
X8481229Y-11943698D01*
X8481229Y-11943698D02*
X8500277Y-11934174D01*
X8500277Y-11934174D02*
X8547896Y-11934174D01*
X8547896Y-11934174D02*
X8566944Y-11943698D01*
X8566944Y-11943698D02*
X8576468Y-11953222D01*
X8576468Y-11953222D02*
X8585991Y-11972269D01*
X8585991Y-11972269D02*
X8585991Y-12019888D01*
X8585991Y-12019888D02*
X8576468Y-12038936D01*
X8576468Y-12038936D02*
X8566944Y-12048460D01*
X8566944Y-12048460D02*
X8547896Y-12057984D01*
X8547896Y-12057984D02*
X8500277Y-12057984D01*
X8500277Y-12057984D02*
X8481229Y-12048460D01*
X8481229Y-12048460D02*
X8471706Y-12038936D01*
X8766944Y-11857984D02*
X8671706Y-11857984D01*
X8671706Y-11857984D02*
X8662182Y-11953222D01*
X8662182Y-11953222D02*
X8671706Y-11943698D01*
X8671706Y-11943698D02*
X8690753Y-11934174D01*
X8690753Y-11934174D02*
X8738372Y-11934174D01*
X8738372Y-11934174D02*
X8757420Y-11943698D01*
X8757420Y-11943698D02*
X8766944Y-11953222D01*
X8766944Y-11953222D02*
X8776468Y-11972269D01*
X8776468Y-11972269D02*
X8776468Y-12019888D01*
X8776468Y-12019888D02*
X8766944Y-12038936D01*
X8766944Y-12038936D02*
X8757420Y-12048460D01*
X8757420Y-12048460D02*
X8738372Y-12057984D01*
X8738372Y-12057984D02*
X8690753Y-12057984D01*
X8690753Y-12057984D02*
X8671706Y-12048460D01*
X8671706Y-12048460D02*
X8662182Y-12038936D01*
X8966944Y-12057984D02*
X8852658Y-12057984D01*
X8909801Y-12057984D02*
X8909801Y-11857984D01*
X8909801Y-11857984D02*
X8890753Y-11886555D01*
X8890753Y-11886555D02*
X8871706Y-11905603D01*
X8871706Y-11905603D02*
X8852658Y-11915127D01*
X9043134Y-11857984D02*
X9043134Y-11896079D01*
X9119325Y-11857984D02*
X9119325Y-11896079D01*
X9414563Y-12134174D02*
X9405039Y-12124650D01*
X9405039Y-12124650D02*
X9385991Y-12096079D01*
X9385991Y-12096079D02*
X9376468Y-12077031D01*
X9376468Y-12077031D02*
X9366944Y-12048460D01*
X9366944Y-12048460D02*
X9357420Y-12000841D01*
X9357420Y-12000841D02*
X9357420Y-11962746D01*
X9357420Y-11962746D02*
X9366944Y-11915127D01*
X9366944Y-11915127D02*
X9376468Y-11886555D01*
X9376468Y-11886555D02*
X9385991Y-11867508D01*
X9385991Y-11867508D02*
X9405039Y-11838936D01*
X9405039Y-11838936D02*
X9414563Y-11829412D01*
X9595515Y-12057984D02*
X9481230Y-12057984D01*
X9538372Y-12057984D02*
X9538372Y-11857984D01*
X9538372Y-11857984D02*
X9519325Y-11886555D01*
X9519325Y-11886555D02*
X9500277Y-11905603D01*
X9500277Y-11905603D02*
X9481230Y-11915127D01*
X9833611Y-12057984D02*
X9833611Y-11857984D01*
X9919325Y-12057984D02*
X9919325Y-11953222D01*
X9919325Y-11953222D02*
X9909801Y-11934174D01*
X9909801Y-11934174D02*
X9890753Y-11924650D01*
X9890753Y-11924650D02*
X9862182Y-11924650D01*
X9862182Y-11924650D02*
X9843134Y-11934174D01*
X9843134Y-11934174D02*
X9833611Y-11943698D01*
X10043134Y-12057984D02*
X10024087Y-12048460D01*
X10024087Y-12048460D02*
X10014563Y-12038936D01*
X10014563Y-12038936D02*
X10005039Y-12019888D01*
X10005039Y-12019888D02*
X10005039Y-11962746D01*
X10005039Y-11962746D02*
X10014563Y-11943698D01*
X10014563Y-11943698D02*
X10024087Y-11934174D01*
X10024087Y-11934174D02*
X10043134Y-11924650D01*
X10043134Y-11924650D02*
X10071706Y-11924650D01*
X10071706Y-11924650D02*
X10090753Y-11934174D01*
X10090753Y-11934174D02*
X10100277Y-11943698D01*
X10100277Y-11943698D02*
X10109801Y-11962746D01*
X10109801Y-11962746D02*
X10109801Y-12019888D01*
X10109801Y-12019888D02*
X10100277Y-12038936D01*
X10100277Y-12038936D02*
X10090753Y-12048460D01*
X10090753Y-12048460D02*
X10071706Y-12057984D01*
X10071706Y-12057984D02*
X10043134Y-12057984D01*
X10224087Y-12057984D02*
X10205039Y-12048460D01*
X10205039Y-12048460D02*
X10195515Y-12029412D01*
X10195515Y-12029412D02*
X10195515Y-11857984D01*
X10376468Y-12048460D02*
X10357420Y-12057984D01*
X10357420Y-12057984D02*
X10319325Y-12057984D01*
X10319325Y-12057984D02*
X10300277Y-12048460D01*
X10300277Y-12048460D02*
X10290753Y-12029412D01*
X10290753Y-12029412D02*
X10290753Y-11953222D01*
X10290753Y-11953222D02*
X10300277Y-11934174D01*
X10300277Y-11934174D02*
X10319325Y-11924650D01*
X10319325Y-11924650D02*
X10357420Y-11924650D01*
X10357420Y-11924650D02*
X10376468Y-11934174D01*
X10376468Y-11934174D02*
X10385992Y-11953222D01*
X10385992Y-11953222D02*
X10385992Y-11972269D01*
X10385992Y-11972269D02*
X10290753Y-11991317D01*
X10452658Y-12134174D02*
X10462182Y-12124650D01*
X10462182Y-12124650D02*
X10481230Y-12096079D01*
X10481230Y-12096079D02*
X10490753Y-12077031D01*
X10490753Y-12077031D02*
X10500277Y-12048460D01*
X10500277Y-12048460D02*
X10509801Y-12000841D01*
X10509801Y-12000841D02*
X10509801Y-11962746D01*
X10509801Y-11962746D02*
X10500277Y-11915127D01*
X10500277Y-11915127D02*
X10490753Y-11886555D01*
X10490753Y-11886555D02*
X10481230Y-11867508D01*
X10481230Y-11867508D02*
X10462182Y-11838936D01*
X10462182Y-11838936D02*
X10452658Y-11829412D01*
X10814563Y-12134174D02*
X10805039Y-12124650D01*
X10805039Y-12124650D02*
X10785992Y-12096079D01*
X10785992Y-12096079D02*
X10776468Y-12077031D01*
X10776468Y-12077031D02*
X10766944Y-12048460D01*
X10766944Y-12048460D02*
X10757420Y-12000841D01*
X10757420Y-12000841D02*
X10757420Y-11962746D01*
X10757420Y-11962746D02*
X10766944Y-11915127D01*
X10766944Y-11915127D02*
X10776468Y-11886555D01*
X10776468Y-11886555D02*
X10785992Y-11867508D01*
X10785992Y-11867508D02*
X10805039Y-11838936D01*
X10805039Y-11838936D02*
X10814563Y-11829412D01*
X10890753Y-11924650D02*
X10890753Y-12057984D01*
X10890753Y-11943698D02*
X10900277Y-11934174D01*
X10900277Y-11934174D02*
X10919325Y-11924650D01*
X10919325Y-11924650D02*
X10947896Y-11924650D01*
X10947896Y-11924650D02*
X10966944Y-11934174D01*
X10966944Y-11934174D02*
X10976468Y-11953222D01*
X10976468Y-11953222D02*
X10976468Y-12057984D01*
X11100277Y-12057984D02*
X11081230Y-12048460D01*
X11081230Y-12048460D02*
X11071706Y-12038936D01*
X11071706Y-12038936D02*
X11062182Y-12019888D01*
X11062182Y-12019888D02*
X11062182Y-11962746D01*
X11062182Y-11962746D02*
X11071706Y-11943698D01*
X11071706Y-11943698D02*
X11081230Y-11934174D01*
X11081230Y-11934174D02*
X11100277Y-11924650D01*
X11100277Y-11924650D02*
X11128849Y-11924650D01*
X11128849Y-11924650D02*
X11147896Y-11934174D01*
X11147896Y-11934174D02*
X11157420Y-11943698D01*
X11157420Y-11943698D02*
X11166944Y-11962746D01*
X11166944Y-11962746D02*
X11166944Y-12019888D01*
X11166944Y-12019888D02*
X11157420Y-12038936D01*
X11157420Y-12038936D02*
X11147896Y-12048460D01*
X11147896Y-12048460D02*
X11128849Y-12057984D01*
X11128849Y-12057984D02*
X11100277Y-12057984D01*
X11224087Y-11924650D02*
X11300277Y-11924650D01*
X11252658Y-11857984D02*
X11252658Y-12029412D01*
X11252658Y-12029412D02*
X11262182Y-12048460D01*
X11262182Y-12048460D02*
X11281230Y-12057984D01*
X11281230Y-12057984D02*
X11300277Y-12057984D01*
X11519325Y-11924650D02*
X11519325Y-12124650D01*
X11519325Y-11934174D02*
X11538372Y-11924650D01*
X11538372Y-11924650D02*
X11576468Y-11924650D01*
X11576468Y-11924650D02*
X11595515Y-11934174D01*
X11595515Y-11934174D02*
X11605039Y-11943698D01*
X11605039Y-11943698D02*
X11614563Y-11962746D01*
X11614563Y-11962746D02*
X11614563Y-12019888D01*
X11614563Y-12019888D02*
X11605039Y-12038936D01*
X11605039Y-12038936D02*
X11595515Y-12048460D01*
X11595515Y-12048460D02*
X11576468Y-12057984D01*
X11576468Y-12057984D02*
X11538372Y-12057984D01*
X11538372Y-12057984D02*
X11519325Y-12048460D01*
X11728849Y-12057984D02*
X11709801Y-12048460D01*
X11709801Y-12048460D02*
X11700277Y-12029412D01*
X11700277Y-12029412D02*
X11700277Y-11857984D01*
X11890753Y-12057984D02*
X11890753Y-11953222D01*
X11890753Y-11953222D02*
X11881230Y-11934174D01*
X11881230Y-11934174D02*
X11862182Y-11924650D01*
X11862182Y-11924650D02*
X11824087Y-11924650D01*
X11824087Y-11924650D02*
X11805039Y-11934174D01*
X11890753Y-12048460D02*
X11871706Y-12057984D01*
X11871706Y-12057984D02*
X11824087Y-12057984D01*
X11824087Y-12057984D02*
X11805039Y-12048460D01*
X11805039Y-12048460D02*
X11795515Y-12029412D01*
X11795515Y-12029412D02*
X11795515Y-12010365D01*
X11795515Y-12010365D02*
X11805039Y-11991317D01*
X11805039Y-11991317D02*
X11824087Y-11981793D01*
X11824087Y-11981793D02*
X11871706Y-11981793D01*
X11871706Y-11981793D02*
X11890753Y-11972269D01*
X11957420Y-11924650D02*
X12033611Y-11924650D01*
X11985992Y-11857984D02*
X11985992Y-12029412D01*
X11985992Y-12029412D02*
X11995515Y-12048460D01*
X11995515Y-12048460D02*
X12014563Y-12057984D01*
X12014563Y-12057984D02*
X12033611Y-12057984D01*
X12176468Y-12048460D02*
X12157420Y-12057984D01*
X12157420Y-12057984D02*
X12119325Y-12057984D01*
X12119325Y-12057984D02*
X12100277Y-12048460D01*
X12100277Y-12048460D02*
X12090753Y-12029412D01*
X12090753Y-12029412D02*
X12090753Y-11953222D01*
X12090753Y-11953222D02*
X12100277Y-11934174D01*
X12100277Y-11934174D02*
X12119325Y-11924650D01*
X12119325Y-11924650D02*
X12157420Y-11924650D01*
X12157420Y-11924650D02*
X12176468Y-11934174D01*
X12176468Y-11934174D02*
X12185992Y-11953222D01*
X12185992Y-11953222D02*
X12185992Y-11972269D01*
X12185992Y-11972269D02*
X12090753Y-11991317D01*
X12357420Y-12057984D02*
X12357420Y-11857984D01*
X12357420Y-12048460D02*
X12338373Y-12057984D01*
X12338373Y-12057984D02*
X12300277Y-12057984D01*
X12300277Y-12057984D02*
X12281230Y-12048460D01*
X12281230Y-12048460D02*
X12271706Y-12038936D01*
X12271706Y-12038936D02*
X12262182Y-12019888D01*
X12262182Y-12019888D02*
X12262182Y-11962746D01*
X12262182Y-11962746D02*
X12271706Y-11943698D01*
X12271706Y-11943698D02*
X12281230Y-11934174D01*
X12281230Y-11934174D02*
X12300277Y-11924650D01*
X12300277Y-11924650D02*
X12338373Y-11924650D01*
X12338373Y-11924650D02*
X12357420Y-11934174D01*
X12433611Y-12134174D02*
X12443134Y-12124650D01*
X12443134Y-12124650D02*
X12462182Y-12096079D01*
X12462182Y-12096079D02*
X12471706Y-12077031D01*
X12471706Y-12077031D02*
X12481230Y-12048460D01*
X12481230Y-12048460D02*
X12490753Y-12000841D01*
X12490753Y-12000841D02*
X12490753Y-11962746D01*
X12490753Y-11962746D02*
X12481230Y-11915127D01*
X12481230Y-11915127D02*
X12471706Y-11886555D01*
X12471706Y-11886555D02*
X12462182Y-11867508D01*
X12462182Y-11867508D02*
X12443134Y-11838936D01*
X12443134Y-11838936D02*
X12433611Y-11829412D01*
M02*
