%TF.GenerationSoftware,KiCad,Pcbnew,10.0.6*%
%TF.CreationDate,2026-09-24T14:23:25+03:00*%
%TF.ProjectId,VFD_IV6,5646445f-4956-4362-9e6b-696361645f70,rev?*%
%TF.SameCoordinates,Original*%
%TF.FileFunction,Soldermask,Top*%
%TF.FilePolarity,Negative*%
%FSLAX46Y46*%
G04 Gerber Fmt 4.6, Leading zero omitted, Abs format (unit mm)*
G04 Created by KiCad (PCBNEW 10.0.6) date 2026-09-24 14:23:25*
%MOMM*%
%LPD*%
G01*
G04 APERTURE LIST*
G04 Aperture macros list*
%AMRoundRect*
0 Rectangle with rounded corners*
0 $1 Rounding radius*
0 $2 $3 $4 $5 $6 $7 $8 $9 X,Y pos of 4 corners*
0 Add a 4 corners polygon primitive as box body*
4,1,4,$2,$3,$4,$5,$6,$7,$8,$9,$2,$3,0*
0 Add four circle primitives for the rounded corners*
1,1,$1+$1,$2,$3*
1,1,$1+$1,$4,$5*
1,1,$1+$1,$6,$7*
1,1,$1+$1,$8,$9*
0 Add four rect primitives between the rounded corners*
20,1,$1+$1,$2,$3,$4,$5,0*
20,1,$1+$1,$4,$5,$6,$7,0*
20,1,$1+$1,$6,$7,$8,$9,0*
20,1,$1+$1,$8,$9,$2,$3,0*%
G04 Aperture macros list end*
%ADD10C,0.200000*%
%ADD11C,1.400000*%
%ADD12RoundRect,0.250000X-0.475000X0.250000X-0.475000X-0.250000X0.475000X-0.250000X0.475000X0.250000X0*%
%ADD13R,1.000000X1.000000*%
%ADD14RoundRect,0.225000X-0.225000X-0.375000X0.225000X-0.375000X0.225000X0.375000X-0.225000X0.375000X0*%
%ADD15RoundRect,0.200000X0.200000X0.275000X-0.200000X0.275000X-0.200000X-0.275000X0.200000X-0.275000X0*%
%ADD16RoundRect,0.250000X0.250000X0.475000X-0.250000X0.475000X-0.250000X-0.475000X0.250000X-0.475000X0*%
%ADD17RoundRect,0.200000X-0.275000X0.200000X-0.275000X-0.200000X0.275000X-0.200000X0.275000X0.200000X0*%
%ADD18RoundRect,0.218750X0.256250X-0.218750X0.256250X0.218750X-0.256250X0.218750X-0.256250X-0.218750X0*%
%ADD19RoundRect,0.250000X0.325000X1.100000X-0.325000X1.100000X-0.325000X-1.100000X0.325000X-1.100000X0*%
%ADD20RoundRect,0.250000X0.475000X-0.250000X0.475000X0.250000X-0.475000X0.250000X-0.475000X-0.250000X0*%
%ADD21RoundRect,0.225000X0.250000X-0.225000X0.250000X0.225000X-0.250000X0.225000X-0.250000X-0.225000X0*%
%ADD22RoundRect,0.200000X-0.200000X-0.275000X0.200000X-0.275000X0.200000X0.275000X-0.200000X0.275000X0*%
%ADD23RoundRect,0.225000X-0.225000X-0.250000X0.225000X-0.250000X0.225000X0.250000X-0.225000X0.250000X0*%
%ADD24C,4.700000*%
%ADD25RoundRect,0.250000X1.500000X-0.925000X1.500000X0.925000X-1.500000X0.925000X-1.500000X-0.925000X0*%
%ADD26RoundRect,0.150000X0.150000X-0.825000X0.150000X0.825000X-0.150000X0.825000X-0.150000X-0.825000X0*%
%ADD27RoundRect,0.250000X-0.250000X-0.475000X0.250000X-0.475000X0.250000X0.475000X-0.250000X0.475000X0*%
%ADD28RoundRect,0.150000X0.150000X-0.512500X0.150000X0.512500X-0.150000X0.512500X-0.150000X-0.512500X0*%
%ADD29RoundRect,0.150000X-0.150000X0.512500X-0.150000X-0.512500X0.150000X-0.512500X0.150000X0.512500X0*%
%ADD30R,2.000000X2.000000*%
%ADD31C,2.000000*%
%ADD32R,2.500000X3.000000*%
%ADD33RoundRect,0.250000X-0.925000X-1.500000X0.925000X-1.500000X0.925000X1.500000X-0.925000X1.500000X0*%
%ADD34RoundRect,0.255000X-0.595000X0.870000X-0.595000X-0.870000X0.595000X-0.870000X0.595000X0.870000X0*%
%ADD35RoundRect,0.175000X0.625000X-0.175000X0.625000X0.175000X-0.625000X0.175000X-0.625000X-0.175000X0*%
%ADD36RoundRect,0.200000X0.600000X-0.200000X0.600000X0.200000X-0.600000X0.200000X-0.600000X-0.200000X0*%
%ADD37RoundRect,0.225000X0.575000X-0.225000X0.575000X0.225000X-0.575000X0.225000X-0.575000X-0.225000X0*%
%ADD38O,1.700000X1.000000*%
%ADD39RoundRect,0.200000X0.275000X-0.200000X0.275000X0.200000X-0.275000X0.200000X-0.275000X-0.200000X0*%
%ADD40RoundRect,0.225000X-0.250000X0.225000X-0.250000X-0.225000X0.250000X-0.225000X0.250000X0.225000X0*%
%ADD41R,1.700000X1.700000*%
%ADD42C,1.700000*%
%ADD43C,1.200000*%
G04 APERTURE END LIST*
D10*
X147701000Y-98704400D02*
X147701000Y-98704400D01*
G75*
G02*
X147853400Y-98552000I152400J0D01*
G01*
X152120600Y-98552000D01*
G75*
G02*
X152273000Y-98704400I0J-152400D01*
G01*
X152273000Y-100304600D01*
G75*
G02*
X152120600Y-100457000I-152400J0D01*
G01*
X147853400Y-100457000D01*
G75*
G02*
X147701000Y-100304600I0J152400D01*
G01*
X147701000Y-98704400D01*
G36*
X147701000Y-98704400D02*
G01*
X147701000Y-98704400D01*
G75*
G02*
X147853400Y-98552000I152400J0D01*
G01*
X152120600Y-98552000D01*
G75*
G02*
X152273000Y-98704400I0J-152400D01*
G01*
X152273000Y-100304600D01*
G75*
G02*
X152120600Y-100457000I-152400J0D01*
G01*
X147853400Y-100457000D01*
G75*
G02*
X147701000Y-100304600I0J152400D01*
G01*
X147701000Y-98704400D01*
G37*
D11*
%TO.C,VFD1*%
X76271000Y-100211500D03*
X74271000Y-100211500D03*
X72271000Y-100211500D03*
X70271000Y-100211500D03*
X68271000Y-100211500D03*
X66271000Y-100211500D03*
X66271000Y-102461500D03*
X68271000Y-102461500D03*
X70271000Y-102461500D03*
X72271000Y-102461500D03*
X74271000Y-102461500D03*
X76271000Y-102461500D03*
%TD*%
D12*
%TO.C,C7*%
X133604000Y-83581200D03*
X133604000Y-85481200D03*
%TD*%
%TO.C,C5*%
X105791000Y-83759000D03*
X105791000Y-85659000D03*
%TD*%
D13*
%TO.C,TP2*%
X159410400Y-91541600D03*
%TD*%
D14*
%TO.C,D5*%
X150876000Y-61087000D03*
X154176000Y-61087000D03*
%TD*%
D15*
%TO.C,R75*%
X149288000Y-66398000D03*
X147638000Y-66398000D03*
%TD*%
D16*
%TO.C,C28*%
X153223000Y-69319000D03*
X151323000Y-69319000D03*
%TD*%
D17*
%TO.C,R57*%
X91821000Y-71629000D03*
X91821000Y-73279000D03*
%TD*%
D18*
%TO.C,D2*%
X119634000Y-76225500D03*
X119634000Y-74650500D03*
%TD*%
D17*
%TO.C,R69*%
X149557000Y-93409000D03*
X149557000Y-95059000D03*
%TD*%
D19*
%TO.C,C26*%
X156874000Y-99568000D03*
X153924000Y-99568000D03*
%TD*%
D15*
%TO.C,R74*%
X149301000Y-63350000D03*
X147651000Y-63350000D03*
%TD*%
D20*
%TO.C,C6*%
X119532400Y-82280800D03*
X119532400Y-80380800D03*
%TD*%
D21*
%TO.C,C21*%
X148033000Y-95009000D03*
X148033000Y-93459000D03*
%TD*%
D22*
%TO.C,R72*%
X153177000Y-96520000D03*
X154827000Y-96520000D03*
%TD*%
D11*
%TO.C,VFD6*%
X145112000Y-100172000D03*
X143112000Y-100172000D03*
X141112000Y-100172000D03*
X139112000Y-100172000D03*
X137112000Y-100172000D03*
X135112000Y-100172000D03*
X135112000Y-102422000D03*
X137112000Y-102422000D03*
X139112000Y-102422000D03*
X141112000Y-102422000D03*
X143112000Y-102422000D03*
X145112000Y-102422000D03*
%TD*%
D21*
%TO.C,C18*%
X151384000Y-81674000D03*
X151384000Y-80124000D03*
%TD*%
D17*
%TO.C,R58*%
X91821000Y-83694000D03*
X91821000Y-85344000D03*
%TD*%
D23*
%TO.C,C27*%
X147701000Y-64874000D03*
X149251000Y-64874000D03*
%TD*%
D17*
%TO.C,R67*%
X159004000Y-95441000D03*
X159004000Y-97091000D03*
%TD*%
D24*
%TO.C,H1*%
X62100000Y-106800000D03*
%TD*%
D18*
%TO.C,D3*%
X91821000Y-76225500D03*
X91821000Y-74650500D03*
%TD*%
D25*
%TO.C,L2*%
X157861000Y-69296000D03*
X157861000Y-63246000D03*
%TD*%
D11*
%TO.C,VFD2*%
X89455000Y-100211500D03*
X87455000Y-100211500D03*
X85455000Y-100211500D03*
X83455000Y-100211500D03*
X81455000Y-100211500D03*
X79455000Y-100211500D03*
X79455000Y-102461500D03*
X81455000Y-102461500D03*
X83455000Y-102461500D03*
X85455000Y-102461500D03*
X87455000Y-102461500D03*
X89455000Y-102461500D03*
%TD*%
D24*
%TO.C,H2*%
X62100000Y-60200000D03*
%TD*%
D26*
%TO.C,U18*%
X148033000Y-101981000D03*
X149303000Y-101981000D03*
X150573000Y-101981000D03*
X151843000Y-101981000D03*
X151843000Y-97031000D03*
X150573000Y-97031000D03*
X149303000Y-97031000D03*
X148033000Y-97031000D03*
%TD*%
D22*
%TO.C,R71*%
X152591000Y-94869000D03*
X154241000Y-94869000D03*
%TD*%
D27*
%TO.C,C20*%
X149418000Y-88011000D03*
X151318000Y-88011000D03*
%TD*%
D28*
%TO.C,U16*%
X149418000Y-85719500D03*
X150368000Y-85719500D03*
X151318000Y-85719500D03*
X151318000Y-83444500D03*
X149418000Y-83444500D03*
%TD*%
D27*
%TO.C,C24*%
X149623000Y-106364000D03*
X151523000Y-106364000D03*
%TD*%
D11*
%TO.C,VFD3*%
X104163000Y-100172000D03*
X102163000Y-100172000D03*
X100163000Y-100172000D03*
X98163000Y-100172000D03*
X96163000Y-100172000D03*
X94163000Y-100172000D03*
X94163000Y-102422000D03*
X96163000Y-102422000D03*
X98163000Y-102422000D03*
X100163000Y-102422000D03*
X102163000Y-102422000D03*
X104163000Y-102422000D03*
%TD*%
D23*
%TO.C,C22*%
X153227000Y-93345000D03*
X154777000Y-93345000D03*
%TD*%
D17*
%TO.C,R56*%
X119634000Y-71565000D03*
X119634000Y-73215000D03*
%TD*%
%TO.C,R68*%
X160528000Y-95441000D03*
X160528000Y-97091000D03*
%TD*%
D18*
%TO.C,D1*%
X119634000Y-88265000D03*
X119634000Y-86690000D03*
%TD*%
D12*
%TO.C,C3*%
X77978000Y-83632000D03*
X77978000Y-85532000D03*
%TD*%
D18*
%TO.C,D4*%
X91821000Y-88290500D03*
X91821000Y-86715500D03*
%TD*%
D19*
%TO.C,C29*%
X149176000Y-60937000D03*
X146226000Y-60937000D03*
%TD*%
D20*
%TO.C,C19*%
X149352000Y-81595000D03*
X149352000Y-79695000D03*
%TD*%
D29*
%TO.C,U19*%
X153223000Y-63482500D03*
X152273000Y-63482500D03*
X151323000Y-63482500D03*
X151323000Y-65757500D03*
X153223000Y-65757500D03*
%TD*%
D13*
%TO.C,TP3*%
X145440400Y-107442000D03*
%TD*%
D30*
%TO.C,SW1*%
X162647000Y-73014000D03*
D31*
X157647000Y-73014000D03*
X160147000Y-73014000D03*
D32*
X165747000Y-80514000D03*
X154547000Y-80514000D03*
D31*
X162647000Y-87514000D03*
X157647000Y-87514000D03*
%TD*%
D15*
%TO.C,R73*%
X153098000Y-67541000D03*
X151448000Y-67541000D03*
%TD*%
D27*
%TO.C,C23*%
X149623000Y-104332000D03*
X151523000Y-104332000D03*
%TD*%
D11*
%TO.C,VFD5*%
X131928000Y-100172000D03*
X129928000Y-100172000D03*
X127928000Y-100172000D03*
X125928000Y-100172000D03*
X123928000Y-100172000D03*
X121928000Y-100172000D03*
X121928000Y-102422000D03*
X123928000Y-102422000D03*
X125928000Y-102422000D03*
X127928000Y-102422000D03*
X129928000Y-102422000D03*
X131928000Y-102422000D03*
%TD*%
D13*
%TO.C,TP4*%
X135128000Y-107442000D03*
%TD*%
D33*
%TO.C,L1*%
X153898000Y-105348000D03*
X159948000Y-105348000D03*
%TD*%
D17*
%TO.C,R55*%
X119634000Y-83694000D03*
X119634000Y-85344000D03*
%TD*%
D13*
%TO.C,TP4*%
X142392400Y-107492800D03*
%TD*%
D34*
%TO.C,BZ1*%
X147833000Y-72857000D03*
X147833000Y-77157000D03*
X151433000Y-72857000D03*
%TD*%
D24*
%TO.C,H4*%
X164900000Y-106800000D03*
%TD*%
D20*
%TO.C,C4*%
X91694000Y-82230000D03*
X91694000Y-80330000D03*
%TD*%
D24*
%TO.C,H3*%
X164900000Y-60200000D03*
%TD*%
D11*
%TO.C,VFD4*%
X117347000Y-100172000D03*
X115347000Y-100172000D03*
X113347000Y-100172000D03*
X111347000Y-100172000D03*
X109347000Y-100172000D03*
X107347000Y-100172000D03*
X107347000Y-102422000D03*
X109347000Y-102422000D03*
X111347000Y-102422000D03*
X113347000Y-102422000D03*
X115347000Y-102422000D03*
X117347000Y-102422000D03*
%TD*%
D35*
%TO.C,J2*%
X162718000Y-94924000D03*
D36*
X162718000Y-92904000D03*
D37*
X162718000Y-91674000D03*
D35*
X162718000Y-93924000D03*
D36*
X162718000Y-95944000D03*
D37*
X162718000Y-97174000D03*
D38*
X162898000Y-98744000D03*
X166698000Y-98744000D03*
X162898000Y-90104000D03*
X166698000Y-90104000D03*
%TD*%
D39*
%TO.C,R70*%
X151081000Y-95059000D03*
X151081000Y-93409000D03*
%TD*%
D40*
%TO.C,C25*%
X148033000Y-104065000D03*
X148033000Y-105615000D03*
%TD*%
D41*
%TO.C,J1*%
X99060000Y-58420000D03*
D42*
X96520000Y-58420000D03*
X93980000Y-58420000D03*
X91440000Y-58420000D03*
%TD*%
D41*
%TO.C,J4*%
X68580000Y-58420000D03*
D42*
X71120000Y-58420000D03*
X73660000Y-58420000D03*
X76200000Y-58420000D03*
X78740000Y-58420000D03*
X81280000Y-58420000D03*
X83820000Y-58420000D03*
X86360000Y-58420000D03*
%TD*%
D43*
%TO.C,BT1*%
X127679000Y-68072000D03*
D11*
X120179000Y-68072000D03*
%TD*%
D41*
%TO.C,J3*%
X104140000Y-58420000D03*
D42*
X106680000Y-58420000D03*
X109220000Y-58420000D03*
X111760000Y-58420000D03*
X114300000Y-58420000D03*
X116840000Y-58420000D03*
X119380000Y-58420000D03*
X121920000Y-58420000D03*
X124460000Y-58420000D03*
X127000000Y-58420000D03*
%TD*%
M02*
