%TF.GenerationSoftware,KiCad,Pcbnew,10.0.6*%
%TF.CreationDate,2026-09-24T16:20:29+03:00*%
%TF.ProjectId,VFD_IV6,5646445f-4956-4362-9e6b-696361645f70,rev?*%
%TF.SameCoordinates,Original*%
%TF.FileFunction,Copper,L4,Bot*%
%TF.FilePolarity,Positive*%
%FSLAX46Y46*%
G04 Gerber Fmt 4.6, Leading zero omitted, Abs format (unit mm)*
G04 Created by KiCad (PCBNEW 10.0.6) date 2026-09-24 16:20:29*
%MOMM*%
%LPD*%
G01*
G04 APERTURE LIST*
G04 Aperture macros list*
%AMRoundRect*
0 Rectangle with rounded corners*
0 $1 Rounding radius*
0 $2 $3 $4 $5 $6 $7 $8 $9 X,Y pos of 4 corners*
0 Add a 4 corners polygon primitive as box body*
4,1,4,$2,$3,$4,$5,$6,$7,$8,$9,$2,$3,0*
0 Add four circle primitives for the rounded corners*
1,1,$1+$1,$2,$3*
1,1,$1+$1,$4,$5*
1,1,$1+$1,$6,$7*
1,1,$1+$1,$8,$9*
0 Add four rect primitives between the rounded corners*
20,1,$1+$1,$2,$3,$4,$5,0*
20,1,$1+$1,$4,$5,$6,$7,0*
20,1,$1+$1,$6,$7,$8,$9,0*
20,1,$1+$1,$8,$9,$2,$3,0*%
G04 Aperture macros list end*
%TA.AperFunction,Conductor*%
%ADD10C,0.200000*%
%TD*%
%TA.AperFunction,ComponentPad*%
%ADD11C,1.400000*%
%TD*%
%TA.AperFunction,ComponentPad*%
%ADD12C,4.700000*%
%TD*%
%TA.AperFunction,ComponentPad*%
%ADD13R,2.000000X2.000000*%
%TD*%
%TA.AperFunction,ComponentPad*%
%ADD14C,2.000000*%
%TD*%
%TA.AperFunction,ComponentPad*%
%ADD15R,2.500000X3.000000*%
%TD*%
%TA.AperFunction,ComponentPad*%
%ADD16O,1.700000X1.000000*%
%TD*%
%TA.AperFunction,ComponentPad*%
%ADD17R,1.700000X1.700000*%
%TD*%
%TA.AperFunction,ComponentPad*%
%ADD18C,1.700000*%
%TD*%
%TA.AperFunction,SMDPad,CuDef*%
%ADD19RoundRect,0.150000X-0.587500X-0.150000X0.587500X-0.150000X0.587500X0.150000X-0.587500X0.150000X0*%
%TD*%
%TA.AperFunction,SMDPad,CuDef*%
%ADD20RoundRect,0.250000X-0.400000X-0.700000X0.400000X-0.700000X0.400000X0.700000X-0.400000X0.700000X0*%
%TD*%
%TA.AperFunction,SMDPad,CuDef*%
%ADD21RoundRect,0.225000X0.250000X-0.225000X0.250000X0.225000X-0.250000X0.225000X-0.250000X-0.225000X0*%
%TD*%
%TA.AperFunction,SMDPad,CuDef*%
%ADD22RoundRect,0.200000X0.200000X0.275000X-0.200000X0.275000X-0.200000X-0.275000X0.200000X-0.275000X0*%
%TD*%
%TA.AperFunction,SMDPad,CuDef*%
%ADD23RoundRect,0.200000X-0.275000X0.200000X-0.275000X-0.200000X0.275000X-0.200000X0.275000X0.200000X0*%
%TD*%
%TA.AperFunction,SMDPad,CuDef*%
%ADD24RoundRect,0.150000X-0.150000X0.875000X-0.150000X-0.875000X0.150000X-0.875000X0.150000X0.875000X0*%
%TD*%
%TA.AperFunction,SMDPad,CuDef*%
%ADD25RoundRect,0.200000X-0.200000X-0.275000X0.200000X-0.275000X0.200000X0.275000X-0.200000X0.275000X0*%
%TD*%
%TA.AperFunction,SMDPad,CuDef*%
%ADD26R,1.000000X1.000000*%
%TD*%
%TA.AperFunction,SMDPad,CuDef*%
%ADD27RoundRect,0.162500X-0.162500X0.750000X-0.162500X-0.750000X0.162500X-0.750000X0.162500X0.750000X0*%
%TD*%
%TA.AperFunction,SMDPad,CuDef*%
%ADD28RoundRect,0.075000X0.662500X0.075000X-0.662500X0.075000X-0.662500X-0.075000X0.662500X-0.075000X0*%
%TD*%
%TA.AperFunction,SMDPad,CuDef*%
%ADD29RoundRect,0.075000X0.075000X0.662500X-0.075000X0.662500X-0.075000X-0.662500X0.075000X-0.662500X0*%
%TD*%
%TA.AperFunction,SMDPad,CuDef*%
%ADD30RoundRect,0.150000X-0.825000X-0.150000X0.825000X-0.150000X0.825000X0.150000X-0.825000X0.150000X0*%
%TD*%
%TA.AperFunction,SMDPad,CuDef*%
%ADD31RoundRect,0.162500X-0.162500X0.650000X-0.162500X-0.650000X0.162500X-0.650000X0.162500X0.650000X0*%
%TD*%
%TA.AperFunction,SMDPad,CuDef*%
%ADD32RoundRect,0.225000X0.225000X0.250000X-0.225000X0.250000X-0.225000X-0.250000X0.225000X-0.250000X0*%
%TD*%
%TA.AperFunction,SMDPad,CuDef*%
%ADD33RoundRect,0.250000X0.312500X0.625000X-0.312500X0.625000X-0.312500X-0.625000X0.312500X-0.625000X0*%
%TD*%
%TA.AperFunction,SMDPad,CuDef*%
%ADD34RoundRect,0.250000X1.895000X-0.785000X1.895000X0.785000X-1.895000X0.785000X-1.895000X-0.785000X0*%
%TD*%
%TA.AperFunction,SMDPad,CuDef*%
%ADD35RoundRect,0.250000X1.950000X1.150000X-1.950000X1.150000X-1.950000X-1.150000X1.950000X-1.150000X0*%
%TD*%
%TA.AperFunction,SMDPad,CuDef*%
%ADD36RoundRect,0.225000X-0.250000X0.225000X-0.250000X-0.225000X0.250000X-0.225000X0.250000X0.225000X0*%
%TD*%
%TA.AperFunction,SMDPad,CuDef*%
%ADD37RoundRect,0.250000X0.250000X0.475000X-0.250000X0.475000X-0.250000X-0.475000X0.250000X-0.475000X0*%
%TD*%
%TA.AperFunction,SMDPad,CuDef*%
%ADD38RoundRect,0.250000X-0.475000X0.250000X-0.475000X-0.250000X0.475000X-0.250000X0.475000X0.250000X0*%
%TD*%
%TA.AperFunction,SMDPad,CuDef*%
%ADD39RoundRect,0.250001X0.949999X-1.499999X0.949999X1.499999X-0.949999X1.499999X-0.949999X-1.499999X0*%
%TD*%
%TA.AperFunction,SMDPad,CuDef*%
%ADD40RoundRect,0.250000X-0.250000X-0.475000X0.250000X-0.475000X0.250000X0.475000X-0.250000X0.475000X0*%
%TD*%
%TA.AperFunction,SMDPad,CuDef*%
%ADD41R,1.500000X1.500000*%
%TD*%
%TA.AperFunction,ViaPad*%
%ADD42C,0.400000*%
%TD*%
%TA.AperFunction,ViaPad*%
%ADD43C,0.600000*%
%TD*%
%TA.AperFunction,Conductor*%
%ADD44C,0.254000*%
%TD*%
%TA.AperFunction,Conductor*%
%ADD45C,0.152400*%
%TD*%
%TA.AperFunction,Conductor*%
%ADD46C,0.457200*%
%TD*%
G04 APERTURE END LIST*
%TO.N,GND*%
D10*
X152552400Y-85090000D02*
X154686000Y-85090000D01*
X154686000Y-86156800D01*
X152552400Y-86156800D01*
X152552400Y-85090000D01*
%TA.AperFunction,Conductor*%
G36*
X152552400Y-85090000D02*
G01*
X154686000Y-85090000D01*
X154686000Y-86156800D01*
X152552400Y-86156800D01*
X152552400Y-85090000D01*
G37*
%TD.AperFunction*%
%TD*%
D11*
%TO.P,VFD1,1,b_1*%
%TO.N,Net-(U2-O4)*%
X76271000Y-100211500D03*
%TO.P,VFD1,2,a_2*%
%TO.N,Net-(U2-O3)*%
X74271000Y-100211500D03*
%TO.P,VFD1,3,g_3*%
%TO.N,Net-(U2-O2)*%
X72271000Y-100211500D03*
%TO.P,VFD1,4,f_4*%
%TO.N,Net-(U2-O1)*%
X70271000Y-100211500D03*
%TO.P,VFD1,5,e_5*%
%TO.N,Net-(U2-O7)*%
X68271000Y-100211500D03*
%TO.P,VFD1,6,d_6*%
%TO.N,Net-(U2-O6)*%
X66271000Y-100211500D03*
%TO.P,VFD1,7*%
%TO.N,GND*%
X66271000Y-102461500D03*
%TO.P,VFD1,8*%
%TO.N,+1V2*%
X68271000Y-102461500D03*
%TO.P,VFD1,9*%
%TO.N,Net-(R1-Pad2)*%
X70271000Y-102461500D03*
%TO.P,VFD1,10,c_10*%
%TO.N,Net-(U2-O5)*%
X72271000Y-102461500D03*
%TO.P,VFD1,11,dp_11*%
%TO.N,unconnected-(VFD1-dp-Pad11)*%
X74271000Y-102461500D03*
%TO.P,VFD1,12*%
%TO.N,N/C*%
X76271000Y-102461500D03*
%TD*%
%TO.P,VFD6,1,b_1*%
%TO.N,Net-(U12-O4)*%
X145112000Y-100172000D03*
%TO.P,VFD6,2,a_2*%
%TO.N,Net-(U12-O3)*%
X143112000Y-100172000D03*
%TO.P,VFD6,3,g_3*%
%TO.N,Net-(U12-O2)*%
X141112000Y-100172000D03*
%TO.P,VFD6,4,f_4*%
%TO.N,Net-(U12-O1)*%
X139112000Y-100172000D03*
%TO.P,VFD6,5,e_5*%
%TO.N,Net-(U12-O7)*%
X137112000Y-100172000D03*
%TO.P,VFD6,6,d_6*%
%TO.N,Net-(U12-O6)*%
X135112000Y-100172000D03*
%TO.P,VFD6,7*%
%TO.N,GND*%
X135112000Y-102422000D03*
%TO.P,VFD6,8*%
%TO.N,+1V2*%
X137112000Y-102422000D03*
%TO.P,VFD6,9*%
%TO.N,Net-(R54-Pad2)*%
X139112000Y-102422000D03*
%TO.P,VFD6,10,c_10*%
%TO.N,Net-(U12-O5)*%
X141112000Y-102422000D03*
%TO.P,VFD6,11,dp_11*%
%TO.N,unconnected-(VFD6-dp-Pad11)*%
X143112000Y-102422000D03*
%TO.P,VFD6,12*%
%TO.N,N/C*%
X145112000Y-102422000D03*
%TD*%
D12*
%TO.P,H1,1*%
%TO.N,N/C*%
X62100000Y-106800000D03*
%TD*%
D11*
%TO.P,VFD2,1,b_1*%
%TO.N,Net-(U4-O4)*%
X89455000Y-100211500D03*
%TO.P,VFD2,2,a_2*%
%TO.N,Net-(U4-O3)*%
X87455000Y-100211500D03*
%TO.P,VFD2,3,g_3*%
%TO.N,Net-(U4-O2)*%
X85455000Y-100211500D03*
%TO.P,VFD2,4,f_4*%
%TO.N,Net-(U4-O1)*%
X83455000Y-100211500D03*
%TO.P,VFD2,5,e_5*%
%TO.N,Net-(U4-O7)*%
X81455000Y-100211500D03*
%TO.P,VFD2,6,d_6*%
%TO.N,Net-(U4-O6)*%
X79455000Y-100211500D03*
%TO.P,VFD2,7*%
%TO.N,GND*%
X79455000Y-102461500D03*
%TO.P,VFD2,8*%
%TO.N,+1V2*%
X81455000Y-102461500D03*
%TO.P,VFD2,9*%
%TO.N,Net-(R18-Pad2)*%
X83455000Y-102461500D03*
%TO.P,VFD2,10,c_10*%
%TO.N,Net-(U4-O5)*%
X85455000Y-102461500D03*
%TO.P,VFD2,11,dp_11*%
%TO.N,unconnected-(VFD2-dp-Pad11)*%
X87455000Y-102461500D03*
%TO.P,VFD2,12*%
%TO.N,N/C*%
X89455000Y-102461500D03*
%TD*%
D12*
%TO.P,H2,1*%
%TO.N,N/C*%
X62100000Y-60200000D03*
%TD*%
D11*
%TO.P,VFD3,1,b_1*%
%TO.N,Net-(U6-O4)*%
X104163000Y-100172000D03*
%TO.P,VFD3,2,a_2*%
%TO.N,Net-(U6-O3)*%
X102163000Y-100172000D03*
%TO.P,VFD3,3,g_3*%
%TO.N,Net-(U6-O2)*%
X100163000Y-100172000D03*
%TO.P,VFD3,4,f_4*%
%TO.N,Net-(U6-O1)*%
X98163000Y-100172000D03*
%TO.P,VFD3,5,e_5*%
%TO.N,Net-(U6-O7)*%
X96163000Y-100172000D03*
%TO.P,VFD3,6,d_6*%
%TO.N,Net-(U6-O6)*%
X94163000Y-100172000D03*
%TO.P,VFD3,7*%
%TO.N,GND*%
X94163000Y-102422000D03*
%TO.P,VFD3,8*%
%TO.N,+1V2*%
X96163000Y-102422000D03*
%TO.P,VFD3,9*%
%TO.N,Net-(R27-Pad2)*%
X98163000Y-102422000D03*
%TO.P,VFD3,10,c_10*%
%TO.N,Net-(U6-O5)*%
X100163000Y-102422000D03*
%TO.P,VFD3,11,dp_11*%
%TO.N,unconnected-(VFD3-dp-Pad11)*%
X102163000Y-102422000D03*
%TO.P,VFD3,12*%
%TO.N,N/C*%
X104163000Y-102422000D03*
%TD*%
D13*
%TO.P,SW1,A,A_A*%
%TO.N,/ENCA*%
X162647000Y-73014000D03*
D14*
%TO.P,SW1,B,B_B*%
%TO.N,/ENCB*%
X157647000Y-73014000D03*
%TO.P,SW1,C,C_C*%
%TO.N,GND*%
X160147000Y-73014000D03*
D15*
%TO.P,SW1,MP,MP_MP*%
%TO.N,unconnected-(SW1-PadMP)_1*%
X165747000Y-80514000D03*
%TO.N,unconnected-(SW1-PadMP)*%
X154547000Y-80514000D03*
D14*
%TO.P,SW1,S1,S1_S1*%
%TO.N,/ENCBUT*%
X162647000Y-87514000D03*
%TO.P,SW1,S2,S2_S2*%
%TO.N,GND*%
X157647000Y-87514000D03*
%TD*%
D11*
%TO.P,VFD5,1,b_1*%
%TO.N,Net-(U10-O4)*%
X131928000Y-100172000D03*
%TO.P,VFD5,2,a_2*%
%TO.N,Net-(U10-O3)*%
X129928000Y-100172000D03*
%TO.P,VFD5,3,g_3*%
%TO.N,Net-(U10-O2)*%
X127928000Y-100172000D03*
%TO.P,VFD5,4,f_4*%
%TO.N,Net-(U10-O1)*%
X125928000Y-100172000D03*
%TO.P,VFD5,5,e_5*%
%TO.N,Net-(U10-O7)*%
X123928000Y-100172000D03*
%TO.P,VFD5,6,d_6*%
%TO.N,Net-(U10-O6)*%
X121928000Y-100172000D03*
%TO.P,VFD5,7*%
%TO.N,GND*%
X121928000Y-102422000D03*
%TO.P,VFD5,8*%
%TO.N,+1V2*%
X123928000Y-102422000D03*
%TO.P,VFD5,9*%
%TO.N,Net-(R45-Pad2)*%
X125928000Y-102422000D03*
%TO.P,VFD5,10,c_10*%
%TO.N,Net-(U10-O5)*%
X127928000Y-102422000D03*
%TO.P,VFD5,11,dp_11*%
%TO.N,unconnected-(VFD5-dp-Pad11)*%
X129928000Y-102422000D03*
%TO.P,VFD5,12*%
%TO.N,N/C*%
X131928000Y-102422000D03*
%TD*%
D12*
%TO.P,H4,1*%
%TO.N,N/C*%
X164900000Y-106800000D03*
%TD*%
%TO.P,H3,1*%
%TO.N,N/C*%
X164900000Y-60200000D03*
%TD*%
D11*
%TO.P,VFD4,1,b_1*%
%TO.N,Net-(U8-O4)*%
X117347000Y-100172000D03*
%TO.P,VFD4,2,a_2*%
%TO.N,Net-(U8-O3)*%
X115347000Y-100172000D03*
%TO.P,VFD4,3,g_3*%
%TO.N,Net-(U8-O2)*%
X113347000Y-100172000D03*
%TO.P,VFD4,4,f_4*%
%TO.N,Net-(U8-O1)*%
X111347000Y-100172000D03*
%TO.P,VFD4,5,e_5*%
%TO.N,Net-(U8-O7)*%
X109347000Y-100172000D03*
%TO.P,VFD4,6,d_6*%
%TO.N,Net-(U8-O6)*%
X107347000Y-100172000D03*
%TO.P,VFD4,7*%
%TO.N,GND*%
X107347000Y-102422000D03*
%TO.P,VFD4,8*%
%TO.N,+1V2*%
X109347000Y-102422000D03*
%TO.P,VFD4,9*%
%TO.N,Net-(R36-Pad2)*%
X111347000Y-102422000D03*
%TO.P,VFD4,10,c_10*%
%TO.N,Net-(U8-O5)*%
X113347000Y-102422000D03*
%TO.P,VFD4,11,dp_11*%
%TO.N,unconnected-(VFD4-dp-Pad11)*%
X115347000Y-102422000D03*
%TO.P,VFD4,12*%
%TO.N,N/C*%
X117347000Y-102422000D03*
%TD*%
D16*
%TO.P,J2,SH,SHIELD_SH*%
%TO.N,GND*%
X162898000Y-98744000D03*
X166698000Y-98744000D03*
X162898000Y-90104000D03*
X166698000Y-90104000D03*
%TD*%
D17*
%TO.P,J1,1,Pin_1_1*%
%TO.N,GND*%
X99060000Y-58420000D03*
D18*
%TO.P,J1,2,Pin_2_2*%
%TO.N,/SWCLK*%
X96520000Y-58420000D03*
%TO.P,J1,3,Pin_3_3*%
%TO.N,/SWDIO*%
X93980000Y-58420000D03*
%TO.P,J1,4,Pin_4_4*%
%TO.N,+3V3*%
X91440000Y-58420000D03*
%TD*%
D19*
%TO.P,Q3,1,B_1*%
%TO.N,Net-(Q3-B)*%
X142651000Y-73403000D03*
%TO.P,Q3,2,E_2*%
%TO.N,GND*%
X142651000Y-71503000D03*
%TO.P,Q3,3,C_3*%
%TO.N,Net-(BZ1--)*%
X144526000Y-72453000D03*
%TD*%
D20*
%TO.P,Y2,1,1_1*%
%TO.N,Net-(U17-X2)*%
X109264000Y-61773000D03*
%TO.P,Y2,2,G_2*%
%TO.N,unconnected-(Y2-G-Pad2)*%
X114764000Y-61773000D03*
%TO.P,Y2,3,G_3*%
%TO.N,unconnected-(Y2-G-Pad2)_1*%
X114764000Y-64973000D03*
%TO.P,Y2,4,4_4*%
%TO.N,Net-(U17-X1)*%
X109264000Y-64973000D03*
%TD*%
D21*
%TO.P,C17,1*%
%TO.N,GND*%
X102489000Y-66180000D03*
%TO.P,C17,2*%
%TO.N,/OSC_IN*%
X102489000Y-64630000D03*
%TD*%
D22*
%TO.P,R28,1*%
%TO.N,+5V*%
X115760000Y-74930000D03*
%TO.P,R28,2*%
%TO.N,Net-(U7-~{LT})*%
X114110000Y-74930000D03*
%TD*%
D23*
%TO.P,R10,1*%
%TO.N,+5V*%
X75946000Y-76695800D03*
%TO.P,R10,2*%
%TO.N,Net-(U3-~{LT})*%
X75946000Y-78345800D03*
%TD*%
D22*
%TO.P,R62,1*%
%TO.N,+3V3*%
X162432000Y-85090000D03*
%TO.P,R62,2*%
%TO.N,/ENCBUT*%
X160782000Y-85090000D03*
%TD*%
D24*
%TO.P,U10,1,I1_1*%
%TO.N,Net-(U10-I1)*%
X121818400Y-86028000D03*
%TO.P,U10,2,I2_2*%
%TO.N,Net-(U10-I2)*%
X123088400Y-86028000D03*
%TO.P,U10,3,I3_3*%
%TO.N,Net-(U10-I3)*%
X124358400Y-86028000D03*
%TO.P,U10,4,I4_4*%
%TO.N,Net-(U10-I4)*%
X125628400Y-86028000D03*
%TO.P,U10,5,I5_5*%
%TO.N,Net-(U10-I5)*%
X126898400Y-86028000D03*
%TO.P,U10,6,I6_6*%
%TO.N,Net-(U10-I6)*%
X128168400Y-86028000D03*
%TO.P,U10,7,I7_7*%
%TO.N,Net-(U10-I7)*%
X129438400Y-86028000D03*
%TO.P,U10,8,I8_8*%
%TO.N,GND*%
X130708400Y-86028000D03*
%TO.P,U10,9,VCC_9*%
%TO.N,+36V*%
X131978400Y-86028000D03*
%TO.P,U10,10,GND_10*%
%TO.N,GND*%
X131978400Y-95328000D03*
%TO.P,U10,11,O8_11*%
%TO.N,unconnected-(U10-O8-Pad11)*%
X130708400Y-95328000D03*
%TO.P,U10,12,O7_12*%
%TO.N,Net-(U10-O7)*%
X129438400Y-95328000D03*
%TO.P,U10,13,O6_13*%
%TO.N,Net-(U10-O6)*%
X128168400Y-95328000D03*
%TO.P,U10,14,O5_14*%
%TO.N,Net-(U10-O5)*%
X126898400Y-95328000D03*
%TO.P,U10,15,O4_15*%
%TO.N,Net-(U10-O4)*%
X125628400Y-95328000D03*
%TO.P,U10,16,O3_16*%
%TO.N,Net-(U10-O3)*%
X124358400Y-95328000D03*
%TO.P,U10,17,O2_17*%
%TO.N,Net-(U10-O2)*%
X123088400Y-95328000D03*
%TO.P,U10,18,O1_18*%
%TO.N,Net-(U10-O1)*%
X121818400Y-95328000D03*
%TD*%
D23*
%TO.P,R63,1*%
%TO.N,/BUZZER*%
X140462000Y-71692000D03*
%TO.P,R63,2*%
%TO.N,Net-(Q3-B)*%
X140462000Y-73342000D03*
%TD*%
D25*
%TO.P,R9,1*%
%TO.N,+5V*%
X68059800Y-74980800D03*
%TO.P,R9,2*%
%TO.N,Net-(U1-~{LT})*%
X69709800Y-74980800D03*
%TD*%
D26*
%TO.P,TP4,1,1_1*%
%TO.N,/DCLOCK*%
X80111600Y-69291200D03*
%TD*%
D22*
%TO.P,R64,1*%
%TO.N,+3V3*%
X106717600Y-74205000D03*
%TO.P,R64,2*%
%TO.N,Net-(RESET1-B)*%
X105067600Y-74205000D03*
%TD*%
D27*
%TO.P,U1,1,DB_1*%
%TO.N,/DB*%
X64897000Y-77430500D03*
%TO.P,U1,2,DC_2*%
%TO.N,/DC*%
X66167000Y-77430500D03*
%TO.P,U1,3,~{LT}_3*%
%TO.N,Net-(U1-~{LT})*%
X67437000Y-77430500D03*
%TO.P,U1,4,~{BI}_4*%
%TO.N,/DIMPWM*%
X68707000Y-77430500D03*
%TO.P,U1,5,~{EL}_5*%
%TO.N,Net-(U1-~{EL})*%
X69977000Y-77430500D03*
%TO.P,U1,6,DD_6*%
%TO.N,/DD*%
X71247000Y-77430500D03*
%TO.P,U1,7,DA_7*%
%TO.N,/DA*%
X72517000Y-77430500D03*
%TO.P,U1,8,Vss_8*%
%TO.N,GND*%
X73787000Y-77430500D03*
%TO.P,U1,9,Qe_9*%
%TO.N,Net-(U1-Qe)*%
X73787000Y-83605500D03*
%TO.P,U1,10,Qd_10*%
%TO.N,Net-(U1-Qd)*%
X72517000Y-83605500D03*
%TO.P,U1,11,Qc_11*%
%TO.N,Net-(U1-Qc)*%
X71247000Y-83605500D03*
%TO.P,U1,12,Qb_12*%
%TO.N,Net-(U1-Qb)*%
X69977000Y-83605500D03*
%TO.P,U1,13,Qa_13*%
%TO.N,Net-(U1-Qa)*%
X68707000Y-83605500D03*
%TO.P,U1,14,Qg_14*%
%TO.N,Net-(U1-Qg)*%
X67437000Y-83605500D03*
%TO.P,U1,15,Qf_15*%
%TO.N,Net-(U1-Qf)*%
X66167000Y-83605500D03*
%TO.P,U1,16,Vdd_16*%
%TO.N,+5V*%
X64897000Y-83605500D03*
%TD*%
D28*
%TO.P,U15,1,VBAT_1*%
%TO.N,+3V3*%
X94967500Y-66350000D03*
%TO.P,U15,2,PC13_2*%
%TO.N,unconnected-(U15-PC13-Pad2)*%
X94967500Y-66850000D03*
%TO.P,U15,3,PC14_3*%
%TO.N,unconnected-(U15-PC14-Pad3)*%
X94967500Y-67350000D03*
%TO.P,U15,4,PC15_4*%
%TO.N,unconnected-(U15-PC15-Pad4)*%
X94967500Y-67850000D03*
%TO.P,U15,5,PD0_5*%
%TO.N,/OSC_IN*%
X94967500Y-68350000D03*
%TO.P,U15,6,PD1_6*%
%TO.N,/OSC_OUT*%
X94967500Y-68850000D03*
%TO.P,U15,7,NRST_7*%
%TO.N,Net-(RESET1-B)*%
X94967500Y-69350000D03*
%TO.P,U15,8,VSSA_8*%
%TO.N,GND*%
X94967500Y-69850000D03*
%TO.P,U15,9,VDDA_9*%
%TO.N,+3V3*%
X94967500Y-70350000D03*
%TO.P,U15,10,PA0_10*%
%TO.N,/DA*%
X94967500Y-70850000D03*
%TO.P,U15,11,PA1_11*%
%TO.N,/DB*%
X94967500Y-71350000D03*
%TO.P,U15,12,PA2_12*%
%TO.N,/DC*%
X94967500Y-71850000D03*
D29*
%TO.P,U15,13,PA3_13*%
%TO.N,/DD*%
X93555000Y-73262500D03*
%TO.P,U15,14,PA4_14*%
%TO.N,/PA4*%
X93055000Y-73262500D03*
%TO.P,U15,15,PA5_15*%
%TO.N,/COLON*%
X92555000Y-73262500D03*
%TO.P,U15,16,PA6_16*%
%TO.N,/RESET*%
X92055000Y-73262500D03*
%TO.P,U15,17,PA7_17*%
%TO.N,/DCLOCK*%
X91555000Y-73262500D03*
%TO.P,U15,18,PB0_18*%
%TO.N,/RTC_RES*%
X91055000Y-73262500D03*
%TO.P,U15,19,PB1_19*%
%TO.N,/RTC_DAT*%
X90555000Y-73262500D03*
%TO.P,U15,20,PB2_20*%
%TO.N,/PB2*%
X90055000Y-73262500D03*
%TO.P,U15,21,PB10_21*%
%TO.N,/RTC_CLK*%
X89555000Y-73262500D03*
%TO.P,U15,22,PB11_22*%
%TO.N,/ENCBUT*%
X89055000Y-73262500D03*
%TO.P,U15,23,VSS_23*%
%TO.N,GND*%
X88555000Y-73262500D03*
%TO.P,U15,24,VDD_24*%
%TO.N,+3V3*%
X88055000Y-73262500D03*
D28*
%TO.P,U15,25,PB12_25*%
%TO.N,/ENCA*%
X86642500Y-71850000D03*
%TO.P,U15,26,PB13_26*%
%TO.N,/ENCB*%
X86642500Y-71350000D03*
%TO.P,U15,27,PB14_27*%
%TO.N,/PB14*%
X86642500Y-70850000D03*
%TO.P,U15,28,PB15_28*%
%TO.N,/PB15*%
X86642500Y-70350000D03*
%TO.P,U15,29,PA8_29*%
%TO.N,/BUZZER*%
X86642500Y-69850000D03*
%TO.P,U15,30,PA9_30*%
%TO.N,/PA9*%
X86642500Y-69350000D03*
%TO.P,U15,31,PA10_31*%
%TO.N,/PA10*%
X86642500Y-68850000D03*
%TO.P,U15,32,PA11_32*%
%TO.N,/PA11*%
X86642500Y-68350000D03*
%TO.P,U15,33,PA12_33*%
%TO.N,/PA12*%
X86642500Y-67850000D03*
%TO.P,U15,34,PA13_34*%
%TO.N,/SWDIO*%
X86642500Y-67350000D03*
%TO.P,U15,35,VSS_35*%
%TO.N,GND*%
X86642500Y-66850000D03*
%TO.P,U15,36,VDD_36*%
%TO.N,+3V3*%
X86642500Y-66350000D03*
D29*
%TO.P,U15,37,PA14_37*%
%TO.N,/SWCLK*%
X88055000Y-64937500D03*
%TO.P,U15,38,PA15_38*%
%TO.N,/PA15*%
X88555000Y-64937500D03*
%TO.P,U15,39,PB3_39*%
%TO.N,/PB3*%
X89055000Y-64937500D03*
%TO.P,U15,40,PB4_40*%
%TO.N,/PB4*%
X89555000Y-64937500D03*
%TO.P,U15,41,PB5_41*%
%TO.N,/PB5*%
X90055000Y-64937500D03*
%TO.P,U15,42,PB6_42*%
%TO.N,/PB6*%
X90555000Y-64937500D03*
%TO.P,U15,43,PB7_43*%
%TO.N,/PB7*%
X91055000Y-64937500D03*
%TO.P,U15,44,BOOT0_44*%
%TO.N,Net-(U15-BOOT0)*%
X91555000Y-64937500D03*
%TO.P,U15,45,PB8_45*%
%TO.N,/PB8*%
X92055000Y-64937500D03*
%TO.P,U15,46,PB9_46*%
%TO.N,/DIMPWM*%
X92555000Y-64937500D03*
%TO.P,U15,47,VSS_47*%
%TO.N,GND*%
X93055000Y-64937500D03*
%TO.P,U15,48,VDD_48*%
%TO.N,+3V3*%
X93555000Y-64937500D03*
%TD*%
D24*
%TO.P,U6,1,I1_1*%
%TO.N,Net-(U5-Qf)*%
X94081600Y-86055200D03*
%TO.P,U6,2,I2_2*%
%TO.N,Net-(U5-Qg)*%
X95351600Y-86055200D03*
%TO.P,U6,3,I3_3*%
%TO.N,Net-(U5-Qa)*%
X96621600Y-86055200D03*
%TO.P,U6,4,I4_4*%
%TO.N,Net-(U5-Qb)*%
X97891600Y-86055200D03*
%TO.P,U6,5,I5_5*%
%TO.N,Net-(U5-Qc)*%
X99161600Y-86055200D03*
%TO.P,U6,6,I6_6*%
%TO.N,Net-(U5-Qd)*%
X100431600Y-86055200D03*
%TO.P,U6,7,I7_7*%
%TO.N,Net-(U5-Qe)*%
X101701600Y-86055200D03*
%TO.P,U6,8,I8_8*%
%TO.N,GND*%
X102971600Y-86055200D03*
%TO.P,U6,9,VCC_9*%
%TO.N,+36V*%
X104241600Y-86055200D03*
%TO.P,U6,10,GND_10*%
%TO.N,GND*%
X104241600Y-95355200D03*
%TO.P,U6,11,O8_11*%
%TO.N,unconnected-(U6-O8-Pad11)*%
X102971600Y-95355200D03*
%TO.P,U6,12,O7_12*%
%TO.N,Net-(U6-O7)*%
X101701600Y-95355200D03*
%TO.P,U6,13,O6_13*%
%TO.N,Net-(U6-O6)*%
X100431600Y-95355200D03*
%TO.P,U6,14,O5_14*%
%TO.N,Net-(U6-O5)*%
X99161600Y-95355200D03*
%TO.P,U6,15,O4_15*%
%TO.N,Net-(U6-O4)*%
X97891600Y-95355200D03*
%TO.P,U6,16,O3_16*%
%TO.N,Net-(U6-O3)*%
X96621600Y-95355200D03*
%TO.P,U6,17,O2_17*%
%TO.N,Net-(U6-O2)*%
X95351600Y-95355200D03*
%TO.P,U6,18,O1_18*%
%TO.N,Net-(U6-O1)*%
X94081600Y-95355200D03*
%TD*%
D30*
%TO.P,U14,1*%
%TO.N,Net-(U20-Q0)*%
X63403299Y-73099900D03*
%TO.P,U14,2*%
%TO.N,Net-(U1-~{EL})*%
X63403299Y-71829900D03*
%TO.P,U14,3*%
%TO.N,Net-(U20-Q1)*%
X63403299Y-70559900D03*
%TO.P,U14,4*%
%TO.N,Net-(U3-~{EL})*%
X63403299Y-69289900D03*
%TO.P,U14,5*%
%TO.N,Net-(U20-Q2)*%
X63403299Y-68019900D03*
%TO.P,U14,6*%
%TO.N,Net-(U5-~{EL})*%
X63403299Y-66749900D03*
%TO.P,U14,7,GND_7*%
%TO.N,GND*%
X63403299Y-65479900D03*
%TO.P,U14,8*%
%TO.N,Net-(U7-~{EL})*%
X68353299Y-65479900D03*
%TO.P,U14,9*%
%TO.N,Net-(U20-Q3)*%
X68353299Y-66749900D03*
%TO.P,U14,10*%
%TO.N,Net-(U9-~{EL})*%
X68353299Y-68019900D03*
%TO.P,U14,11*%
%TO.N,Net-(U20-Q4)*%
X68353299Y-69289900D03*
%TO.P,U14,12*%
%TO.N,Net-(U11-~{EL})*%
X68353299Y-70559900D03*
%TO.P,U14,13*%
%TO.N,Net-(U20-Q5)*%
X68353299Y-71829900D03*
%TO.P,U14,14,VCC_14*%
%TO.N,+5V*%
X68353299Y-73099900D03*
%TD*%
D31*
%TO.P,U17,1,VCC2_1*%
%TO.N,+3V3*%
X108585000Y-67405500D03*
%TO.P,U17,2,X1_2*%
%TO.N,Net-(U17-X1)*%
X109855000Y-67405500D03*
%TO.P,U17,3,X2_3*%
%TO.N,Net-(U17-X2)*%
X111125000Y-67405500D03*
%TO.P,U17,4,GND_4*%
%TO.N,GND*%
X112395000Y-67405500D03*
%TO.P,U17,5,CE_5*%
%TO.N,/RTC_RES*%
X112395000Y-74580500D03*
%TO.P,U17,6,I/O_6*%
%TO.N,/RTC_DAT*%
X111125000Y-74580500D03*
%TO.P,U17,7,SCLK_7*%
%TO.N,/RTC_CLK*%
X109855000Y-74580500D03*
%TO.P,U17,8,VCC1_8*%
%TO.N,Net-(BT1-+)*%
X108585000Y-74580500D03*
%TD*%
D25*
%TO.P,R46,1*%
%TO.N,+5V*%
X134607800Y-75234800D03*
%TO.P,R46,2*%
%TO.N,Net-(U11-~{LT})*%
X136257800Y-75234800D03*
%TD*%
D27*
%TO.P,U11,1,DB_1*%
%TO.N,/DB*%
X133705600Y-77340200D03*
%TO.P,U11,2,DC_2*%
%TO.N,/DC*%
X134975600Y-77340200D03*
%TO.P,U11,3,~{LT}_3*%
%TO.N,Net-(U11-~{LT})*%
X136245600Y-77340200D03*
%TO.P,U11,4,~{BI}_4*%
%TO.N,/DIMPWM*%
X137515600Y-77340200D03*
%TO.P,U11,5,~{EL}_5*%
%TO.N,Net-(U11-~{EL})*%
X138785600Y-77340200D03*
%TO.P,U11,6,DD_6*%
%TO.N,/DD*%
X140055600Y-77340200D03*
%TO.P,U11,7,DA_7*%
%TO.N,/DA*%
X141325600Y-77340200D03*
%TO.P,U11,8,Vss_8*%
%TO.N,GND*%
X142595600Y-77340200D03*
%TO.P,U11,9,Qe_9*%
%TO.N,Net-(U11-Qe)*%
X142595600Y-83515200D03*
%TO.P,U11,10,Qd_10*%
%TO.N,Net-(U11-Qd)*%
X141325600Y-83515200D03*
%TO.P,U11,11,Qc_11*%
%TO.N,Net-(U11-Qc)*%
X140055600Y-83515200D03*
%TO.P,U11,12,Qb_12*%
%TO.N,Net-(U11-Qb)*%
X138785600Y-83515200D03*
%TO.P,U11,13,Qa_13*%
%TO.N,Net-(U11-Qa)*%
X137515600Y-83515200D03*
%TO.P,U11,14,Qg_14*%
%TO.N,Net-(U11-Qg)*%
X136245600Y-83515200D03*
%TO.P,U11,15,Qf_15*%
%TO.N,Net-(U11-Qf)*%
X134975600Y-83515200D03*
%TO.P,U11,16,Vdd_16*%
%TO.N,+5V*%
X133705600Y-83515200D03*
%TD*%
D23*
%TO.P,R66,1*%
%TO.N,/OSC_IN*%
X102489000Y-67755000D03*
%TO.P,R66,2*%
%TO.N,/OSC_OUT*%
X102489000Y-69405000D03*
%TD*%
D32*
%TO.P,C1,1*%
%TO.N,/ENCA*%
X162636800Y-75311000D03*
%TO.P,C1,2*%
%TO.N,GND*%
X161086800Y-75311000D03*
%TD*%
D24*
%TO.P,U12,1,I1_1*%
%TO.N,Net-(U11-Qf)*%
X134975600Y-85950000D03*
%TO.P,U12,2,I2_2*%
%TO.N,Net-(U11-Qg)*%
X136245600Y-85950000D03*
%TO.P,U12,3,I3_3*%
%TO.N,Net-(U11-Qa)*%
X137515600Y-85950000D03*
%TO.P,U12,4,I4_4*%
%TO.N,Net-(U11-Qb)*%
X138785600Y-85950000D03*
%TO.P,U12,5,I5_5*%
%TO.N,Net-(U11-Qc)*%
X140055600Y-85950000D03*
%TO.P,U12,6,I6_6*%
%TO.N,Net-(U11-Qd)*%
X141325600Y-85950000D03*
%TO.P,U12,7,I7_7*%
%TO.N,Net-(U11-Qe)*%
X142595600Y-85950000D03*
%TO.P,U12,8,I8_8*%
%TO.N,GND*%
X143865600Y-85950000D03*
%TO.P,U12,9,VCC_9*%
%TO.N,+36V*%
X145135600Y-85950000D03*
%TO.P,U12,10,GND_10*%
%TO.N,GND*%
X145135600Y-95250000D03*
%TO.P,U12,11,O8_11*%
%TO.N,unconnected-(U12-O8-Pad11)*%
X143865600Y-95250000D03*
%TO.P,U12,12,O7_12*%
%TO.N,Net-(U12-O7)*%
X142595600Y-95250000D03*
%TO.P,U12,13,O6_13*%
%TO.N,Net-(U12-O6)*%
X141325600Y-95250000D03*
%TO.P,U12,14,O5_14*%
%TO.N,Net-(U12-O5)*%
X140055600Y-95250000D03*
%TO.P,U12,15,O4_15*%
%TO.N,Net-(U12-O4)*%
X138785600Y-95250000D03*
%TO.P,U12,16,O3_16*%
%TO.N,Net-(U12-O3)*%
X137515600Y-95250000D03*
%TO.P,U12,17,O2_17*%
%TO.N,Net-(U12-O2)*%
X136245600Y-95250000D03*
%TO.P,U12,18,O1_18*%
%TO.N,Net-(U12-O1)*%
X134975600Y-95250000D03*
%TD*%
D17*
%TO.P,J4,1,Pin_1_1*%
%TO.N,+5V*%
X68580000Y-58420000D03*
D18*
%TO.P,J4,2,Pin_2_2*%
%TO.N,/PA4*%
X71120000Y-58420000D03*
%TO.P,J4,3,Pin_3_3*%
%TO.N,/PA9*%
X73660000Y-58420000D03*
%TO.P,J4,4,Pin_4_4*%
%TO.N,/PA10*%
X76200000Y-58420000D03*
%TO.P,J4,5,Pin_5_5*%
%TO.N,/PA11*%
X78740000Y-58420000D03*
%TO.P,J4,6,Pin_6_6*%
%TO.N,/PA12*%
X81280000Y-58420000D03*
%TO.P,J4,7,Pin_7_7*%
%TO.N,/PA15*%
X83820000Y-58420000D03*
%TO.P,J4,8,Pin_8_8*%
%TO.N,GND*%
X86360000Y-58420000D03*
%TD*%
D33*
%TO.P,R54,1*%
%TO.N,+36V*%
X144083500Y-104902000D03*
%TO.P,R54,2*%
%TO.N,Net-(R54-Pad2)*%
X141158500Y-104902000D03*
%TD*%
D21*
%TO.P,C13,1*%
%TO.N,+3V3*%
X86233000Y-65164000D03*
%TO.P,C13,2*%
%TO.N,GND*%
X86233000Y-63614000D03*
%TD*%
D27*
%TO.P,U7,1,DB_1*%
%TO.N,/DB*%
X105968800Y-77441800D03*
%TO.P,U7,2,DC_2*%
%TO.N,/DC*%
X107238800Y-77441800D03*
%TO.P,U7,3,~{LT}_3*%
%TO.N,Net-(U7-~{LT})*%
X108508800Y-77441800D03*
%TO.P,U7,4,~{BI}_4*%
%TO.N,/DIMPWM*%
X109778800Y-77441800D03*
%TO.P,U7,5,~{EL}_5*%
%TO.N,Net-(U7-~{EL})*%
X111048800Y-77441800D03*
%TO.P,U7,6,DD_6*%
%TO.N,/DD*%
X112318800Y-77441800D03*
%TO.P,U7,7,DA_7*%
%TO.N,/DA*%
X113588800Y-77441800D03*
%TO.P,U7,8,Vss_8*%
%TO.N,GND*%
X114858800Y-77441800D03*
%TO.P,U7,9,Qe_9*%
%TO.N,Net-(U7-Qe)*%
X114858800Y-83616800D03*
%TO.P,U7,10,Qd_10*%
%TO.N,Net-(U7-Qd)*%
X113588800Y-83616800D03*
%TO.P,U7,11,Qc_11*%
%TO.N,Net-(U7-Qc)*%
X112318800Y-83616800D03*
%TO.P,U7,12,Qb_12*%
%TO.N,Net-(U7-Qb)*%
X111048800Y-83616800D03*
%TO.P,U7,13,Qa_13*%
%TO.N,Net-(U7-Qa)*%
X109778800Y-83616800D03*
%TO.P,U7,14,Qg_14*%
%TO.N,Net-(U7-Qg)*%
X108508800Y-83616800D03*
%TO.P,U7,15,Qf_15*%
%TO.N,Net-(U7-Qf)*%
X107238800Y-83616800D03*
%TO.P,U7,16,Vdd_16*%
%TO.N,+5V*%
X105968800Y-83616800D03*
%TD*%
D19*
%TO.P,Q2,1,B_1*%
%TO.N,Net-(Q2-B)*%
X81663300Y-75321200D03*
%TO.P,Q2,2,E_2*%
%TO.N,GND*%
X81663300Y-73421200D03*
%TO.P,Q2,3,C_3*%
%TO.N,Net-(D1-K)*%
X83538300Y-74371200D03*
%TD*%
D34*
%TO.P,C31,1*%
%TO.N,+5V*%
X152781000Y-90695000D03*
%TO.P,C31,2*%
%TO.N,GND*%
X152781000Y-84455000D03*
%TD*%
D22*
%TO.P,R59,1*%
%TO.N,/COLON*%
X86931000Y-75234800D03*
%TO.P,R59,2*%
%TO.N,Net-(Q2-B)*%
X85281000Y-75234800D03*
%TD*%
D24*
%TO.P,U8,1,I1_1*%
%TO.N,Net-(U7-Qf)*%
X107238800Y-86055200D03*
%TO.P,U8,2,I2_2*%
%TO.N,Net-(U7-Qg)*%
X108508800Y-86055200D03*
%TO.P,U8,3,I3_3*%
%TO.N,Net-(U7-Qa)*%
X109778800Y-86055200D03*
%TO.P,U8,4,I4_4*%
%TO.N,Net-(U7-Qb)*%
X111048800Y-86055200D03*
%TO.P,U8,5,I5_5*%
%TO.N,Net-(U7-Qc)*%
X112318800Y-86055200D03*
%TO.P,U8,6,I6_6*%
%TO.N,Net-(U7-Qd)*%
X113588800Y-86055200D03*
%TO.P,U8,7,I7_7*%
%TO.N,Net-(U7-Qe)*%
X114858800Y-86055200D03*
%TO.P,U8,8,I8_8*%
%TO.N,GND*%
X116128800Y-86055200D03*
%TO.P,U8,9,VCC_9*%
%TO.N,+36V*%
X117398800Y-86055200D03*
%TO.P,U8,10,GND_10*%
%TO.N,GND*%
X117398800Y-95355200D03*
%TO.P,U8,11,O8_11*%
%TO.N,unconnected-(U8-O8-Pad11)*%
X116128800Y-95355200D03*
%TO.P,U8,12,O7_12*%
%TO.N,Net-(U8-O7)*%
X114858800Y-95355200D03*
%TO.P,U8,13,O6_13*%
%TO.N,Net-(U8-O6)*%
X113588800Y-95355200D03*
%TO.P,U8,14,O5_14*%
%TO.N,Net-(U8-O5)*%
X112318800Y-95355200D03*
%TO.P,U8,15,O4_15*%
%TO.N,Net-(U8-O4)*%
X111048800Y-95355200D03*
%TO.P,U8,16,O3_16*%
%TO.N,Net-(U8-O3)*%
X109778800Y-95355200D03*
%TO.P,U8,17,O2_17*%
%TO.N,Net-(U8-O2)*%
X108508800Y-95355200D03*
%TO.P,U8,18,O1_18*%
%TO.N,Net-(U8-O1)*%
X107238800Y-95355200D03*
%TD*%
D22*
%TO.P,R61,1*%
%TO.N,+3V3*%
X159257000Y-76962000D03*
%TO.P,R61,2*%
%TO.N,/ENCB*%
X157607000Y-76962000D03*
%TD*%
D27*
%TO.P,U9,1,DB_1*%
%TO.N,/DB*%
X120548400Y-77391000D03*
%TO.P,U9,2,DC_2*%
%TO.N,/DC*%
X121818400Y-77391000D03*
%TO.P,U9,3,~{LT}_3*%
%TO.N,Net-(U9-~{LT})*%
X123088400Y-77391000D03*
%TO.P,U9,4,~{BI}_4*%
%TO.N,/DIMPWM*%
X124358400Y-77391000D03*
%TO.P,U9,5,~{EL}_5*%
%TO.N,Net-(U9-~{EL})*%
X125628400Y-77391000D03*
%TO.P,U9,6,DD_6*%
%TO.N,/DD*%
X126898400Y-77391000D03*
%TO.P,U9,7,DA_7*%
%TO.N,/DA*%
X128168400Y-77391000D03*
%TO.P,U9,8,Vss_8*%
%TO.N,GND*%
X129438400Y-77391000D03*
%TO.P,U9,9,Qe_9*%
%TO.N,Net-(U10-I7)*%
X129438400Y-83566000D03*
%TO.P,U9,10,Qd_10*%
%TO.N,Net-(U10-I6)*%
X128168400Y-83566000D03*
%TO.P,U9,11,Qc_11*%
%TO.N,Net-(U10-I5)*%
X126898400Y-83566000D03*
%TO.P,U9,12,Qb_12*%
%TO.N,Net-(U10-I4)*%
X125628400Y-83566000D03*
%TO.P,U9,13,Qa_13*%
%TO.N,Net-(U10-I3)*%
X124358400Y-83566000D03*
%TO.P,U9,14,Qg_14*%
%TO.N,Net-(U10-I2)*%
X123088400Y-83566000D03*
%TO.P,U9,15,Qf_15*%
%TO.N,Net-(U10-I1)*%
X121818400Y-83566000D03*
%TO.P,U9,16,Vdd_16*%
%TO.N,+5V*%
X120548400Y-83566000D03*
%TD*%
D35*
%TO.P,BT1,1,+_1*%
%TO.N,Net-(BT1-+)*%
X116079000Y-68072000D03*
%TO.P,BT1,2,-_2*%
%TO.N,GND*%
X131979000Y-68072000D03*
%TD*%
D36*
%TO.P,C14,1*%
%TO.N,+3V3*%
X96723200Y-70141800D03*
%TO.P,C14,2*%
%TO.N,GND*%
X96723200Y-71691800D03*
%TD*%
D25*
%TO.P,R19,1*%
%TO.N,+5V*%
X93701600Y-75438000D03*
%TO.P,R19,2*%
%TO.N,Net-(U5-~{LT})*%
X95351600Y-75438000D03*
%TD*%
D37*
%TO.P,C8,1*%
%TO.N,+5V*%
X77912000Y-74930000D03*
%TO.P,C8,2*%
%TO.N,GND*%
X76012000Y-74930000D03*
%TD*%
D32*
%TO.P,C11,1*%
%TO.N,Net-(RESET1-B)*%
X103645000Y-74205000D03*
%TO.P,C11,2*%
%TO.N,GND*%
X102095000Y-74205000D03*
%TD*%
D33*
%TO.P,R36,1*%
%TO.N,+36V*%
X116397500Y-104902000D03*
%TO.P,R36,2*%
%TO.N,Net-(R36-Pad2)*%
X113472500Y-104902000D03*
%TD*%
D32*
%TO.P,C10,1*%
%TO.N,/ENCBUT*%
X159157000Y-85090000D03*
%TO.P,C10,2*%
%TO.N,GND*%
X157607000Y-85090000D03*
%TD*%
D33*
%TO.P,R27,1*%
%TO.N,+36V*%
X103189500Y-104902000D03*
%TO.P,R27,2*%
%TO.N,Net-(R27-Pad2)*%
X100264500Y-104902000D03*
%TD*%
%TO.P,R18,1*%
%TO.N,+36V*%
X88457500Y-104902000D03*
%TO.P,R18,2*%
%TO.N,Net-(R18-Pad2)*%
X85532500Y-104902000D03*
%TD*%
D30*
%TO.P,U20,1,Q5_1*%
%TO.N,Net-(U20-Q5)*%
X72496499Y-73152000D03*
%TO.P,U20,2,Q1_2*%
%TO.N,Net-(U20-Q1)*%
X72496499Y-71882000D03*
%TO.P,U20,3,Q0_3*%
%TO.N,Net-(U20-Q0)*%
X72496499Y-70612000D03*
%TO.P,U20,4,Q2_4*%
%TO.N,Net-(U20-Q2)*%
X72496499Y-69342000D03*
%TO.P,U20,5,Q6_5*%
%TO.N,unconnected-(U20-Q6-Pad5)*%
X72496499Y-68072000D03*
%TO.P,U20,6,Q7_6*%
%TO.N,unconnected-(U20-Q7-Pad6)*%
X72496499Y-66802000D03*
%TO.P,U20,7,Q3_7*%
%TO.N,Net-(U20-Q3)*%
X72496499Y-65532000D03*
%TO.P,U20,8,VSS_8*%
%TO.N,GND*%
X72496499Y-64262000D03*
%TO.P,U20,9,Q8_9*%
%TO.N,unconnected-(U20-Q8-Pad9)*%
X77446499Y-64262000D03*
%TO.P,U20,10,Q4_10*%
%TO.N,Net-(U20-Q4)*%
X77446499Y-65532000D03*
%TO.P,U20,11,Q9_11*%
%TO.N,unconnected-(U20-Q9-Pad11)*%
X77446499Y-66802000D03*
%TO.P,U20,12,Co_12*%
%TO.N,unconnected-(U20-Co-Pad12)*%
X77446499Y-68072000D03*
%TO.P,U20,13,~{CP1}_13*%
%TO.N,GND*%
X77446499Y-69342000D03*
%TO.P,U20,14,CP0_14*%
%TO.N,/DCLOCK*%
X77446499Y-70612000D03*
%TO.P,U20,15,MR_15*%
%TO.N,/RESET*%
X77446499Y-71882000D03*
%TO.P,U20,16,VDD_16*%
%TO.N,+5V*%
X77446499Y-73152000D03*
%TD*%
D25*
%TO.P,R37,1*%
%TO.N,+5V*%
X116370600Y-76403200D03*
%TO.P,R37,2*%
%TO.N,Net-(U9-~{LT})*%
X118020600Y-76403200D03*
%TD*%
D38*
%TO.P,C2,1*%
%TO.N,+5V*%
X62890400Y-83769200D03*
%TO.P,C2,2*%
%TO.N,GND*%
X62890400Y-85669200D03*
%TD*%
D17*
%TO.P,J3,1,Pin_1_1*%
%TO.N,GND*%
X104140000Y-58420000D03*
D18*
%TO.P,J3,2,Pin_2_2*%
%TO.N,/PB2*%
X106680000Y-58420000D03*
%TO.P,J3,3,Pin_3_3*%
%TO.N,/PB3*%
X109220000Y-58420000D03*
%TO.P,J3,4,Pin_4_4*%
%TO.N,/PB4*%
X111760000Y-58420000D03*
%TO.P,J3,5,Pin_5_5*%
%TO.N,/PB5*%
X114300000Y-58420000D03*
%TO.P,J3,6,Pin_6_6*%
%TO.N,/PB6*%
X116840000Y-58420000D03*
%TO.P,J3,7,Pin_7_7*%
%TO.N,/PB7*%
X119380000Y-58420000D03*
%TO.P,J3,8,Pin_8_8*%
%TO.N,/PB8*%
X121920000Y-58420000D03*
%TO.P,J3,9,Pin_9_9*%
%TO.N,/PB14*%
X124460000Y-58420000D03*
%TO.P,J3,10,Pin_10_10*%
%TO.N,/PB15*%
X127000000Y-58420000D03*
%TD*%
D27*
%TO.P,U5,1,DB_1*%
%TO.N,/DB*%
X92811600Y-77441800D03*
%TO.P,U5,2,DC_2*%
%TO.N,/DC*%
X94081600Y-77441800D03*
%TO.P,U5,3,~{LT}_3*%
%TO.N,Net-(U5-~{LT})*%
X95351600Y-77441800D03*
%TO.P,U5,4,~{BI}_4*%
%TO.N,/DIMPWM*%
X96621600Y-77441800D03*
%TO.P,U5,5,~{EL}_5*%
%TO.N,Net-(U5-~{EL})*%
X97891600Y-77441800D03*
%TO.P,U5,6,DD_6*%
%TO.N,/DD*%
X99161600Y-77441800D03*
%TO.P,U5,7,DA_7*%
%TO.N,/DA*%
X100431600Y-77441800D03*
%TO.P,U5,8,Vss_8*%
%TO.N,GND*%
X101701600Y-77441800D03*
%TO.P,U5,9,Qe_9*%
%TO.N,Net-(U5-Qe)*%
X101701600Y-83616800D03*
%TO.P,U5,10,Qd_10*%
%TO.N,Net-(U5-Qd)*%
X100431600Y-83616800D03*
%TO.P,U5,11,Qc_11*%
%TO.N,Net-(U5-Qc)*%
X99161600Y-83616800D03*
%TO.P,U5,12,Qb_12*%
%TO.N,Net-(U5-Qb)*%
X97891600Y-83616800D03*
%TO.P,U5,13,Qa_13*%
%TO.N,Net-(U5-Qa)*%
X96621600Y-83616800D03*
%TO.P,U5,14,Qg_14*%
%TO.N,Net-(U5-Qg)*%
X95351600Y-83616800D03*
%TO.P,U5,15,Qf_15*%
%TO.N,Net-(U5-Qf)*%
X94081600Y-83616800D03*
%TO.P,U5,16,Vdd_16*%
%TO.N,+5V*%
X92811600Y-83616800D03*
%TD*%
D25*
%TO.P,R60,1*%
%TO.N,+3V3*%
X161037000Y-76962000D03*
%TO.P,R60,2*%
%TO.N,/ENCA*%
X162687000Y-76962000D03*
%TD*%
D32*
%TO.P,C9,1*%
%TO.N,GND*%
X159182400Y-75311000D03*
%TO.P,C9,2*%
%TO.N,/ENCB*%
X157632400Y-75311000D03*
%TD*%
D27*
%TO.P,U3,1,DB_1*%
%TO.N,/DB*%
X78105000Y-77430500D03*
%TO.P,U3,2,DC_2*%
%TO.N,/DC*%
X79375000Y-77430500D03*
%TO.P,U3,3,~{LT}_3*%
%TO.N,Net-(U3-~{LT})*%
X80645000Y-77430500D03*
%TO.P,U3,4,~{BI}_4*%
%TO.N,/DIMPWM*%
X81915000Y-77430500D03*
%TO.P,U3,5,~{EL}_5*%
%TO.N,Net-(U3-~{EL})*%
X83185000Y-77430500D03*
%TO.P,U3,6,DD_6*%
%TO.N,/DD*%
X84455000Y-77430500D03*
%TO.P,U3,7,DA_7*%
%TO.N,/DA*%
X85725000Y-77430500D03*
%TO.P,U3,8,Vss_8*%
%TO.N,GND*%
X86995000Y-77430500D03*
%TO.P,U3,9,Qe_9*%
%TO.N,Net-(U3-Qe)*%
X86995000Y-83605500D03*
%TO.P,U3,10,Qd_10*%
%TO.N,Net-(U3-Qd)*%
X85725000Y-83605500D03*
%TO.P,U3,11,Qc_11*%
%TO.N,Net-(U3-Qc)*%
X84455000Y-83605500D03*
%TO.P,U3,12,Qb_12*%
%TO.N,Net-(U3-Qb)*%
X83185000Y-83605500D03*
%TO.P,U3,13,Qa_13*%
%TO.N,Net-(U3-Qa)*%
X81915000Y-83605500D03*
%TO.P,U3,14,Qg_14*%
%TO.N,Net-(U3-Qg)*%
X80645000Y-83605500D03*
%TO.P,U3,15,Qf_15*%
%TO.N,Net-(U3-Qf)*%
X79375000Y-83605500D03*
%TO.P,U3,16,Vdd_16*%
%TO.N,+5V*%
X78105000Y-83605500D03*
%TD*%
D39*
%TO.P,Y1,1,1_1*%
%TO.N,/OSC_OUT*%
X99568000Y-71180000D03*
%TO.P,Y1,2,2_2*%
%TO.N,/OSC_IN*%
X99568000Y-65980000D03*
%TD*%
D23*
%TO.P,R76,1*%
%TO.N,GND*%
X79908400Y-73546200D03*
%TO.P,R76,2*%
%TO.N,Net-(Q2-B)*%
X79908400Y-75196200D03*
%TD*%
D40*
%TO.P,C30,1*%
%TO.N,GND*%
X64719200Y-74980800D03*
%TO.P,C30,2*%
%TO.N,+5V*%
X66619200Y-74980800D03*
%TD*%
D24*
%TO.P,U2,1,I1_1*%
%TO.N,Net-(U1-Qf)*%
X66167000Y-86067500D03*
%TO.P,U2,2,I2_2*%
%TO.N,Net-(U1-Qg)*%
X67437000Y-86067500D03*
%TO.P,U2,3,I3_3*%
%TO.N,Net-(U1-Qa)*%
X68707000Y-86067500D03*
%TO.P,U2,4,I4_4*%
%TO.N,Net-(U1-Qb)*%
X69977000Y-86067500D03*
%TO.P,U2,5,I5_5*%
%TO.N,Net-(U1-Qc)*%
X71247000Y-86067500D03*
%TO.P,U2,6,I6_6*%
%TO.N,Net-(U1-Qd)*%
X72517000Y-86067500D03*
%TO.P,U2,7,I7_7*%
%TO.N,Net-(U1-Qe)*%
X73787000Y-86067500D03*
%TO.P,U2,8,I8_8*%
%TO.N,GND*%
X75057000Y-86067500D03*
%TO.P,U2,9,VCC_9*%
%TO.N,+36V*%
X76327000Y-86067500D03*
%TO.P,U2,10,GND_10*%
%TO.N,GND*%
X76327000Y-95367500D03*
%TO.P,U2,11,O8_11*%
%TO.N,unconnected-(U2-O8-Pad11)*%
X75057000Y-95367500D03*
%TO.P,U2,12,O7_12*%
%TO.N,Net-(U2-O7)*%
X73787000Y-95367500D03*
%TO.P,U2,13,O6_13*%
%TO.N,Net-(U2-O6)*%
X72517000Y-95367500D03*
%TO.P,U2,14,O5_14*%
%TO.N,Net-(U2-O5)*%
X71247000Y-95367500D03*
%TO.P,U2,15,O4_15*%
%TO.N,Net-(U2-O4)*%
X69977000Y-95367500D03*
%TO.P,U2,16,O3_16*%
%TO.N,Net-(U2-O3)*%
X68707000Y-95367500D03*
%TO.P,U2,17,O2_17*%
%TO.N,Net-(U2-O2)*%
X67437000Y-95367500D03*
%TO.P,U2,18,O1_18*%
%TO.N,Net-(U2-O1)*%
X66167000Y-95367500D03*
%TD*%
D33*
%TO.P,R1,1*%
%TO.N,+36V*%
X75122500Y-104902000D03*
%TO.P,R1,2*%
%TO.N,Net-(R1-Pad2)*%
X72197500Y-104902000D03*
%TD*%
D36*
%TO.P,C12,1*%
%TO.N,+3V3*%
X96723200Y-65976200D03*
%TO.P,C12,2*%
%TO.N,GND*%
X96723200Y-67526200D03*
%TD*%
D26*
%TO.P,TP1,1,1_1*%
%TO.N,+3V3*%
X146100800Y-80162400D03*
%TD*%
D24*
%TO.P,U4,1,I1_1*%
%TO.N,Net-(U3-Qf)*%
X79375000Y-86067500D03*
%TO.P,U4,2,I2_2*%
%TO.N,Net-(U3-Qg)*%
X80645000Y-86067500D03*
%TO.P,U4,3,I3_3*%
%TO.N,Net-(U3-Qa)*%
X81915000Y-86067500D03*
%TO.P,U4,4,I4_4*%
%TO.N,Net-(U3-Qb)*%
X83185000Y-86067500D03*
%TO.P,U4,5,I5_5*%
%TO.N,Net-(U3-Qc)*%
X84455000Y-86067500D03*
%TO.P,U4,6,I6_6*%
%TO.N,Net-(U3-Qd)*%
X85725000Y-86067500D03*
%TO.P,U4,7,I7_7*%
%TO.N,Net-(U3-Qe)*%
X86995000Y-86067500D03*
%TO.P,U4,8,I8_8*%
%TO.N,GND*%
X88265000Y-86067500D03*
%TO.P,U4,9,VCC_9*%
%TO.N,+36V*%
X89535000Y-86067500D03*
%TO.P,U4,10,GND_10*%
%TO.N,GND*%
X89535000Y-95367500D03*
%TO.P,U4,11,O8_11*%
%TO.N,unconnected-(U4-O8-Pad11)*%
X88265000Y-95367500D03*
%TO.P,U4,12,O7_12*%
%TO.N,Net-(U4-O7)*%
X86995000Y-95367500D03*
%TO.P,U4,13,O6_13*%
%TO.N,Net-(U4-O6)*%
X85725000Y-95367500D03*
%TO.P,U4,14,O5_14*%
%TO.N,Net-(U4-O5)*%
X84455000Y-95367500D03*
%TO.P,U4,15,O4_15*%
%TO.N,Net-(U4-O4)*%
X83185000Y-95367500D03*
%TO.P,U4,16,O3_16*%
%TO.N,Net-(U4-O3)*%
X81915000Y-95367500D03*
%TO.P,U4,17,O2_17*%
%TO.N,Net-(U4-O2)*%
X80645000Y-95367500D03*
%TO.P,U4,18,O1_18*%
%TO.N,Net-(U4-O1)*%
X79375000Y-95367500D03*
%TD*%
D32*
%TO.P,C15,1*%
%TO.N,+3V3*%
X86881000Y-73609200D03*
%TO.P,C15,2*%
%TO.N,GND*%
X85331000Y-73609200D03*
%TD*%
D41*
%TO.P,RESET1,1,A_1*%
%TO.N,GND*%
X105283000Y-64590000D03*
%TO.P,RESET1,2,B_2*%
%TO.N,Net-(RESET1-B)*%
X105283000Y-72390000D03*
%TD*%
D36*
%TO.P,C16,1*%
%TO.N,GND*%
X102489000Y-70980000D03*
%TO.P,C16,2*%
%TO.N,/OSC_OUT*%
X102489000Y-72530000D03*
%TD*%
D33*
%TO.P,R45,1*%
%TO.N,+36V*%
X130875500Y-104902000D03*
%TO.P,R45,2*%
%TO.N,Net-(R45-Pad2)*%
X127950500Y-104902000D03*
%TD*%
D25*
%TO.P,R65,1*%
%TO.N,Net-(U15-BOOT0)*%
X91631000Y-62738000D03*
%TO.P,R65,2*%
%TO.N,GND*%
X93281000Y-62738000D03*
%TD*%
D42*
%TO.N,/ENCB*%
X85496400Y-71145400D03*
%TO.N,/ENCA*%
X85013800Y-71856600D03*
%TO.N,GND*%
X148209000Y-92583000D03*
X102537000Y-77391000D03*
X86816450Y-64410123D03*
X153797000Y-101473000D03*
X89560400Y-93827600D03*
X145161000Y-61976000D03*
X104241600Y-93929200D03*
X156006800Y-93599000D03*
X133604000Y-86360000D03*
X93055000Y-63754000D03*
X77978000Y-86512400D03*
X150114000Y-67310000D03*
X76352400Y-93929200D03*
X154559000Y-101473000D03*
X150594400Y-67310000D03*
X87872700Y-77430500D03*
X145161000Y-60452000D03*
X63957200Y-85648800D03*
X156006800Y-94056200D03*
X151384000Y-79463900D03*
X75996800Y-69342000D03*
X90633628Y-82712495D03*
X70916800Y-64262000D03*
X152273000Y-88011000D03*
X115773200Y-77419200D03*
X102971600Y-84582000D03*
X96164400Y-66751200D03*
X104216200Y-64973200D03*
X153974800Y-85902800D03*
X116128800Y-84429600D03*
X88646000Y-72136000D03*
X148971000Y-78867000D03*
X74563100Y-77430500D03*
X153517600Y-85902800D03*
X152273000Y-87630000D03*
X142595600Y-78613000D03*
X160528000Y-96266000D03*
X81686400Y-74218800D03*
X145135600Y-93726000D03*
X74930000Y-74930000D03*
X101142800Y-73914000D03*
X87757000Y-66852800D03*
X101600000Y-70980000D03*
D43*
X112395000Y-65913000D03*
D42*
X143865600Y-84480400D03*
X149453600Y-78892400D03*
X84480400Y-73609200D03*
X154940000Y-101473000D03*
X75057000Y-84632800D03*
X149588997Y-67310000D03*
D43*
X142748000Y-70612000D03*
X129159000Y-67564000D03*
D42*
X101600000Y-66180000D03*
X154178000Y-101473000D03*
X117449600Y-93827600D03*
X63510200Y-74980800D03*
X159004000Y-96266000D03*
X130726200Y-84599800D03*
X118434164Y-82905600D03*
X145161000Y-61468000D03*
X130279400Y-77391000D03*
X145161000Y-59944000D03*
D43*
X105791000Y-88900000D03*
D42*
X131978400Y-93827600D03*
X96164400Y-70916800D03*
X145161000Y-60960000D03*
X147828000Y-92583000D03*
X152273000Y-88392000D03*
X88531700Y-84086700D03*
X93827600Y-69676000D03*
X153060400Y-85902800D03*
X154381200Y-85902800D03*
X156006800Y-93141800D03*
X62026800Y-65479900D03*
%TO.N,+1V2*%
X156845000Y-97663000D03*
X154914600Y-94869000D03*
%TO.N,+5V*%
X132450800Y-83581200D03*
X118618000Y-71628000D03*
X149623000Y-107497021D03*
D43*
X76795500Y-83605500D03*
D42*
X153543000Y-90750000D03*
X154051000Y-90750000D03*
X90830400Y-83694000D03*
X117195600Y-76403200D03*
X153035000Y-90750000D03*
X63957200Y-84785200D03*
X132486400Y-75234800D03*
X154559000Y-90750000D03*
X66600100Y-73099900D03*
X118593600Y-83694000D03*
X92913200Y-75285600D03*
X76860400Y-75895200D03*
D43*
X104648000Y-83566000D03*
D42*
%TO.N,+36V*%
X76352400Y-88188800D03*
X89560400Y-88112600D03*
X145135600Y-88188800D03*
X104241600Y-88341200D03*
X132003800Y-88138000D03*
X146304000Y-88188800D03*
X117398800Y-88239600D03*
X145542000Y-104902000D03*
%TO.N,Net-(D1-K)*%
X87884000Y-76047600D03*
%TO.N,Net-(U18-SW)*%
X148033000Y-106465612D03*
X150573000Y-106426000D03*
%TO.N,+3V3*%
X93268800Y-69149000D03*
X86881000Y-72974200D03*
X106730800Y-69138800D03*
X93929200Y-66350000D03*
D43*
X149352000Y-73025000D03*
D42*
X108585000Y-68808600D03*
X158445200Y-76149200D03*
D43*
X147955000Y-80137000D03*
D42*
X88742400Y-66350000D03*
%TO.N,/ENCA*%
X161848800Y-76962000D03*
%TO.N,/ENCB*%
X158445200Y-76962000D03*
%TO.N,/ENCBUT*%
X159157000Y-84227000D03*
X88900000Y-74371200D03*
D43*
%TO.N,Net-(BZ1--)*%
X147828000Y-75184000D03*
D42*
%TO.N,/SWCLK*%
X87985600Y-63347600D03*
%TO.N,/SWDIO*%
X88290400Y-67564000D03*
%TO.N,/DB*%
X93929200Y-71374000D03*
X120827800Y-82194400D03*
X64922400Y-82194400D03*
X92837000Y-78613000D03*
X92862400Y-82194400D03*
X78105000Y-82194400D03*
X133705600Y-82194400D03*
X105968800Y-82194400D03*
X64922400Y-78689200D03*
X133705600Y-78587600D03*
X120548400Y-78587600D03*
X78105000Y-78740000D03*
X105968800Y-78638400D03*
%TO.N,/DC*%
X94081600Y-81635600D03*
X134975600Y-81635600D03*
X95910400Y-72339200D03*
X121818400Y-81635600D03*
X66192400Y-81635600D03*
X134975600Y-78587600D03*
X66192400Y-78689200D03*
X107238800Y-81635600D03*
X79375000Y-78663800D03*
X121818400Y-78587600D03*
X107238800Y-78638400D03*
X79349600Y-81635600D03*
X94234000Y-78663800D03*
%TO.N,/DIMPWM*%
X96621600Y-78638400D03*
X91679432Y-69375000D03*
X109778800Y-78638400D03*
X96621600Y-81127600D03*
X94322900Y-73240900D03*
X67462400Y-78822600D03*
X67462400Y-81127600D03*
X81940400Y-81127600D03*
X124358400Y-81127600D03*
X109778800Y-81127600D03*
X137515600Y-78587600D03*
X81915000Y-78638400D03*
X124358400Y-78587600D03*
X137566400Y-81127600D03*
%TO.N,/DD*%
X126898400Y-78587600D03*
X140055600Y-80568800D03*
X112318800Y-78638400D03*
X99161600Y-78638400D03*
X126898400Y-80568800D03*
X140055600Y-78587600D03*
X71247000Y-78663800D03*
X71272400Y-80568800D03*
X112318800Y-80568800D03*
X84480400Y-80568800D03*
X84480400Y-78638400D03*
X99161600Y-80568800D03*
%TO.N,/DA*%
X93472000Y-80010000D03*
X85725000Y-78613000D03*
X100431600Y-78587600D03*
X72491600Y-78638400D03*
X113588800Y-78638400D03*
X141274800Y-80010000D03*
X100431600Y-80010000D03*
X113588800Y-80010000D03*
X128168400Y-78587600D03*
X72542400Y-80010000D03*
X85750400Y-80010000D03*
X141376400Y-78587600D03*
X128168400Y-80010000D03*
X93370400Y-70891400D03*
%TO.N,/PA4*%
X89725500Y-70269100D03*
X84734400Y-69545200D03*
%TO.N,/RTC_RES*%
X90946002Y-74810305D03*
X112979200Y-73507600D03*
%TO.N,/RTC_DAT*%
X90271600Y-74777600D03*
X111760000Y-72034400D03*
%TO.N,/PB2*%
X103581200Y-64008000D03*
X90297000Y-71975600D03*
X105918000Y-59690000D03*
%TO.N,/RTC_CLK*%
X110134400Y-73202800D03*
X89560400Y-74777600D03*
%TO.N,/PB14*%
X89052400Y-70358000D03*
%TO.N,/PB15*%
X88265000Y-70248400D03*
%TO.N,/PB3*%
X89103200Y-62687200D03*
%TO.N,/PB4*%
X89582000Y-63360052D03*
%TO.N,/PB5*%
X90474800Y-63106200D03*
%TO.N,/PB6*%
X90557000Y-63877000D03*
%TO.N,/PB7*%
X91313000Y-66167000D03*
%TO.N,/PB8*%
X91948000Y-66167000D03*
%TO.N,Net-(U20-Q0)*%
X70256400Y-72593200D03*
X71048599Y-70612000D03*
%TO.N,Net-(U5-~{EL})*%
X97891600Y-78689200D03*
X97840800Y-88544400D03*
%TO.N,Net-(U7-~{EL})*%
X111048800Y-88747600D03*
X111048800Y-78638400D03*
%TO.N,Net-(U9-~{EL})*%
X125628400Y-78613000D03*
X61671200Y-68783200D03*
X125730000Y-88544400D03*
X61468000Y-87426800D03*
%TO.N,Net-(U11-~{EL})*%
X66193700Y-70559900D03*
X138836400Y-88747600D03*
X62146200Y-88729800D03*
X138811000Y-78613000D03*
%TD*%
%TO.N,GND*%
D44*
X142595600Y-78613000D02*
X142595600Y-77264000D01*
%TO.N,+5V*%
X90958400Y-83566000D02*
X92517000Y-83566000D01*
X90830400Y-83694000D02*
X90958400Y-83566000D01*
%TO.N,+36V*%
X89535000Y-88087200D02*
X89560400Y-88112600D01*
X89535000Y-86067500D02*
X89535000Y-88087200D01*
X131978400Y-86028000D02*
X131978400Y-88112600D01*
X131978400Y-88112600D02*
X132003800Y-88138000D01*
%TO.N,Net-(U4-O7)*%
X86986950Y-93958250D02*
X86986950Y-95345750D01*
X86568450Y-93539750D02*
X86986950Y-93958250D01*
X78285950Y-94080961D02*
X78827161Y-93539750D01*
X78285950Y-100612550D02*
X78285950Y-94080961D01*
X78997650Y-101324250D02*
X78285950Y-100612550D01*
X80336450Y-101324250D02*
X78997650Y-101324250D01*
X78827161Y-93539750D02*
X86568450Y-93539750D01*
X81470950Y-100189750D02*
X80336450Y-101324250D01*
%TO.N,Net-(U4-O5)*%
X90551000Y-100685600D02*
X89912350Y-101324250D01*
X87798850Y-96968250D02*
X90551000Y-99720400D01*
X90551000Y-99720400D02*
X90551000Y-100685600D01*
X89912350Y-101324250D02*
X86586450Y-101324250D01*
X84700950Y-96968250D02*
X87798850Y-96968250D01*
X84446950Y-96714250D02*
X84700950Y-96968250D01*
X86586450Y-101324250D02*
X85470950Y-102439750D01*
X84446950Y-95345750D02*
X84446950Y-96714250D01*
%TO.N,Net-(U10-O5)*%
X129055250Y-101324250D02*
X127939750Y-102439750D01*
X133045200Y-100634800D02*
X132355750Y-101324250D01*
X132355750Y-101324250D02*
X129055250Y-101324250D01*
X133045200Y-99720400D02*
X133045200Y-100634800D01*
X130293050Y-96968250D02*
X133045200Y-99720400D01*
X126915750Y-96714250D02*
X127169750Y-96968250D01*
X127169750Y-96968250D02*
X130293050Y-96968250D01*
X126915750Y-95345750D02*
X126915750Y-96714250D01*
%TO.N,/DB*%
X120818895Y-82185495D02*
X120827800Y-82194400D01*
X90415337Y-82185495D02*
X120818895Y-82185495D01*
X90406432Y-82194400D02*
X90415337Y-82185495D01*
X64922400Y-82194400D02*
X90406432Y-82194400D01*
X120827800Y-82194400D02*
X133705600Y-82194400D01*
%TO.N,/DIMPWM*%
D10*
X96621600Y-75339696D02*
X96621600Y-77441800D01*
X94637104Y-73355200D02*
X96621600Y-75339696D01*
X94437200Y-73355200D02*
X94637104Y-73355200D01*
X94322900Y-73240900D02*
X94437200Y-73355200D01*
%TO.N,/PA4*%
X91109800Y-70358000D02*
X93055000Y-72303200D01*
X93055000Y-72303200D02*
X93055000Y-73262500D01*
X89725500Y-70269100D02*
X89814400Y-70358000D01*
X89814400Y-70358000D02*
X91109800Y-70358000D01*
%TO.N,/RTC_RES*%
X91055000Y-74807000D02*
X91055000Y-73262500D01*
X90946002Y-74810305D02*
X91051695Y-74810305D01*
X91051695Y-74810305D02*
X91055000Y-74807000D01*
%TO.N,/COLON*%
D45*
X92555000Y-74551600D02*
X92555000Y-73262500D01*
X91373000Y-75733600D02*
X92555000Y-74551600D01*
X87893632Y-75234800D02*
X88392431Y-75733600D01*
X86931000Y-75234800D02*
X87893632Y-75234800D01*
X88392431Y-75733600D02*
X91373000Y-75733600D01*
%TO.N,Net-(U8-O7)*%
D44*
X114457650Y-93488950D02*
X114876150Y-93907450D01*
X114876150Y-93907450D02*
X114876150Y-95294950D01*
X106175150Y-100637950D02*
X106175150Y-94030161D01*
X106716361Y-93488950D02*
X114457650Y-93488950D01*
X106810650Y-101273450D02*
X106175150Y-100637950D01*
X106175150Y-94030161D02*
X106716361Y-93488950D01*
X108225650Y-101273450D02*
X106810650Y-101273450D01*
X109360150Y-100138950D02*
X108225650Y-101273450D01*
%TO.N,+3V3*%
X86881000Y-72974200D02*
X86881000Y-73609200D01*
%TO.N,/ENCB*%
D10*
X85496400Y-71145400D02*
X85701000Y-71350000D01*
X85701000Y-71350000D02*
X86642500Y-71350000D01*
%TO.N,/ENCA*%
X85566000Y-71850000D02*
X86642500Y-71850000D01*
X85559400Y-71856600D02*
X85566000Y-71850000D01*
X85013800Y-71856600D02*
X85559400Y-71856600D01*
%TO.N,/DA*%
X94918500Y-70899000D02*
X94967500Y-70850000D01*
X94161307Y-70899000D02*
X94918500Y-70899000D01*
X94136307Y-70874000D02*
X94161307Y-70899000D01*
X93387800Y-70874000D02*
X94136307Y-70874000D01*
X93370400Y-70891400D02*
X93387800Y-70874000D01*
X93370400Y-70891400D02*
X93395800Y-70866000D01*
%TO.N,+3V3*%
D44*
X93893491Y-70339000D02*
X93906491Y-70352000D01*
X94965500Y-70352000D02*
X94967500Y-70350000D01*
X93732400Y-70339000D02*
X93893491Y-70339000D01*
X93906491Y-70352000D02*
X94965500Y-70352000D01*
X93268800Y-69149000D02*
X93268800Y-69875400D01*
X93268800Y-69875400D02*
X93732400Y-70339000D01*
%TO.N,GND*%
D10*
X94001600Y-69850000D02*
X93827600Y-69676000D01*
X94967500Y-69850000D02*
X94001600Y-69850000D01*
%TO.N,/BUZZER*%
X140051000Y-72103000D02*
X140462000Y-71692000D01*
X113376424Y-72128000D02*
X118825107Y-72128000D01*
X111770000Y-73734424D02*
X113376424Y-72128000D01*
X111770000Y-75426576D02*
X111770000Y-73734424D01*
X97540589Y-75693000D02*
X111503576Y-75693000D01*
X93713400Y-72225000D02*
X94072589Y-72225000D01*
X111503576Y-75693000D02*
X111770000Y-75426576D01*
X91236800Y-69748400D02*
X93713400Y-72225000D01*
X87514010Y-69748400D02*
X91236800Y-69748400D01*
X86642500Y-69850000D02*
X87412410Y-69850000D01*
X118850107Y-72103000D02*
X140051000Y-72103000D01*
X87412410Y-69850000D02*
X87514010Y-69748400D01*
X118825107Y-72128000D02*
X118850107Y-72103000D01*
X94072589Y-72225000D02*
X97540589Y-75693000D01*
%TO.N,Net-(U8-O5)*%
D44*
X117877750Y-101273450D02*
X114475650Y-101273450D01*
X118516400Y-100634800D02*
X117877750Y-101273450D01*
X114475650Y-101273450D02*
X113360150Y-102388950D01*
X115738850Y-96917450D02*
X118516400Y-99695000D01*
X118516400Y-99695000D02*
X118516400Y-100634800D01*
X112590150Y-96917450D02*
X115738850Y-96917450D01*
X112336150Y-96663450D02*
X112590150Y-96917450D01*
X112336150Y-95294950D02*
X112336150Y-96663450D01*
%TO.N,+3V3*%
X108585000Y-67405500D02*
X108585000Y-68808600D01*
%TO.N,/DC*%
X94081600Y-78511400D02*
X94234000Y-78663800D01*
X94081600Y-77441800D02*
X94081600Y-78511400D01*
%TO.N,/DD*%
D10*
X98602800Y-79197200D02*
X99161600Y-78638400D01*
X95504000Y-79197200D02*
X98602800Y-79197200D01*
X94706600Y-78399800D02*
X95504000Y-79197200D01*
X94706600Y-76495724D02*
X94706600Y-78399800D01*
X94640400Y-74347900D02*
X94640400Y-76429524D01*
X94640400Y-76429524D02*
X94706600Y-76495724D01*
X93555000Y-73262500D02*
X94640400Y-74347900D01*
%TO.N,Net-(U7-~{EL})*%
D44*
X111048800Y-78638400D02*
X111048800Y-77391000D01*
%TO.N,Net-(U9-~{EL})*%
X125628400Y-78613000D02*
X125628400Y-77391000D01*
%TO.N,Net-(U11-~{EL})*%
X138811000Y-78613000D02*
X138811000Y-77289400D01*
X138811000Y-77289400D02*
X138785600Y-77264000D01*
%TO.N,Net-(U2-O4)*%
X73503500Y-97444000D02*
X76271000Y-100211500D01*
X69977000Y-95367500D02*
X69977000Y-97317000D01*
X69977000Y-97317000D02*
X70104000Y-97444000D01*
X70104000Y-97444000D02*
X73503500Y-97444000D01*
%TO.N,Net-(U2-O3)*%
X68707000Y-95367500D02*
X68707000Y-97644000D01*
X68707000Y-97644000D02*
X68961000Y-97898000D01*
X68961000Y-97898000D02*
X71957500Y-97898000D01*
X71957500Y-97898000D02*
X74271000Y-100211500D01*
%TO.N,Net-(U2-O2)*%
X67564000Y-98352000D02*
X70411500Y-98352000D01*
X70411500Y-98352000D02*
X72271000Y-100211500D01*
X67437000Y-95367500D02*
X67437000Y-98225000D01*
X67437000Y-98225000D02*
X67564000Y-98352000D01*
%TO.N,Net-(U2-O1)*%
X69596000Y-98806000D02*
X70271000Y-99481000D01*
X66167000Y-95367500D02*
X66167000Y-97663000D01*
X70271000Y-99481000D02*
X70271000Y-100211500D01*
X67310000Y-98806000D02*
X69596000Y-98806000D01*
X66167000Y-97663000D02*
X67310000Y-98806000D01*
%TO.N,Net-(U2-O7)*%
X68271000Y-100211500D02*
X67136500Y-101346000D01*
X65953102Y-101346000D02*
X65086000Y-100478898D01*
X65086000Y-94102711D02*
X65627211Y-93561500D01*
X73368500Y-93561500D02*
X73787000Y-93980000D01*
X73787000Y-93980000D02*
X73787000Y-95367500D01*
X65086000Y-100478898D02*
X65086000Y-94102711D01*
X67136500Y-101346000D02*
X65953102Y-101346000D01*
X65627211Y-93561500D02*
X73368500Y-93561500D01*
%TO.N,Net-(U2-O6)*%
X65540000Y-99480500D02*
X65540000Y-94290764D01*
X65540000Y-94290764D02*
X65815264Y-94015500D01*
X72517000Y-94107000D02*
X72517000Y-95367500D01*
X72425500Y-94015500D02*
X72517000Y-94107000D01*
X65815264Y-94015500D02*
X72425500Y-94015500D01*
X66271000Y-100211500D02*
X65540000Y-99480500D01*
%TO.N,GND*%
X104899800Y-64973200D02*
X105283000Y-64590000D01*
D46*
X160147000Y-74346400D02*
X160147000Y-74371200D01*
D44*
X115745000Y-77391000D02*
X115773200Y-77419200D01*
X86995000Y-77430500D02*
X87872700Y-77430500D01*
D46*
X142651000Y-70709000D02*
X142748000Y-70612000D01*
D44*
X75057000Y-86067500D02*
X75057000Y-84632800D01*
X102095000Y-74205000D02*
X101433800Y-74205000D01*
X93055000Y-62964000D02*
X93281000Y-62738000D01*
X72496499Y-64262000D02*
X70916800Y-64262000D01*
D10*
X96723200Y-71475600D02*
X96164400Y-70916800D01*
D44*
X102971600Y-84541400D02*
X102971600Y-84582000D01*
X89560400Y-95351600D02*
X89560400Y-93827600D01*
X104216200Y-64973200D02*
X104899800Y-64973200D01*
X63403299Y-65479900D02*
X62026800Y-65479900D01*
X102489000Y-66180000D02*
X101600000Y-66180000D01*
X76327000Y-95367500D02*
X76352400Y-95342100D01*
D46*
X142651000Y-71503000D02*
X142651000Y-70709000D01*
X160147000Y-73014000D02*
X160147000Y-74346400D01*
D44*
X81663300Y-73421200D02*
X81663300Y-74195700D01*
X88531700Y-84086700D02*
X88265000Y-84353400D01*
X79908400Y-73546200D02*
X81538300Y-73546200D01*
D10*
X86642500Y-66850000D02*
X87754200Y-66850000D01*
D44*
X81663300Y-74195700D02*
X81686400Y-74218800D01*
X102489000Y-70980000D02*
X101600000Y-70980000D01*
X77446499Y-69342000D02*
X75996800Y-69342000D01*
D46*
X129667000Y-68072000D02*
X129159000Y-67564000D01*
D44*
X101433800Y-74205000D02*
X101142800Y-73914000D01*
X130726200Y-84599800D02*
X130708400Y-84617600D01*
X143865600Y-85950000D02*
X143865600Y-84480400D01*
D10*
X87754200Y-66850000D02*
X87757000Y-66852800D01*
D44*
X76012000Y-75205500D02*
X76012000Y-74930000D01*
X101701600Y-77391000D02*
X102537000Y-77391000D01*
D10*
X86816450Y-64410123D02*
X86816450Y-64210450D01*
D46*
X157607000Y-87474000D02*
X157647000Y-87514000D01*
D44*
X117449600Y-95351600D02*
X117449600Y-93827600D01*
X131978400Y-95351600D02*
X131978400Y-93827600D01*
X88555000Y-73262500D02*
X88555000Y-72227000D01*
X102537000Y-77391000D02*
X102565200Y-77419200D01*
X93055000Y-64937500D02*
X93055000Y-63754000D01*
D10*
X84480400Y-73609200D02*
X85331000Y-73609200D01*
D44*
X75996800Y-69342000D02*
X75946000Y-69342000D01*
D10*
X96723200Y-71691800D02*
X96723200Y-71475600D01*
D44*
X102883000Y-66180000D02*
X102870000Y-66167000D01*
X62890400Y-85669200D02*
X63936800Y-85669200D01*
X76352400Y-95342100D02*
X76352400Y-93929200D01*
X130708400Y-84617600D02*
X130708400Y-86028000D01*
X93055000Y-63754000D02*
X93055000Y-62964000D01*
X88265000Y-84353400D02*
X88265000Y-86067500D01*
D10*
X96723200Y-67310000D02*
X96164400Y-66751200D01*
D46*
X76012000Y-74930000D02*
X74930000Y-74930000D01*
D44*
X81538300Y-73546200D02*
X81663300Y-73421200D01*
X116128800Y-84429600D02*
X116128800Y-86028000D01*
D46*
X160147000Y-74371200D02*
X161086800Y-75311000D01*
X160147000Y-74346400D02*
X159182400Y-75311000D01*
X131979000Y-68072000D02*
X129667000Y-68072000D01*
D44*
X63936800Y-85669200D02*
X63957200Y-85648800D01*
X102971600Y-84582000D02*
X102971600Y-86028000D01*
X145135600Y-95250000D02*
X145135600Y-93726000D01*
X114858800Y-77391000D02*
X115745000Y-77391000D01*
X73787000Y-77430500D02*
X74563100Y-77430500D01*
D10*
X86233000Y-63627000D02*
X86233000Y-63614000D01*
X86816450Y-64210450D02*
X86233000Y-63627000D01*
D44*
X129438400Y-77391000D02*
X130279400Y-77391000D01*
D46*
X64719200Y-74980800D02*
X63510200Y-74980800D01*
D44*
X104241600Y-95453200D02*
X104241600Y-93929200D01*
D46*
X112395000Y-67405500D02*
X112395000Y-65913000D01*
X157607000Y-85090000D02*
X157607000Y-87474000D01*
D44*
X88555000Y-72227000D02*
X88646000Y-72136000D01*
D10*
X96723200Y-67526200D02*
X96723200Y-67310000D01*
%TO.N,+1V2*%
D44*
X155575000Y-96393000D02*
X156845000Y-97663000D01*
X155194000Y-94869000D02*
X155575000Y-95250000D01*
X155575000Y-95250000D02*
X155575000Y-96393000D01*
X154914600Y-94869000D02*
X155194000Y-94869000D01*
%TO.N,Net-(R1-Pad2)*%
D46*
X70271000Y-102461500D02*
X70271000Y-102975500D01*
X70271000Y-102975500D02*
X72197500Y-104902000D01*
%TO.N,Net-(U2-O5)*%
D44*
X77298000Y-99786102D02*
X77298000Y-100636898D01*
X71247000Y-96736000D02*
X71501000Y-96990000D01*
X73386500Y-101346000D02*
X72271000Y-102461500D01*
X77298000Y-100636898D02*
X76588898Y-101346000D01*
X71501000Y-96990000D02*
X74501898Y-96990000D01*
X74501898Y-96990000D02*
X77298000Y-99786102D01*
X71247000Y-95367500D02*
X71247000Y-96736000D01*
X76588898Y-101346000D02*
X73386500Y-101346000D01*
%TO.N,+5V*%
X66600100Y-74961700D02*
X66619200Y-74980800D01*
X77912000Y-74930000D02*
X76946800Y-75895200D01*
D46*
X149623000Y-107497021D02*
X152852979Y-107497021D01*
D44*
X133563400Y-83581200D02*
X133705600Y-83439000D01*
X92913200Y-75285600D02*
X93549200Y-75285600D01*
X64897000Y-83605500D02*
X63054100Y-83605500D01*
X116370600Y-76403200D02*
X117195600Y-76403200D01*
X77912000Y-73617501D02*
X77446499Y-73152000D01*
X93549200Y-75285600D02*
X93701600Y-75438000D01*
X115760000Y-74930000D02*
X115760000Y-75792600D01*
X68009000Y-74980800D02*
X66619200Y-74980800D01*
X63054100Y-83605500D02*
X62890400Y-83769200D01*
X77912000Y-74930000D02*
X77912000Y-73617501D01*
X62890400Y-83769200D02*
X63906400Y-84785200D01*
D46*
X153035000Y-90750000D02*
X153035000Y-107315000D01*
D44*
X118721600Y-83566000D02*
X118593600Y-83694000D01*
X76746600Y-75895200D02*
X75946000Y-76695800D01*
D46*
X78105000Y-83605500D02*
X76795500Y-83605500D01*
D44*
X63906400Y-84785200D02*
X63957200Y-84785200D01*
X76860400Y-75895200D02*
X76746600Y-75895200D01*
X134607800Y-75234800D02*
X132486400Y-75234800D01*
X105725000Y-83566000D02*
X105968800Y-83566000D01*
X115760000Y-75792600D02*
X116370600Y-76403200D01*
X76946800Y-75895200D02*
X76860400Y-75895200D01*
X120203000Y-83566000D02*
X118721600Y-83566000D01*
X120548400Y-87376000D02*
X120446800Y-87477600D01*
D46*
X66600100Y-73099900D02*
X66600100Y-74961700D01*
X152852979Y-107497021D02*
X153035000Y-107315000D01*
D44*
X132450800Y-83581200D02*
X133563400Y-83581200D01*
D46*
X68353299Y-73099900D02*
X66600100Y-73099900D01*
D44*
X120548400Y-83566000D02*
X120548400Y-87376000D01*
D46*
X105968800Y-83566000D02*
X104648000Y-83566000D01*
%TO.N,+36V*%
X103124000Y-106680000D02*
X88392000Y-106680000D01*
X130875500Y-106614500D02*
X130810000Y-106680000D01*
X103189500Y-106614500D02*
X103124000Y-106680000D01*
X116397500Y-106614500D02*
X116332000Y-106680000D01*
X88392000Y-106680000D02*
X76900500Y-106680000D01*
D44*
X104241600Y-86055200D02*
X104241600Y-88341200D01*
X76327000Y-88163400D02*
X76327000Y-86067500D01*
X145135600Y-85950000D02*
X145135600Y-88188800D01*
D46*
X119380000Y-106680000D02*
X116332000Y-106680000D01*
X116332000Y-106680000D02*
X103124000Y-106680000D01*
X76900500Y-106680000D02*
X75122500Y-104902000D01*
X103189500Y-104902000D02*
X103189500Y-106614500D01*
X88457500Y-104902000D02*
X88457500Y-106614500D01*
X119380000Y-106680000D02*
X130810000Y-106680000D01*
X116397500Y-104902000D02*
X116397500Y-106614500D01*
X142305500Y-106680000D02*
X144083500Y-104902000D01*
X88457500Y-106614500D02*
X88392000Y-106680000D01*
D44*
X76352400Y-88188800D02*
X76327000Y-88163400D01*
X145542000Y-104902000D02*
X144083500Y-104902000D01*
D46*
X130810000Y-106680000D02*
X142305500Y-106680000D01*
D44*
X117398800Y-86055200D02*
X117398800Y-88239600D01*
D46*
X130875500Y-104902000D02*
X130875500Y-106614500D01*
%TO.N,Net-(D1-K)*%
D44*
X85683232Y-74411200D02*
X86204000Y-74931968D01*
X83578300Y-74411200D02*
X85683232Y-74411200D01*
X83538300Y-74371200D02*
X83578300Y-74411200D01*
X86204000Y-75733632D02*
X86517968Y-76047600D01*
X86204000Y-74931968D02*
X86204000Y-75733632D01*
X86517968Y-76047600D02*
X87884000Y-76047600D01*
%TO.N,Net-(U12-O4)*%
X138802950Y-97295250D02*
X138929950Y-97422250D01*
X138802950Y-95345750D02*
X138802950Y-97295250D01*
X138929950Y-97422250D02*
X142329450Y-97422250D01*
X142329450Y-97422250D02*
X145096950Y-100189750D01*
%TO.N,Net-(U12-O3)*%
X137532950Y-97622250D02*
X137786950Y-97876250D01*
X140783450Y-97876250D02*
X143096950Y-100189750D01*
X137786950Y-97876250D02*
X140783450Y-97876250D01*
X137532950Y-95345750D02*
X137532950Y-97622250D01*
%TO.N,Net-(U12-O2)*%
X136262950Y-95345750D02*
X136262950Y-98203250D01*
X139237450Y-98330250D02*
X141096950Y-100189750D01*
X136389950Y-98330250D02*
X139237450Y-98330250D01*
%TO.N,Net-(U12-O1)*%
X138421950Y-98784250D02*
X139096950Y-99459250D01*
X134992950Y-95345750D02*
X134992950Y-97641250D01*
X136135950Y-98784250D02*
X138421950Y-98784250D01*
X139096950Y-99459250D02*
X139096950Y-100189750D01*
X134992950Y-97641250D02*
X136135950Y-98784250D01*
%TO.N,Net-(U12-O7)*%
X134366000Y-93268800D02*
X141923500Y-93268800D01*
X142612950Y-93958250D02*
X142612950Y-95345750D01*
X133807200Y-100352398D02*
X133807200Y-93827600D01*
X135962450Y-101324250D02*
X134779052Y-101324250D01*
X134779052Y-101324250D02*
X133807200Y-100352398D01*
X137096950Y-100189750D02*
X135962450Y-101324250D01*
X141923500Y-93268800D02*
X142612950Y-93958250D01*
X133807200Y-93827600D02*
X134366000Y-93268800D01*
%TO.N,Net-(U12-O6)*%
X135096950Y-100189750D02*
X134365950Y-99458750D01*
X140503086Y-93993750D02*
X141251450Y-93993750D01*
X140407336Y-93898000D02*
X140503086Y-93993750D01*
X134365950Y-99458750D02*
X134365950Y-96344086D01*
X134498800Y-93898000D02*
X140407336Y-93898000D01*
X141251450Y-93993750D02*
X141342950Y-94085250D01*
X141342950Y-94085250D02*
X141342950Y-95345750D01*
X134365950Y-96344086D02*
X134348600Y-96326736D01*
X134348600Y-94048200D02*
X134498800Y-93898000D01*
X134348600Y-96326736D02*
X134348600Y-94048200D01*
%TO.N,Net-(R54-Pad2)*%
D46*
X139112000Y-102422000D02*
X139112000Y-102855500D01*
X139112000Y-102855500D02*
X141158500Y-104902000D01*
%TO.N,Net-(U12-O5)*%
D44*
X140072950Y-96714250D02*
X140326950Y-96968250D01*
X140326950Y-96968250D02*
X143602650Y-96968250D01*
X146304000Y-100736400D02*
X145716150Y-101324250D01*
X146304000Y-99669600D02*
X146304000Y-100736400D01*
X140072950Y-95345750D02*
X140072950Y-96714250D01*
X143602650Y-96968250D02*
X146304000Y-99669600D01*
X145716150Y-101324250D02*
X142212450Y-101324250D01*
X142212450Y-101324250D02*
X141096950Y-102439750D01*
%TO.N,Net-(U4-O4)*%
X83176950Y-97295250D02*
X83303950Y-97422250D01*
X86703450Y-97422250D02*
X89470950Y-100189750D01*
X83303950Y-97422250D02*
X86703450Y-97422250D01*
X83176950Y-95345750D02*
X83176950Y-97295250D01*
%TO.N,Net-(U4-O3)*%
X81906950Y-97622250D02*
X82160950Y-97876250D01*
X85157450Y-97876250D02*
X87470950Y-100189750D01*
X81906950Y-95345750D02*
X81906950Y-97622250D01*
X82160950Y-97876250D02*
X85157450Y-97876250D01*
%TO.N,Net-(U4-O2)*%
X80636950Y-95345750D02*
X80636950Y-98203250D01*
X80763950Y-98330250D02*
X83611450Y-98330250D01*
X83611450Y-98330250D02*
X85470950Y-100189750D01*
%TO.N,Net-(U4-O1)*%
X80509950Y-98784250D02*
X82795950Y-98784250D01*
X83470950Y-99459250D02*
X83470950Y-100189750D01*
X79366950Y-95345750D02*
X79366950Y-97641250D01*
X79366950Y-97641250D02*
X80509950Y-98784250D01*
X82795950Y-98784250D02*
X83470950Y-99459250D01*
%TO.N,Net-(U4-O6)*%
X85716950Y-94085250D02*
X85716950Y-95345750D01*
X79470950Y-100189750D02*
X78739950Y-99458750D01*
X78739950Y-99458750D02*
X78739950Y-94269014D01*
X78739950Y-94269014D02*
X79015214Y-93993750D01*
X79015214Y-93993750D02*
X85625450Y-93993750D01*
X85625450Y-93993750D02*
X85716950Y-94085250D01*
%TO.N,Net-(R18-Pad2)*%
D46*
X83455000Y-102824500D02*
X85532500Y-104902000D01*
X83455000Y-102461500D02*
X83455000Y-102824500D01*
%TO.N,Net-(U18-SW)*%
X149521012Y-106465612D02*
X148033000Y-106465612D01*
X149560624Y-106426000D02*
X149521012Y-106465612D01*
X150573000Y-106426000D02*
X149560624Y-106426000D01*
%TO.N,+3V3*%
D44*
X88584800Y-66192400D02*
X88742400Y-66350000D01*
D10*
X95341300Y-65976200D02*
X96723200Y-65976200D01*
X93883600Y-66350000D02*
X93929200Y-66350000D01*
D44*
X86642500Y-66350000D02*
X86800100Y-66192400D01*
D10*
X96515000Y-70350000D02*
X96723200Y-70141800D01*
D44*
X106730800Y-73355200D02*
X106730800Y-69138800D01*
X146126200Y-80137000D02*
X146100800Y-80162400D01*
D10*
X87227700Y-73262500D02*
X86881000Y-73609200D01*
X94967500Y-66350000D02*
X95341300Y-65976200D01*
D44*
X147955000Y-80137000D02*
X146126200Y-80137000D01*
X94967500Y-70350000D02*
X94959500Y-70358000D01*
X161037000Y-76962000D02*
X159257000Y-76962000D01*
D46*
X147955000Y-80137000D02*
X147955000Y-78740000D01*
D10*
X86642500Y-66350000D02*
X86642500Y-65573500D01*
X93929200Y-66350000D02*
X94967500Y-66350000D01*
X94967500Y-70350000D02*
X96515000Y-70350000D01*
X93555000Y-64937500D02*
X93555000Y-66021400D01*
D44*
X158445200Y-76149200D02*
X159257000Y-76961000D01*
X106717600Y-74205000D02*
X106717600Y-73368400D01*
X159257000Y-76961000D02*
X159257000Y-76962000D01*
D46*
X149352000Y-77343000D02*
X149352000Y-73025000D01*
D44*
X162432000Y-78357000D02*
X161037000Y-76962000D01*
X162432000Y-85090000D02*
X162432000Y-78357000D01*
D10*
X88055000Y-73262500D02*
X87227700Y-73262500D01*
X93555000Y-66021400D02*
X93883600Y-66350000D01*
D44*
X106717600Y-73368400D02*
X106730800Y-73355200D01*
D10*
X86642500Y-65573500D02*
X86233000Y-65164000D01*
D46*
X147955000Y-78740000D02*
X149352000Y-77343000D01*
D44*
X86800100Y-66192400D02*
X88584800Y-66192400D01*
%TO.N,Net-(U6-O4)*%
X97858150Y-97295250D02*
X97985150Y-97422250D01*
X97858150Y-95345750D02*
X97858150Y-97295250D01*
X97985150Y-97422250D02*
X101384650Y-97422250D01*
X101384650Y-97422250D02*
X104152150Y-100189750D01*
%TO.N,Net-(U6-O3)*%
X96588150Y-95345750D02*
X96588150Y-97622250D01*
X96842150Y-97876250D02*
X99838650Y-97876250D01*
X96588150Y-97622250D02*
X96842150Y-97876250D01*
X99838650Y-97876250D02*
X102152150Y-100189750D01*
%TO.N,Net-(U6-O2)*%
X95445150Y-98330250D02*
X98292650Y-98330250D01*
X98292650Y-98330250D02*
X100152150Y-100189750D01*
X95318150Y-95345750D02*
X95318150Y-98203250D01*
%TO.N,Net-(U6-O1)*%
X94048150Y-97641250D02*
X95191150Y-98784250D01*
X98152150Y-99459250D02*
X98152150Y-100189750D01*
X94048150Y-95345750D02*
X94048150Y-97641250D01*
X95191150Y-98784250D02*
X97477150Y-98784250D01*
X97477150Y-98784250D02*
X98152150Y-99459250D01*
%TO.N,Net-(U6-O7)*%
X92967150Y-94080961D02*
X93508361Y-93539750D01*
X101249650Y-93539750D02*
X101668150Y-93958250D01*
X95017650Y-101324250D02*
X93834252Y-101324250D01*
X93834252Y-101324250D02*
X92967150Y-100457148D01*
X101668150Y-93958250D02*
X101668150Y-95345750D01*
X96152150Y-100189750D02*
X95017650Y-101324250D01*
X92967150Y-100457148D02*
X92967150Y-94080961D01*
X93508361Y-93539750D02*
X101249650Y-93539750D01*
%TO.N,Net-(U6-O6)*%
X93421150Y-99458750D02*
X93421150Y-94269014D01*
X100306650Y-93993750D02*
X100398150Y-94085250D01*
X100398150Y-94085250D02*
X100398150Y-95345750D01*
X93421150Y-94269014D02*
X93696414Y-93993750D01*
X94152150Y-100189750D02*
X93421150Y-99458750D01*
X93696414Y-93993750D02*
X100306650Y-93993750D01*
%TO.N,Net-(R27-Pad2)*%
D46*
X98163000Y-102422000D02*
X98163000Y-102800500D01*
X98163000Y-102800500D02*
X100264500Y-104902000D01*
%TO.N,Net-(U6-O5)*%
D44*
X105257600Y-100634800D02*
X104568150Y-101324250D01*
X99128150Y-95345750D02*
X99128150Y-96714250D01*
X99128150Y-96714250D02*
X99382150Y-96968250D01*
X99382150Y-96968250D02*
X102607050Y-96968250D01*
X101267650Y-101324250D02*
X100152150Y-102439750D01*
X104568150Y-101324250D02*
X101267650Y-101324250D01*
X105257600Y-99618800D02*
X105257600Y-100634800D01*
X102607050Y-96968250D02*
X105257600Y-99618800D01*
%TO.N,/ENCA*%
X162687000Y-76962000D02*
X162687000Y-73054000D01*
X162687000Y-73054000D02*
X162647000Y-73014000D01*
D10*
X162687000Y-76962000D02*
X161848800Y-76962000D01*
%TO.N,/ENCB*%
D44*
X157607000Y-73054000D02*
X157647000Y-73014000D01*
X157607000Y-76962000D02*
X157607000Y-73054000D01*
D10*
X157607000Y-76962000D02*
X158445200Y-76962000D01*
%TO.N,/ENCBUT*%
D46*
X159157000Y-85090000D02*
X160782000Y-85090000D01*
X160782000Y-85649000D02*
X162647000Y-87514000D01*
D10*
X89055000Y-74216200D02*
X88900000Y-74371200D01*
D46*
X160782000Y-85090000D02*
X160782000Y-85649000D01*
D10*
X159157000Y-85090000D02*
X159157000Y-84227000D01*
X89055000Y-73262500D02*
X89055000Y-74216200D01*
X159157000Y-84227000D02*
X159156400Y-84226400D01*
%TO.N,Net-(U10-O4)*%
D44*
X125645750Y-97295250D02*
X125772750Y-97422250D01*
X125772750Y-97422250D02*
X129172250Y-97422250D01*
X129172250Y-97422250D02*
X131939750Y-100189750D01*
X125645750Y-95345750D02*
X125645750Y-97295250D01*
%TO.N,Net-(U10-O3)*%
X124375750Y-95345750D02*
X124375750Y-97622250D01*
X124629750Y-97876250D02*
X127626250Y-97876250D01*
X127626250Y-97876250D02*
X129939750Y-100189750D01*
X124375750Y-97622250D02*
X124629750Y-97876250D01*
%TO.N,Net-(U10-O2)*%
X123232750Y-98330250D02*
X126080250Y-98330250D01*
X126080250Y-98330250D02*
X127939750Y-100189750D01*
X123105750Y-95345750D02*
X123105750Y-98203250D01*
%TO.N,Net-(U10-O1)*%
X121835750Y-95345750D02*
X121835750Y-97641250D01*
X122978750Y-98784250D02*
X125264750Y-98784250D01*
X121835750Y-97641250D02*
X122978750Y-98784250D01*
X125264750Y-98784250D02*
X125939750Y-99459250D01*
X125939750Y-99459250D02*
X125939750Y-100189750D01*
%TO.N,Net-(U10-O7)*%
X129455750Y-93958250D02*
X129455750Y-95345750D01*
X120650000Y-100352398D02*
X120650000Y-93726000D01*
X123939750Y-100189750D02*
X122805250Y-101324250D01*
X122805250Y-101324250D02*
X121621852Y-101324250D01*
X121107200Y-93268800D02*
X128766300Y-93268800D01*
X121621852Y-101324250D02*
X120650000Y-100352398D01*
X120650000Y-93726000D02*
X121107200Y-93268800D01*
X128766300Y-93268800D02*
X129455750Y-93958250D01*
%TO.N,Net-(U10-O6)*%
X128185750Y-94085250D02*
X128185750Y-95345750D01*
X121564264Y-93878400D02*
X127152536Y-93878400D01*
X121939750Y-100189750D02*
X121107200Y-99357200D01*
X121107200Y-94335464D02*
X121564264Y-93878400D01*
X127152536Y-93878400D02*
X127267886Y-93993750D01*
X127267886Y-93993750D02*
X128094250Y-93993750D01*
X128094250Y-93993750D02*
X128185750Y-94085250D01*
X121107200Y-99357200D02*
X121107200Y-94335464D01*
%TO.N,Net-(R45-Pad2)*%
D46*
X127950500Y-104902000D02*
X127950500Y-104444500D01*
X127950500Y-104444500D02*
X125928000Y-102422000D01*
%TO.N,Net-(BZ1--)*%
X147828000Y-75184000D02*
X147257000Y-75184000D01*
X147257000Y-75184000D02*
X144526000Y-72453000D01*
%TO.N,Net-(U8-O4)*%
D44*
X114592650Y-97371450D02*
X117360150Y-100138950D01*
X111066150Y-95294950D02*
X111066150Y-97244450D01*
X111193150Y-97371450D02*
X114592650Y-97371450D01*
X111066150Y-97244450D02*
X111193150Y-97371450D01*
%TO.N,Net-(U8-O3)*%
X113046650Y-97825450D02*
X115360150Y-100138950D01*
X109796150Y-95294950D02*
X109796150Y-97571450D01*
X110050150Y-97825450D02*
X113046650Y-97825450D01*
X109796150Y-97571450D02*
X110050150Y-97825450D01*
%TO.N,Net-(U8-O2)*%
X111500650Y-98279450D02*
X113360150Y-100138950D01*
X108526150Y-95294950D02*
X108526150Y-98152450D01*
X108653150Y-98279450D02*
X111500650Y-98279450D01*
%TO.N,Net-(U8-O1)*%
X111360150Y-99408450D02*
X111360150Y-100138950D01*
X107256150Y-97590450D02*
X108399150Y-98733450D01*
X110685150Y-98733450D02*
X111360150Y-99408450D01*
X107256150Y-95294950D02*
X107256150Y-97590450D01*
X108399150Y-98733450D02*
X110685150Y-98733450D01*
%TO.N,Net-(U8-O6)*%
X107360150Y-100138950D02*
X106629150Y-99407950D01*
X113606150Y-94034450D02*
X113606150Y-95294950D01*
X106904414Y-93942950D02*
X113514650Y-93942950D01*
X106629150Y-99407950D02*
X106629150Y-94218214D01*
X113514650Y-93942950D02*
X113606150Y-94034450D01*
X106629150Y-94218214D02*
X106904414Y-93942950D01*
%TO.N,Net-(R36-Pad2)*%
D46*
X111347000Y-102776500D02*
X113472500Y-104902000D01*
X111347000Y-102422000D02*
X111347000Y-102776500D01*
%TO.N,/SWCLK*%
D44*
X88055000Y-63417000D02*
X87985600Y-63347600D01*
X88055000Y-64937500D02*
X88055000Y-63417000D01*
%TO.N,/SWDIO*%
X88290400Y-67564000D02*
X87722909Y-67564000D01*
X87519709Y-67360800D02*
X86653300Y-67360800D01*
X86653300Y-67360800D02*
X86642500Y-67350000D01*
X87722909Y-67564000D02*
X87519709Y-67360800D01*
%TO.N,Net-(Q3-B)*%
D46*
X142651000Y-73403000D02*
X140523000Y-73403000D01*
X140523000Y-73403000D02*
X140462000Y-73342000D01*
%TO.N,Net-(U17-X2)*%
X111125000Y-63634000D02*
X111125000Y-67405500D01*
X109264000Y-61773000D02*
X111125000Y-63634000D01*
%TO.N,Net-(U17-X1)*%
X109855000Y-66294000D02*
X109855000Y-67405500D01*
X109264000Y-64973000D02*
X109264000Y-65703000D01*
X109264000Y-65703000D02*
X109855000Y-66294000D01*
%TO.N,/OSC_IN*%
D44*
X101343000Y-67755000D02*
X99568000Y-65980000D01*
X94967500Y-68350000D02*
X97198000Y-68350000D01*
X97198000Y-68350000D02*
X99568000Y-65980000D01*
X102362000Y-64630000D02*
X100630000Y-64630000D01*
X102489000Y-67755000D02*
X101343000Y-67755000D01*
%TO.N,Net-(U7-~{LT})*%
X108508800Y-76657200D02*
X108508800Y-77391000D01*
X109014500Y-76151500D02*
X108508800Y-76657200D01*
X112888500Y-76151500D02*
X109014500Y-76151500D01*
X114110000Y-74930000D02*
X112888500Y-76151500D01*
%TO.N,Net-(U3-~{LT})*%
X80645000Y-76518001D02*
X80645000Y-77430500D01*
X75946000Y-78345800D02*
X75946000Y-77945800D01*
X77793400Y-76098400D02*
X80225399Y-76098400D01*
X80225399Y-76098400D02*
X80645000Y-76518001D01*
X75946000Y-77945800D02*
X77793400Y-76098400D01*
%TO.N,Net-(U10-I1)*%
X121818400Y-83566000D02*
X121818400Y-86028000D01*
%TO.N,Net-(U10-I2)*%
X123088400Y-83566000D02*
X123088400Y-86028000D01*
%TO.N,Net-(U10-I3)*%
X124358400Y-83566000D02*
X124358400Y-86028000D01*
%TO.N,Net-(U10-I4)*%
X125628400Y-83566000D02*
X125628400Y-86028000D01*
%TO.N,Net-(U10-I5)*%
X126898400Y-83566000D02*
X126898400Y-86028000D01*
%TO.N,Net-(U10-I6)*%
X128168400Y-83566000D02*
X128168400Y-86028000D01*
%TO.N,Net-(U10-I7)*%
X129438400Y-83566000D02*
X129438400Y-86028000D01*
%TO.N,Net-(U1-~{LT})*%
X67437000Y-76802800D02*
X67437000Y-77430500D01*
X69659000Y-74980800D02*
X69259000Y-74980800D01*
X69259000Y-74980800D02*
X67437000Y-76802800D01*
%TO.N,/DCLOCK*%
D10*
X91555000Y-72200200D02*
X90830400Y-71475600D01*
X85822590Y-72300000D02*
X85822590Y-72317810D01*
X80111600Y-70510400D02*
X80213200Y-70612000D01*
X80111600Y-69291200D02*
X80111600Y-70510400D01*
X85822590Y-72317810D02*
X85706200Y-72434200D01*
X84785486Y-72434200D02*
X82963286Y-70612000D01*
X85706200Y-72434200D02*
X84785486Y-72434200D01*
X77446499Y-70612000D02*
X80213200Y-70612000D01*
X90830400Y-71475600D02*
X88571990Y-71475600D01*
X87747590Y-72300000D02*
X85822590Y-72300000D01*
X88571990Y-71475600D02*
X87747590Y-72300000D01*
X91555000Y-73262500D02*
X91555000Y-72200200D01*
X82963286Y-70612000D02*
X80213200Y-70612000D01*
%TO.N,Net-(RESET1-B)*%
D44*
X94967500Y-69350000D02*
X97193280Y-69350000D01*
X98422072Y-73307000D02*
X102747000Y-73307000D01*
X98041000Y-70197720D02*
X98041000Y-72925928D01*
X98041000Y-72925928D02*
X98422072Y-73307000D01*
D10*
X103645000Y-74205000D02*
X105067600Y-74205000D01*
D44*
X102747000Y-73307000D02*
X103645000Y-74205000D01*
X97193280Y-69350000D02*
X98041000Y-70197720D01*
D10*
X105283000Y-72390000D02*
X105283000Y-73989600D01*
%TO.N,/DB*%
D44*
X120548400Y-77391000D02*
X120548400Y-78587600D01*
D10*
X94967500Y-71350000D02*
X93953200Y-71350000D01*
D44*
X133705600Y-77340200D02*
X133705600Y-78587600D01*
X64897000Y-77430500D02*
X64897000Y-78663800D01*
X92811600Y-77391000D02*
X92811600Y-78587600D01*
X64897000Y-78663800D02*
X64922400Y-78689200D01*
X78105000Y-77430500D02*
X78105000Y-78740000D01*
D10*
X93953200Y-71350000D02*
X93929200Y-71374000D01*
D44*
X105968800Y-77441800D02*
X105968800Y-78638400D01*
X92811600Y-78587600D02*
X92837000Y-78613000D01*
%TO.N,/DC*%
D10*
X95910400Y-71983600D02*
X95910400Y-72339200D01*
D44*
X121818400Y-81635600D02*
X134975600Y-81635600D01*
X66192400Y-81635600D02*
X79349600Y-81635600D01*
X79375000Y-77430500D02*
X79375000Y-78663800D01*
X94081600Y-81635600D02*
X107238800Y-81635600D01*
X107238800Y-81635600D02*
X121818400Y-81635600D01*
X79349600Y-81635600D02*
X94081600Y-81635600D01*
X66167000Y-77430500D02*
X66167000Y-78663800D01*
X79375000Y-78663800D02*
X79349600Y-78689200D01*
X121818400Y-77391000D02*
X121818400Y-78587600D01*
X134975600Y-77340200D02*
X134975600Y-78587600D01*
X107238800Y-77441800D02*
X107238800Y-78638400D01*
X66167000Y-78663800D02*
X66192400Y-78689200D01*
D10*
X95776800Y-71850000D02*
X95910400Y-71983600D01*
X94967500Y-71850000D02*
X95776800Y-71850000D01*
%TO.N,/DIMPWM*%
D44*
X68707000Y-78342999D02*
X68707000Y-77430500D01*
D10*
X92555000Y-67109400D02*
X92555000Y-64937500D01*
D44*
X67462400Y-81127600D02*
X81940400Y-81127600D01*
X109778800Y-77441800D02*
X109778800Y-78638400D01*
D10*
X92167400Y-67497000D02*
X92555000Y-67109400D01*
D44*
X96621600Y-81127600D02*
X109778800Y-81127600D01*
X67545000Y-78740000D02*
X68309999Y-78740000D01*
X109778800Y-81127600D02*
X124358400Y-81127600D01*
X124358400Y-81127600D02*
X137566400Y-81127600D01*
X67462400Y-78822600D02*
X67545000Y-78740000D01*
X137515600Y-77340200D02*
X137515600Y-78587600D01*
D10*
X92167400Y-68887032D02*
X92167400Y-67497000D01*
D44*
X68309999Y-78740000D02*
X68707000Y-78342999D01*
X81915000Y-77430500D02*
X81915000Y-78638400D01*
X96621600Y-77441800D02*
X96621600Y-78638400D01*
X81940400Y-81127600D02*
X96621600Y-81127600D01*
X124358400Y-77391000D02*
X124358400Y-78587600D01*
X81915000Y-78638400D02*
X81915000Y-78663800D01*
D10*
X91679432Y-69375000D02*
X92167400Y-68887032D01*
%TO.N,Net-(U1-~{EL})*%
D44*
X64599252Y-79349600D02*
X61976000Y-76726348D01*
X61976000Y-76726348D02*
X61976000Y-72237600D01*
X69977000Y-78342999D02*
X68970399Y-79349600D01*
X61976000Y-72237600D02*
X62383700Y-71829900D01*
X62383700Y-71829900D02*
X63403299Y-71829900D01*
X69977000Y-77430500D02*
X69977000Y-78342999D01*
X68970399Y-79349600D02*
X64599252Y-79349600D01*
%TO.N,/DD*%
X126898400Y-77391000D02*
X126898400Y-78587600D01*
X84455000Y-77430500D02*
X84455000Y-78613000D01*
X112318800Y-80568800D02*
X126898400Y-80568800D01*
X84480400Y-80568800D02*
X99161600Y-80568800D01*
X84455000Y-78613000D02*
X84480400Y-78638400D01*
X126898400Y-80568800D02*
X140055600Y-80568800D01*
X112318800Y-77441800D02*
X112318800Y-78638400D01*
X99161600Y-77441800D02*
X99161600Y-78638400D01*
X100431600Y-80568800D02*
X112318800Y-80568800D01*
X71247000Y-77430500D02*
X71247000Y-78663800D01*
X99161600Y-80568800D02*
X100431600Y-80568800D01*
X71272400Y-80568800D02*
X84480400Y-80568800D01*
X140055600Y-77340200D02*
X140055600Y-78587600D01*
%TO.N,/DA*%
X141325600Y-77340200D02*
X141325600Y-78536800D01*
X85725000Y-78613000D02*
X85750400Y-78638400D01*
X85725000Y-77430500D02*
X85725000Y-78613000D01*
X85750400Y-80010000D02*
X100431600Y-80010000D01*
X128168400Y-80010000D02*
X141274800Y-80010000D01*
X72517000Y-77430500D02*
X72517000Y-78613000D01*
X100431600Y-77441800D02*
X100431600Y-78587600D01*
X72517000Y-78613000D02*
X72491600Y-78638400D01*
X113588800Y-80010000D02*
X128168400Y-80010000D01*
X141325600Y-78536800D02*
X141376400Y-78587600D01*
X128168400Y-77391000D02*
X128168400Y-78587600D01*
X72542400Y-80010000D02*
X85750400Y-80010000D01*
X113588800Y-77441800D02*
X113588800Y-78638400D01*
X100431600Y-80010000D02*
X113588800Y-80010000D01*
%TO.N,Net-(U1-Qe)*%
X73787000Y-83605500D02*
X73787000Y-86067500D01*
%TO.N,Net-(U1-Qd)*%
X72517000Y-83605500D02*
X72517000Y-86067500D01*
%TO.N,Net-(U1-Qc)*%
X71247000Y-83605500D02*
X71247000Y-86067500D01*
%TO.N,Net-(U1-Qb)*%
X69977000Y-83605500D02*
X69977000Y-86067500D01*
%TO.N,Net-(U1-Qa)*%
X68707000Y-83605500D02*
X68707000Y-86067500D01*
%TO.N,Net-(U1-Qg)*%
X67437000Y-83605500D02*
X67437000Y-86067500D01*
%TO.N,Net-(U1-Qf)*%
X66167000Y-83605500D02*
X66167000Y-86067500D01*
%TO.N,/OSC_OUT*%
X99568000Y-69430001D02*
X99568000Y-71180000D01*
X98987999Y-68850000D02*
X99568000Y-69430001D01*
X94967500Y-68850000D02*
X98987999Y-68850000D01*
X102489000Y-69405000D02*
X101343000Y-69405000D01*
X102362000Y-72530000D02*
X100630000Y-72530000D01*
X101343000Y-69405000D02*
X99568000Y-71180000D01*
%TO.N,/PA4*%
X84733600Y-69317400D02*
X84733600Y-69544400D01*
X82385000Y-63991156D02*
X82385000Y-66968801D01*
X79693870Y-61300026D02*
X82385000Y-63991156D01*
X82385000Y-66968801D02*
X84733600Y-69317400D01*
X74000026Y-61300026D02*
X79693870Y-61300026D01*
X84733600Y-69544400D02*
X84734400Y-69545200D01*
X71120000Y-58420000D02*
X74000026Y-61300026D01*
%TO.N,/RESET*%
D10*
X85788200Y-72834200D02*
X86131000Y-73177000D01*
D45*
X91118894Y-75381200D02*
X92055000Y-74445094D01*
X88538400Y-75381200D02*
X91118894Y-75381200D01*
X92055000Y-74445094D02*
X92055000Y-73262500D01*
D10*
X82956400Y-71932800D02*
X83718400Y-71932800D01*
X86507904Y-74459800D02*
X87617000Y-74459800D01*
X77446499Y-71882000D02*
X82905600Y-71882000D01*
X82905600Y-71882000D02*
X82956400Y-71932800D01*
D45*
X87965000Y-74807800D02*
X88538400Y-75381200D01*
D10*
X87617000Y-74459800D02*
X87965000Y-74807800D01*
X84632800Y-72847200D02*
X84645800Y-72834200D01*
X86131000Y-74082896D02*
X86507904Y-74459800D01*
X83718400Y-71932800D02*
X84632800Y-72847200D01*
X86131000Y-73177000D02*
X86131000Y-74082896D01*
X84645800Y-72834200D02*
X85788200Y-72834200D01*
%TO.N,/RTC_RES*%
D44*
X112395000Y-74580500D02*
X112979200Y-73996300D01*
X112979200Y-73996300D02*
X112979200Y-73507600D01*
%TO.N,/RTC_DAT*%
X111556800Y-73050400D02*
X111125000Y-73482200D01*
D10*
X90271600Y-74777600D02*
X90555000Y-74494200D01*
D44*
X111760000Y-72034400D02*
X111556800Y-72237600D01*
X111125000Y-73482200D02*
X111125000Y-74580500D01*
X111556800Y-72237600D02*
X111556800Y-73050400D01*
D10*
X90555000Y-74494200D02*
X90555000Y-73262500D01*
%TO.N,/PB2*%
X105918000Y-59690000D02*
X103581200Y-62026800D01*
X90297000Y-71975600D02*
X90322400Y-72001000D01*
X90322400Y-72085200D02*
X90055000Y-72352600D01*
X90055000Y-72352600D02*
X90055000Y-73262500D01*
X90322400Y-72001000D02*
X90322400Y-72085200D01*
X103581200Y-62026800D02*
X103581200Y-64008000D01*
%TO.N,/RTC_CLK*%
X89555000Y-74670600D02*
X89560400Y-74676000D01*
D44*
X109855000Y-73482200D02*
X110134400Y-73202800D01*
D10*
X89560400Y-74676000D02*
X89560400Y-74777600D01*
X89555000Y-73262500D02*
X89555000Y-74670600D01*
D44*
X109855000Y-74580500D02*
X109855000Y-73482200D01*
%TO.N,/PB14*%
D10*
X88274400Y-70850000D02*
X86642500Y-70850000D01*
X88585400Y-70825000D02*
X88299400Y-70825000D01*
X89052400Y-70358000D02*
X88585400Y-70825000D01*
X88299400Y-70825000D02*
X88274400Y-70850000D01*
%TO.N,/PB15*%
X88163400Y-70350000D02*
X86642500Y-70350000D01*
X88265000Y-70248400D02*
X88163400Y-70350000D01*
%TO.N,/PA9*%
D44*
X76086026Y-60846026D02*
X79881922Y-60846026D01*
X73660000Y-58420000D02*
X76086026Y-60846026D01*
X82839000Y-66780748D02*
X85408252Y-69350000D01*
X82839000Y-63803104D02*
X82839000Y-66780748D01*
X85408252Y-69350000D02*
X86642500Y-69350000D01*
X79881922Y-60846026D02*
X82839000Y-63803104D01*
%TO.N,/PA10*%
X83293000Y-63615052D02*
X83293000Y-66592696D01*
X80069974Y-60392026D02*
X83293000Y-63615052D01*
X78172026Y-60392026D02*
X80069974Y-60392026D01*
X76200000Y-58420000D02*
X78172026Y-60392026D01*
X85550304Y-68850000D02*
X86642500Y-68850000D01*
X83293000Y-66592696D02*
X85550304Y-68850000D01*
%TO.N,/PA11*%
X85692356Y-68350000D02*
X86642500Y-68350000D01*
X83747000Y-66404644D02*
X85692356Y-68350000D01*
X78740000Y-58420000D02*
X83747000Y-63427000D01*
X83747000Y-63427000D02*
X83747000Y-66404644D01*
%TO.N,/PA12*%
X85834408Y-67850000D02*
X86642500Y-67850000D01*
X84201000Y-63119000D02*
X84201000Y-66216592D01*
X84201000Y-66216592D02*
X85834408Y-67850000D01*
X81280000Y-58420000D02*
X81280000Y-60198000D01*
X81280000Y-60198000D02*
X84201000Y-63119000D01*
%TO.N,/PA15*%
X83820000Y-58420000D02*
X88555000Y-63155000D01*
X88555000Y-63155000D02*
X88555000Y-64937500D01*
%TO.N,/PB3*%
X89055000Y-62735400D02*
X89055000Y-64937500D01*
X89103200Y-62687200D02*
X89055000Y-62735400D01*
%TO.N,/PB4*%
X89582000Y-63360052D02*
X89555000Y-63387052D01*
X89555000Y-63387052D02*
X89555000Y-64937500D01*
%TO.N,/PB5*%
X90474800Y-63106200D02*
X90474800Y-63213909D01*
X90030000Y-63658709D02*
X90030000Y-64095291D01*
X90055000Y-64120291D02*
X90055000Y-64937500D01*
X90474800Y-63213909D02*
X90030000Y-63658709D01*
X90030000Y-64095291D02*
X90055000Y-64120291D01*
%TO.N,/PB6*%
X90555000Y-63879000D02*
X90555000Y-64937500D01*
X90557000Y-63877000D02*
X90555000Y-63879000D01*
%TO.N,/PB7*%
X91055000Y-65909000D02*
X91313000Y-66167000D01*
X91055000Y-64937500D02*
X91055000Y-65909000D01*
%TO.N,Net-(U15-BOOT0)*%
X91555000Y-62814000D02*
X91631000Y-62738000D01*
X91555000Y-64937500D02*
X91555000Y-62814000D01*
%TO.N,/PB8*%
X92055000Y-66060000D02*
X91948000Y-66167000D01*
X92055000Y-64937500D02*
X92055000Y-66060000D01*
%TO.N,Net-(U5-Qf)*%
X94081600Y-83566000D02*
X94081600Y-86028000D01*
%TO.N,Net-(U5-Qg)*%
X95351600Y-83566000D02*
X95351600Y-86028000D01*
%TO.N,Net-(U5-Qa)*%
X96621600Y-83566000D02*
X96621600Y-86028000D01*
%TO.N,Net-(U5-Qb)*%
X97891600Y-83566000D02*
X97891600Y-86028000D01*
%TO.N,Net-(U5-Qc)*%
X99161600Y-83566000D02*
X99161600Y-86028000D01*
%TO.N,Net-(U5-Qd)*%
X100431600Y-83566000D02*
X100431600Y-86028000D01*
%TO.N,Net-(U5-Qe)*%
X101701600Y-83566000D02*
X101701600Y-86028000D01*
%TO.N,Net-(U20-Q0)*%
X63403299Y-73099900D02*
X65076100Y-73099900D01*
X72496499Y-70612000D02*
X71048599Y-70612000D01*
X65076100Y-73099900D02*
X65735200Y-72440800D01*
X65735200Y-72440800D02*
X65751300Y-72456900D01*
X70120100Y-72456900D02*
X70256400Y-72593200D01*
X65751300Y-72456900D02*
X70120100Y-72456900D01*
%TO.N,Net-(U20-Q1)*%
X72496499Y-71882000D02*
X71521500Y-71882000D01*
X71521500Y-71882000D02*
X70826400Y-71186900D01*
X65725900Y-71186900D02*
X65098900Y-70559900D01*
X65098900Y-70559900D02*
X63403299Y-70559900D01*
X70826400Y-71186900D02*
X65725900Y-71186900D01*
%TO.N,Net-(U3-~{EL})*%
X64439800Y-79832200D02*
X61522000Y-76914400D01*
X64713411Y-79832200D02*
X64439800Y-79832200D01*
X61522000Y-70196200D02*
X62428300Y-69289900D01*
D10*
X71282600Y-79832200D02*
X71874800Y-79240000D01*
X82312999Y-79215000D02*
X83185000Y-78342999D01*
D44*
X62428300Y-69289900D02*
X63403299Y-69289900D01*
X61522000Y-76914400D02*
X61522000Y-70196200D01*
D10*
X83185000Y-78342999D02*
X83185000Y-77430500D01*
X78312107Y-79240000D02*
X78337107Y-79215000D01*
X64713411Y-79832200D02*
X71282600Y-79832200D01*
X78337107Y-79215000D02*
X82312999Y-79215000D01*
X71874800Y-79240000D02*
X78312107Y-79240000D01*
%TO.N,Net-(U20-Q2)*%
D44*
X65684035Y-69916900D02*
X63787035Y-68019900D01*
X72496499Y-69342000D02*
X71921599Y-69916900D01*
X63787035Y-68019900D02*
X63403299Y-68019900D01*
X71921599Y-69916900D02*
X65684035Y-69916900D01*
%TO.N,Net-(U5-~{EL})*%
D10*
X62428300Y-66749900D02*
X61095000Y-68083200D01*
X97891600Y-77441800D02*
X97891600Y-78689200D01*
X63403299Y-66749900D02*
X62428300Y-66749900D01*
X61095000Y-68083200D02*
X61095000Y-85383544D01*
X97685200Y-88700000D02*
X97840800Y-88544400D01*
X64411456Y-88700000D02*
X97685200Y-88700000D01*
X61095000Y-85383544D02*
X64411456Y-88700000D01*
%TO.N,Net-(U7-~{EL})*%
X68353299Y-65479900D02*
X67683299Y-66149900D01*
X60695000Y-67842647D02*
X60695000Y-85549230D01*
X110490000Y-88188800D02*
X111048800Y-88747600D01*
X64245770Y-89100000D02*
X97992307Y-89100000D01*
X62387747Y-66149900D02*
X60695000Y-67842647D01*
X67683299Y-66149900D02*
X62387747Y-66149900D01*
X97992307Y-89100000D02*
X98072907Y-89019400D01*
X104823071Y-89019400D02*
X105653671Y-88188800D01*
X105653671Y-88188800D02*
X110490000Y-88188800D01*
X98072907Y-89019400D02*
X104823071Y-89019400D01*
X60695000Y-85549230D02*
X64245770Y-89100000D01*
%TO.N,Net-(U20-Q3)*%
D44*
X71521500Y-65532000D02*
X70303600Y-66749900D01*
X70303600Y-66749900D02*
X68353299Y-66749900D01*
X72496499Y-65532000D02*
X71521500Y-65532000D01*
%TO.N,Net-(U9-~{EL})*%
D10*
X62387747Y-67419900D02*
X65997500Y-67419900D01*
X61671200Y-87426800D02*
X63744400Y-89500000D01*
X66598800Y-68021200D02*
X66600100Y-68019900D01*
X66600100Y-68019900D02*
X68353299Y-68019900D01*
X63744400Y-89500000D02*
X124774400Y-89500000D01*
X61468000Y-87426800D02*
X61671200Y-87426800D01*
X65997500Y-67419900D02*
X66598800Y-68021200D01*
X124774400Y-89500000D02*
X125730000Y-88544400D01*
X62387747Y-67419900D02*
X61671200Y-68136447D01*
X61671200Y-68136447D02*
X61671200Y-68783200D01*
%TO.N,Net-(U20-Q4)*%
D44*
X77446499Y-65532000D02*
X75420235Y-65532000D01*
X69328298Y-69289900D02*
X68353299Y-69289900D01*
X73523235Y-67429000D02*
X71189198Y-67429000D01*
X75420235Y-65532000D02*
X73523235Y-67429000D01*
X71189198Y-67429000D02*
X69328298Y-69289900D01*
%TO.N,Net-(U11-~{EL})*%
D10*
X137668000Y-89916000D02*
X138836400Y-88747600D01*
X68353299Y-70559900D02*
X66193700Y-70559900D01*
X63332400Y-89916000D02*
X137668000Y-89916000D01*
X66193700Y-70559900D02*
X66192400Y-70561200D01*
X62146200Y-88729800D02*
X63332400Y-89916000D01*
%TO.N,Net-(U20-Q5)*%
D44*
X70361499Y-71829900D02*
X71683599Y-73152000D01*
X71683599Y-73152000D02*
X72496499Y-73152000D01*
X68353299Y-71829900D02*
X70361499Y-71829900D01*
%TO.N,Net-(BT1-+)*%
D46*
X114281001Y-68072000D02*
X116079000Y-68072000D01*
X108585000Y-73768001D02*
X114281001Y-68072000D01*
X108585000Y-74580500D02*
X108585000Y-73768001D01*
%TO.N,Net-(U11-~{LT})*%
D44*
X136245600Y-75247000D02*
X136257800Y-75234800D01*
X136245600Y-77264000D02*
X136245600Y-75247000D01*
%TO.N,Net-(U11-Qe)*%
X142595600Y-83439000D02*
X142595600Y-85950000D01*
%TO.N,Net-(U11-Qd)*%
X141325600Y-83439000D02*
X141325600Y-85950000D01*
%TO.N,Net-(U11-Qc)*%
X140055600Y-83439000D02*
X140055600Y-85950000D01*
%TO.N,Net-(U11-Qb)*%
X138785600Y-83439000D02*
X138785600Y-85950000D01*
%TO.N,Net-(U11-Qa)*%
X137515600Y-83439000D02*
X137515600Y-85950000D01*
%TO.N,Net-(U11-Qg)*%
X136245600Y-83439000D02*
X136245600Y-85950000D01*
%TO.N,Net-(U11-Qf)*%
X134975600Y-83439000D02*
X134975600Y-85950000D01*
%TO.N,Net-(U7-Qe)*%
X114858800Y-83566000D02*
X114858800Y-86028000D01*
%TO.N,Net-(U7-Qd)*%
X113588800Y-83566000D02*
X113588800Y-86028000D01*
%TO.N,Net-(U7-Qc)*%
X112318800Y-83566000D02*
X112318800Y-86028000D01*
%TO.N,Net-(U7-Qb)*%
X111048800Y-83566000D02*
X111048800Y-86028000D01*
%TO.N,Net-(U7-Qa)*%
X109778800Y-83566000D02*
X109778800Y-86028000D01*
%TO.N,Net-(U7-Qg)*%
X108508800Y-83566000D02*
X108508800Y-86028000D01*
%TO.N,Net-(U7-Qf)*%
X107238800Y-83566000D02*
X107238800Y-86028000D01*
%TO.N,Net-(Q2-B)*%
X79908400Y-75196200D02*
X81538300Y-75196200D01*
X81538300Y-75196200D02*
X81663300Y-75321200D01*
X85194600Y-75321200D02*
X85281000Y-75234800D01*
X81663300Y-75321200D02*
X85194600Y-75321200D01*
%TO.N,Net-(U9-~{LT})*%
X123088400Y-76860400D02*
X123088400Y-77391000D01*
X120384138Y-75946000D02*
X119926938Y-76403200D01*
X120384138Y-75946000D02*
X122174000Y-75946000D01*
X119926938Y-76403200D02*
X118020600Y-76403200D01*
X122174000Y-75946000D02*
X123088400Y-76860400D01*
%TO.N,Net-(U5-~{LT})*%
X95351600Y-77441800D02*
X95351600Y-75438000D01*
X95351600Y-76936600D02*
X95351600Y-77391000D01*
%TO.N,Net-(U3-Qe)*%
X86995000Y-83605500D02*
X86995000Y-86067500D01*
%TO.N,Net-(U3-Qd)*%
X85725000Y-83605500D02*
X85725000Y-86067500D01*
%TO.N,Net-(U3-Qc)*%
X84455000Y-83605500D02*
X84455000Y-86067500D01*
%TO.N,Net-(U3-Qb)*%
X83185000Y-83605500D02*
X83185000Y-86067500D01*
%TO.N,Net-(U3-Qa)*%
X81915000Y-83605500D02*
X81915000Y-86067500D01*
%TO.N,Net-(U3-Qg)*%
X80645000Y-83605500D02*
X80645000Y-86067500D01*
%TO.N,Net-(U3-Qf)*%
X79375000Y-83605500D02*
X79375000Y-86067500D01*
%TD*%
%TA.AperFunction,Conductor*%
%TO.N,GND*%
G36*
X142721221Y-78220270D02*
G01*
X142724435Y-78226319D01*
X142789595Y-78562820D01*
X142787803Y-78571593D01*
X142780661Y-78576462D01*
X142598153Y-78617272D01*
X142593047Y-78617272D01*
X142410538Y-78576462D01*
X142403212Y-78571312D01*
X142401604Y-78562820D01*
X142466765Y-78226319D01*
X142471703Y-78218848D01*
X142478252Y-78216843D01*
X142712948Y-78216843D01*
X142721221Y-78220270D01*
G37*
%TD.AperFunction*%
%TD*%
%TA.AperFunction,Conductor*%
%TO.N,GND*%
G36*
X94022618Y-69640665D02*
G01*
X94026999Y-69646484D01*
X94072310Y-69779289D01*
X94072311Y-69779289D01*
X94135933Y-69755812D01*
X94144881Y-69756162D01*
X94150960Y-69762737D01*
X94151684Y-69766788D01*
X94151684Y-69938300D01*
X94148257Y-69946573D01*
X94139984Y-69950000D01*
X94003926Y-69950000D01*
X93999449Y-69949109D01*
X93930899Y-69920714D01*
X93930888Y-69920710D01*
X93798084Y-69875399D01*
X93791361Y-69869484D01*
X93790344Y-69862274D01*
X93822744Y-69680605D01*
X93827569Y-69673064D01*
X93832203Y-69671144D01*
X94013874Y-69638744D01*
X94022618Y-69640665D01*
G37*
%TD.AperFunction*%
%TD*%
%TA.AperFunction,Conductor*%
%TO.N,GND*%
G36*
X87831293Y-77238296D02*
G01*
X87836162Y-77245438D01*
X87876972Y-77427947D01*
X87876972Y-77433053D01*
X87836162Y-77615561D01*
X87831012Y-77622887D01*
X87822520Y-77624495D01*
X87486019Y-77559334D01*
X87478548Y-77554396D01*
X87476543Y-77547847D01*
X87476543Y-77313152D01*
X87479970Y-77304879D01*
X87486019Y-77301665D01*
X87822521Y-77236504D01*
X87831293Y-77238296D01*
G37*
%TD.AperFunction*%
%TD*%
%TA.AperFunction,Conductor*%
%TO.N,GND*%
G36*
X75226033Y-84665753D02*
G01*
X75242061Y-84669337D01*
X75249387Y-84674487D01*
X75250995Y-84682979D01*
X75185835Y-85019481D01*
X75180897Y-85026952D01*
X75174348Y-85028957D01*
X74939652Y-85028957D01*
X74931379Y-85025530D01*
X74928165Y-85019481D01*
X74863004Y-84682979D01*
X74864796Y-84674206D01*
X74871937Y-84669337D01*
X75054451Y-84628527D01*
X75059549Y-84628527D01*
X75226033Y-84665753D01*
G37*
%TD.AperFunction*%
%TD*%
%TA.AperFunction,Conductor*%
%TO.N,GND*%
G36*
X71303481Y-64133165D02*
G01*
X71310952Y-64138103D01*
X71312957Y-64144652D01*
X71312957Y-64379347D01*
X71309530Y-64387620D01*
X71303481Y-64390834D01*
X70966979Y-64455995D01*
X70958206Y-64454203D01*
X70953337Y-64447061D01*
X70938196Y-64379347D01*
X70912527Y-64264549D01*
X70912527Y-64259450D01*
X70953337Y-64076937D01*
X70958487Y-64069612D01*
X70966978Y-64068004D01*
X71303481Y-64133165D01*
G37*
%TD.AperFunction*%
%TD*%
%TA.AperFunction,Conductor*%
%TO.N,GND*%
G36*
X96336527Y-70815840D02*
G01*
X96336788Y-70816271D01*
X96510762Y-71118443D01*
X96511920Y-71127323D01*
X96508895Y-71132554D01*
X96380154Y-71261295D01*
X96371881Y-71264722D01*
X96366043Y-71263162D01*
X96063871Y-71089188D01*
X96058411Y-71082090D01*
X96059569Y-71073210D01*
X96059806Y-71072817D01*
X96159576Y-70915581D01*
X96163181Y-70911976D01*
X96320381Y-70812229D01*
X96329201Y-70810691D01*
X96336527Y-70815840D01*
G37*
%TD.AperFunction*%
%TD*%
%TA.AperFunction,Conductor*%
%TO.N,GND*%
G36*
X89729433Y-93860553D02*
G01*
X89745461Y-93864137D01*
X89752787Y-93869287D01*
X89754395Y-93877779D01*
X89689235Y-94214281D01*
X89684297Y-94221752D01*
X89677748Y-94223757D01*
X89443052Y-94223757D01*
X89434779Y-94220330D01*
X89431565Y-94214281D01*
X89366404Y-93877779D01*
X89368196Y-93869006D01*
X89375337Y-93864137D01*
X89557851Y-93823327D01*
X89562949Y-93823327D01*
X89729433Y-93860553D01*
G37*
%TD.AperFunction*%
%TD*%
%TA.AperFunction,Conductor*%
%TO.N,GND*%
G36*
X104602881Y-64844365D02*
G01*
X104610352Y-64849303D01*
X104612357Y-64855852D01*
X104612357Y-65090547D01*
X104608930Y-65098820D01*
X104602881Y-65102034D01*
X104266379Y-65167195D01*
X104257606Y-65165403D01*
X104252737Y-65158261D01*
X104237596Y-65090547D01*
X104211927Y-64975749D01*
X104211927Y-64970650D01*
X104252737Y-64788137D01*
X104257887Y-64780812D01*
X104266378Y-64779204D01*
X104602881Y-64844365D01*
G37*
%TD.AperFunction*%
%TD*%
%TA.AperFunction,Conductor*%
%TO.N,GND*%
G36*
X62413481Y-65351065D02*
G01*
X62420952Y-65356003D01*
X62422957Y-65362552D01*
X62422957Y-65597247D01*
X62419530Y-65605520D01*
X62413481Y-65608734D01*
X62076979Y-65673895D01*
X62068206Y-65672103D01*
X62063337Y-65664961D01*
X62048196Y-65597247D01*
X62022527Y-65482449D01*
X62022527Y-65477350D01*
X62063337Y-65294837D01*
X62068487Y-65287512D01*
X62076978Y-65285904D01*
X62413481Y-65351065D01*
G37*
%TD.AperFunction*%
%TD*%
%TA.AperFunction,Conductor*%
%TO.N,GND*%
G36*
X101986681Y-66051165D02*
G01*
X101994152Y-66056103D01*
X101996157Y-66062652D01*
X101996157Y-66297347D01*
X101992730Y-66305620D01*
X101986681Y-66308834D01*
X101650179Y-66373995D01*
X101641406Y-66372203D01*
X101636537Y-66365061D01*
X101621396Y-66297347D01*
X101595727Y-66182549D01*
X101595727Y-66177450D01*
X101636537Y-65994937D01*
X101641687Y-65987612D01*
X101650178Y-65986004D01*
X101986681Y-66051165D01*
G37*
%TD.AperFunction*%
%TD*%
%TA.AperFunction,Conductor*%
%TO.N,GND*%
G36*
X142462842Y-70574072D02*
G01*
X142649577Y-70592792D01*
X142652349Y-70593417D01*
X143014596Y-70723023D01*
X143021231Y-70729036D01*
X143021824Y-70737520D01*
X142882161Y-71185716D01*
X142876428Y-71192595D01*
X142870991Y-71193935D01*
X142434643Y-71193935D01*
X142426370Y-71190508D01*
X142422943Y-71182235D01*
X142422955Y-71181705D01*
X142450007Y-70585186D01*
X142453805Y-70577077D01*
X142462225Y-70574028D01*
X142462842Y-70574072D01*
G37*
%TD.AperFunction*%
%TD*%
%TA.AperFunction,Conductor*%
%TO.N,GND*%
G36*
X81788848Y-73826070D02*
G01*
X81792078Y-73832204D01*
X81838871Y-74083809D01*
X81837014Y-74092569D01*
X81834389Y-74095308D01*
X81666563Y-74221195D01*
X81659222Y-74223531D01*
X81499300Y-74219153D01*
X81491124Y-74215501D01*
X81487924Y-74207137D01*
X81488010Y-74206013D01*
X81535010Y-73832880D01*
X81539444Y-73825101D01*
X81546618Y-73822643D01*
X81780575Y-73822643D01*
X81788848Y-73826070D01*
G37*
%TD.AperFunction*%
%TD*%
%TA.AperFunction,Conductor*%
%TO.N,GND*%
G36*
X88375103Y-83981739D02*
G01*
X88532915Y-84081874D01*
X88536525Y-84085484D01*
X88636659Y-84243294D01*
X88638198Y-84252114D01*
X88633228Y-84259324D01*
X88386678Y-84422151D01*
X88377886Y-84423851D01*
X88370467Y-84418836D01*
X88368767Y-84410044D01*
X88369419Y-84407916D01*
X88375266Y-84393799D01*
X88384137Y-84372386D01*
X88384136Y-84372386D01*
X88149700Y-84372386D01*
X88141427Y-84368959D01*
X88138000Y-84360686D01*
X88138000Y-84355725D01*
X88138891Y-84351248D01*
X88174770Y-84264625D01*
X88175807Y-84262673D01*
X88359076Y-83985169D01*
X88366494Y-83980156D01*
X88375103Y-83981739D01*
G37*
%TD.AperFunction*%
%TD*%
%TA.AperFunction,Conductor*%
%TO.N,GND*%
G36*
X87715158Y-66660923D02*
G01*
X87720566Y-66668061D01*
X87720656Y-66668432D01*
X87761263Y-66847447D01*
X87761279Y-66852554D01*
X87720638Y-67036905D01*
X87715510Y-67044246D01*
X87706693Y-67045812D01*
X87706088Y-67045661D01*
X87369419Y-66952376D01*
X87362361Y-66946865D01*
X87360843Y-66941101D01*
X87360843Y-66759035D01*
X87364270Y-66750762D01*
X87369584Y-66747715D01*
X87674302Y-66668061D01*
X87706287Y-66659700D01*
X87715158Y-66660923D01*
G37*
%TD.AperFunction*%
%TD*%
%TA.AperFunction,Conductor*%
%TO.N,GND*%
G36*
X101986681Y-70851165D02*
G01*
X101994152Y-70856103D01*
X101996157Y-70862652D01*
X101996157Y-71097347D01*
X101992730Y-71105620D01*
X101986681Y-71108834D01*
X101650179Y-71173995D01*
X101641406Y-71172203D01*
X101636537Y-71165061D01*
X101621396Y-71097347D01*
X101595727Y-70982549D01*
X101595727Y-70977450D01*
X101636537Y-70794937D01*
X101641687Y-70787612D01*
X101650178Y-70786004D01*
X101986681Y-70851165D01*
G37*
%TD.AperFunction*%
%TD*%
%TA.AperFunction,Conductor*%
%TO.N,GND*%
G36*
X76383481Y-69213165D02*
G01*
X76390952Y-69218103D01*
X76392957Y-69224652D01*
X76392957Y-69459347D01*
X76389530Y-69467620D01*
X76383481Y-69470834D01*
X76046979Y-69535995D01*
X76038206Y-69534203D01*
X76033337Y-69527061D01*
X76018196Y-69459347D01*
X75992527Y-69344549D01*
X75992527Y-69339450D01*
X76033337Y-69156937D01*
X76038487Y-69149612D01*
X76046978Y-69148004D01*
X76383481Y-69213165D01*
G37*
%TD.AperFunction*%
%TD*%
%TA.AperFunction,Conductor*%
%TO.N,GND*%
G36*
X129404061Y-67390412D02*
G01*
X129724725Y-67801270D01*
X129736727Y-67816647D01*
X129739116Y-67825278D01*
X129735777Y-67832119D01*
X129427119Y-68140777D01*
X129418846Y-68144204D01*
X129411647Y-68141727D01*
X128985412Y-67809061D01*
X128980999Y-67801270D01*
X128983245Y-67792826D01*
X129155476Y-67562815D01*
X129157815Y-67560476D01*
X129387826Y-67388245D01*
X129396502Y-67386030D01*
X129404061Y-67390412D01*
G37*
%TD.AperFunction*%
%TD*%
%TA.AperFunction,Conductor*%
%TO.N,GND*%
G36*
X101315458Y-73812306D02*
G01*
X101507324Y-74096324D01*
X101509116Y-74105097D01*
X101505902Y-74111146D01*
X101339946Y-74277102D01*
X101331673Y-74280529D01*
X101325124Y-74278524D01*
X101320365Y-74275309D01*
X101041105Y-74086657D01*
X101036168Y-74079187D01*
X101037775Y-74070697D01*
X101137976Y-73912781D01*
X101141581Y-73909176D01*
X101299497Y-73808975D01*
X101308316Y-73807437D01*
X101315458Y-73812306D01*
G37*
%TD.AperFunction*%
%TD*%
%TA.AperFunction,Conductor*%
%TO.N,GND*%
G36*
X144034633Y-84513353D02*
G01*
X144050661Y-84516937D01*
X144057987Y-84522087D01*
X144059595Y-84530579D01*
X143994435Y-84867081D01*
X143989497Y-84874552D01*
X143982948Y-84876557D01*
X143748252Y-84876557D01*
X143739979Y-84873130D01*
X143736765Y-84867081D01*
X143671604Y-84530579D01*
X143673396Y-84521806D01*
X143680537Y-84516937D01*
X143863051Y-84476127D01*
X143868149Y-84476127D01*
X144034633Y-84513353D01*
G37*
%TD.AperFunction*%
%TD*%
%TA.AperFunction,Conductor*%
%TO.N,GND*%
G36*
X102495593Y-77198796D02*
G01*
X102500462Y-77205938D01*
X102541272Y-77388447D01*
X102541272Y-77393553D01*
X102500462Y-77576061D01*
X102495312Y-77583387D01*
X102486820Y-77584995D01*
X102150319Y-77519834D01*
X102142848Y-77514896D01*
X102140843Y-77508347D01*
X102140843Y-77273652D01*
X102144270Y-77265379D01*
X102150319Y-77262165D01*
X102486821Y-77197004D01*
X102495593Y-77198796D01*
G37*
%TD.AperFunction*%
%TD*%
%TA.AperFunction,Conductor*%
%TO.N,GND*%
G36*
X117618633Y-93860553D02*
G01*
X117634661Y-93864137D01*
X117641987Y-93869287D01*
X117643595Y-93877779D01*
X117578435Y-94214281D01*
X117573497Y-94221752D01*
X117566948Y-94223757D01*
X117332252Y-94223757D01*
X117323979Y-94220330D01*
X117320765Y-94214281D01*
X117255604Y-93877779D01*
X117257396Y-93869006D01*
X117264537Y-93864137D01*
X117447051Y-93823327D01*
X117452149Y-93823327D01*
X117618633Y-93860553D01*
G37*
%TD.AperFunction*%
%TD*%
%TA.AperFunction,Conductor*%
%TO.N,GND*%
G36*
X132147433Y-93860553D02*
G01*
X132163461Y-93864137D01*
X132170787Y-93869287D01*
X132172395Y-93877779D01*
X132107235Y-94214281D01*
X132102297Y-94221752D01*
X132095748Y-94223757D01*
X131861052Y-94223757D01*
X131852779Y-94220330D01*
X131849565Y-94214281D01*
X131784404Y-93877779D01*
X131786196Y-93869006D01*
X131793337Y-93864137D01*
X131975851Y-93823327D01*
X131980949Y-93823327D01*
X132147433Y-93860553D01*
G37*
%TD.AperFunction*%
%TD*%
%TA.AperFunction,Conductor*%
%TO.N,GND*%
G36*
X88462252Y-72098474D02*
G01*
X88552822Y-72109363D01*
X88556933Y-72110658D01*
X88757337Y-72217746D01*
X88802295Y-72241771D01*
X88807977Y-72248692D01*
X88807269Y-72257276D01*
X88685221Y-72504111D01*
X88678482Y-72510008D01*
X88674733Y-72510625D01*
X88440334Y-72510625D01*
X88432061Y-72507198D01*
X88428634Y-72498925D01*
X88428650Y-72498308D01*
X88441832Y-72248692D01*
X88449183Y-72109473D01*
X88453042Y-72101393D01*
X88461484Y-72098407D01*
X88462252Y-72098474D01*
G37*
%TD.AperFunction*%
%TD*%
%TA.AperFunction,Conductor*%
%TO.N,GND*%
G36*
X93224033Y-63786953D02*
G01*
X93240061Y-63790537D01*
X93247387Y-63795687D01*
X93248995Y-63804179D01*
X93183835Y-64140681D01*
X93178897Y-64148152D01*
X93172348Y-64150157D01*
X92937652Y-64150157D01*
X92929379Y-64146730D01*
X92926165Y-64140681D01*
X92861004Y-63804179D01*
X92862796Y-63795406D01*
X92869937Y-63790537D01*
X93052451Y-63749727D01*
X93057549Y-63749727D01*
X93224033Y-63786953D01*
G37*
%TD.AperFunction*%
%TD*%
%TA.AperFunction,Conductor*%
%TO.N,GND*%
G36*
X84531193Y-73416213D02*
G01*
X84867900Y-73506869D01*
X84874997Y-73512328D01*
X84876557Y-73518166D01*
X84876557Y-73700233D01*
X84873130Y-73708506D01*
X84867899Y-73711531D01*
X84531212Y-73802181D01*
X84522332Y-73801023D01*
X84516872Y-73793925D01*
X84516752Y-73793436D01*
X84497917Y-73709200D01*
X84476127Y-73611749D01*
X84476127Y-73606650D01*
X84516752Y-73424961D01*
X84521902Y-73417637D01*
X84530723Y-73416098D01*
X84531193Y-73416213D01*
G37*
%TD.AperFunction*%
%TD*%
%TA.AperFunction,Conductor*%
%TO.N,GND*%
G36*
X63837477Y-85492833D02*
G01*
X63840485Y-85495797D01*
X63959822Y-85666032D01*
X63961938Y-85673063D01*
X63957550Y-85835806D01*
X63953901Y-85843984D01*
X63945539Y-85847187D01*
X63944314Y-85847089D01*
X63571203Y-85797549D01*
X63563453Y-85793063D01*
X63561043Y-85785951D01*
X63561043Y-85551874D01*
X63564470Y-85543601D01*
X63570543Y-85540383D01*
X63828708Y-85491021D01*
X63837477Y-85492833D01*
G37*
%TD.AperFunction*%
%TD*%
%TA.AperFunction,Conductor*%
%TO.N,GND*%
G36*
X76521433Y-93962153D02*
G01*
X76537461Y-93965737D01*
X76544787Y-93970887D01*
X76546395Y-93979379D01*
X76481235Y-94315881D01*
X76476297Y-94323352D01*
X76469748Y-94325357D01*
X76235052Y-94325357D01*
X76226779Y-94321930D01*
X76223565Y-94315881D01*
X76158404Y-93979379D01*
X76160196Y-93970606D01*
X76167337Y-93965737D01*
X76349851Y-93924927D01*
X76354949Y-93924927D01*
X76521433Y-93962153D01*
G37*
%TD.AperFunction*%
%TD*%
%TA.AperFunction,Conductor*%
%TO.N,GND*%
G36*
X130910468Y-84636380D02*
G01*
X130917883Y-84641399D01*
X130919579Y-84650192D01*
X130919485Y-84650610D01*
X130854099Y-84919156D01*
X130837844Y-84985922D01*
X130837575Y-84987025D01*
X130832288Y-84994252D01*
X130826207Y-84995957D01*
X130591538Y-84995957D01*
X130583265Y-84992530D01*
X130579957Y-84985922D01*
X130531552Y-84649312D01*
X130533767Y-84640636D01*
X130540339Y-84636286D01*
X130705838Y-84595586D01*
X130710980Y-84595486D01*
X130910468Y-84636380D01*
G37*
%TD.AperFunction*%
%TD*%
%TA.AperFunction,Conductor*%
%TO.N,GND*%
G36*
X93180621Y-63361270D02*
G01*
X93183835Y-63367319D01*
X93248995Y-63703820D01*
X93247203Y-63712593D01*
X93240061Y-63717462D01*
X93057553Y-63758272D01*
X93052447Y-63758272D01*
X92869938Y-63717462D01*
X92862612Y-63712312D01*
X92861004Y-63703820D01*
X92926165Y-63367319D01*
X92931103Y-63359848D01*
X92937652Y-63357843D01*
X93172348Y-63357843D01*
X93180621Y-63361270D01*
G37*
%TD.AperFunction*%
%TD*%
%TA.AperFunction,Conductor*%
%TO.N,GND*%
G36*
X96336527Y-66650240D02*
G01*
X96336788Y-66650671D01*
X96510762Y-66952843D01*
X96511920Y-66961723D01*
X96508895Y-66966954D01*
X96380154Y-67095695D01*
X96371881Y-67099122D01*
X96366043Y-67097562D01*
X96063871Y-66923588D01*
X96058411Y-66916490D01*
X96059569Y-66907610D01*
X96059806Y-66907217D01*
X96159576Y-66749981D01*
X96163181Y-66746376D01*
X96320381Y-66646629D01*
X96329201Y-66645091D01*
X96336527Y-66650240D01*
G37*
%TD.AperFunction*%
%TD*%
%TA.AperFunction,Conductor*%
%TO.N,GND*%
G36*
X116297833Y-84462553D02*
G01*
X116313861Y-84466137D01*
X116321187Y-84471287D01*
X116322795Y-84479779D01*
X116257635Y-84816281D01*
X116252697Y-84823752D01*
X116246148Y-84825757D01*
X116011452Y-84825757D01*
X116003179Y-84822330D01*
X115999965Y-84816281D01*
X115934804Y-84479779D01*
X115936596Y-84471006D01*
X115943737Y-84466137D01*
X116126251Y-84425327D01*
X116131349Y-84425327D01*
X116297833Y-84462553D01*
G37*
%TD.AperFunction*%
%TD*%
%TA.AperFunction,Conductor*%
%TO.N,GND*%
G36*
X103140633Y-84614953D02*
G01*
X103156661Y-84618537D01*
X103163987Y-84623687D01*
X103165595Y-84632179D01*
X103100435Y-84968681D01*
X103095497Y-84976152D01*
X103088948Y-84978157D01*
X102854252Y-84978157D01*
X102845979Y-84974730D01*
X102842765Y-84968681D01*
X102777604Y-84632179D01*
X102779396Y-84623406D01*
X102786537Y-84618537D01*
X102969051Y-84577727D01*
X102974149Y-84577727D01*
X103140633Y-84614953D01*
G37*
%TD.AperFunction*%
%TD*%
%TA.AperFunction,Conductor*%
%TO.N,GND*%
G36*
X145304633Y-93758953D02*
G01*
X145320661Y-93762537D01*
X145327987Y-93767687D01*
X145329595Y-93776179D01*
X145264435Y-94112681D01*
X145259497Y-94120152D01*
X145252948Y-94122157D01*
X145018252Y-94122157D01*
X145009979Y-94118730D01*
X145006765Y-94112681D01*
X144941604Y-93776179D01*
X144943396Y-93767406D01*
X144950537Y-93762537D01*
X145133051Y-93721727D01*
X145138149Y-93721727D01*
X145304633Y-93758953D01*
G37*
%TD.AperFunction*%
%TD*%
%TA.AperFunction,Conductor*%
%TO.N,GND*%
G36*
X115769154Y-77223106D02*
G01*
X115773489Y-77230941D01*
X115773558Y-77231926D01*
X115777917Y-77386558D01*
X115775187Y-77394405D01*
X115638323Y-77557632D01*
X115630382Y-77561770D01*
X115627348Y-77561641D01*
X115386733Y-77519689D01*
X115379172Y-77514892D01*
X115377043Y-77508163D01*
X115377043Y-77274451D01*
X115380470Y-77266178D01*
X115387426Y-77262825D01*
X115760549Y-77220630D01*
X115769154Y-77223106D01*
G37*
%TD.AperFunction*%
%TD*%
%TA.AperFunction,Conductor*%
%TO.N,GND*%
G36*
X74521693Y-77238296D02*
G01*
X74526562Y-77245438D01*
X74567372Y-77427947D01*
X74567372Y-77433053D01*
X74526562Y-77615561D01*
X74521412Y-77622887D01*
X74512920Y-77624495D01*
X74176419Y-77559334D01*
X74168948Y-77554396D01*
X74166943Y-77547847D01*
X74166943Y-77313152D01*
X74170370Y-77304879D01*
X74176419Y-77301665D01*
X74512921Y-77236504D01*
X74521693Y-77238296D01*
G37*
%TD.AperFunction*%
%TD*%
%TA.AperFunction,Conductor*%
%TO.N,GND*%
G36*
X130237993Y-77198796D02*
G01*
X130242862Y-77205938D01*
X130283672Y-77388447D01*
X130283672Y-77393553D01*
X130242862Y-77576061D01*
X130237712Y-77583387D01*
X130229220Y-77584995D01*
X129892719Y-77519834D01*
X129885248Y-77514896D01*
X129883243Y-77508347D01*
X129883243Y-77273652D01*
X129886670Y-77265379D01*
X129892719Y-77262165D01*
X130229221Y-77197004D01*
X130237993Y-77198796D01*
G37*
%TD.AperFunction*%
%TD*%
%TA.AperFunction,Conductor*%
%TO.N,GND*%
G36*
X104410633Y-93962153D02*
G01*
X104426661Y-93965737D01*
X104433987Y-93970887D01*
X104435595Y-93979379D01*
X104370435Y-94315881D01*
X104365497Y-94323352D01*
X104358948Y-94325357D01*
X104124252Y-94325357D01*
X104115979Y-94321930D01*
X104112765Y-94315881D01*
X104047604Y-93979379D01*
X104049396Y-93970606D01*
X104056537Y-93965737D01*
X104239051Y-93924927D01*
X104244149Y-93924927D01*
X104410633Y-93962153D01*
G37*
%TD.AperFunction*%
%TD*%
%TA.AperFunction,Conductor*%
%TO.N,GND*%
G36*
X112681081Y-65950527D02*
G01*
X112688782Y-65955095D01*
X112691029Y-65963540D01*
X112624866Y-66500165D01*
X112620453Y-66507956D01*
X112613254Y-66510433D01*
X112176746Y-66510433D01*
X112168473Y-66507006D01*
X112165134Y-66500165D01*
X112098970Y-65963540D01*
X112101359Y-65954909D01*
X112108916Y-65950527D01*
X112393336Y-65909672D01*
X112396664Y-65909672D01*
X112681081Y-65950527D01*
G37*
%TD.AperFunction*%
%TD*%
M02*
