%TF.GenerationSoftware,KiCad,Pcbnew,10.0.6*%
%TF.CreationDate,2026-09-24T14:25:24+03:00*%
%TF.ProjectId,VFD_IV6,5646445f-4956-4362-9e6b-696361645f70,rev?*%
%TF.SameCoordinates,Original*%
%TF.FileFunction,Drillmap*%
%TF.FilePolarity,Positive*%
%FSLAX45Y45*%
G04 Gerber Fmt 4.5, Leading zero omitted, Abs format (unit mm)*
G04 Created by KiCad (PCBNEW 10.0.6) date 2026-09-24 14:25:24*
%MOMM*%
%LPD*%
G01*
G04 APERTURE LIST*
%ADD10C,0.050000*%
%ADD11C,0.200000*%
%ADD12C,0.100000*%
%ADD13C,0.270000*%
G04 APERTURE END LIST*
D10*
X5842000Y-5660000D02*
X16842000Y-5660000D01*
X16842000Y-11060000D01*
X5842000Y-11060000D01*
X5842000Y-5660000D01*
D11*
D12*
X6157120Y-6868320D02*
X6177120Y-6888320D01*
X6177120Y-6868320D02*
X6157120Y-6888320D01*
X6157120Y-8732680D02*
X6177120Y-8752680D01*
X6177120Y-8732680D02*
X6157120Y-8752680D01*
X6192680Y-6537990D02*
X6212680Y-6557990D01*
X6212680Y-6537990D02*
X6192680Y-6557990D01*
X6204620Y-8862980D02*
X6224620Y-8882980D01*
X6224620Y-8862980D02*
X6204620Y-8882980D01*
X6341020Y-7488080D02*
X6361020Y-7508080D01*
X6361020Y-7488080D02*
X6341020Y-7508080D01*
X6385720Y-8468520D02*
X6405720Y-8488520D01*
X6405720Y-8468520D02*
X6385720Y-8488520D01*
X6385720Y-8554880D02*
X6405720Y-8574880D01*
X6405720Y-8554880D02*
X6385720Y-8574880D01*
X6482240Y-7858920D02*
X6502240Y-7878920D01*
X6502240Y-7858920D02*
X6482240Y-7878920D01*
X6482240Y-8209440D02*
X6502240Y-8229440D01*
X6502240Y-8209440D02*
X6482240Y-8229440D01*
X6609240Y-7858920D02*
X6629240Y-7878920D01*
X6629240Y-7858920D02*
X6609240Y-7878920D01*
X6609240Y-8153560D02*
X6629240Y-8173560D01*
X6629240Y-8153560D02*
X6609240Y-8173560D01*
X6609370Y-7045990D02*
X6629370Y-7065990D01*
X6629370Y-7045990D02*
X6609370Y-7065990D01*
X6650010Y-7299990D02*
X6670010Y-7319990D01*
X6670010Y-7299990D02*
X6650010Y-7319990D01*
X6736240Y-7864000D02*
X6756240Y-7884000D01*
X6756240Y-7864000D02*
X6736240Y-7884000D01*
X6736240Y-8102760D02*
X6756240Y-8122760D01*
X6756240Y-8102760D02*
X6736240Y-8122760D01*
X7015640Y-7249320D02*
X7035640Y-7269320D01*
X7035640Y-7249320D02*
X7015640Y-7269320D01*
X7081680Y-6416200D02*
X7101680Y-6436200D01*
X7101680Y-6416200D02*
X7081680Y-6436200D01*
X7094860Y-7051200D02*
X7114860Y-7071200D01*
X7114860Y-7051200D02*
X7094860Y-7071200D01*
X7114700Y-7856380D02*
X7134700Y-7876380D01*
X7134700Y-7856380D02*
X7114700Y-7876380D01*
X7117240Y-8046880D02*
X7137240Y-8066880D01*
X7137240Y-8046880D02*
X7117240Y-8066880D01*
X7239160Y-7853840D02*
X7259160Y-7873840D01*
X7259160Y-7853840D02*
X7239160Y-7873840D01*
X7244240Y-7991000D02*
X7264240Y-8011000D01*
X7264240Y-7991000D02*
X7244240Y-8011000D01*
X7446310Y-7733050D02*
X7466310Y-7753050D01*
X7466310Y-7733050D02*
X7446310Y-7753050D01*
X7483000Y-7483000D02*
X7503000Y-7503000D01*
X7503000Y-7483000D02*
X7483000Y-7503000D01*
X7495700Y-8453280D02*
X7515700Y-8473280D01*
X7515700Y-8453280D02*
X7495700Y-8473280D01*
X7589680Y-6924200D02*
X7609680Y-6944200D01*
X7609680Y-6924200D02*
X7589680Y-6944200D01*
X7622700Y-8778400D02*
X7642700Y-8798400D01*
X7642700Y-8778400D02*
X7622700Y-8798400D01*
X7625240Y-9382920D02*
X7645240Y-9402920D01*
X7645240Y-9382920D02*
X7625240Y-9402920D01*
X7676040Y-7579520D02*
X7696040Y-7599520D01*
X7696040Y-7579520D02*
X7676040Y-7599520D01*
X7787800Y-8641240D02*
X7807800Y-8661240D01*
X7807800Y-8641240D02*
X7787800Y-8661240D01*
X7800500Y-7864000D02*
X7820500Y-7884000D01*
X7820500Y-7864000D02*
X7800500Y-7884000D01*
X7800500Y-8209440D02*
X7820500Y-8229440D01*
X7820500Y-8209440D02*
X7800500Y-8229440D01*
X7924960Y-8153560D02*
X7944960Y-8173560D01*
X7944960Y-8153560D02*
X7924960Y-8173560D01*
X7927500Y-7856380D02*
X7947500Y-7876380D01*
X7947500Y-7856380D02*
X7927500Y-7876380D01*
X8158640Y-7411880D02*
X8178640Y-7431880D01*
X8178640Y-7411880D02*
X8158640Y-7431880D01*
X8181500Y-7853840D02*
X8201500Y-7873840D01*
X8201500Y-7853840D02*
X8181500Y-7873840D01*
X8184040Y-8102760D02*
X8204040Y-8122760D01*
X8204040Y-8102760D02*
X8184040Y-8122760D01*
X8438040Y-7350920D02*
X8458040Y-7370920D01*
X8458040Y-7350920D02*
X8438040Y-7370920D01*
X8438040Y-7853840D02*
X8458040Y-7873840D01*
X8458040Y-7853840D02*
X8438040Y-7873840D01*
X8438040Y-8046880D02*
X8458040Y-8066880D01*
X8458040Y-8046880D02*
X8438040Y-8066880D01*
X8463440Y-6944520D02*
X8483440Y-6964520D01*
X8483440Y-6944520D02*
X8463440Y-6964520D01*
X8544720Y-7173120D02*
X8564720Y-7193120D01*
X8564720Y-7173120D02*
X8544720Y-7193120D01*
X8562500Y-7851300D02*
X8582500Y-7871300D01*
X8582500Y-7851300D02*
X8562500Y-7871300D01*
X8565040Y-7991000D02*
X8585040Y-8011000D01*
X8585040Y-7991000D02*
X8565040Y-8011000D01*
X8676800Y-7269640D02*
X8696800Y-7289640D01*
X8696800Y-7269640D02*
X8676800Y-7289640D01*
X8686960Y-6426360D02*
X8706960Y-6446360D01*
X8706960Y-6426360D02*
X8686960Y-6446360D01*
X8765700Y-6675280D02*
X8785700Y-6695280D01*
X8785700Y-6675280D02*
X8765700Y-6695280D01*
X8773320Y-7127400D02*
X8793320Y-7147400D01*
X8793320Y-7127400D02*
X8773320Y-7147400D01*
X8777270Y-7733050D02*
X8797270Y-7753050D01*
X8797270Y-7733050D02*
X8777270Y-7753050D01*
X8778400Y-7594760D02*
X8798400Y-7614760D01*
X8798400Y-7594760D02*
X8778400Y-7614760D01*
X8788560Y-6324760D02*
X8808560Y-6344760D01*
X8808560Y-6324760D02*
X8788560Y-6344760D01*
X8808880Y-6726080D02*
X8828880Y-6746080D01*
X8828880Y-6726080D02*
X8808880Y-6746080D01*
X8813960Y-7025000D02*
X8833960Y-7045000D01*
X8833960Y-7025000D02*
X8813960Y-7045000D01*
X8843170Y-8398670D02*
X8863170Y-8418670D01*
X8863170Y-8398670D02*
X8843170Y-8418670D01*
X8854600Y-7203600D02*
X8874600Y-7223600D01*
X8874600Y-7203600D02*
X8854600Y-7223600D01*
X8864240Y-6625000D02*
X8884240Y-6645000D01*
X8884240Y-6625000D02*
X8864240Y-6645000D01*
X8880000Y-7427120D02*
X8900000Y-7447120D01*
X8900000Y-7427120D02*
X8880000Y-7447120D01*
X8895240Y-7025800D02*
X8915240Y-7045800D01*
X8915240Y-7025800D02*
X8895240Y-7045800D01*
X8918100Y-6269903D02*
X8938100Y-6289903D01*
X8938100Y-6269903D02*
X8918100Y-6289903D01*
X8946040Y-7467760D02*
X8966040Y-7487760D01*
X8966040Y-7467760D02*
X8946040Y-7487760D01*
X8946040Y-8778400D02*
X8966040Y-8798400D01*
X8966040Y-8778400D02*
X8946040Y-8798400D01*
X8946040Y-9372760D02*
X8966040Y-9392760D01*
X8966040Y-9372760D02*
X8946040Y-9392760D01*
X8968900Y-6302605D02*
X8988900Y-6322605D01*
X8988900Y-6302605D02*
X8968900Y-6322605D01*
X8971440Y-7025800D02*
X8991440Y-7045800D01*
X8991440Y-7025800D02*
X8971440Y-7045800D01*
X9017160Y-7467760D02*
X9037160Y-7487760D01*
X9037160Y-7467760D02*
X9017160Y-7487760D01*
X9019700Y-6327300D02*
X9039700Y-6347300D01*
X9039700Y-6327300D02*
X9019700Y-6347300D01*
X9037480Y-7198520D02*
X9057480Y-7218520D01*
X9057480Y-7198520D02*
X9037480Y-7218520D01*
X9045700Y-6377700D02*
X9065700Y-6397700D01*
X9065700Y-6377700D02*
X9045700Y-6397700D01*
X9052720Y-8356760D02*
X9072720Y-8376760D01*
X9072720Y-8356760D02*
X9052720Y-8376760D01*
X9053363Y-8261249D02*
X9073363Y-8281249D01*
X9073363Y-8261249D02*
X9053363Y-8281249D01*
X9083200Y-7483000D02*
X9103200Y-7503000D01*
X9103200Y-7483000D02*
X9083200Y-7503000D01*
X9121300Y-6606700D02*
X9141300Y-6626700D01*
X9141300Y-6606700D02*
X9121300Y-6626700D01*
X9157943Y-6927500D02*
X9177943Y-6947500D01*
X9177943Y-6927500D02*
X9157943Y-6947500D01*
X9184800Y-6606700D02*
X9204800Y-6626700D01*
X9204800Y-6606700D02*
X9184800Y-6626700D01*
X9273700Y-7851300D02*
X9293700Y-7871300D01*
X9293700Y-7851300D02*
X9273700Y-7871300D01*
X9276240Y-8209440D02*
X9296240Y-8229440D01*
X9296240Y-8209440D02*
X9276240Y-8229440D01*
X9281320Y-7518560D02*
X9301320Y-7538560D01*
X9301320Y-7518560D02*
X9281320Y-7538560D01*
X9295500Y-6365400D02*
X9315500Y-6385400D01*
X9315500Y-6365400D02*
X9295500Y-6385400D01*
X9316880Y-6904900D02*
X9336880Y-6924900D01*
X9336880Y-6904900D02*
X9316880Y-6924900D01*
X9337200Y-7991000D02*
X9357200Y-8011000D01*
X9357200Y-7991000D02*
X9337200Y-8011000D01*
X9357520Y-7076600D02*
X9377520Y-7096600D01*
X9377520Y-7076600D02*
X9357520Y-7096600D01*
X9372760Y-6975000D02*
X9392760Y-6995000D01*
X9392760Y-6975000D02*
X9372760Y-6995000D01*
X9382920Y-6625000D02*
X9402920Y-6645000D01*
X9402920Y-6625000D02*
X9382920Y-6645000D01*
X9382920Y-7127400D02*
X9402920Y-7147400D01*
X9402920Y-7127400D02*
X9382920Y-7147400D01*
X9398160Y-7853840D02*
X9418160Y-7873840D01*
X9418160Y-7853840D02*
X9398160Y-7873840D01*
X9398160Y-8153560D02*
X9418160Y-8173560D01*
X9418160Y-8153560D02*
X9398160Y-8173560D01*
X9433720Y-7325520D02*
X9453720Y-7345520D01*
X9453720Y-7325520D02*
X9433720Y-7345520D01*
X9581040Y-7223920D02*
X9601040Y-7243920D01*
X9601040Y-7223920D02*
X9581040Y-7243920D01*
X9606440Y-6665120D02*
X9626440Y-6685120D01*
X9626440Y-6665120D02*
X9606440Y-6685120D01*
X9606440Y-7081680D02*
X9626440Y-7101680D01*
X9626440Y-7081680D02*
X9606440Y-7101680D01*
X9652160Y-7853840D02*
X9672160Y-7873840D01*
X9672160Y-7853840D02*
X9652160Y-7873840D01*
X9652160Y-8102760D02*
X9672160Y-8122760D01*
X9672160Y-8102760D02*
X9652160Y-8122760D01*
X9774080Y-8844440D02*
X9794080Y-8864440D01*
X9794080Y-8844440D02*
X9774080Y-8864440D01*
X9779160Y-7879240D02*
X9799160Y-7899240D01*
X9799160Y-7879240D02*
X9779160Y-7899240D01*
X9906160Y-7853840D02*
X9926160Y-7873840D01*
X9926160Y-7853840D02*
X9906160Y-7873840D01*
X9906160Y-8046880D02*
X9926160Y-8066880D01*
X9926160Y-8046880D02*
X9906160Y-8066880D01*
X10033160Y-7848760D02*
X10053160Y-7868760D01*
X10053160Y-7848760D02*
X10033160Y-7868760D01*
X10033160Y-7991000D02*
X10053160Y-8011000D01*
X10053160Y-7991000D02*
X10033160Y-8011000D01*
X10104280Y-7381400D02*
X10124280Y-7401400D01*
X10124280Y-7381400D02*
X10104280Y-7401400D01*
X10150000Y-6608000D02*
X10170000Y-6628000D01*
X10170000Y-6608000D02*
X10150000Y-6628000D01*
X10150000Y-7088000D02*
X10170000Y-7108000D01*
X10170000Y-7088000D02*
X10150000Y-7108000D01*
X10243700Y-7729100D02*
X10263700Y-7749100D01*
X10263700Y-7729100D02*
X10243700Y-7749100D01*
X10287160Y-8448200D02*
X10307160Y-8468200D01*
X10307160Y-8448200D02*
X10287160Y-8468200D01*
X10348120Y-6390800D02*
X10368120Y-6410800D01*
X10368120Y-6390800D02*
X10348120Y-6410800D01*
X10411620Y-6487320D02*
X10431620Y-6507320D01*
X10431620Y-6487320D02*
X10411620Y-6507320D01*
X10414160Y-8778400D02*
X10434160Y-8798400D01*
X10434160Y-8778400D02*
X10414160Y-8798400D01*
X10414160Y-9382920D02*
X10434160Y-9402920D01*
X10434160Y-9382920D02*
X10414160Y-9402920D01*
X10581800Y-5959000D02*
X10601800Y-5979000D01*
X10601800Y-5959000D02*
X10581800Y-5979000D01*
X10586880Y-7853840D02*
X10606880Y-7873840D01*
X10606880Y-7853840D02*
X10586880Y-7873840D01*
X10586880Y-8209440D02*
X10606880Y-8229440D01*
X10606880Y-8209440D02*
X10586880Y-8229440D01*
X10663080Y-6903880D02*
X10683080Y-6923880D01*
X10683080Y-6903880D02*
X10663080Y-6923880D01*
X10713880Y-7853840D02*
X10733880Y-7873840D01*
X10733880Y-7853840D02*
X10713880Y-7873840D01*
X10713880Y-8153560D02*
X10733880Y-8173560D01*
X10733880Y-8153560D02*
X10713880Y-8173560D01*
X10848500Y-6906420D02*
X10868500Y-6926420D01*
X10868500Y-6906420D02*
X10848500Y-6926420D01*
X10967880Y-7853840D02*
X10987880Y-7873840D01*
X10987880Y-7853840D02*
X10967880Y-7873840D01*
X10967880Y-8102760D02*
X10987880Y-8122760D01*
X10987880Y-8102760D02*
X10967880Y-8122760D01*
X11003440Y-7310280D02*
X11023440Y-7330280D01*
X11023440Y-7310280D02*
X11003440Y-7330280D01*
X11094880Y-8864760D02*
X11114880Y-8884760D01*
X11114880Y-8864760D02*
X11094880Y-8884760D01*
X11102500Y-7889400D02*
X11122500Y-7909400D01*
X11122500Y-7889400D02*
X11102500Y-7909400D01*
X11145680Y-7208680D02*
X11165680Y-7228680D01*
X11165680Y-7208680D02*
X11145680Y-7228680D01*
X11221880Y-7853840D02*
X11241880Y-7873840D01*
X11241880Y-7853840D02*
X11221880Y-7873840D01*
X11221880Y-8046880D02*
X11241880Y-8066880D01*
X11241880Y-8046880D02*
X11221880Y-8066880D01*
X11287920Y-7340760D02*
X11307920Y-7360760D01*
X11307920Y-7340760D02*
X11287920Y-7360760D01*
X11348880Y-7853840D02*
X11368880Y-7873840D01*
X11368880Y-7853840D02*
X11348880Y-7873840D01*
X11348880Y-7991000D02*
X11368880Y-8011000D01*
X11368880Y-7991000D02*
X11348880Y-8011000D01*
X11567320Y-7731920D02*
X11587320Y-7751920D01*
X11587320Y-7731920D02*
X11567320Y-7751920D01*
X11602880Y-8432960D02*
X11622880Y-8452960D01*
X11622880Y-8432960D02*
X11602880Y-8452960D01*
X11709560Y-7630320D02*
X11729560Y-7650320D01*
X11729560Y-7630320D02*
X11709560Y-7650320D01*
X11729880Y-8778400D02*
X11749880Y-8798400D01*
X11749880Y-8778400D02*
X11729880Y-8798400D01*
X11734960Y-9372760D02*
X11754960Y-9392760D01*
X11754960Y-9372760D02*
X11734960Y-9392760D01*
X11835475Y-8260465D02*
X11855475Y-8280465D01*
X11855475Y-8260465D02*
X11835475Y-8280465D01*
X11849360Y-8359400D02*
X11869360Y-8379400D01*
X11869360Y-8359400D02*
X11849360Y-8379400D01*
X11851800Y-7152800D02*
X11871800Y-7172800D01*
X11871800Y-7152800D02*
X11851800Y-7172800D01*
X12044840Y-7848760D02*
X12064840Y-7868760D01*
X12064840Y-7848760D02*
X12044840Y-7868760D01*
X12055000Y-8209440D02*
X12075000Y-8229440D01*
X12075000Y-8209440D02*
X12055000Y-8229440D01*
X12171840Y-7848760D02*
X12191840Y-7868760D01*
X12191840Y-7848760D02*
X12171840Y-7868760D01*
X12171840Y-8153560D02*
X12191840Y-8173560D01*
X12191840Y-8153560D02*
X12171840Y-8173560D01*
X12425840Y-7848760D02*
X12445840Y-7868760D01*
X12445840Y-7848760D02*
X12425840Y-7868760D01*
X12425840Y-8102760D02*
X12445840Y-8122760D01*
X12445840Y-8102760D02*
X12425840Y-8122760D01*
X12563000Y-7889400D02*
X12583000Y-7909400D01*
X12583000Y-7889400D02*
X12563000Y-7909400D01*
X12563000Y-8844440D02*
X12583000Y-8864440D01*
X12583000Y-8844440D02*
X12563000Y-8864440D01*
X12679840Y-7848760D02*
X12699840Y-7868760D01*
X12699840Y-7848760D02*
X12679840Y-7868760D01*
X12679840Y-8046880D02*
X12699840Y-8066880D01*
X12699840Y-8046880D02*
X12679840Y-8066880D01*
X12806840Y-7848760D02*
X12826840Y-7868760D01*
X12826840Y-7848760D02*
X12806840Y-7868760D01*
X12806840Y-7991000D02*
X12826840Y-8011000D01*
X12826840Y-7991000D02*
X12806840Y-8011000D01*
X13017940Y-7729100D02*
X13037940Y-7749100D01*
X13037940Y-7729100D02*
X13017940Y-7749100D01*
X13062620Y-8449980D02*
X13082620Y-8469980D01*
X13082620Y-8449980D02*
X13062620Y-8469980D01*
X13187840Y-8778400D02*
X13207840Y-8798400D01*
X13207840Y-8778400D02*
X13187840Y-8798400D01*
X13187840Y-9372760D02*
X13207840Y-9392760D01*
X13207840Y-9372760D02*
X13187840Y-9392760D01*
X13235080Y-8348120D02*
X13255080Y-8368120D01*
X13255080Y-8348120D02*
X13235080Y-8368120D01*
X13238640Y-7513480D02*
X13258640Y-7533480D01*
X13258640Y-7513480D02*
X13238640Y-7533480D01*
X13350400Y-8626000D02*
X13370400Y-8646000D01*
X13370400Y-8626000D02*
X13350400Y-8646000D01*
X13360560Y-7848760D02*
X13380560Y-7868760D01*
X13380560Y-7848760D02*
X13360560Y-7868760D01*
X13360560Y-8209440D02*
X13380560Y-8229440D01*
X13380560Y-8209440D02*
X13360560Y-8229440D01*
X13487560Y-7848760D02*
X13507560Y-7868760D01*
X13507560Y-7848760D02*
X13487560Y-7868760D01*
X13487560Y-8153560D02*
X13507560Y-8173560D01*
X13507560Y-8153560D02*
X13487560Y-8173560D01*
X13741560Y-7848760D02*
X13761560Y-7868760D01*
X13761560Y-7848760D02*
X13741560Y-7868760D01*
X13746640Y-8102760D02*
X13766640Y-8122760D01*
X13766640Y-8102760D02*
X13746640Y-8122760D01*
X13871100Y-7889400D02*
X13891100Y-7909400D01*
X13891100Y-7889400D02*
X13871100Y-7909400D01*
X13873640Y-8864760D02*
X13893640Y-8884760D01*
X13893640Y-8864760D02*
X13873640Y-8884760D01*
X13995560Y-7848760D02*
X14015560Y-7868760D01*
X14015560Y-7848760D02*
X13995560Y-7868760D01*
X13995560Y-8046880D02*
X14015560Y-8066880D01*
X14015560Y-8046880D02*
X13995560Y-8066880D01*
X14117480Y-7991000D02*
X14137480Y-8011000D01*
X14137480Y-7991000D02*
X14117480Y-8011000D01*
X14127640Y-7848760D02*
X14147640Y-7868760D01*
X14147640Y-7848760D02*
X14127640Y-7868760D01*
X14330840Y-7716680D02*
X14350840Y-7736680D01*
X14350840Y-7716680D02*
X14330840Y-7736680D01*
X14376560Y-8438040D02*
X14396560Y-8458040D01*
X14396560Y-8438040D02*
X14376560Y-8458040D01*
X14503560Y-8778400D02*
X14523560Y-8798400D01*
X14523560Y-8778400D02*
X14503560Y-8798400D01*
X14503560Y-9362600D02*
X14523560Y-9382600D01*
X14523560Y-9362600D02*
X14503560Y-9382600D01*
X14506100Y-5984400D02*
X14526100Y-6004400D01*
X14526100Y-5984400D02*
X14506100Y-6004400D01*
X14506100Y-6035200D02*
X14526100Y-6055200D01*
X14526100Y-6035200D02*
X14506100Y-6055200D01*
X14506100Y-6086000D02*
X14526100Y-6106000D01*
X14526100Y-6086000D02*
X14506100Y-6106000D01*
X14506100Y-6136800D02*
X14526100Y-6156800D01*
X14526100Y-6136800D02*
X14506100Y-6156800D01*
X14506100Y-6187600D02*
X14526100Y-6207600D01*
X14526100Y-6187600D02*
X14506100Y-6207600D01*
X14544200Y-10480200D02*
X14564200Y-10500200D01*
X14564200Y-10480200D02*
X14544200Y-10500200D01*
X14620400Y-8778400D02*
X14640400Y-8798400D01*
X14640400Y-8778400D02*
X14620400Y-8798400D01*
X14772800Y-9248300D02*
X14792800Y-9268300D01*
X14792800Y-9248300D02*
X14772800Y-9268300D01*
X14793300Y-10636561D02*
X14813300Y-10656561D01*
X14813300Y-10636561D02*
X14793300Y-10656561D01*
X14810900Y-9248300D02*
X14830900Y-9268300D01*
X14830900Y-9248300D02*
X14810900Y-9268300D01*
X14887100Y-7876700D02*
X14907100Y-7896700D01*
X14907100Y-7876700D02*
X14887100Y-7896700D01*
X14925200Y-7876700D02*
X14945200Y-7896700D01*
X14945200Y-7876700D02*
X14925200Y-7896700D01*
X14948900Y-6721000D02*
X14968900Y-6741000D01*
X14968900Y-6721000D02*
X14948900Y-6741000D01*
X14952300Y-10739702D02*
X14972300Y-10759702D01*
X14972300Y-10739702D02*
X14952300Y-10759702D01*
X14963300Y-7876700D02*
X14983300Y-7896700D01*
X14983300Y-7876700D02*
X14963300Y-7896700D01*
X15001400Y-6721000D02*
X15021400Y-6741000D01*
X15021400Y-6721000D02*
X15001400Y-6741000D01*
X15047300Y-10632600D02*
X15067300Y-10652600D01*
X15067300Y-10632600D02*
X15047300Y-10652600D01*
X15049440Y-6721000D02*
X15069440Y-6741000D01*
X15069440Y-6721000D02*
X15049440Y-6741000D01*
X15103000Y-7927500D02*
X15123000Y-7947500D01*
X15123000Y-7927500D02*
X15103000Y-7947500D01*
X15153800Y-7927500D02*
X15173800Y-7947500D01*
X15173800Y-7927500D02*
X15153800Y-7947500D01*
X15217300Y-8753000D02*
X15237300Y-8773000D01*
X15237300Y-8753000D02*
X15217300Y-8773000D01*
X15217300Y-8791100D02*
X15237300Y-8811100D01*
X15237300Y-8791100D02*
X15217300Y-8811100D01*
X15217300Y-8829200D02*
X15237300Y-8849200D01*
X15237300Y-8829200D02*
X15217300Y-8849200D01*
X15293500Y-9065000D02*
X15313500Y-9085000D01*
X15313500Y-9065000D02*
X15293500Y-9085000D01*
X15296040Y-8580280D02*
X15316040Y-8600280D01*
X15316040Y-8580280D02*
X15296040Y-8600280D01*
X15341760Y-8580280D02*
X15361760Y-8600280D01*
X15361760Y-8580280D02*
X15341760Y-8600280D01*
X15344300Y-9065000D02*
X15364300Y-9085000D01*
X15364300Y-9065000D02*
X15344300Y-9085000D01*
X15369700Y-10137300D02*
X15389700Y-10157300D01*
X15389700Y-10137300D02*
X15369700Y-10157300D01*
X15387480Y-8580280D02*
X15407480Y-8600280D01*
X15407480Y-8580280D02*
X15387480Y-8600280D01*
X15395100Y-9065000D02*
X15415100Y-9085000D01*
X15415100Y-9065000D02*
X15395100Y-9085000D01*
X15407800Y-10137300D02*
X15427800Y-10157300D01*
X15427800Y-10137300D02*
X15407800Y-10157300D01*
X15428120Y-8580280D02*
X15448120Y-8600280D01*
X15448120Y-8580280D02*
X15428120Y-8600280D01*
X15445900Y-9065000D02*
X15465900Y-9085000D01*
X15465900Y-9065000D02*
X15445900Y-9085000D01*
X15445900Y-10137300D02*
X15465900Y-10157300D01*
X15465900Y-10137300D02*
X15445900Y-10157300D01*
X15484000Y-10137300D02*
X15504000Y-10157300D01*
X15504000Y-10137300D02*
X15484000Y-10157300D01*
X15496700Y-9476900D02*
X15516700Y-9496900D01*
X15516700Y-9476900D02*
X15496700Y-9496900D01*
X15560200Y-9311800D02*
X15580200Y-9331800D01*
X15580200Y-9311800D02*
X15560200Y-9331800D01*
X15560200Y-9349900D02*
X15580200Y-9369900D01*
X15580200Y-9349900D02*
X15560200Y-9369900D01*
X15560200Y-9388000D02*
X15580200Y-9408000D01*
X15580200Y-9388000D02*
X15560200Y-9408000D01*
X15560200Y-9426100D02*
X15580200Y-9446100D01*
X15580200Y-9426100D02*
X15560200Y-9446100D01*
X15674500Y-9756300D02*
X15694500Y-9776300D01*
X15694500Y-9756300D02*
X15674500Y-9776300D01*
X15834520Y-7604920D02*
X15854520Y-7624920D01*
X15854520Y-7604920D02*
X15834520Y-7624920D01*
X15834520Y-7686200D02*
X15854520Y-7706200D01*
X15854520Y-7686200D02*
X15834520Y-7706200D01*
X15890400Y-9616600D02*
X15910400Y-9636600D01*
X15910400Y-9616600D02*
X15890400Y-9636600D01*
X15905700Y-8412700D02*
X15925700Y-8432700D01*
X15925700Y-8412700D02*
X15905700Y-8432700D01*
X16042800Y-9616600D02*
X16062800Y-9636600D01*
X16062800Y-9616600D02*
X16042800Y-9636600D01*
X16174880Y-7686200D02*
X16194880Y-7706200D01*
X16194880Y-7686200D02*
X16174880Y-7706200D01*
X7694550Y-8360550D02*
G75*
G02*
X7664550Y-8360550I-15000J0D01*
G01*
X7664550Y-8360550D02*
G75*
G02*
X7694550Y-8360550I15000J0D01*
G01*
X10479800Y-8356600D02*
G75*
G02*
X10449800Y-8356600I-15000J0D01*
G01*
X10449800Y-8356600D02*
G75*
G02*
X10479800Y-8356600I15000J0D01*
G01*
X10594100Y-8890000D02*
G75*
G02*
X10564100Y-8890000I-15000J0D01*
G01*
X10564100Y-8890000D02*
G75*
G02*
X10594100Y-8890000I15000J0D01*
G01*
X11254500Y-6591300D02*
G75*
G02*
X11224500Y-6591300I-15000J0D01*
G01*
X11224500Y-6591300D02*
G75*
G02*
X11254500Y-6591300I15000J0D01*
G01*
X12930900Y-6756400D02*
G75*
G02*
X12900900Y-6756400I-15000J0D01*
G01*
X12900900Y-6756400D02*
G75*
G02*
X12930900Y-6756400I15000J0D01*
G01*
X14289800Y-7061200D02*
G75*
G02*
X14259800Y-7061200I-15000J0D01*
G01*
X14259800Y-7061200D02*
G75*
G02*
X14289800Y-7061200I15000J0D01*
G01*
X14797800Y-7518400D02*
G75*
G02*
X14767800Y-7518400I-15000J0D01*
G01*
X14767800Y-7518400D02*
G75*
G02*
X14797800Y-7518400I15000J0D01*
G01*
X14810500Y-8013700D02*
G75*
G02*
X14780500Y-8013700I-15000J0D01*
G01*
X14780500Y-8013700D02*
G75*
G02*
X14810500Y-8013700I15000J0D01*
G01*
X14950200Y-7302500D02*
G75*
G02*
X14920200Y-7302500I-15000J0D01*
G01*
X14920200Y-7302500D02*
G75*
G02*
X14950200Y-7302500I15000J0D01*
G01*
X16289800Y-8985400D02*
X16289800Y-9035400D01*
X16264800Y-9010400D02*
X16314800Y-9010400D01*
X16254800Y-9035400D02*
X16324800Y-9035400D01*
X16324800Y-8985400D02*
G75*
G02*
X16324800Y-9035400I0J-25000D01*
G01*
X16324800Y-8985400D02*
X16254800Y-8985400D01*
X16254800Y-8985400D02*
G75*
G03*
X16254800Y-9035400I0J-25000D01*
G01*
X16289800Y-9849400D02*
X16289800Y-9899400D01*
X16264800Y-9874400D02*
X16314800Y-9874400D01*
X16254800Y-9899400D02*
X16324800Y-9899400D01*
X16324800Y-9849400D02*
G75*
G02*
X16324800Y-9899400I0J-25000D01*
G01*
X16324800Y-9849400D02*
X16254800Y-9849400D01*
X16254800Y-9849400D02*
G75*
G03*
X16254800Y-9899400I0J-25000D01*
G01*
X16669800Y-8985400D02*
X16669800Y-9035400D01*
X16644800Y-9010400D02*
X16694800Y-9010400D01*
X16634800Y-9035400D02*
X16704800Y-9035400D01*
X16704800Y-8985400D02*
G75*
G02*
X16704800Y-9035400I0J-25000D01*
G01*
X16704800Y-8985400D02*
X16634800Y-8985400D01*
X16634800Y-8985400D02*
G75*
G03*
X16634800Y-9035400I0J-25000D01*
G01*
X16669800Y-9849400D02*
X16669800Y-9899400D01*
X16644800Y-9874400D02*
X16694800Y-9874400D01*
X16634800Y-9899400D02*
X16704800Y-9899400D01*
X16704800Y-9849400D02*
G75*
G02*
X16704800Y-9899400I0J-25000D01*
G01*
X16704800Y-9849400D02*
X16634800Y-9849400D01*
X16634800Y-9849400D02*
G75*
G03*
X16634800Y-9899400I0J-25000D01*
G01*
X6648313Y-10042363D02*
X6648313Y-9999937D01*
X6605887Y-9999937D01*
X6605887Y-10042363D01*
X6648313Y-10042363D01*
X6648313Y-10267363D02*
X6648313Y-10224937D01*
X6605887Y-10224937D01*
X6605887Y-10267363D01*
X6648313Y-10267363D01*
X6848313Y-10042363D02*
X6848313Y-9999937D01*
X6805887Y-9999937D01*
X6805887Y-10042363D01*
X6848313Y-10042363D01*
X6848313Y-10267363D02*
X6848313Y-10224937D01*
X6805887Y-10224937D01*
X6805887Y-10267363D01*
X6848313Y-10267363D01*
X7048313Y-10042363D02*
X7048313Y-9999937D01*
X7005887Y-9999937D01*
X7005887Y-10042363D01*
X7048313Y-10042363D01*
X7048313Y-10267363D02*
X7048313Y-10224937D01*
X7005887Y-10224937D01*
X7005887Y-10267363D01*
X7048313Y-10267363D01*
X7248313Y-10042363D02*
X7248313Y-9999937D01*
X7205887Y-9999937D01*
X7205887Y-10042363D01*
X7248313Y-10042363D01*
X7248313Y-10267363D02*
X7248313Y-10224937D01*
X7205887Y-10224937D01*
X7205887Y-10267363D01*
X7248313Y-10267363D01*
X7448313Y-10042363D02*
X7448313Y-9999937D01*
X7405887Y-9999937D01*
X7405887Y-10042363D01*
X7448313Y-10042363D01*
X7448313Y-10267363D02*
X7448313Y-10224937D01*
X7405887Y-10224937D01*
X7405887Y-10267363D01*
X7448313Y-10267363D01*
X7648313Y-10042363D02*
X7648313Y-9999937D01*
X7605887Y-9999937D01*
X7605887Y-10042363D01*
X7648313Y-10042363D01*
X7648313Y-10267363D02*
X7648313Y-10224937D01*
X7605887Y-10224937D01*
X7605887Y-10267363D01*
X7648313Y-10267363D01*
X7966713Y-10042363D02*
X7966713Y-9999937D01*
X7924287Y-9999937D01*
X7924287Y-10042363D01*
X7966713Y-10042363D01*
X7966713Y-10267363D02*
X7966713Y-10224937D01*
X7924287Y-10224937D01*
X7924287Y-10267363D01*
X7966713Y-10267363D01*
X8166713Y-10042363D02*
X8166713Y-9999937D01*
X8124287Y-9999937D01*
X8124287Y-10042363D01*
X8166713Y-10042363D01*
X8166713Y-10267363D02*
X8166713Y-10224937D01*
X8124287Y-10224937D01*
X8124287Y-10267363D01*
X8166713Y-10267363D01*
X8366713Y-10042363D02*
X8366713Y-9999937D01*
X8324287Y-9999937D01*
X8324287Y-10042363D01*
X8366713Y-10042363D01*
X8366713Y-10267363D02*
X8366713Y-10224937D01*
X8324287Y-10224937D01*
X8324287Y-10267363D01*
X8366713Y-10267363D01*
X8566713Y-10042363D02*
X8566713Y-9999937D01*
X8524287Y-9999937D01*
X8524287Y-10042363D01*
X8566713Y-10042363D01*
X8566713Y-10267363D02*
X8566713Y-10224937D01*
X8524287Y-10224937D01*
X8524287Y-10267363D01*
X8566713Y-10267363D01*
X8766713Y-10042363D02*
X8766713Y-9999937D01*
X8724287Y-9999937D01*
X8724287Y-10042363D01*
X8766713Y-10042363D01*
X8766713Y-10267363D02*
X8766713Y-10224937D01*
X8724287Y-10224937D01*
X8724287Y-10267363D01*
X8766713Y-10267363D01*
X8966713Y-10042363D02*
X8966713Y-9999937D01*
X8924287Y-9999937D01*
X8924287Y-10042363D01*
X8966713Y-10042363D01*
X8966713Y-10267363D02*
X8966713Y-10224937D01*
X8924287Y-10224937D01*
X8924287Y-10267363D01*
X8966713Y-10267363D01*
X9437513Y-10038413D02*
X9437513Y-9995987D01*
X9395087Y-9995987D01*
X9395087Y-10038413D01*
X9437513Y-10038413D01*
X9437513Y-10263413D02*
X9437513Y-10220987D01*
X9395087Y-10220987D01*
X9395087Y-10263413D01*
X9437513Y-10263413D01*
X9637513Y-10038413D02*
X9637513Y-9995987D01*
X9595087Y-9995987D01*
X9595087Y-10038413D01*
X9637513Y-10038413D01*
X9637513Y-10263413D02*
X9637513Y-10220987D01*
X9595087Y-10220987D01*
X9595087Y-10263413D01*
X9637513Y-10263413D01*
X9837513Y-10038413D02*
X9837513Y-9995987D01*
X9795087Y-9995987D01*
X9795087Y-10038413D01*
X9837513Y-10038413D01*
X9837513Y-10263413D02*
X9837513Y-10220987D01*
X9795087Y-10220987D01*
X9795087Y-10263413D01*
X9837513Y-10263413D01*
X10037513Y-10038413D02*
X10037513Y-9995987D01*
X9995087Y-9995987D01*
X9995087Y-10038413D01*
X10037513Y-10038413D01*
X10037513Y-10263413D02*
X10037513Y-10220987D01*
X9995087Y-10220987D01*
X9995087Y-10263413D01*
X10037513Y-10263413D01*
X10237513Y-10038413D02*
X10237513Y-9995987D01*
X10195087Y-9995987D01*
X10195087Y-10038413D01*
X10237513Y-10038413D01*
X10237513Y-10263413D02*
X10237513Y-10220987D01*
X10195087Y-10220987D01*
X10195087Y-10263413D01*
X10237513Y-10263413D01*
X10437513Y-10038413D02*
X10437513Y-9995987D01*
X10395087Y-9995987D01*
X10395087Y-10038413D01*
X10437513Y-10038413D01*
X10437513Y-10263413D02*
X10437513Y-10220987D01*
X10395087Y-10220987D01*
X10395087Y-10263413D01*
X10437513Y-10263413D01*
X10755913Y-10038413D02*
X10755913Y-9995987D01*
X10713487Y-9995987D01*
X10713487Y-10038413D01*
X10755913Y-10038413D01*
X10755913Y-10263413D02*
X10755913Y-10220987D01*
X10713487Y-10220987D01*
X10713487Y-10263413D01*
X10755913Y-10263413D01*
X10955913Y-10038413D02*
X10955913Y-9995987D01*
X10913487Y-9995987D01*
X10913487Y-10038413D01*
X10955913Y-10038413D01*
X10955913Y-10263413D02*
X10955913Y-10220987D01*
X10913487Y-10220987D01*
X10913487Y-10263413D01*
X10955913Y-10263413D01*
X11155913Y-10038413D02*
X11155913Y-9995987D01*
X11113487Y-9995987D01*
X11113487Y-10038413D01*
X11155913Y-10038413D01*
X11155913Y-10263413D02*
X11155913Y-10220987D01*
X11113487Y-10220987D01*
X11113487Y-10263413D01*
X11155913Y-10263413D01*
X11355913Y-10038413D02*
X11355913Y-9995987D01*
X11313487Y-9995987D01*
X11313487Y-10038413D01*
X11355913Y-10038413D01*
X11355913Y-10263413D02*
X11355913Y-10220987D01*
X11313487Y-10220987D01*
X11313487Y-10263413D01*
X11355913Y-10263413D01*
X11555913Y-10038413D02*
X11555913Y-9995987D01*
X11513487Y-9995987D01*
X11513487Y-10038413D01*
X11555913Y-10038413D01*
X11555913Y-10263413D02*
X11555913Y-10220987D01*
X11513487Y-10220987D01*
X11513487Y-10263413D01*
X11555913Y-10263413D01*
X11755913Y-10038413D02*
X11755913Y-9995987D01*
X11713487Y-9995987D01*
X11713487Y-10038413D01*
X11755913Y-10038413D01*
X11755913Y-10263413D02*
X11755913Y-10220987D01*
X11713487Y-10220987D01*
X11713487Y-10263413D01*
X11755913Y-10263413D01*
X12214013Y-10038413D02*
X12214013Y-9995987D01*
X12171587Y-9995987D01*
X12171587Y-10038413D01*
X12214013Y-10038413D01*
X12214013Y-10263413D02*
X12214013Y-10220987D01*
X12171587Y-10220987D01*
X12171587Y-10263413D01*
X12214013Y-10263413D01*
X12414013Y-10038413D02*
X12414013Y-9995987D01*
X12371587Y-9995987D01*
X12371587Y-10038413D01*
X12414013Y-10038413D01*
X12414013Y-10263413D02*
X12414013Y-10220987D01*
X12371587Y-10220987D01*
X12371587Y-10263413D01*
X12414013Y-10263413D01*
X12614013Y-10038413D02*
X12614013Y-9995987D01*
X12571587Y-9995987D01*
X12571587Y-10038413D01*
X12614013Y-10038413D01*
X12614013Y-10263413D02*
X12614013Y-10220987D01*
X12571587Y-10220987D01*
X12571587Y-10263413D01*
X12614013Y-10263413D01*
X12814013Y-10038413D02*
X12814013Y-9995987D01*
X12771587Y-9995987D01*
X12771587Y-10038413D01*
X12814013Y-10038413D01*
X12814013Y-10263413D02*
X12814013Y-10220987D01*
X12771587Y-10220987D01*
X12771587Y-10263413D01*
X12814013Y-10263413D01*
X13014013Y-10038413D02*
X13014013Y-9995987D01*
X12971587Y-9995987D01*
X12971587Y-10038413D01*
X13014013Y-10038413D01*
X13014013Y-10263413D02*
X13014013Y-10220987D01*
X12971587Y-10220987D01*
X12971587Y-10263413D01*
X13014013Y-10263413D01*
X13214013Y-10038413D02*
X13214013Y-9995987D01*
X13171587Y-9995987D01*
X13171587Y-10038413D01*
X13214013Y-10038413D01*
X13214013Y-10263413D02*
X13214013Y-10220987D01*
X13171587Y-10220987D01*
X13171587Y-10263413D01*
X13214013Y-10263413D01*
X13532413Y-10038413D02*
X13532413Y-9995987D01*
X13489987Y-9995987D01*
X13489987Y-10038413D01*
X13532413Y-10038413D01*
X13532413Y-10263413D02*
X13532413Y-10220987D01*
X13489987Y-10220987D01*
X13489987Y-10263413D01*
X13532413Y-10263413D01*
X13732413Y-10038413D02*
X13732413Y-9995987D01*
X13689987Y-9995987D01*
X13689987Y-10038413D01*
X13732413Y-10038413D01*
X13732413Y-10263413D02*
X13732413Y-10220987D01*
X13689987Y-10220987D01*
X13689987Y-10263413D01*
X13732413Y-10263413D01*
X13932413Y-10038413D02*
X13932413Y-9995987D01*
X13889987Y-9995987D01*
X13889987Y-10038413D01*
X13932413Y-10038413D01*
X13932413Y-10263413D02*
X13932413Y-10220987D01*
X13889987Y-10220987D01*
X13889987Y-10263413D01*
X13932413Y-10263413D01*
X14132413Y-10038413D02*
X14132413Y-9995987D01*
X14089987Y-9995987D01*
X14089987Y-10038413D01*
X14132413Y-10038413D01*
X14132413Y-10263413D02*
X14132413Y-10220987D01*
X14089987Y-10220987D01*
X14089987Y-10263413D01*
X14132413Y-10263413D01*
X14332413Y-10038413D02*
X14332413Y-9995987D01*
X14289987Y-9995987D01*
X14289987Y-10038413D01*
X14332413Y-10038413D01*
X14332413Y-10263413D02*
X14332413Y-10220987D01*
X14289987Y-10220987D01*
X14289987Y-10263413D01*
X14332413Y-10263413D01*
X14532413Y-10038413D02*
X14532413Y-9995987D01*
X14489987Y-9995987D01*
X14489987Y-10038413D01*
X14532413Y-10038413D01*
X14532413Y-10263413D02*
X14532413Y-10220987D01*
X14489987Y-10220987D01*
X14489987Y-10263413D01*
X14532413Y-10263413D01*
X6858000Y-5892000D02*
X6908000Y-5842000D01*
X6858000Y-5792000D01*
X6808000Y-5842000D01*
X6858000Y-5892000D01*
X7112000Y-5892000D02*
X7162000Y-5842000D01*
X7112000Y-5792000D01*
X7062000Y-5842000D01*
X7112000Y-5892000D01*
X7366000Y-5892000D02*
X7416000Y-5842000D01*
X7366000Y-5792000D01*
X7316000Y-5842000D01*
X7366000Y-5892000D01*
X7620000Y-5892000D02*
X7670000Y-5842000D01*
X7620000Y-5792000D01*
X7570000Y-5842000D01*
X7620000Y-5892000D01*
X7874000Y-5892000D02*
X7924000Y-5842000D01*
X7874000Y-5792000D01*
X7824000Y-5842000D01*
X7874000Y-5892000D01*
X8128000Y-5892000D02*
X8178000Y-5842000D01*
X8128000Y-5792000D01*
X8078000Y-5842000D01*
X8128000Y-5892000D01*
X8382000Y-5892000D02*
X8432000Y-5842000D01*
X8382000Y-5792000D01*
X8332000Y-5842000D01*
X8382000Y-5892000D01*
X8636000Y-5892000D02*
X8686000Y-5842000D01*
X8636000Y-5792000D01*
X8586000Y-5842000D01*
X8636000Y-5892000D01*
X9144000Y-5892000D02*
X9194000Y-5842000D01*
X9144000Y-5792000D01*
X9094000Y-5842000D01*
X9144000Y-5892000D01*
X9398000Y-5892000D02*
X9448000Y-5842000D01*
X9398000Y-5792000D01*
X9348000Y-5842000D01*
X9398000Y-5892000D01*
X9652000Y-5892000D02*
X9702000Y-5842000D01*
X9652000Y-5792000D01*
X9602000Y-5842000D01*
X9652000Y-5892000D01*
X9906000Y-5892000D02*
X9956000Y-5842000D01*
X9906000Y-5792000D01*
X9856000Y-5842000D01*
X9906000Y-5892000D01*
X10414000Y-5892000D02*
X10464000Y-5842000D01*
X10414000Y-5792000D01*
X10364000Y-5842000D01*
X10414000Y-5892000D01*
X10668000Y-5892000D02*
X10718000Y-5842000D01*
X10668000Y-5792000D01*
X10618000Y-5842000D01*
X10668000Y-5892000D01*
X10922000Y-5892000D02*
X10972000Y-5842000D01*
X10922000Y-5792000D01*
X10872000Y-5842000D01*
X10922000Y-5892000D01*
X11176000Y-5892000D02*
X11226000Y-5842000D01*
X11176000Y-5792000D01*
X11126000Y-5842000D01*
X11176000Y-5892000D01*
X11430000Y-5892000D02*
X11480000Y-5842000D01*
X11430000Y-5792000D01*
X11380000Y-5842000D01*
X11430000Y-5892000D01*
X11684000Y-5892000D02*
X11734000Y-5842000D01*
X11684000Y-5792000D01*
X11634000Y-5842000D01*
X11684000Y-5892000D01*
X11938000Y-5892000D02*
X11988000Y-5842000D01*
X11938000Y-5792000D01*
X11888000Y-5842000D01*
X11938000Y-5892000D01*
X12192000Y-5892000D02*
X12242000Y-5842000D01*
X12192000Y-5792000D01*
X12142000Y-5842000D01*
X12192000Y-5892000D01*
X12446000Y-5892000D02*
X12496000Y-5842000D01*
X12446000Y-5792000D01*
X12396000Y-5842000D01*
X12446000Y-5892000D01*
X12700000Y-5892000D02*
X12750000Y-5842000D01*
X12700000Y-5792000D01*
X12650000Y-5842000D01*
X12700000Y-5892000D01*
X15764700Y-7351400D02*
X15814700Y-7301400D01*
X15764700Y-7251400D01*
X15714700Y-7301400D01*
X15764700Y-7351400D01*
X15764700Y-8801400D02*
X15814700Y-8751400D01*
X15764700Y-8701400D01*
X15714700Y-8751400D01*
X15764700Y-8801400D01*
X16014700Y-7351400D02*
X16064700Y-7301400D01*
X16014700Y-7251400D01*
X15964700Y-7301400D01*
X16014700Y-7351400D01*
X16264700Y-7351400D02*
X16314700Y-7301400D01*
X16264700Y-7251400D01*
X16214700Y-7301400D01*
X16264700Y-7351400D01*
X16264700Y-8801400D02*
X16314700Y-8751400D01*
X16264700Y-8701400D01*
X16214700Y-8751400D01*
X16264700Y-8801400D01*
D11*
X15354700Y-7951400D02*
X15554700Y-8151400D01*
X15554700Y-7951400D02*
X15354700Y-8151400D01*
X15554700Y-8051400D02*
G75*
G02*
X15354700Y-8051400I-100000J0D01*
G01*
X15354700Y-8051400D02*
G75*
G02*
X15554700Y-8051400I100000J0D01*
G01*
D12*
X15354700Y-8026400D02*
X15354700Y-8076400D01*
X15554700Y-8076400D02*
G75*
G02*
X15354700Y-8076400I-100000J0D01*
G01*
X15554700Y-8076400D02*
X15554700Y-8026400D01*
X15554700Y-8026400D02*
G75*
G03*
X15354700Y-8026400I-100000J0D01*
G01*
D11*
X16474700Y-7951400D02*
X16674700Y-8151400D01*
X16674700Y-7951400D02*
X16474700Y-8151400D01*
X16674700Y-8051400D02*
G75*
G02*
X16474700Y-8051400I-100000J0D01*
G01*
X16474700Y-8051400D02*
G75*
G02*
X16674700Y-8051400I100000J0D01*
G01*
D12*
X16474700Y-8026400D02*
X16474700Y-8076400D01*
X16674700Y-8076400D02*
G75*
G02*
X16474700Y-8076400I-100000J0D01*
G01*
X16674700Y-8076400D02*
X16674700Y-8026400D01*
X16674700Y-8026400D02*
G75*
G03*
X16474700Y-8026400I-100000J0D01*
G01*
D13*
X6075000Y-5885000D02*
X6345000Y-6155000D01*
X6345000Y-5885000D02*
X6075000Y-6155000D01*
X6210000Y-5885000D02*
X6210000Y-6155000D01*
X6075000Y-6020000D02*
X6345000Y-6020000D01*
X6075000Y-10545000D02*
X6345000Y-10815000D01*
X6345000Y-10545000D02*
X6075000Y-10815000D01*
X6210000Y-10545000D02*
X6210000Y-10815000D01*
X6075000Y-10680000D02*
X6345000Y-10680000D01*
X16355000Y-5885000D02*
X16625000Y-6155000D01*
X16625000Y-5885000D02*
X16355000Y-6155000D01*
X16490000Y-5885000D02*
X16490000Y-6155000D01*
X16355000Y-6020000D02*
X16625000Y-6020000D01*
X16355000Y-10545000D02*
X16625000Y-10815000D01*
X16625000Y-10545000D02*
X16355000Y-10815000D01*
X16490000Y-10545000D02*
X16490000Y-10815000D01*
X16355000Y-10680000D02*
X16625000Y-10680000D01*
D11*
X6100277Y-11373984D02*
X6100277Y-11173984D01*
X6100277Y-11173984D02*
X6147896Y-11173984D01*
X6147896Y-11173984D02*
X6176467Y-11183508D01*
X6176467Y-11183508D02*
X6195515Y-11202555D01*
X6195515Y-11202555D02*
X6205039Y-11221603D01*
X6205039Y-11221603D02*
X6214562Y-11259698D01*
X6214562Y-11259698D02*
X6214562Y-11288269D01*
X6214562Y-11288269D02*
X6205039Y-11326365D01*
X6205039Y-11326365D02*
X6195515Y-11345412D01*
X6195515Y-11345412D02*
X6176467Y-11364460D01*
X6176467Y-11364460D02*
X6147896Y-11373984D01*
X6147896Y-11373984D02*
X6100277Y-11373984D01*
X6300277Y-11373984D02*
X6300277Y-11240650D01*
X6300277Y-11278746D02*
X6309801Y-11259698D01*
X6309801Y-11259698D02*
X6319324Y-11250174D01*
X6319324Y-11250174D02*
X6338372Y-11240650D01*
X6338372Y-11240650D02*
X6357420Y-11240650D01*
X6424086Y-11373984D02*
X6424086Y-11240650D01*
X6424086Y-11173984D02*
X6414562Y-11183508D01*
X6414562Y-11183508D02*
X6424086Y-11193031D01*
X6424086Y-11193031D02*
X6433610Y-11183508D01*
X6433610Y-11183508D02*
X6424086Y-11173984D01*
X6424086Y-11173984D02*
X6424086Y-11193031D01*
X6547896Y-11373984D02*
X6528848Y-11364460D01*
X6528848Y-11364460D02*
X6519324Y-11345412D01*
X6519324Y-11345412D02*
X6519324Y-11173984D01*
X6652658Y-11373984D02*
X6633610Y-11364460D01*
X6633610Y-11364460D02*
X6624086Y-11345412D01*
X6624086Y-11345412D02*
X6624086Y-11173984D01*
X6881229Y-11373984D02*
X6881229Y-11173984D01*
X6881229Y-11173984D02*
X6947896Y-11316841D01*
X6947896Y-11316841D02*
X7014562Y-11173984D01*
X7014562Y-11173984D02*
X7014562Y-11373984D01*
X7195515Y-11373984D02*
X7195515Y-11269222D01*
X7195515Y-11269222D02*
X7185991Y-11250174D01*
X7185991Y-11250174D02*
X7166943Y-11240650D01*
X7166943Y-11240650D02*
X7128848Y-11240650D01*
X7128848Y-11240650D02*
X7109801Y-11250174D01*
X7195515Y-11364460D02*
X7176467Y-11373984D01*
X7176467Y-11373984D02*
X7128848Y-11373984D01*
X7128848Y-11373984D02*
X7109801Y-11364460D01*
X7109801Y-11364460D02*
X7100277Y-11345412D01*
X7100277Y-11345412D02*
X7100277Y-11326365D01*
X7100277Y-11326365D02*
X7109801Y-11307317D01*
X7109801Y-11307317D02*
X7128848Y-11297793D01*
X7128848Y-11297793D02*
X7176467Y-11297793D01*
X7176467Y-11297793D02*
X7195515Y-11288269D01*
X7290753Y-11240650D02*
X7290753Y-11440650D01*
X7290753Y-11250174D02*
X7309801Y-11240650D01*
X7309801Y-11240650D02*
X7347896Y-11240650D01*
X7347896Y-11240650D02*
X7366943Y-11250174D01*
X7366943Y-11250174D02*
X7376467Y-11259698D01*
X7376467Y-11259698D02*
X7385991Y-11278746D01*
X7385991Y-11278746D02*
X7385991Y-11335888D01*
X7385991Y-11335888D02*
X7376467Y-11354936D01*
X7376467Y-11354936D02*
X7366943Y-11364460D01*
X7366943Y-11364460D02*
X7347896Y-11373984D01*
X7347896Y-11373984D02*
X7309801Y-11373984D01*
X7309801Y-11373984D02*
X7290753Y-11364460D01*
X7471705Y-11354936D02*
X7481229Y-11364460D01*
X7481229Y-11364460D02*
X7471705Y-11373984D01*
X7471705Y-11373984D02*
X7462182Y-11364460D01*
X7462182Y-11364460D02*
X7471705Y-11354936D01*
X7471705Y-11354936D02*
X7471705Y-11373984D01*
X7471705Y-11250174D02*
X7481229Y-11259698D01*
X7481229Y-11259698D02*
X7471705Y-11269222D01*
X7471705Y-11269222D02*
X7462182Y-11259698D01*
X7462182Y-11259698D02*
X7471705Y-11250174D01*
X7471705Y-11250174D02*
X7471705Y-11269222D01*
D12*
X5819500Y-11692500D02*
X5839500Y-11712500D01*
X5839500Y-11692500D02*
X5819500Y-11712500D01*
D11*
X6138372Y-11593984D02*
X6157420Y-11593984D01*
X6157420Y-11593984D02*
X6176467Y-11603508D01*
X6176467Y-11603508D02*
X6185991Y-11613031D01*
X6185991Y-11613031D02*
X6195515Y-11632079D01*
X6195515Y-11632079D02*
X6205039Y-11670174D01*
X6205039Y-11670174D02*
X6205039Y-11717793D01*
X6205039Y-11717793D02*
X6195515Y-11755888D01*
X6195515Y-11755888D02*
X6185991Y-11774936D01*
X6185991Y-11774936D02*
X6176467Y-11784460D01*
X6176467Y-11784460D02*
X6157420Y-11793984D01*
X6157420Y-11793984D02*
X6138372Y-11793984D01*
X6138372Y-11793984D02*
X6119324Y-11784460D01*
X6119324Y-11784460D02*
X6109801Y-11774936D01*
X6109801Y-11774936D02*
X6100277Y-11755888D01*
X6100277Y-11755888D02*
X6090753Y-11717793D01*
X6090753Y-11717793D02*
X6090753Y-11670174D01*
X6090753Y-11670174D02*
X6100277Y-11632079D01*
X6100277Y-11632079D02*
X6109801Y-11613031D01*
X6109801Y-11613031D02*
X6119324Y-11603508D01*
X6119324Y-11603508D02*
X6138372Y-11593984D01*
X6300277Y-11784460D02*
X6300277Y-11793984D01*
X6300277Y-11793984D02*
X6290753Y-11813031D01*
X6290753Y-11813031D02*
X6281229Y-11822555D01*
X6376467Y-11613031D02*
X6385991Y-11603508D01*
X6385991Y-11603508D02*
X6405039Y-11593984D01*
X6405039Y-11593984D02*
X6452658Y-11593984D01*
X6452658Y-11593984D02*
X6471705Y-11603508D01*
X6471705Y-11603508D02*
X6481229Y-11613031D01*
X6481229Y-11613031D02*
X6490753Y-11632079D01*
X6490753Y-11632079D02*
X6490753Y-11651127D01*
X6490753Y-11651127D02*
X6481229Y-11679698D01*
X6481229Y-11679698D02*
X6366943Y-11793984D01*
X6366943Y-11793984D02*
X6490753Y-11793984D01*
X6614562Y-11593984D02*
X6633610Y-11593984D01*
X6633610Y-11593984D02*
X6652658Y-11603508D01*
X6652658Y-11603508D02*
X6662182Y-11613031D01*
X6662182Y-11613031D02*
X6671705Y-11632079D01*
X6671705Y-11632079D02*
X6681229Y-11670174D01*
X6681229Y-11670174D02*
X6681229Y-11717793D01*
X6681229Y-11717793D02*
X6671705Y-11755888D01*
X6671705Y-11755888D02*
X6662182Y-11774936D01*
X6662182Y-11774936D02*
X6652658Y-11784460D01*
X6652658Y-11784460D02*
X6633610Y-11793984D01*
X6633610Y-11793984D02*
X6614562Y-11793984D01*
X6614562Y-11793984D02*
X6595515Y-11784460D01*
X6595515Y-11784460D02*
X6585991Y-11774936D01*
X6585991Y-11774936D02*
X6576467Y-11755888D01*
X6576467Y-11755888D02*
X6566943Y-11717793D01*
X6566943Y-11717793D02*
X6566943Y-11670174D01*
X6566943Y-11670174D02*
X6576467Y-11632079D01*
X6576467Y-11632079D02*
X6585991Y-11613031D01*
X6585991Y-11613031D02*
X6595515Y-11603508D01*
X6595515Y-11603508D02*
X6614562Y-11593984D01*
X6805039Y-11593984D02*
X6824086Y-11593984D01*
X6824086Y-11593984D02*
X6843134Y-11603508D01*
X6843134Y-11603508D02*
X6852658Y-11613031D01*
X6852658Y-11613031D02*
X6862182Y-11632079D01*
X6862182Y-11632079D02*
X6871705Y-11670174D01*
X6871705Y-11670174D02*
X6871705Y-11717793D01*
X6871705Y-11717793D02*
X6862182Y-11755888D01*
X6862182Y-11755888D02*
X6852658Y-11774936D01*
X6852658Y-11774936D02*
X6843134Y-11784460D01*
X6843134Y-11784460D02*
X6824086Y-11793984D01*
X6824086Y-11793984D02*
X6805039Y-11793984D01*
X6805039Y-11793984D02*
X6785991Y-11784460D01*
X6785991Y-11784460D02*
X6776467Y-11774936D01*
X6776467Y-11774936D02*
X6766943Y-11755888D01*
X6766943Y-11755888D02*
X6757420Y-11717793D01*
X6757420Y-11717793D02*
X6757420Y-11670174D01*
X6757420Y-11670174D02*
X6766943Y-11632079D01*
X6766943Y-11632079D02*
X6776467Y-11613031D01*
X6776467Y-11613031D02*
X6785991Y-11603508D01*
X6785991Y-11603508D02*
X6805039Y-11593984D01*
X6957420Y-11793984D02*
X6957420Y-11660650D01*
X6957420Y-11679698D02*
X6966943Y-11670174D01*
X6966943Y-11670174D02*
X6985991Y-11660650D01*
X6985991Y-11660650D02*
X7014563Y-11660650D01*
X7014563Y-11660650D02*
X7033610Y-11670174D01*
X7033610Y-11670174D02*
X7043134Y-11689222D01*
X7043134Y-11689222D02*
X7043134Y-11793984D01*
X7043134Y-11689222D02*
X7052658Y-11670174D01*
X7052658Y-11670174D02*
X7071705Y-11660650D01*
X7071705Y-11660650D02*
X7100277Y-11660650D01*
X7100277Y-11660650D02*
X7119324Y-11670174D01*
X7119324Y-11670174D02*
X7128848Y-11689222D01*
X7128848Y-11689222D02*
X7128848Y-11793984D01*
X7224086Y-11793984D02*
X7224086Y-11660650D01*
X7224086Y-11679698D02*
X7233610Y-11670174D01*
X7233610Y-11670174D02*
X7252658Y-11660650D01*
X7252658Y-11660650D02*
X7281229Y-11660650D01*
X7281229Y-11660650D02*
X7300277Y-11670174D01*
X7300277Y-11670174D02*
X7309801Y-11689222D01*
X7309801Y-11689222D02*
X7309801Y-11793984D01*
X7309801Y-11689222D02*
X7319324Y-11670174D01*
X7319324Y-11670174D02*
X7338372Y-11660650D01*
X7338372Y-11660650D02*
X7366943Y-11660650D01*
X7366943Y-11660650D02*
X7385991Y-11670174D01*
X7385991Y-11670174D02*
X7395515Y-11689222D01*
X7395515Y-11689222D02*
X7395515Y-11793984D01*
X7785991Y-11584460D02*
X7614563Y-11841603D01*
X8043134Y-11593984D02*
X8062182Y-11593984D01*
X8062182Y-11593984D02*
X8081229Y-11603508D01*
X8081229Y-11603508D02*
X8090753Y-11613031D01*
X8090753Y-11613031D02*
X8100277Y-11632079D01*
X8100277Y-11632079D02*
X8109801Y-11670174D01*
X8109801Y-11670174D02*
X8109801Y-11717793D01*
X8109801Y-11717793D02*
X8100277Y-11755888D01*
X8100277Y-11755888D02*
X8090753Y-11774936D01*
X8090753Y-11774936D02*
X8081229Y-11784460D01*
X8081229Y-11784460D02*
X8062182Y-11793984D01*
X8062182Y-11793984D02*
X8043134Y-11793984D01*
X8043134Y-11793984D02*
X8024086Y-11784460D01*
X8024086Y-11784460D02*
X8014563Y-11774936D01*
X8014563Y-11774936D02*
X8005039Y-11755888D01*
X8005039Y-11755888D02*
X7995515Y-11717793D01*
X7995515Y-11717793D02*
X7995515Y-11670174D01*
X7995515Y-11670174D02*
X8005039Y-11632079D01*
X8005039Y-11632079D02*
X8014563Y-11613031D01*
X8014563Y-11613031D02*
X8024086Y-11603508D01*
X8024086Y-11603508D02*
X8043134Y-11593984D01*
X8205039Y-11784460D02*
X8205039Y-11793984D01*
X8205039Y-11793984D02*
X8195515Y-11813031D01*
X8195515Y-11813031D02*
X8185991Y-11822555D01*
X8328848Y-11593984D02*
X8347896Y-11593984D01*
X8347896Y-11593984D02*
X8366944Y-11603508D01*
X8366944Y-11603508D02*
X8376467Y-11613031D01*
X8376467Y-11613031D02*
X8385991Y-11632079D01*
X8385991Y-11632079D02*
X8395515Y-11670174D01*
X8395515Y-11670174D02*
X8395515Y-11717793D01*
X8395515Y-11717793D02*
X8385991Y-11755888D01*
X8385991Y-11755888D02*
X8376467Y-11774936D01*
X8376467Y-11774936D02*
X8366944Y-11784460D01*
X8366944Y-11784460D02*
X8347896Y-11793984D01*
X8347896Y-11793984D02*
X8328848Y-11793984D01*
X8328848Y-11793984D02*
X8309801Y-11784460D01*
X8309801Y-11784460D02*
X8300277Y-11774936D01*
X8300277Y-11774936D02*
X8290753Y-11755888D01*
X8290753Y-11755888D02*
X8281229Y-11717793D01*
X8281229Y-11717793D02*
X8281229Y-11670174D01*
X8281229Y-11670174D02*
X8290753Y-11632079D01*
X8290753Y-11632079D02*
X8300277Y-11613031D01*
X8300277Y-11613031D02*
X8309801Y-11603508D01*
X8309801Y-11603508D02*
X8328848Y-11593984D01*
X8519325Y-11593984D02*
X8538372Y-11593984D01*
X8538372Y-11593984D02*
X8557420Y-11603508D01*
X8557420Y-11603508D02*
X8566944Y-11613031D01*
X8566944Y-11613031D02*
X8576468Y-11632079D01*
X8576468Y-11632079D02*
X8585991Y-11670174D01*
X8585991Y-11670174D02*
X8585991Y-11717793D01*
X8585991Y-11717793D02*
X8576468Y-11755888D01*
X8576468Y-11755888D02*
X8566944Y-11774936D01*
X8566944Y-11774936D02*
X8557420Y-11784460D01*
X8557420Y-11784460D02*
X8538372Y-11793984D01*
X8538372Y-11793984D02*
X8519325Y-11793984D01*
X8519325Y-11793984D02*
X8500277Y-11784460D01*
X8500277Y-11784460D02*
X8490753Y-11774936D01*
X8490753Y-11774936D02*
X8481229Y-11755888D01*
X8481229Y-11755888D02*
X8471706Y-11717793D01*
X8471706Y-11717793D02*
X8471706Y-11670174D01*
X8471706Y-11670174D02*
X8481229Y-11632079D01*
X8481229Y-11632079D02*
X8490753Y-11613031D01*
X8490753Y-11613031D02*
X8500277Y-11603508D01*
X8500277Y-11603508D02*
X8519325Y-11593984D01*
X8652658Y-11593984D02*
X8785991Y-11593984D01*
X8785991Y-11593984D02*
X8700277Y-11793984D01*
X8871706Y-11793984D02*
X8909801Y-11793984D01*
X8909801Y-11793984D02*
X8928849Y-11784460D01*
X8928849Y-11784460D02*
X8938372Y-11774936D01*
X8938372Y-11774936D02*
X8957420Y-11746365D01*
X8957420Y-11746365D02*
X8966944Y-11708269D01*
X8966944Y-11708269D02*
X8966944Y-11632079D01*
X8966944Y-11632079D02*
X8957420Y-11613031D01*
X8957420Y-11613031D02*
X8947896Y-11603508D01*
X8947896Y-11603508D02*
X8928849Y-11593984D01*
X8928849Y-11593984D02*
X8890753Y-11593984D01*
X8890753Y-11593984D02*
X8871706Y-11603508D01*
X8871706Y-11603508D02*
X8862182Y-11613031D01*
X8862182Y-11613031D02*
X8852658Y-11632079D01*
X8852658Y-11632079D02*
X8852658Y-11679698D01*
X8852658Y-11679698D02*
X8862182Y-11698746D01*
X8862182Y-11698746D02*
X8871706Y-11708269D01*
X8871706Y-11708269D02*
X8890753Y-11717793D01*
X8890753Y-11717793D02*
X8928849Y-11717793D01*
X8928849Y-11717793D02*
X8947896Y-11708269D01*
X8947896Y-11708269D02*
X8957420Y-11698746D01*
X8957420Y-11698746D02*
X8966944Y-11679698D01*
X9043134Y-11593984D02*
X9043134Y-11632079D01*
X9119325Y-11593984D02*
X9119325Y-11632079D01*
X9414563Y-11870174D02*
X9405039Y-11860650D01*
X9405039Y-11860650D02*
X9385991Y-11832079D01*
X9385991Y-11832079D02*
X9376468Y-11813031D01*
X9376468Y-11813031D02*
X9366944Y-11784460D01*
X9366944Y-11784460D02*
X9357420Y-11736841D01*
X9357420Y-11736841D02*
X9357420Y-11698746D01*
X9357420Y-11698746D02*
X9366944Y-11651127D01*
X9366944Y-11651127D02*
X9376468Y-11622555D01*
X9376468Y-11622555D02*
X9385991Y-11603508D01*
X9385991Y-11603508D02*
X9405039Y-11574936D01*
X9405039Y-11574936D02*
X9414563Y-11565412D01*
X9481230Y-11613031D02*
X9490753Y-11603508D01*
X9490753Y-11603508D02*
X9509801Y-11593984D01*
X9509801Y-11593984D02*
X9557420Y-11593984D01*
X9557420Y-11593984D02*
X9576468Y-11603508D01*
X9576468Y-11603508D02*
X9585991Y-11613031D01*
X9585991Y-11613031D02*
X9595515Y-11632079D01*
X9595515Y-11632079D02*
X9595515Y-11651127D01*
X9595515Y-11651127D02*
X9585991Y-11679698D01*
X9585991Y-11679698D02*
X9471706Y-11793984D01*
X9471706Y-11793984D02*
X9595515Y-11793984D01*
X9785991Y-11793984D02*
X9671706Y-11793984D01*
X9728849Y-11793984D02*
X9728849Y-11593984D01*
X9728849Y-11593984D02*
X9709801Y-11622555D01*
X9709801Y-11622555D02*
X9690753Y-11641603D01*
X9690753Y-11641603D02*
X9671706Y-11651127D01*
X9966944Y-11593984D02*
X9871706Y-11593984D01*
X9871706Y-11593984D02*
X9862182Y-11689222D01*
X9862182Y-11689222D02*
X9871706Y-11679698D01*
X9871706Y-11679698D02*
X9890753Y-11670174D01*
X9890753Y-11670174D02*
X9938372Y-11670174D01*
X9938372Y-11670174D02*
X9957420Y-11679698D01*
X9957420Y-11679698D02*
X9966944Y-11689222D01*
X9966944Y-11689222D02*
X9976468Y-11708269D01*
X9976468Y-11708269D02*
X9976468Y-11755888D01*
X9976468Y-11755888D02*
X9966944Y-11774936D01*
X9966944Y-11774936D02*
X9957420Y-11784460D01*
X9957420Y-11784460D02*
X9938372Y-11793984D01*
X9938372Y-11793984D02*
X9890753Y-11793984D01*
X9890753Y-11793984D02*
X9871706Y-11784460D01*
X9871706Y-11784460D02*
X9862182Y-11774936D01*
X10214563Y-11793984D02*
X10214563Y-11593984D01*
X10300277Y-11793984D02*
X10300277Y-11689222D01*
X10300277Y-11689222D02*
X10290753Y-11670174D01*
X10290753Y-11670174D02*
X10271706Y-11660650D01*
X10271706Y-11660650D02*
X10243134Y-11660650D01*
X10243134Y-11660650D02*
X10224087Y-11670174D01*
X10224087Y-11670174D02*
X10214563Y-11679698D01*
X10424087Y-11793984D02*
X10405039Y-11784460D01*
X10405039Y-11784460D02*
X10395515Y-11774936D01*
X10395515Y-11774936D02*
X10385992Y-11755888D01*
X10385992Y-11755888D02*
X10385992Y-11698746D01*
X10385992Y-11698746D02*
X10395515Y-11679698D01*
X10395515Y-11679698D02*
X10405039Y-11670174D01*
X10405039Y-11670174D02*
X10424087Y-11660650D01*
X10424087Y-11660650D02*
X10452658Y-11660650D01*
X10452658Y-11660650D02*
X10471706Y-11670174D01*
X10471706Y-11670174D02*
X10481230Y-11679698D01*
X10481230Y-11679698D02*
X10490753Y-11698746D01*
X10490753Y-11698746D02*
X10490753Y-11755888D01*
X10490753Y-11755888D02*
X10481230Y-11774936D01*
X10481230Y-11774936D02*
X10471706Y-11784460D01*
X10471706Y-11784460D02*
X10452658Y-11793984D01*
X10452658Y-11793984D02*
X10424087Y-11793984D01*
X10605039Y-11793984D02*
X10585992Y-11784460D01*
X10585992Y-11784460D02*
X10576468Y-11765412D01*
X10576468Y-11765412D02*
X10576468Y-11593984D01*
X10757420Y-11784460D02*
X10738373Y-11793984D01*
X10738373Y-11793984D02*
X10700277Y-11793984D01*
X10700277Y-11793984D02*
X10681230Y-11784460D01*
X10681230Y-11784460D02*
X10671706Y-11765412D01*
X10671706Y-11765412D02*
X10671706Y-11689222D01*
X10671706Y-11689222D02*
X10681230Y-11670174D01*
X10681230Y-11670174D02*
X10700277Y-11660650D01*
X10700277Y-11660650D02*
X10738373Y-11660650D01*
X10738373Y-11660650D02*
X10757420Y-11670174D01*
X10757420Y-11670174D02*
X10766944Y-11689222D01*
X10766944Y-11689222D02*
X10766944Y-11708269D01*
X10766944Y-11708269D02*
X10671706Y-11727317D01*
X10843134Y-11784460D02*
X10862182Y-11793984D01*
X10862182Y-11793984D02*
X10900277Y-11793984D01*
X10900277Y-11793984D02*
X10919325Y-11784460D01*
X10919325Y-11784460D02*
X10928849Y-11765412D01*
X10928849Y-11765412D02*
X10928849Y-11755888D01*
X10928849Y-11755888D02*
X10919325Y-11736841D01*
X10919325Y-11736841D02*
X10900277Y-11727317D01*
X10900277Y-11727317D02*
X10871706Y-11727317D01*
X10871706Y-11727317D02*
X10852658Y-11717793D01*
X10852658Y-11717793D02*
X10843134Y-11698746D01*
X10843134Y-11698746D02*
X10843134Y-11689222D01*
X10843134Y-11689222D02*
X10852658Y-11670174D01*
X10852658Y-11670174D02*
X10871706Y-11660650D01*
X10871706Y-11660650D02*
X10900277Y-11660650D01*
X10900277Y-11660650D02*
X10919325Y-11670174D01*
X10995515Y-11870174D02*
X11005039Y-11860650D01*
X11005039Y-11860650D02*
X11024087Y-11832079D01*
X11024087Y-11832079D02*
X11033611Y-11813031D01*
X11033611Y-11813031D02*
X11043134Y-11784460D01*
X11043134Y-11784460D02*
X11052658Y-11736841D01*
X11052658Y-11736841D02*
X11052658Y-11698746D01*
X11052658Y-11698746D02*
X11043134Y-11651127D01*
X11043134Y-11651127D02*
X11033611Y-11622555D01*
X11033611Y-11622555D02*
X11024087Y-11603508D01*
X11024087Y-11603508D02*
X11005039Y-11574936D01*
X11005039Y-11574936D02*
X10995515Y-11565412D01*
D12*
X5839500Y-11966500D02*
G75*
G02*
X5809500Y-11966500I-15000J0D01*
G01*
X5809500Y-11966500D02*
G75*
G02*
X5839500Y-11966500I15000J0D01*
G01*
D11*
X6138372Y-11857984D02*
X6157420Y-11857984D01*
X6157420Y-11857984D02*
X6176467Y-11867508D01*
X6176467Y-11867508D02*
X6185991Y-11877031D01*
X6185991Y-11877031D02*
X6195515Y-11896079D01*
X6195515Y-11896079D02*
X6205039Y-11934174D01*
X6205039Y-11934174D02*
X6205039Y-11981793D01*
X6205039Y-11981793D02*
X6195515Y-12019888D01*
X6195515Y-12019888D02*
X6185991Y-12038936D01*
X6185991Y-12038936D02*
X6176467Y-12048460D01*
X6176467Y-12048460D02*
X6157420Y-12057984D01*
X6157420Y-12057984D02*
X6138372Y-12057984D01*
X6138372Y-12057984D02*
X6119324Y-12048460D01*
X6119324Y-12048460D02*
X6109801Y-12038936D01*
X6109801Y-12038936D02*
X6100277Y-12019888D01*
X6100277Y-12019888D02*
X6090753Y-11981793D01*
X6090753Y-11981793D02*
X6090753Y-11934174D01*
X6090753Y-11934174D02*
X6100277Y-11896079D01*
X6100277Y-11896079D02*
X6109801Y-11877031D01*
X6109801Y-11877031D02*
X6119324Y-11867508D01*
X6119324Y-11867508D02*
X6138372Y-11857984D01*
X6300277Y-12048460D02*
X6300277Y-12057984D01*
X6300277Y-12057984D02*
X6290753Y-12077031D01*
X6290753Y-12077031D02*
X6281229Y-12086555D01*
X6366943Y-11857984D02*
X6490753Y-11857984D01*
X6490753Y-11857984D02*
X6424086Y-11934174D01*
X6424086Y-11934174D02*
X6452658Y-11934174D01*
X6452658Y-11934174D02*
X6471705Y-11943698D01*
X6471705Y-11943698D02*
X6481229Y-11953222D01*
X6481229Y-11953222D02*
X6490753Y-11972269D01*
X6490753Y-11972269D02*
X6490753Y-12019888D01*
X6490753Y-12019888D02*
X6481229Y-12038936D01*
X6481229Y-12038936D02*
X6471705Y-12048460D01*
X6471705Y-12048460D02*
X6452658Y-12057984D01*
X6452658Y-12057984D02*
X6395515Y-12057984D01*
X6395515Y-12057984D02*
X6376467Y-12048460D01*
X6376467Y-12048460D02*
X6366943Y-12038936D01*
X6614562Y-11857984D02*
X6633610Y-11857984D01*
X6633610Y-11857984D02*
X6652658Y-11867508D01*
X6652658Y-11867508D02*
X6662182Y-11877031D01*
X6662182Y-11877031D02*
X6671705Y-11896079D01*
X6671705Y-11896079D02*
X6681229Y-11934174D01*
X6681229Y-11934174D02*
X6681229Y-11981793D01*
X6681229Y-11981793D02*
X6671705Y-12019888D01*
X6671705Y-12019888D02*
X6662182Y-12038936D01*
X6662182Y-12038936D02*
X6652658Y-12048460D01*
X6652658Y-12048460D02*
X6633610Y-12057984D01*
X6633610Y-12057984D02*
X6614562Y-12057984D01*
X6614562Y-12057984D02*
X6595515Y-12048460D01*
X6595515Y-12048460D02*
X6585991Y-12038936D01*
X6585991Y-12038936D02*
X6576467Y-12019888D01*
X6576467Y-12019888D02*
X6566943Y-11981793D01*
X6566943Y-11981793D02*
X6566943Y-11934174D01*
X6566943Y-11934174D02*
X6576467Y-11896079D01*
X6576467Y-11896079D02*
X6585991Y-11877031D01*
X6585991Y-11877031D02*
X6595515Y-11867508D01*
X6595515Y-11867508D02*
X6614562Y-11857984D01*
X6805039Y-11857984D02*
X6824086Y-11857984D01*
X6824086Y-11857984D02*
X6843134Y-11867508D01*
X6843134Y-11867508D02*
X6852658Y-11877031D01*
X6852658Y-11877031D02*
X6862182Y-11896079D01*
X6862182Y-11896079D02*
X6871705Y-11934174D01*
X6871705Y-11934174D02*
X6871705Y-11981793D01*
X6871705Y-11981793D02*
X6862182Y-12019888D01*
X6862182Y-12019888D02*
X6852658Y-12038936D01*
X6852658Y-12038936D02*
X6843134Y-12048460D01*
X6843134Y-12048460D02*
X6824086Y-12057984D01*
X6824086Y-12057984D02*
X6805039Y-12057984D01*
X6805039Y-12057984D02*
X6785991Y-12048460D01*
X6785991Y-12048460D02*
X6776467Y-12038936D01*
X6776467Y-12038936D02*
X6766943Y-12019888D01*
X6766943Y-12019888D02*
X6757420Y-11981793D01*
X6757420Y-11981793D02*
X6757420Y-11934174D01*
X6757420Y-11934174D02*
X6766943Y-11896079D01*
X6766943Y-11896079D02*
X6776467Y-11877031D01*
X6776467Y-11877031D02*
X6785991Y-11867508D01*
X6785991Y-11867508D02*
X6805039Y-11857984D01*
X6957420Y-12057984D02*
X6957420Y-11924650D01*
X6957420Y-11943698D02*
X6966943Y-11934174D01*
X6966943Y-11934174D02*
X6985991Y-11924650D01*
X6985991Y-11924650D02*
X7014563Y-11924650D01*
X7014563Y-11924650D02*
X7033610Y-11934174D01*
X7033610Y-11934174D02*
X7043134Y-11953222D01*
X7043134Y-11953222D02*
X7043134Y-12057984D01*
X7043134Y-11953222D02*
X7052658Y-11934174D01*
X7052658Y-11934174D02*
X7071705Y-11924650D01*
X7071705Y-11924650D02*
X7100277Y-11924650D01*
X7100277Y-11924650D02*
X7119324Y-11934174D01*
X7119324Y-11934174D02*
X7128848Y-11953222D01*
X7128848Y-11953222D02*
X7128848Y-12057984D01*
X7224086Y-12057984D02*
X7224086Y-11924650D01*
X7224086Y-11943698D02*
X7233610Y-11934174D01*
X7233610Y-11934174D02*
X7252658Y-11924650D01*
X7252658Y-11924650D02*
X7281229Y-11924650D01*
X7281229Y-11924650D02*
X7300277Y-11934174D01*
X7300277Y-11934174D02*
X7309801Y-11953222D01*
X7309801Y-11953222D02*
X7309801Y-12057984D01*
X7309801Y-11953222D02*
X7319324Y-11934174D01*
X7319324Y-11934174D02*
X7338372Y-11924650D01*
X7338372Y-11924650D02*
X7366943Y-11924650D01*
X7366943Y-11924650D02*
X7385991Y-11934174D01*
X7385991Y-11934174D02*
X7395515Y-11953222D01*
X7395515Y-11953222D02*
X7395515Y-12057984D01*
X7785991Y-11848460D02*
X7614563Y-12105603D01*
X8043134Y-11857984D02*
X8062182Y-11857984D01*
X8062182Y-11857984D02*
X8081229Y-11867508D01*
X8081229Y-11867508D02*
X8090753Y-11877031D01*
X8090753Y-11877031D02*
X8100277Y-11896079D01*
X8100277Y-11896079D02*
X8109801Y-11934174D01*
X8109801Y-11934174D02*
X8109801Y-11981793D01*
X8109801Y-11981793D02*
X8100277Y-12019888D01*
X8100277Y-12019888D02*
X8090753Y-12038936D01*
X8090753Y-12038936D02*
X8081229Y-12048460D01*
X8081229Y-12048460D02*
X8062182Y-12057984D01*
X8062182Y-12057984D02*
X8043134Y-12057984D01*
X8043134Y-12057984D02*
X8024086Y-12048460D01*
X8024086Y-12048460D02*
X8014563Y-12038936D01*
X8014563Y-12038936D02*
X8005039Y-12019888D01*
X8005039Y-12019888D02*
X7995515Y-11981793D01*
X7995515Y-11981793D02*
X7995515Y-11934174D01*
X7995515Y-11934174D02*
X8005039Y-11896079D01*
X8005039Y-11896079D02*
X8014563Y-11877031D01*
X8014563Y-11877031D02*
X8024086Y-11867508D01*
X8024086Y-11867508D02*
X8043134Y-11857984D01*
X8205039Y-12048460D02*
X8205039Y-12057984D01*
X8205039Y-12057984D02*
X8195515Y-12077031D01*
X8195515Y-12077031D02*
X8185991Y-12086555D01*
X8328848Y-11857984D02*
X8347896Y-11857984D01*
X8347896Y-11857984D02*
X8366944Y-11867508D01*
X8366944Y-11867508D02*
X8376467Y-11877031D01*
X8376467Y-11877031D02*
X8385991Y-11896079D01*
X8385991Y-11896079D02*
X8395515Y-11934174D01*
X8395515Y-11934174D02*
X8395515Y-11981793D01*
X8395515Y-11981793D02*
X8385991Y-12019888D01*
X8385991Y-12019888D02*
X8376467Y-12038936D01*
X8376467Y-12038936D02*
X8366944Y-12048460D01*
X8366944Y-12048460D02*
X8347896Y-12057984D01*
X8347896Y-12057984D02*
X8328848Y-12057984D01*
X8328848Y-12057984D02*
X8309801Y-12048460D01*
X8309801Y-12048460D02*
X8300277Y-12038936D01*
X8300277Y-12038936D02*
X8290753Y-12019888D01*
X8290753Y-12019888D02*
X8281229Y-11981793D01*
X8281229Y-11981793D02*
X8281229Y-11934174D01*
X8281229Y-11934174D02*
X8290753Y-11896079D01*
X8290753Y-11896079D02*
X8300277Y-11877031D01*
X8300277Y-11877031D02*
X8309801Y-11867508D01*
X8309801Y-11867508D02*
X8328848Y-11857984D01*
X8585991Y-12057984D02*
X8471706Y-12057984D01*
X8528848Y-12057984D02*
X8528848Y-11857984D01*
X8528848Y-11857984D02*
X8509801Y-11886555D01*
X8509801Y-11886555D02*
X8490753Y-11905603D01*
X8490753Y-11905603D02*
X8471706Y-11915127D01*
X8776468Y-12057984D02*
X8662182Y-12057984D01*
X8719325Y-12057984D02*
X8719325Y-11857984D01*
X8719325Y-11857984D02*
X8700277Y-11886555D01*
X8700277Y-11886555D02*
X8681229Y-11905603D01*
X8681229Y-11905603D02*
X8662182Y-11915127D01*
X8890753Y-11943698D02*
X8871706Y-11934174D01*
X8871706Y-11934174D02*
X8862182Y-11924650D01*
X8862182Y-11924650D02*
X8852658Y-11905603D01*
X8852658Y-11905603D02*
X8852658Y-11896079D01*
X8852658Y-11896079D02*
X8862182Y-11877031D01*
X8862182Y-11877031D02*
X8871706Y-11867508D01*
X8871706Y-11867508D02*
X8890753Y-11857984D01*
X8890753Y-11857984D02*
X8928849Y-11857984D01*
X8928849Y-11857984D02*
X8947896Y-11867508D01*
X8947896Y-11867508D02*
X8957420Y-11877031D01*
X8957420Y-11877031D02*
X8966944Y-11896079D01*
X8966944Y-11896079D02*
X8966944Y-11905603D01*
X8966944Y-11905603D02*
X8957420Y-11924650D01*
X8957420Y-11924650D02*
X8947896Y-11934174D01*
X8947896Y-11934174D02*
X8928849Y-11943698D01*
X8928849Y-11943698D02*
X8890753Y-11943698D01*
X8890753Y-11943698D02*
X8871706Y-11953222D01*
X8871706Y-11953222D02*
X8862182Y-11962746D01*
X8862182Y-11962746D02*
X8852658Y-11981793D01*
X8852658Y-11981793D02*
X8852658Y-12019888D01*
X8852658Y-12019888D02*
X8862182Y-12038936D01*
X8862182Y-12038936D02*
X8871706Y-12048460D01*
X8871706Y-12048460D02*
X8890753Y-12057984D01*
X8890753Y-12057984D02*
X8928849Y-12057984D01*
X8928849Y-12057984D02*
X8947896Y-12048460D01*
X8947896Y-12048460D02*
X8957420Y-12038936D01*
X8957420Y-12038936D02*
X8966944Y-12019888D01*
X8966944Y-12019888D02*
X8966944Y-11981793D01*
X8966944Y-11981793D02*
X8957420Y-11962746D01*
X8957420Y-11962746D02*
X8947896Y-11953222D01*
X8947896Y-11953222D02*
X8928849Y-11943698D01*
X9043134Y-11857984D02*
X9043134Y-11896079D01*
X9119325Y-11857984D02*
X9119325Y-11896079D01*
X9414563Y-12134174D02*
X9405039Y-12124650D01*
X9405039Y-12124650D02*
X9385991Y-12096079D01*
X9385991Y-12096079D02*
X9376468Y-12077031D01*
X9376468Y-12077031D02*
X9366944Y-12048460D01*
X9366944Y-12048460D02*
X9357420Y-12000841D01*
X9357420Y-12000841D02*
X9357420Y-11962746D01*
X9357420Y-11962746D02*
X9366944Y-11915127D01*
X9366944Y-11915127D02*
X9376468Y-11886555D01*
X9376468Y-11886555D02*
X9385991Y-11867508D01*
X9385991Y-11867508D02*
X9405039Y-11838936D01*
X9405039Y-11838936D02*
X9414563Y-11829412D01*
X9500277Y-12057984D02*
X9538372Y-12057984D01*
X9538372Y-12057984D02*
X9557420Y-12048460D01*
X9557420Y-12048460D02*
X9566944Y-12038936D01*
X9566944Y-12038936D02*
X9585991Y-12010365D01*
X9585991Y-12010365D02*
X9595515Y-11972269D01*
X9595515Y-11972269D02*
X9595515Y-11896079D01*
X9595515Y-11896079D02*
X9585991Y-11877031D01*
X9585991Y-11877031D02*
X9576468Y-11867508D01*
X9576468Y-11867508D02*
X9557420Y-11857984D01*
X9557420Y-11857984D02*
X9519325Y-11857984D01*
X9519325Y-11857984D02*
X9500277Y-11867508D01*
X9500277Y-11867508D02*
X9490753Y-11877031D01*
X9490753Y-11877031D02*
X9481230Y-11896079D01*
X9481230Y-11896079D02*
X9481230Y-11943698D01*
X9481230Y-11943698D02*
X9490753Y-11962746D01*
X9490753Y-11962746D02*
X9500277Y-11972269D01*
X9500277Y-11972269D02*
X9519325Y-11981793D01*
X9519325Y-11981793D02*
X9557420Y-11981793D01*
X9557420Y-11981793D02*
X9576468Y-11972269D01*
X9576468Y-11972269D02*
X9585991Y-11962746D01*
X9585991Y-11962746D02*
X9595515Y-11943698D01*
X9833611Y-12057984D02*
X9833611Y-11857984D01*
X9919325Y-12057984D02*
X9919325Y-11953222D01*
X9919325Y-11953222D02*
X9909801Y-11934174D01*
X9909801Y-11934174D02*
X9890753Y-11924650D01*
X9890753Y-11924650D02*
X9862182Y-11924650D01*
X9862182Y-11924650D02*
X9843134Y-11934174D01*
X9843134Y-11934174D02*
X9833611Y-11943698D01*
X10043134Y-12057984D02*
X10024087Y-12048460D01*
X10024087Y-12048460D02*
X10014563Y-12038936D01*
X10014563Y-12038936D02*
X10005039Y-12019888D01*
X10005039Y-12019888D02*
X10005039Y-11962746D01*
X10005039Y-11962746D02*
X10014563Y-11943698D01*
X10014563Y-11943698D02*
X10024087Y-11934174D01*
X10024087Y-11934174D02*
X10043134Y-11924650D01*
X10043134Y-11924650D02*
X10071706Y-11924650D01*
X10071706Y-11924650D02*
X10090753Y-11934174D01*
X10090753Y-11934174D02*
X10100277Y-11943698D01*
X10100277Y-11943698D02*
X10109801Y-11962746D01*
X10109801Y-11962746D02*
X10109801Y-12019888D01*
X10109801Y-12019888D02*
X10100277Y-12038936D01*
X10100277Y-12038936D02*
X10090753Y-12048460D01*
X10090753Y-12048460D02*
X10071706Y-12057984D01*
X10071706Y-12057984D02*
X10043134Y-12057984D01*
X10224087Y-12057984D02*
X10205039Y-12048460D01*
X10205039Y-12048460D02*
X10195515Y-12029412D01*
X10195515Y-12029412D02*
X10195515Y-11857984D01*
X10376468Y-12048460D02*
X10357420Y-12057984D01*
X10357420Y-12057984D02*
X10319325Y-12057984D01*
X10319325Y-12057984D02*
X10300277Y-12048460D01*
X10300277Y-12048460D02*
X10290753Y-12029412D01*
X10290753Y-12029412D02*
X10290753Y-11953222D01*
X10290753Y-11953222D02*
X10300277Y-11934174D01*
X10300277Y-11934174D02*
X10319325Y-11924650D01*
X10319325Y-11924650D02*
X10357420Y-11924650D01*
X10357420Y-11924650D02*
X10376468Y-11934174D01*
X10376468Y-11934174D02*
X10385992Y-11953222D01*
X10385992Y-11953222D02*
X10385992Y-11972269D01*
X10385992Y-11972269D02*
X10290753Y-11991317D01*
X10462182Y-12048460D02*
X10481230Y-12057984D01*
X10481230Y-12057984D02*
X10519325Y-12057984D01*
X10519325Y-12057984D02*
X10538373Y-12048460D01*
X10538373Y-12048460D02*
X10547896Y-12029412D01*
X10547896Y-12029412D02*
X10547896Y-12019888D01*
X10547896Y-12019888D02*
X10538373Y-12000841D01*
X10538373Y-12000841D02*
X10519325Y-11991317D01*
X10519325Y-11991317D02*
X10490753Y-11991317D01*
X10490753Y-11991317D02*
X10471706Y-11981793D01*
X10471706Y-11981793D02*
X10462182Y-11962746D01*
X10462182Y-11962746D02*
X10462182Y-11953222D01*
X10462182Y-11953222D02*
X10471706Y-11934174D01*
X10471706Y-11934174D02*
X10490753Y-11924650D01*
X10490753Y-11924650D02*
X10519325Y-11924650D01*
X10519325Y-11924650D02*
X10538373Y-11934174D01*
X10614563Y-12134174D02*
X10624087Y-12124650D01*
X10624087Y-12124650D02*
X10643134Y-12096079D01*
X10643134Y-12096079D02*
X10652658Y-12077031D01*
X10652658Y-12077031D02*
X10662182Y-12048460D01*
X10662182Y-12048460D02*
X10671706Y-12000841D01*
X10671706Y-12000841D02*
X10671706Y-11962746D01*
X10671706Y-11962746D02*
X10662182Y-11915127D01*
X10662182Y-11915127D02*
X10652658Y-11886555D01*
X10652658Y-11886555D02*
X10643134Y-11867508D01*
X10643134Y-11867508D02*
X10624087Y-11838936D01*
X10624087Y-11838936D02*
X10614563Y-11829412D01*
D12*
X5814500Y-12205500D02*
X5814500Y-12255500D01*
X5789500Y-12230500D02*
X5839500Y-12230500D01*
D11*
X6138372Y-12121984D02*
X6157420Y-12121984D01*
X6157420Y-12121984D02*
X6176467Y-12131508D01*
X6176467Y-12131508D02*
X6185991Y-12141031D01*
X6185991Y-12141031D02*
X6195515Y-12160079D01*
X6195515Y-12160079D02*
X6205039Y-12198174D01*
X6205039Y-12198174D02*
X6205039Y-12245793D01*
X6205039Y-12245793D02*
X6195515Y-12283888D01*
X6195515Y-12283888D02*
X6185991Y-12302936D01*
X6185991Y-12302936D02*
X6176467Y-12312460D01*
X6176467Y-12312460D02*
X6157420Y-12321984D01*
X6157420Y-12321984D02*
X6138372Y-12321984D01*
X6138372Y-12321984D02*
X6119324Y-12312460D01*
X6119324Y-12312460D02*
X6109801Y-12302936D01*
X6109801Y-12302936D02*
X6100277Y-12283888D01*
X6100277Y-12283888D02*
X6090753Y-12245793D01*
X6090753Y-12245793D02*
X6090753Y-12198174D01*
X6090753Y-12198174D02*
X6100277Y-12160079D01*
X6100277Y-12160079D02*
X6109801Y-12141031D01*
X6109801Y-12141031D02*
X6119324Y-12131508D01*
X6119324Y-12131508D02*
X6138372Y-12121984D01*
X6300277Y-12312460D02*
X6300277Y-12321984D01*
X6300277Y-12321984D02*
X6290753Y-12341031D01*
X6290753Y-12341031D02*
X6281229Y-12350555D01*
X6481229Y-12121984D02*
X6385991Y-12121984D01*
X6385991Y-12121984D02*
X6376467Y-12217222D01*
X6376467Y-12217222D02*
X6385991Y-12207698D01*
X6385991Y-12207698D02*
X6405039Y-12198174D01*
X6405039Y-12198174D02*
X6452658Y-12198174D01*
X6452658Y-12198174D02*
X6471705Y-12207698D01*
X6471705Y-12207698D02*
X6481229Y-12217222D01*
X6481229Y-12217222D02*
X6490753Y-12236269D01*
X6490753Y-12236269D02*
X6490753Y-12283888D01*
X6490753Y-12283888D02*
X6481229Y-12302936D01*
X6481229Y-12302936D02*
X6471705Y-12312460D01*
X6471705Y-12312460D02*
X6452658Y-12321984D01*
X6452658Y-12321984D02*
X6405039Y-12321984D01*
X6405039Y-12321984D02*
X6385991Y-12312460D01*
X6385991Y-12312460D02*
X6376467Y-12302936D01*
X6614562Y-12121984D02*
X6633610Y-12121984D01*
X6633610Y-12121984D02*
X6652658Y-12131508D01*
X6652658Y-12131508D02*
X6662182Y-12141031D01*
X6662182Y-12141031D02*
X6671705Y-12160079D01*
X6671705Y-12160079D02*
X6681229Y-12198174D01*
X6681229Y-12198174D02*
X6681229Y-12245793D01*
X6681229Y-12245793D02*
X6671705Y-12283888D01*
X6671705Y-12283888D02*
X6662182Y-12302936D01*
X6662182Y-12302936D02*
X6652658Y-12312460D01*
X6652658Y-12312460D02*
X6633610Y-12321984D01*
X6633610Y-12321984D02*
X6614562Y-12321984D01*
X6614562Y-12321984D02*
X6595515Y-12312460D01*
X6595515Y-12312460D02*
X6585991Y-12302936D01*
X6585991Y-12302936D02*
X6576467Y-12283888D01*
X6576467Y-12283888D02*
X6566943Y-12245793D01*
X6566943Y-12245793D02*
X6566943Y-12198174D01*
X6566943Y-12198174D02*
X6576467Y-12160079D01*
X6576467Y-12160079D02*
X6585991Y-12141031D01*
X6585991Y-12141031D02*
X6595515Y-12131508D01*
X6595515Y-12131508D02*
X6614562Y-12121984D01*
X6805039Y-12121984D02*
X6824086Y-12121984D01*
X6824086Y-12121984D02*
X6843134Y-12131508D01*
X6843134Y-12131508D02*
X6852658Y-12141031D01*
X6852658Y-12141031D02*
X6862182Y-12160079D01*
X6862182Y-12160079D02*
X6871705Y-12198174D01*
X6871705Y-12198174D02*
X6871705Y-12245793D01*
X6871705Y-12245793D02*
X6862182Y-12283888D01*
X6862182Y-12283888D02*
X6852658Y-12302936D01*
X6852658Y-12302936D02*
X6843134Y-12312460D01*
X6843134Y-12312460D02*
X6824086Y-12321984D01*
X6824086Y-12321984D02*
X6805039Y-12321984D01*
X6805039Y-12321984D02*
X6785991Y-12312460D01*
X6785991Y-12312460D02*
X6776467Y-12302936D01*
X6776467Y-12302936D02*
X6766943Y-12283888D01*
X6766943Y-12283888D02*
X6757420Y-12245793D01*
X6757420Y-12245793D02*
X6757420Y-12198174D01*
X6757420Y-12198174D02*
X6766943Y-12160079D01*
X6766943Y-12160079D02*
X6776467Y-12141031D01*
X6776467Y-12141031D02*
X6785991Y-12131508D01*
X6785991Y-12131508D02*
X6805039Y-12121984D01*
X6957420Y-12321984D02*
X6957420Y-12188650D01*
X6957420Y-12207698D02*
X6966943Y-12198174D01*
X6966943Y-12198174D02*
X6985991Y-12188650D01*
X6985991Y-12188650D02*
X7014563Y-12188650D01*
X7014563Y-12188650D02*
X7033610Y-12198174D01*
X7033610Y-12198174D02*
X7043134Y-12217222D01*
X7043134Y-12217222D02*
X7043134Y-12321984D01*
X7043134Y-12217222D02*
X7052658Y-12198174D01*
X7052658Y-12198174D02*
X7071705Y-12188650D01*
X7071705Y-12188650D02*
X7100277Y-12188650D01*
X7100277Y-12188650D02*
X7119324Y-12198174D01*
X7119324Y-12198174D02*
X7128848Y-12217222D01*
X7128848Y-12217222D02*
X7128848Y-12321984D01*
X7224086Y-12321984D02*
X7224086Y-12188650D01*
X7224086Y-12207698D02*
X7233610Y-12198174D01*
X7233610Y-12198174D02*
X7252658Y-12188650D01*
X7252658Y-12188650D02*
X7281229Y-12188650D01*
X7281229Y-12188650D02*
X7300277Y-12198174D01*
X7300277Y-12198174D02*
X7309801Y-12217222D01*
X7309801Y-12217222D02*
X7309801Y-12321984D01*
X7309801Y-12217222D02*
X7319324Y-12198174D01*
X7319324Y-12198174D02*
X7338372Y-12188650D01*
X7338372Y-12188650D02*
X7366943Y-12188650D01*
X7366943Y-12188650D02*
X7385991Y-12198174D01*
X7385991Y-12198174D02*
X7395515Y-12217222D01*
X7395515Y-12217222D02*
X7395515Y-12321984D01*
X7785991Y-12112460D02*
X7614563Y-12369603D01*
X8043134Y-12121984D02*
X8062182Y-12121984D01*
X8062182Y-12121984D02*
X8081229Y-12131508D01*
X8081229Y-12131508D02*
X8090753Y-12141031D01*
X8090753Y-12141031D02*
X8100277Y-12160079D01*
X8100277Y-12160079D02*
X8109801Y-12198174D01*
X8109801Y-12198174D02*
X8109801Y-12245793D01*
X8109801Y-12245793D02*
X8100277Y-12283888D01*
X8100277Y-12283888D02*
X8090753Y-12302936D01*
X8090753Y-12302936D02*
X8081229Y-12312460D01*
X8081229Y-12312460D02*
X8062182Y-12321984D01*
X8062182Y-12321984D02*
X8043134Y-12321984D01*
X8043134Y-12321984D02*
X8024086Y-12312460D01*
X8024086Y-12312460D02*
X8014563Y-12302936D01*
X8014563Y-12302936D02*
X8005039Y-12283888D01*
X8005039Y-12283888D02*
X7995515Y-12245793D01*
X7995515Y-12245793D02*
X7995515Y-12198174D01*
X7995515Y-12198174D02*
X8005039Y-12160079D01*
X8005039Y-12160079D02*
X8014563Y-12141031D01*
X8014563Y-12141031D02*
X8024086Y-12131508D01*
X8024086Y-12131508D02*
X8043134Y-12121984D01*
X8205039Y-12312460D02*
X8205039Y-12321984D01*
X8205039Y-12321984D02*
X8195515Y-12341031D01*
X8195515Y-12341031D02*
X8185991Y-12350555D01*
X8328848Y-12121984D02*
X8347896Y-12121984D01*
X8347896Y-12121984D02*
X8366944Y-12131508D01*
X8366944Y-12131508D02*
X8376467Y-12141031D01*
X8376467Y-12141031D02*
X8385991Y-12160079D01*
X8385991Y-12160079D02*
X8395515Y-12198174D01*
X8395515Y-12198174D02*
X8395515Y-12245793D01*
X8395515Y-12245793D02*
X8385991Y-12283888D01*
X8385991Y-12283888D02*
X8376467Y-12302936D01*
X8376467Y-12302936D02*
X8366944Y-12312460D01*
X8366944Y-12312460D02*
X8347896Y-12321984D01*
X8347896Y-12321984D02*
X8328848Y-12321984D01*
X8328848Y-12321984D02*
X8309801Y-12312460D01*
X8309801Y-12312460D02*
X8300277Y-12302936D01*
X8300277Y-12302936D02*
X8290753Y-12283888D01*
X8290753Y-12283888D02*
X8281229Y-12245793D01*
X8281229Y-12245793D02*
X8281229Y-12198174D01*
X8281229Y-12198174D02*
X8290753Y-12160079D01*
X8290753Y-12160079D02*
X8300277Y-12141031D01*
X8300277Y-12141031D02*
X8309801Y-12131508D01*
X8309801Y-12131508D02*
X8328848Y-12121984D01*
X8585991Y-12321984D02*
X8471706Y-12321984D01*
X8528848Y-12321984D02*
X8528848Y-12121984D01*
X8528848Y-12121984D02*
X8509801Y-12150555D01*
X8509801Y-12150555D02*
X8490753Y-12169603D01*
X8490753Y-12169603D02*
X8471706Y-12179127D01*
X8681229Y-12321984D02*
X8719325Y-12321984D01*
X8719325Y-12321984D02*
X8738372Y-12312460D01*
X8738372Y-12312460D02*
X8747896Y-12302936D01*
X8747896Y-12302936D02*
X8766944Y-12274365D01*
X8766944Y-12274365D02*
X8776468Y-12236269D01*
X8776468Y-12236269D02*
X8776468Y-12160079D01*
X8776468Y-12160079D02*
X8766944Y-12141031D01*
X8766944Y-12141031D02*
X8757420Y-12131508D01*
X8757420Y-12131508D02*
X8738372Y-12121984D01*
X8738372Y-12121984D02*
X8700277Y-12121984D01*
X8700277Y-12121984D02*
X8681229Y-12131508D01*
X8681229Y-12131508D02*
X8671706Y-12141031D01*
X8671706Y-12141031D02*
X8662182Y-12160079D01*
X8662182Y-12160079D02*
X8662182Y-12207698D01*
X8662182Y-12207698D02*
X8671706Y-12226746D01*
X8671706Y-12226746D02*
X8681229Y-12236269D01*
X8681229Y-12236269D02*
X8700277Y-12245793D01*
X8700277Y-12245793D02*
X8738372Y-12245793D01*
X8738372Y-12245793D02*
X8757420Y-12236269D01*
X8757420Y-12236269D02*
X8766944Y-12226746D01*
X8766944Y-12226746D02*
X8776468Y-12207698D01*
X8843134Y-12121984D02*
X8976468Y-12121984D01*
X8976468Y-12121984D02*
X8890753Y-12321984D01*
X9043134Y-12121984D02*
X9043134Y-12160079D01*
X9119325Y-12121984D02*
X9119325Y-12160079D01*
X9414563Y-12398174D02*
X9405039Y-12388650D01*
X9405039Y-12388650D02*
X9385991Y-12360079D01*
X9385991Y-12360079D02*
X9376468Y-12341031D01*
X9376468Y-12341031D02*
X9366944Y-12312460D01*
X9366944Y-12312460D02*
X9357420Y-12264841D01*
X9357420Y-12264841D02*
X9357420Y-12226746D01*
X9357420Y-12226746D02*
X9366944Y-12179127D01*
X9366944Y-12179127D02*
X9376468Y-12150555D01*
X9376468Y-12150555D02*
X9385991Y-12131508D01*
X9385991Y-12131508D02*
X9405039Y-12102936D01*
X9405039Y-12102936D02*
X9414563Y-12093412D01*
X9528849Y-12121984D02*
X9547896Y-12121984D01*
X9547896Y-12121984D02*
X9566944Y-12131508D01*
X9566944Y-12131508D02*
X9576468Y-12141031D01*
X9576468Y-12141031D02*
X9585991Y-12160079D01*
X9585991Y-12160079D02*
X9595515Y-12198174D01*
X9595515Y-12198174D02*
X9595515Y-12245793D01*
X9595515Y-12245793D02*
X9585991Y-12283888D01*
X9585991Y-12283888D02*
X9576468Y-12302936D01*
X9576468Y-12302936D02*
X9566944Y-12312460D01*
X9566944Y-12312460D02*
X9547896Y-12321984D01*
X9547896Y-12321984D02*
X9528849Y-12321984D01*
X9528849Y-12321984D02*
X9509801Y-12312460D01*
X9509801Y-12312460D02*
X9500277Y-12302936D01*
X9500277Y-12302936D02*
X9490753Y-12283888D01*
X9490753Y-12283888D02*
X9481230Y-12245793D01*
X9481230Y-12245793D02*
X9481230Y-12198174D01*
X9481230Y-12198174D02*
X9490753Y-12160079D01*
X9490753Y-12160079D02*
X9500277Y-12141031D01*
X9500277Y-12141031D02*
X9509801Y-12131508D01*
X9509801Y-12131508D02*
X9528849Y-12121984D01*
X9833611Y-12321984D02*
X9833611Y-12121984D01*
X9919325Y-12321984D02*
X9919325Y-12217222D01*
X9919325Y-12217222D02*
X9909801Y-12198174D01*
X9909801Y-12198174D02*
X9890753Y-12188650D01*
X9890753Y-12188650D02*
X9862182Y-12188650D01*
X9862182Y-12188650D02*
X9843134Y-12198174D01*
X9843134Y-12198174D02*
X9833611Y-12207698D01*
X10043134Y-12321984D02*
X10024087Y-12312460D01*
X10024087Y-12312460D02*
X10014563Y-12302936D01*
X10014563Y-12302936D02*
X10005039Y-12283888D01*
X10005039Y-12283888D02*
X10005039Y-12226746D01*
X10005039Y-12226746D02*
X10014563Y-12207698D01*
X10014563Y-12207698D02*
X10024087Y-12198174D01*
X10024087Y-12198174D02*
X10043134Y-12188650D01*
X10043134Y-12188650D02*
X10071706Y-12188650D01*
X10071706Y-12188650D02*
X10090753Y-12198174D01*
X10090753Y-12198174D02*
X10100277Y-12207698D01*
X10100277Y-12207698D02*
X10109801Y-12226746D01*
X10109801Y-12226746D02*
X10109801Y-12283888D01*
X10109801Y-12283888D02*
X10100277Y-12302936D01*
X10100277Y-12302936D02*
X10090753Y-12312460D01*
X10090753Y-12312460D02*
X10071706Y-12321984D01*
X10071706Y-12321984D02*
X10043134Y-12321984D01*
X10224087Y-12321984D02*
X10205039Y-12312460D01*
X10205039Y-12312460D02*
X10195515Y-12293412D01*
X10195515Y-12293412D02*
X10195515Y-12121984D01*
X10376468Y-12312460D02*
X10357420Y-12321984D01*
X10357420Y-12321984D02*
X10319325Y-12321984D01*
X10319325Y-12321984D02*
X10300277Y-12312460D01*
X10300277Y-12312460D02*
X10290753Y-12293412D01*
X10290753Y-12293412D02*
X10290753Y-12217222D01*
X10290753Y-12217222D02*
X10300277Y-12198174D01*
X10300277Y-12198174D02*
X10319325Y-12188650D01*
X10319325Y-12188650D02*
X10357420Y-12188650D01*
X10357420Y-12188650D02*
X10376468Y-12198174D01*
X10376468Y-12198174D02*
X10385992Y-12217222D01*
X10385992Y-12217222D02*
X10385992Y-12236269D01*
X10385992Y-12236269D02*
X10290753Y-12255317D01*
X10462182Y-12312460D02*
X10481230Y-12321984D01*
X10481230Y-12321984D02*
X10519325Y-12321984D01*
X10519325Y-12321984D02*
X10538373Y-12312460D01*
X10538373Y-12312460D02*
X10547896Y-12293412D01*
X10547896Y-12293412D02*
X10547896Y-12283888D01*
X10547896Y-12283888D02*
X10538373Y-12264841D01*
X10538373Y-12264841D02*
X10519325Y-12255317D01*
X10519325Y-12255317D02*
X10490753Y-12255317D01*
X10490753Y-12255317D02*
X10471706Y-12245793D01*
X10471706Y-12245793D02*
X10462182Y-12226746D01*
X10462182Y-12226746D02*
X10462182Y-12217222D01*
X10462182Y-12217222D02*
X10471706Y-12198174D01*
X10471706Y-12198174D02*
X10490753Y-12188650D01*
X10490753Y-12188650D02*
X10519325Y-12188650D01*
X10519325Y-12188650D02*
X10538373Y-12198174D01*
X10785992Y-12245793D02*
X10938373Y-12245793D01*
X10862182Y-12321984D02*
X10862182Y-12169603D01*
X11271706Y-12188650D02*
X11271706Y-12321984D01*
X11224087Y-12112460D02*
X11176468Y-12255317D01*
X11176468Y-12255317D02*
X11300277Y-12255317D01*
X11519325Y-12312460D02*
X11538373Y-12321984D01*
X11538373Y-12321984D02*
X11576468Y-12321984D01*
X11576468Y-12321984D02*
X11595515Y-12312460D01*
X11595515Y-12312460D02*
X11605039Y-12293412D01*
X11605039Y-12293412D02*
X11605039Y-12283888D01*
X11605039Y-12283888D02*
X11595515Y-12264841D01*
X11595515Y-12264841D02*
X11576468Y-12255317D01*
X11576468Y-12255317D02*
X11547896Y-12255317D01*
X11547896Y-12255317D02*
X11528849Y-12245793D01*
X11528849Y-12245793D02*
X11519325Y-12226746D01*
X11519325Y-12226746D02*
X11519325Y-12217222D01*
X11519325Y-12217222D02*
X11528849Y-12198174D01*
X11528849Y-12198174D02*
X11547896Y-12188650D01*
X11547896Y-12188650D02*
X11576468Y-12188650D01*
X11576468Y-12188650D02*
X11595515Y-12198174D01*
X11719325Y-12321984D02*
X11700277Y-12312460D01*
X11700277Y-12312460D02*
X11690754Y-12293412D01*
X11690754Y-12293412D02*
X11690754Y-12121984D01*
X11824087Y-12321984D02*
X11805039Y-12312460D01*
X11805039Y-12312460D02*
X11795515Y-12302936D01*
X11795515Y-12302936D02*
X11785992Y-12283888D01*
X11785992Y-12283888D02*
X11785992Y-12226746D01*
X11785992Y-12226746D02*
X11795515Y-12207698D01*
X11795515Y-12207698D02*
X11805039Y-12198174D01*
X11805039Y-12198174D02*
X11824087Y-12188650D01*
X11824087Y-12188650D02*
X11852658Y-12188650D01*
X11852658Y-12188650D02*
X11871706Y-12198174D01*
X11871706Y-12198174D02*
X11881230Y-12207698D01*
X11881230Y-12207698D02*
X11890754Y-12226746D01*
X11890754Y-12226746D02*
X11890754Y-12283888D01*
X11890754Y-12283888D02*
X11881230Y-12302936D01*
X11881230Y-12302936D02*
X11871706Y-12312460D01*
X11871706Y-12312460D02*
X11852658Y-12321984D01*
X11852658Y-12321984D02*
X11824087Y-12321984D01*
X11947896Y-12188650D02*
X12024087Y-12188650D01*
X11976468Y-12121984D02*
X11976468Y-12293412D01*
X11976468Y-12293412D02*
X11985992Y-12312460D01*
X11985992Y-12312460D02*
X12005039Y-12321984D01*
X12005039Y-12321984D02*
X12024087Y-12321984D01*
X12081230Y-12312460D02*
X12100277Y-12321984D01*
X12100277Y-12321984D02*
X12138373Y-12321984D01*
X12138373Y-12321984D02*
X12157420Y-12312460D01*
X12157420Y-12312460D02*
X12166944Y-12293412D01*
X12166944Y-12293412D02*
X12166944Y-12283888D01*
X12166944Y-12283888D02*
X12157420Y-12264841D01*
X12157420Y-12264841D02*
X12138373Y-12255317D01*
X12138373Y-12255317D02*
X12109801Y-12255317D01*
X12109801Y-12255317D02*
X12090754Y-12245793D01*
X12090754Y-12245793D02*
X12081230Y-12226746D01*
X12081230Y-12226746D02*
X12081230Y-12217222D01*
X12081230Y-12217222D02*
X12090754Y-12198174D01*
X12090754Y-12198174D02*
X12109801Y-12188650D01*
X12109801Y-12188650D02*
X12138373Y-12188650D01*
X12138373Y-12188650D02*
X12157420Y-12198174D01*
X12233611Y-12398174D02*
X12243135Y-12388650D01*
X12243135Y-12388650D02*
X12262182Y-12360079D01*
X12262182Y-12360079D02*
X12271706Y-12341031D01*
X12271706Y-12341031D02*
X12281230Y-12312460D01*
X12281230Y-12312460D02*
X12290754Y-12264841D01*
X12290754Y-12264841D02*
X12290754Y-12226746D01*
X12290754Y-12226746D02*
X12281230Y-12179127D01*
X12281230Y-12179127D02*
X12271706Y-12150555D01*
X12271706Y-12150555D02*
X12262182Y-12131508D01*
X12262182Y-12131508D02*
X12243135Y-12102936D01*
X12243135Y-12102936D02*
X12233611Y-12093412D01*
D12*
X5830713Y-12515713D02*
X5830713Y-12473287D01*
X5788287Y-12473287D01*
X5788287Y-12515713D01*
X5830713Y-12515713D01*
D11*
X6138372Y-12385984D02*
X6157420Y-12385984D01*
X6157420Y-12385984D02*
X6176467Y-12395508D01*
X6176467Y-12395508D02*
X6185991Y-12405031D01*
X6185991Y-12405031D02*
X6195515Y-12424079D01*
X6195515Y-12424079D02*
X6205039Y-12462174D01*
X6205039Y-12462174D02*
X6205039Y-12509793D01*
X6205039Y-12509793D02*
X6195515Y-12547888D01*
X6195515Y-12547888D02*
X6185991Y-12566936D01*
X6185991Y-12566936D02*
X6176467Y-12576460D01*
X6176467Y-12576460D02*
X6157420Y-12585984D01*
X6157420Y-12585984D02*
X6138372Y-12585984D01*
X6138372Y-12585984D02*
X6119324Y-12576460D01*
X6119324Y-12576460D02*
X6109801Y-12566936D01*
X6109801Y-12566936D02*
X6100277Y-12547888D01*
X6100277Y-12547888D02*
X6090753Y-12509793D01*
X6090753Y-12509793D02*
X6090753Y-12462174D01*
X6090753Y-12462174D02*
X6100277Y-12424079D01*
X6100277Y-12424079D02*
X6109801Y-12405031D01*
X6109801Y-12405031D02*
X6119324Y-12395508D01*
X6119324Y-12395508D02*
X6138372Y-12385984D01*
X6300277Y-12576460D02*
X6300277Y-12585984D01*
X6300277Y-12585984D02*
X6290753Y-12605031D01*
X6290753Y-12605031D02*
X6281229Y-12614555D01*
X6471705Y-12385984D02*
X6433610Y-12385984D01*
X6433610Y-12385984D02*
X6414562Y-12395508D01*
X6414562Y-12395508D02*
X6405039Y-12405031D01*
X6405039Y-12405031D02*
X6385991Y-12433603D01*
X6385991Y-12433603D02*
X6376467Y-12471698D01*
X6376467Y-12471698D02*
X6376467Y-12547888D01*
X6376467Y-12547888D02*
X6385991Y-12566936D01*
X6385991Y-12566936D02*
X6395515Y-12576460D01*
X6395515Y-12576460D02*
X6414562Y-12585984D01*
X6414562Y-12585984D02*
X6452658Y-12585984D01*
X6452658Y-12585984D02*
X6471705Y-12576460D01*
X6471705Y-12576460D02*
X6481229Y-12566936D01*
X6481229Y-12566936D02*
X6490753Y-12547888D01*
X6490753Y-12547888D02*
X6490753Y-12500269D01*
X6490753Y-12500269D02*
X6481229Y-12481222D01*
X6481229Y-12481222D02*
X6471705Y-12471698D01*
X6471705Y-12471698D02*
X6452658Y-12462174D01*
X6452658Y-12462174D02*
X6414562Y-12462174D01*
X6414562Y-12462174D02*
X6395515Y-12471698D01*
X6395515Y-12471698D02*
X6385991Y-12481222D01*
X6385991Y-12481222D02*
X6376467Y-12500269D01*
X6614562Y-12385984D02*
X6633610Y-12385984D01*
X6633610Y-12385984D02*
X6652658Y-12395508D01*
X6652658Y-12395508D02*
X6662182Y-12405031D01*
X6662182Y-12405031D02*
X6671705Y-12424079D01*
X6671705Y-12424079D02*
X6681229Y-12462174D01*
X6681229Y-12462174D02*
X6681229Y-12509793D01*
X6681229Y-12509793D02*
X6671705Y-12547888D01*
X6671705Y-12547888D02*
X6662182Y-12566936D01*
X6662182Y-12566936D02*
X6652658Y-12576460D01*
X6652658Y-12576460D02*
X6633610Y-12585984D01*
X6633610Y-12585984D02*
X6614562Y-12585984D01*
X6614562Y-12585984D02*
X6595515Y-12576460D01*
X6595515Y-12576460D02*
X6585991Y-12566936D01*
X6585991Y-12566936D02*
X6576467Y-12547888D01*
X6576467Y-12547888D02*
X6566943Y-12509793D01*
X6566943Y-12509793D02*
X6566943Y-12462174D01*
X6566943Y-12462174D02*
X6576467Y-12424079D01*
X6576467Y-12424079D02*
X6585991Y-12405031D01*
X6585991Y-12405031D02*
X6595515Y-12395508D01*
X6595515Y-12395508D02*
X6614562Y-12385984D01*
X6805039Y-12385984D02*
X6824086Y-12385984D01*
X6824086Y-12385984D02*
X6843134Y-12395508D01*
X6843134Y-12395508D02*
X6852658Y-12405031D01*
X6852658Y-12405031D02*
X6862182Y-12424079D01*
X6862182Y-12424079D02*
X6871705Y-12462174D01*
X6871705Y-12462174D02*
X6871705Y-12509793D01*
X6871705Y-12509793D02*
X6862182Y-12547888D01*
X6862182Y-12547888D02*
X6852658Y-12566936D01*
X6852658Y-12566936D02*
X6843134Y-12576460D01*
X6843134Y-12576460D02*
X6824086Y-12585984D01*
X6824086Y-12585984D02*
X6805039Y-12585984D01*
X6805039Y-12585984D02*
X6785991Y-12576460D01*
X6785991Y-12576460D02*
X6776467Y-12566936D01*
X6776467Y-12566936D02*
X6766943Y-12547888D01*
X6766943Y-12547888D02*
X6757420Y-12509793D01*
X6757420Y-12509793D02*
X6757420Y-12462174D01*
X6757420Y-12462174D02*
X6766943Y-12424079D01*
X6766943Y-12424079D02*
X6776467Y-12405031D01*
X6776467Y-12405031D02*
X6785991Y-12395508D01*
X6785991Y-12395508D02*
X6805039Y-12385984D01*
X6957420Y-12585984D02*
X6957420Y-12452650D01*
X6957420Y-12471698D02*
X6966943Y-12462174D01*
X6966943Y-12462174D02*
X6985991Y-12452650D01*
X6985991Y-12452650D02*
X7014563Y-12452650D01*
X7014563Y-12452650D02*
X7033610Y-12462174D01*
X7033610Y-12462174D02*
X7043134Y-12481222D01*
X7043134Y-12481222D02*
X7043134Y-12585984D01*
X7043134Y-12481222D02*
X7052658Y-12462174D01*
X7052658Y-12462174D02*
X7071705Y-12452650D01*
X7071705Y-12452650D02*
X7100277Y-12452650D01*
X7100277Y-12452650D02*
X7119324Y-12462174D01*
X7119324Y-12462174D02*
X7128848Y-12481222D01*
X7128848Y-12481222D02*
X7128848Y-12585984D01*
X7224086Y-12585984D02*
X7224086Y-12452650D01*
X7224086Y-12471698D02*
X7233610Y-12462174D01*
X7233610Y-12462174D02*
X7252658Y-12452650D01*
X7252658Y-12452650D02*
X7281229Y-12452650D01*
X7281229Y-12452650D02*
X7300277Y-12462174D01*
X7300277Y-12462174D02*
X7309801Y-12481222D01*
X7309801Y-12481222D02*
X7309801Y-12585984D01*
X7309801Y-12481222D02*
X7319324Y-12462174D01*
X7319324Y-12462174D02*
X7338372Y-12452650D01*
X7338372Y-12452650D02*
X7366943Y-12452650D01*
X7366943Y-12452650D02*
X7385991Y-12462174D01*
X7385991Y-12462174D02*
X7395515Y-12481222D01*
X7395515Y-12481222D02*
X7395515Y-12585984D01*
X7785991Y-12376460D02*
X7614563Y-12633603D01*
X8043134Y-12385984D02*
X8062182Y-12385984D01*
X8062182Y-12385984D02*
X8081229Y-12395508D01*
X8081229Y-12395508D02*
X8090753Y-12405031D01*
X8090753Y-12405031D02*
X8100277Y-12424079D01*
X8100277Y-12424079D02*
X8109801Y-12462174D01*
X8109801Y-12462174D02*
X8109801Y-12509793D01*
X8109801Y-12509793D02*
X8100277Y-12547888D01*
X8100277Y-12547888D02*
X8090753Y-12566936D01*
X8090753Y-12566936D02*
X8081229Y-12576460D01*
X8081229Y-12576460D02*
X8062182Y-12585984D01*
X8062182Y-12585984D02*
X8043134Y-12585984D01*
X8043134Y-12585984D02*
X8024086Y-12576460D01*
X8024086Y-12576460D02*
X8014563Y-12566936D01*
X8014563Y-12566936D02*
X8005039Y-12547888D01*
X8005039Y-12547888D02*
X7995515Y-12509793D01*
X7995515Y-12509793D02*
X7995515Y-12462174D01*
X7995515Y-12462174D02*
X8005039Y-12424079D01*
X8005039Y-12424079D02*
X8014563Y-12405031D01*
X8014563Y-12405031D02*
X8024086Y-12395508D01*
X8024086Y-12395508D02*
X8043134Y-12385984D01*
X8205039Y-12576460D02*
X8205039Y-12585984D01*
X8205039Y-12585984D02*
X8195515Y-12605031D01*
X8195515Y-12605031D02*
X8185991Y-12614555D01*
X8328848Y-12385984D02*
X8347896Y-12385984D01*
X8347896Y-12385984D02*
X8366944Y-12395508D01*
X8366944Y-12395508D02*
X8376467Y-12405031D01*
X8376467Y-12405031D02*
X8385991Y-12424079D01*
X8385991Y-12424079D02*
X8395515Y-12462174D01*
X8395515Y-12462174D02*
X8395515Y-12509793D01*
X8395515Y-12509793D02*
X8385991Y-12547888D01*
X8385991Y-12547888D02*
X8376467Y-12566936D01*
X8376467Y-12566936D02*
X8366944Y-12576460D01*
X8366944Y-12576460D02*
X8347896Y-12585984D01*
X8347896Y-12585984D02*
X8328848Y-12585984D01*
X8328848Y-12585984D02*
X8309801Y-12576460D01*
X8309801Y-12576460D02*
X8300277Y-12566936D01*
X8300277Y-12566936D02*
X8290753Y-12547888D01*
X8290753Y-12547888D02*
X8281229Y-12509793D01*
X8281229Y-12509793D02*
X8281229Y-12462174D01*
X8281229Y-12462174D02*
X8290753Y-12424079D01*
X8290753Y-12424079D02*
X8300277Y-12405031D01*
X8300277Y-12405031D02*
X8309801Y-12395508D01*
X8309801Y-12395508D02*
X8328848Y-12385984D01*
X8471706Y-12405031D02*
X8481229Y-12395508D01*
X8481229Y-12395508D02*
X8500277Y-12385984D01*
X8500277Y-12385984D02*
X8547896Y-12385984D01*
X8547896Y-12385984D02*
X8566944Y-12395508D01*
X8566944Y-12395508D02*
X8576468Y-12405031D01*
X8576468Y-12405031D02*
X8585991Y-12424079D01*
X8585991Y-12424079D02*
X8585991Y-12443127D01*
X8585991Y-12443127D02*
X8576468Y-12471698D01*
X8576468Y-12471698D02*
X8462182Y-12585984D01*
X8462182Y-12585984D02*
X8585991Y-12585984D01*
X8652658Y-12385984D02*
X8776468Y-12385984D01*
X8776468Y-12385984D02*
X8709801Y-12462174D01*
X8709801Y-12462174D02*
X8738372Y-12462174D01*
X8738372Y-12462174D02*
X8757420Y-12471698D01*
X8757420Y-12471698D02*
X8766944Y-12481222D01*
X8766944Y-12481222D02*
X8776468Y-12500269D01*
X8776468Y-12500269D02*
X8776468Y-12547888D01*
X8776468Y-12547888D02*
X8766944Y-12566936D01*
X8766944Y-12566936D02*
X8757420Y-12576460D01*
X8757420Y-12576460D02*
X8738372Y-12585984D01*
X8738372Y-12585984D02*
X8681229Y-12585984D01*
X8681229Y-12585984D02*
X8662182Y-12576460D01*
X8662182Y-12576460D02*
X8652658Y-12566936D01*
X8947896Y-12385984D02*
X8909801Y-12385984D01*
X8909801Y-12385984D02*
X8890753Y-12395508D01*
X8890753Y-12395508D02*
X8881229Y-12405031D01*
X8881229Y-12405031D02*
X8862182Y-12433603D01*
X8862182Y-12433603D02*
X8852658Y-12471698D01*
X8852658Y-12471698D02*
X8852658Y-12547888D01*
X8852658Y-12547888D02*
X8862182Y-12566936D01*
X8862182Y-12566936D02*
X8871706Y-12576460D01*
X8871706Y-12576460D02*
X8890753Y-12585984D01*
X8890753Y-12585984D02*
X8928849Y-12585984D01*
X8928849Y-12585984D02*
X8947896Y-12576460D01*
X8947896Y-12576460D02*
X8957420Y-12566936D01*
X8957420Y-12566936D02*
X8966944Y-12547888D01*
X8966944Y-12547888D02*
X8966944Y-12500269D01*
X8966944Y-12500269D02*
X8957420Y-12481222D01*
X8957420Y-12481222D02*
X8947896Y-12471698D01*
X8947896Y-12471698D02*
X8928849Y-12462174D01*
X8928849Y-12462174D02*
X8890753Y-12462174D01*
X8890753Y-12462174D02*
X8871706Y-12471698D01*
X8871706Y-12471698D02*
X8862182Y-12481222D01*
X8862182Y-12481222D02*
X8852658Y-12500269D01*
X9043134Y-12385984D02*
X9043134Y-12424079D01*
X9119325Y-12385984D02*
X9119325Y-12424079D01*
X9414563Y-12662174D02*
X9405039Y-12652650D01*
X9405039Y-12652650D02*
X9385991Y-12624079D01*
X9385991Y-12624079D02*
X9376468Y-12605031D01*
X9376468Y-12605031D02*
X9366944Y-12576460D01*
X9366944Y-12576460D02*
X9357420Y-12528841D01*
X9357420Y-12528841D02*
X9357420Y-12490746D01*
X9357420Y-12490746D02*
X9366944Y-12443127D01*
X9366944Y-12443127D02*
X9376468Y-12414555D01*
X9376468Y-12414555D02*
X9385991Y-12395508D01*
X9385991Y-12395508D02*
X9405039Y-12366936D01*
X9405039Y-12366936D02*
X9414563Y-12357412D01*
X9471706Y-12385984D02*
X9605039Y-12385984D01*
X9605039Y-12385984D02*
X9519325Y-12585984D01*
X9671706Y-12405031D02*
X9681230Y-12395508D01*
X9681230Y-12395508D02*
X9700277Y-12385984D01*
X9700277Y-12385984D02*
X9747896Y-12385984D01*
X9747896Y-12385984D02*
X9766944Y-12395508D01*
X9766944Y-12395508D02*
X9776468Y-12405031D01*
X9776468Y-12405031D02*
X9785991Y-12424079D01*
X9785991Y-12424079D02*
X9785991Y-12443127D01*
X9785991Y-12443127D02*
X9776468Y-12471698D01*
X9776468Y-12471698D02*
X9662182Y-12585984D01*
X9662182Y-12585984D02*
X9785991Y-12585984D01*
X10024087Y-12585984D02*
X10024087Y-12385984D01*
X10109801Y-12585984D02*
X10109801Y-12481222D01*
X10109801Y-12481222D02*
X10100277Y-12462174D01*
X10100277Y-12462174D02*
X10081230Y-12452650D01*
X10081230Y-12452650D02*
X10052658Y-12452650D01*
X10052658Y-12452650D02*
X10033611Y-12462174D01*
X10033611Y-12462174D02*
X10024087Y-12471698D01*
X10233611Y-12585984D02*
X10214563Y-12576460D01*
X10214563Y-12576460D02*
X10205039Y-12566936D01*
X10205039Y-12566936D02*
X10195515Y-12547888D01*
X10195515Y-12547888D02*
X10195515Y-12490746D01*
X10195515Y-12490746D02*
X10205039Y-12471698D01*
X10205039Y-12471698D02*
X10214563Y-12462174D01*
X10214563Y-12462174D02*
X10233611Y-12452650D01*
X10233611Y-12452650D02*
X10262182Y-12452650D01*
X10262182Y-12452650D02*
X10281230Y-12462174D01*
X10281230Y-12462174D02*
X10290753Y-12471698D01*
X10290753Y-12471698D02*
X10300277Y-12490746D01*
X10300277Y-12490746D02*
X10300277Y-12547888D01*
X10300277Y-12547888D02*
X10290753Y-12566936D01*
X10290753Y-12566936D02*
X10281230Y-12576460D01*
X10281230Y-12576460D02*
X10262182Y-12585984D01*
X10262182Y-12585984D02*
X10233611Y-12585984D01*
X10414563Y-12585984D02*
X10395515Y-12576460D01*
X10395515Y-12576460D02*
X10385992Y-12557412D01*
X10385992Y-12557412D02*
X10385992Y-12385984D01*
X10566944Y-12576460D02*
X10547896Y-12585984D01*
X10547896Y-12585984D02*
X10509801Y-12585984D01*
X10509801Y-12585984D02*
X10490753Y-12576460D01*
X10490753Y-12576460D02*
X10481230Y-12557412D01*
X10481230Y-12557412D02*
X10481230Y-12481222D01*
X10481230Y-12481222D02*
X10490753Y-12462174D01*
X10490753Y-12462174D02*
X10509801Y-12452650D01*
X10509801Y-12452650D02*
X10547896Y-12452650D01*
X10547896Y-12452650D02*
X10566944Y-12462174D01*
X10566944Y-12462174D02*
X10576468Y-12481222D01*
X10576468Y-12481222D02*
X10576468Y-12500269D01*
X10576468Y-12500269D02*
X10481230Y-12519317D01*
X10652658Y-12576460D02*
X10671706Y-12585984D01*
X10671706Y-12585984D02*
X10709801Y-12585984D01*
X10709801Y-12585984D02*
X10728849Y-12576460D01*
X10728849Y-12576460D02*
X10738373Y-12557412D01*
X10738373Y-12557412D02*
X10738373Y-12547888D01*
X10738373Y-12547888D02*
X10728849Y-12528841D01*
X10728849Y-12528841D02*
X10709801Y-12519317D01*
X10709801Y-12519317D02*
X10681230Y-12519317D01*
X10681230Y-12519317D02*
X10662182Y-12509793D01*
X10662182Y-12509793D02*
X10652658Y-12490746D01*
X10652658Y-12490746D02*
X10652658Y-12481222D01*
X10652658Y-12481222D02*
X10662182Y-12462174D01*
X10662182Y-12462174D02*
X10681230Y-12452650D01*
X10681230Y-12452650D02*
X10709801Y-12452650D01*
X10709801Y-12452650D02*
X10728849Y-12462174D01*
X10805039Y-12662174D02*
X10814563Y-12652650D01*
X10814563Y-12652650D02*
X10833611Y-12624079D01*
X10833611Y-12624079D02*
X10843134Y-12605031D01*
X10843134Y-12605031D02*
X10852658Y-12576460D01*
X10852658Y-12576460D02*
X10862182Y-12528841D01*
X10862182Y-12528841D02*
X10862182Y-12490746D01*
X10862182Y-12490746D02*
X10852658Y-12443127D01*
X10852658Y-12443127D02*
X10843134Y-12414555D01*
X10843134Y-12414555D02*
X10833611Y-12395508D01*
X10833611Y-12395508D02*
X10814563Y-12366936D01*
X10814563Y-12366936D02*
X10805039Y-12357412D01*
D12*
X5789500Y-12808500D02*
X5839500Y-12758500D01*
X5789500Y-12708500D01*
X5739500Y-12758500D01*
X5789500Y-12808500D01*
D11*
X6205039Y-12849984D02*
X6090753Y-12849984D01*
X6147896Y-12849984D02*
X6147896Y-12649984D01*
X6147896Y-12649984D02*
X6128848Y-12678555D01*
X6128848Y-12678555D02*
X6109801Y-12697603D01*
X6109801Y-12697603D02*
X6090753Y-12707127D01*
X6300277Y-12840460D02*
X6300277Y-12849984D01*
X6300277Y-12849984D02*
X6290753Y-12869031D01*
X6290753Y-12869031D02*
X6281229Y-12878555D01*
X6424086Y-12649984D02*
X6443134Y-12649984D01*
X6443134Y-12649984D02*
X6462182Y-12659508D01*
X6462182Y-12659508D02*
X6471705Y-12669031D01*
X6471705Y-12669031D02*
X6481229Y-12688079D01*
X6481229Y-12688079D02*
X6490753Y-12726174D01*
X6490753Y-12726174D02*
X6490753Y-12773793D01*
X6490753Y-12773793D02*
X6481229Y-12811888D01*
X6481229Y-12811888D02*
X6471705Y-12830936D01*
X6471705Y-12830936D02*
X6462182Y-12840460D01*
X6462182Y-12840460D02*
X6443134Y-12849984D01*
X6443134Y-12849984D02*
X6424086Y-12849984D01*
X6424086Y-12849984D02*
X6405039Y-12840460D01*
X6405039Y-12840460D02*
X6395515Y-12830936D01*
X6395515Y-12830936D02*
X6385991Y-12811888D01*
X6385991Y-12811888D02*
X6376467Y-12773793D01*
X6376467Y-12773793D02*
X6376467Y-12726174D01*
X6376467Y-12726174D02*
X6385991Y-12688079D01*
X6385991Y-12688079D02*
X6395515Y-12669031D01*
X6395515Y-12669031D02*
X6405039Y-12659508D01*
X6405039Y-12659508D02*
X6424086Y-12649984D01*
X6614562Y-12649984D02*
X6633610Y-12649984D01*
X6633610Y-12649984D02*
X6652658Y-12659508D01*
X6652658Y-12659508D02*
X6662182Y-12669031D01*
X6662182Y-12669031D02*
X6671705Y-12688079D01*
X6671705Y-12688079D02*
X6681229Y-12726174D01*
X6681229Y-12726174D02*
X6681229Y-12773793D01*
X6681229Y-12773793D02*
X6671705Y-12811888D01*
X6671705Y-12811888D02*
X6662182Y-12830936D01*
X6662182Y-12830936D02*
X6652658Y-12840460D01*
X6652658Y-12840460D02*
X6633610Y-12849984D01*
X6633610Y-12849984D02*
X6614562Y-12849984D01*
X6614562Y-12849984D02*
X6595515Y-12840460D01*
X6595515Y-12840460D02*
X6585991Y-12830936D01*
X6585991Y-12830936D02*
X6576467Y-12811888D01*
X6576467Y-12811888D02*
X6566943Y-12773793D01*
X6566943Y-12773793D02*
X6566943Y-12726174D01*
X6566943Y-12726174D02*
X6576467Y-12688079D01*
X6576467Y-12688079D02*
X6585991Y-12669031D01*
X6585991Y-12669031D02*
X6595515Y-12659508D01*
X6595515Y-12659508D02*
X6614562Y-12649984D01*
X6805039Y-12649984D02*
X6824086Y-12649984D01*
X6824086Y-12649984D02*
X6843134Y-12659508D01*
X6843134Y-12659508D02*
X6852658Y-12669031D01*
X6852658Y-12669031D02*
X6862182Y-12688079D01*
X6862182Y-12688079D02*
X6871705Y-12726174D01*
X6871705Y-12726174D02*
X6871705Y-12773793D01*
X6871705Y-12773793D02*
X6862182Y-12811888D01*
X6862182Y-12811888D02*
X6852658Y-12830936D01*
X6852658Y-12830936D02*
X6843134Y-12840460D01*
X6843134Y-12840460D02*
X6824086Y-12849984D01*
X6824086Y-12849984D02*
X6805039Y-12849984D01*
X6805039Y-12849984D02*
X6785991Y-12840460D01*
X6785991Y-12840460D02*
X6776467Y-12830936D01*
X6776467Y-12830936D02*
X6766943Y-12811888D01*
X6766943Y-12811888D02*
X6757420Y-12773793D01*
X6757420Y-12773793D02*
X6757420Y-12726174D01*
X6757420Y-12726174D02*
X6766943Y-12688079D01*
X6766943Y-12688079D02*
X6776467Y-12669031D01*
X6776467Y-12669031D02*
X6785991Y-12659508D01*
X6785991Y-12659508D02*
X6805039Y-12649984D01*
X6957420Y-12849984D02*
X6957420Y-12716650D01*
X6957420Y-12735698D02*
X6966943Y-12726174D01*
X6966943Y-12726174D02*
X6985991Y-12716650D01*
X6985991Y-12716650D02*
X7014563Y-12716650D01*
X7014563Y-12716650D02*
X7033610Y-12726174D01*
X7033610Y-12726174D02*
X7043134Y-12745222D01*
X7043134Y-12745222D02*
X7043134Y-12849984D01*
X7043134Y-12745222D02*
X7052658Y-12726174D01*
X7052658Y-12726174D02*
X7071705Y-12716650D01*
X7071705Y-12716650D02*
X7100277Y-12716650D01*
X7100277Y-12716650D02*
X7119324Y-12726174D01*
X7119324Y-12726174D02*
X7128848Y-12745222D01*
X7128848Y-12745222D02*
X7128848Y-12849984D01*
X7224086Y-12849984D02*
X7224086Y-12716650D01*
X7224086Y-12735698D02*
X7233610Y-12726174D01*
X7233610Y-12726174D02*
X7252658Y-12716650D01*
X7252658Y-12716650D02*
X7281229Y-12716650D01*
X7281229Y-12716650D02*
X7300277Y-12726174D01*
X7300277Y-12726174D02*
X7309801Y-12745222D01*
X7309801Y-12745222D02*
X7309801Y-12849984D01*
X7309801Y-12745222D02*
X7319324Y-12726174D01*
X7319324Y-12726174D02*
X7338372Y-12716650D01*
X7338372Y-12716650D02*
X7366943Y-12716650D01*
X7366943Y-12716650D02*
X7385991Y-12726174D01*
X7385991Y-12726174D02*
X7395515Y-12745222D01*
X7395515Y-12745222D02*
X7395515Y-12849984D01*
X7785991Y-12640460D02*
X7614563Y-12897603D01*
X8043134Y-12649984D02*
X8062182Y-12649984D01*
X8062182Y-12649984D02*
X8081229Y-12659508D01*
X8081229Y-12659508D02*
X8090753Y-12669031D01*
X8090753Y-12669031D02*
X8100277Y-12688079D01*
X8100277Y-12688079D02*
X8109801Y-12726174D01*
X8109801Y-12726174D02*
X8109801Y-12773793D01*
X8109801Y-12773793D02*
X8100277Y-12811888D01*
X8100277Y-12811888D02*
X8090753Y-12830936D01*
X8090753Y-12830936D02*
X8081229Y-12840460D01*
X8081229Y-12840460D02*
X8062182Y-12849984D01*
X8062182Y-12849984D02*
X8043134Y-12849984D01*
X8043134Y-12849984D02*
X8024086Y-12840460D01*
X8024086Y-12840460D02*
X8014563Y-12830936D01*
X8014563Y-12830936D02*
X8005039Y-12811888D01*
X8005039Y-12811888D02*
X7995515Y-12773793D01*
X7995515Y-12773793D02*
X7995515Y-12726174D01*
X7995515Y-12726174D02*
X8005039Y-12688079D01*
X8005039Y-12688079D02*
X8014563Y-12669031D01*
X8014563Y-12669031D02*
X8024086Y-12659508D01*
X8024086Y-12659508D02*
X8043134Y-12649984D01*
X8205039Y-12840460D02*
X8205039Y-12849984D01*
X8205039Y-12849984D02*
X8195515Y-12869031D01*
X8195515Y-12869031D02*
X8185991Y-12878555D01*
X8328848Y-12649984D02*
X8347896Y-12649984D01*
X8347896Y-12649984D02*
X8366944Y-12659508D01*
X8366944Y-12659508D02*
X8376467Y-12669031D01*
X8376467Y-12669031D02*
X8385991Y-12688079D01*
X8385991Y-12688079D02*
X8395515Y-12726174D01*
X8395515Y-12726174D02*
X8395515Y-12773793D01*
X8395515Y-12773793D02*
X8385991Y-12811888D01*
X8385991Y-12811888D02*
X8376467Y-12830936D01*
X8376467Y-12830936D02*
X8366944Y-12840460D01*
X8366944Y-12840460D02*
X8347896Y-12849984D01*
X8347896Y-12849984D02*
X8328848Y-12849984D01*
X8328848Y-12849984D02*
X8309801Y-12840460D01*
X8309801Y-12840460D02*
X8300277Y-12830936D01*
X8300277Y-12830936D02*
X8290753Y-12811888D01*
X8290753Y-12811888D02*
X8281229Y-12773793D01*
X8281229Y-12773793D02*
X8281229Y-12726174D01*
X8281229Y-12726174D02*
X8290753Y-12688079D01*
X8290753Y-12688079D02*
X8300277Y-12669031D01*
X8300277Y-12669031D02*
X8309801Y-12659508D01*
X8309801Y-12659508D02*
X8328848Y-12649984D01*
X8462182Y-12649984D02*
X8585991Y-12649984D01*
X8585991Y-12649984D02*
X8519325Y-12726174D01*
X8519325Y-12726174D02*
X8547896Y-12726174D01*
X8547896Y-12726174D02*
X8566944Y-12735698D01*
X8566944Y-12735698D02*
X8576468Y-12745222D01*
X8576468Y-12745222D02*
X8585991Y-12764269D01*
X8585991Y-12764269D02*
X8585991Y-12811888D01*
X8585991Y-12811888D02*
X8576468Y-12830936D01*
X8576468Y-12830936D02*
X8566944Y-12840460D01*
X8566944Y-12840460D02*
X8547896Y-12849984D01*
X8547896Y-12849984D02*
X8490753Y-12849984D01*
X8490753Y-12849984D02*
X8471706Y-12840460D01*
X8471706Y-12840460D02*
X8462182Y-12830936D01*
X8681229Y-12849984D02*
X8719325Y-12849984D01*
X8719325Y-12849984D02*
X8738372Y-12840460D01*
X8738372Y-12840460D02*
X8747896Y-12830936D01*
X8747896Y-12830936D02*
X8766944Y-12802365D01*
X8766944Y-12802365D02*
X8776468Y-12764269D01*
X8776468Y-12764269D02*
X8776468Y-12688079D01*
X8776468Y-12688079D02*
X8766944Y-12669031D01*
X8766944Y-12669031D02*
X8757420Y-12659508D01*
X8757420Y-12659508D02*
X8738372Y-12649984D01*
X8738372Y-12649984D02*
X8700277Y-12649984D01*
X8700277Y-12649984D02*
X8681229Y-12659508D01*
X8681229Y-12659508D02*
X8671706Y-12669031D01*
X8671706Y-12669031D02*
X8662182Y-12688079D01*
X8662182Y-12688079D02*
X8662182Y-12735698D01*
X8662182Y-12735698D02*
X8671706Y-12754746D01*
X8671706Y-12754746D02*
X8681229Y-12764269D01*
X8681229Y-12764269D02*
X8700277Y-12773793D01*
X8700277Y-12773793D02*
X8738372Y-12773793D01*
X8738372Y-12773793D02*
X8757420Y-12764269D01*
X8757420Y-12764269D02*
X8766944Y-12754746D01*
X8766944Y-12754746D02*
X8776468Y-12735698D01*
X8947896Y-12716650D02*
X8947896Y-12849984D01*
X8900277Y-12640460D02*
X8852658Y-12783317D01*
X8852658Y-12783317D02*
X8976468Y-12783317D01*
X9043134Y-12649984D02*
X9043134Y-12688079D01*
X9119325Y-12649984D02*
X9119325Y-12688079D01*
X9414563Y-12926174D02*
X9405039Y-12916650D01*
X9405039Y-12916650D02*
X9385991Y-12888079D01*
X9385991Y-12888079D02*
X9376468Y-12869031D01*
X9376468Y-12869031D02*
X9366944Y-12840460D01*
X9366944Y-12840460D02*
X9357420Y-12792841D01*
X9357420Y-12792841D02*
X9357420Y-12754746D01*
X9357420Y-12754746D02*
X9366944Y-12707127D01*
X9366944Y-12707127D02*
X9376468Y-12678555D01*
X9376468Y-12678555D02*
X9385991Y-12659508D01*
X9385991Y-12659508D02*
X9405039Y-12630936D01*
X9405039Y-12630936D02*
X9414563Y-12621412D01*
X9481230Y-12669031D02*
X9490753Y-12659508D01*
X9490753Y-12659508D02*
X9509801Y-12649984D01*
X9509801Y-12649984D02*
X9557420Y-12649984D01*
X9557420Y-12649984D02*
X9576468Y-12659508D01*
X9576468Y-12659508D02*
X9585991Y-12669031D01*
X9585991Y-12669031D02*
X9595515Y-12688079D01*
X9595515Y-12688079D02*
X9595515Y-12707127D01*
X9595515Y-12707127D02*
X9585991Y-12735698D01*
X9585991Y-12735698D02*
X9471706Y-12849984D01*
X9471706Y-12849984D02*
X9595515Y-12849984D01*
X9662182Y-12649984D02*
X9795515Y-12649984D01*
X9795515Y-12649984D02*
X9709801Y-12849984D01*
X10024087Y-12849984D02*
X10024087Y-12649984D01*
X10109801Y-12849984D02*
X10109801Y-12745222D01*
X10109801Y-12745222D02*
X10100277Y-12726174D01*
X10100277Y-12726174D02*
X10081230Y-12716650D01*
X10081230Y-12716650D02*
X10052658Y-12716650D01*
X10052658Y-12716650D02*
X10033611Y-12726174D01*
X10033611Y-12726174D02*
X10024087Y-12735698D01*
X10233611Y-12849984D02*
X10214563Y-12840460D01*
X10214563Y-12840460D02*
X10205039Y-12830936D01*
X10205039Y-12830936D02*
X10195515Y-12811888D01*
X10195515Y-12811888D02*
X10195515Y-12754746D01*
X10195515Y-12754746D02*
X10205039Y-12735698D01*
X10205039Y-12735698D02*
X10214563Y-12726174D01*
X10214563Y-12726174D02*
X10233611Y-12716650D01*
X10233611Y-12716650D02*
X10262182Y-12716650D01*
X10262182Y-12716650D02*
X10281230Y-12726174D01*
X10281230Y-12726174D02*
X10290753Y-12735698D01*
X10290753Y-12735698D02*
X10300277Y-12754746D01*
X10300277Y-12754746D02*
X10300277Y-12811888D01*
X10300277Y-12811888D02*
X10290753Y-12830936D01*
X10290753Y-12830936D02*
X10281230Y-12840460D01*
X10281230Y-12840460D02*
X10262182Y-12849984D01*
X10262182Y-12849984D02*
X10233611Y-12849984D01*
X10414563Y-12849984D02*
X10395515Y-12840460D01*
X10395515Y-12840460D02*
X10385992Y-12821412D01*
X10385992Y-12821412D02*
X10385992Y-12649984D01*
X10566944Y-12840460D02*
X10547896Y-12849984D01*
X10547896Y-12849984D02*
X10509801Y-12849984D01*
X10509801Y-12849984D02*
X10490753Y-12840460D01*
X10490753Y-12840460D02*
X10481230Y-12821412D01*
X10481230Y-12821412D02*
X10481230Y-12745222D01*
X10481230Y-12745222D02*
X10490753Y-12726174D01*
X10490753Y-12726174D02*
X10509801Y-12716650D01*
X10509801Y-12716650D02*
X10547896Y-12716650D01*
X10547896Y-12716650D02*
X10566944Y-12726174D01*
X10566944Y-12726174D02*
X10576468Y-12745222D01*
X10576468Y-12745222D02*
X10576468Y-12764269D01*
X10576468Y-12764269D02*
X10481230Y-12783317D01*
X10652658Y-12840460D02*
X10671706Y-12849984D01*
X10671706Y-12849984D02*
X10709801Y-12849984D01*
X10709801Y-12849984D02*
X10728849Y-12840460D01*
X10728849Y-12840460D02*
X10738373Y-12821412D01*
X10738373Y-12821412D02*
X10738373Y-12811888D01*
X10738373Y-12811888D02*
X10728849Y-12792841D01*
X10728849Y-12792841D02*
X10709801Y-12783317D01*
X10709801Y-12783317D02*
X10681230Y-12783317D01*
X10681230Y-12783317D02*
X10662182Y-12773793D01*
X10662182Y-12773793D02*
X10652658Y-12754746D01*
X10652658Y-12754746D02*
X10652658Y-12745222D01*
X10652658Y-12745222D02*
X10662182Y-12726174D01*
X10662182Y-12726174D02*
X10681230Y-12716650D01*
X10681230Y-12716650D02*
X10709801Y-12716650D01*
X10709801Y-12716650D02*
X10728849Y-12726174D01*
X10805039Y-12926174D02*
X10814563Y-12916650D01*
X10814563Y-12916650D02*
X10833611Y-12888079D01*
X10833611Y-12888079D02*
X10843134Y-12869031D01*
X10843134Y-12869031D02*
X10852658Y-12840460D01*
X10852658Y-12840460D02*
X10862182Y-12792841D01*
X10862182Y-12792841D02*
X10862182Y-12754746D01*
X10862182Y-12754746D02*
X10852658Y-12707127D01*
X10852658Y-12707127D02*
X10843134Y-12678555D01*
X10843134Y-12678555D02*
X10833611Y-12659508D01*
X10833611Y-12659508D02*
X10814563Y-12630936D01*
X10814563Y-12630936D02*
X10805039Y-12621412D01*
X5639500Y-12922500D02*
X5839500Y-13122500D01*
X5839500Y-12922500D02*
X5639500Y-13122500D01*
X5839500Y-13022500D02*
G75*
G02*
X5639500Y-13022500I-100000J0D01*
G01*
X5639500Y-13022500D02*
G75*
G02*
X5839500Y-13022500I100000J0D01*
G01*
X6090753Y-12933031D02*
X6100277Y-12923508D01*
X6100277Y-12923508D02*
X6119324Y-12913984D01*
X6119324Y-12913984D02*
X6166943Y-12913984D01*
X6166943Y-12913984D02*
X6185991Y-12923508D01*
X6185991Y-12923508D02*
X6195515Y-12933031D01*
X6195515Y-12933031D02*
X6205039Y-12952079D01*
X6205039Y-12952079D02*
X6205039Y-12971127D01*
X6205039Y-12971127D02*
X6195515Y-12999698D01*
X6195515Y-12999698D02*
X6081229Y-13113984D01*
X6081229Y-13113984D02*
X6205039Y-13113984D01*
X6300277Y-13104460D02*
X6300277Y-13113984D01*
X6300277Y-13113984D02*
X6290753Y-13133031D01*
X6290753Y-13133031D02*
X6281229Y-13142555D01*
X6424086Y-12913984D02*
X6443134Y-12913984D01*
X6443134Y-12913984D02*
X6462182Y-12923508D01*
X6462182Y-12923508D02*
X6471705Y-12933031D01*
X6471705Y-12933031D02*
X6481229Y-12952079D01*
X6481229Y-12952079D02*
X6490753Y-12990174D01*
X6490753Y-12990174D02*
X6490753Y-13037793D01*
X6490753Y-13037793D02*
X6481229Y-13075888D01*
X6481229Y-13075888D02*
X6471705Y-13094936D01*
X6471705Y-13094936D02*
X6462182Y-13104460D01*
X6462182Y-13104460D02*
X6443134Y-13113984D01*
X6443134Y-13113984D02*
X6424086Y-13113984D01*
X6424086Y-13113984D02*
X6405039Y-13104460D01*
X6405039Y-13104460D02*
X6395515Y-13094936D01*
X6395515Y-13094936D02*
X6385991Y-13075888D01*
X6385991Y-13075888D02*
X6376467Y-13037793D01*
X6376467Y-13037793D02*
X6376467Y-12990174D01*
X6376467Y-12990174D02*
X6385991Y-12952079D01*
X6385991Y-12952079D02*
X6395515Y-12933031D01*
X6395515Y-12933031D02*
X6405039Y-12923508D01*
X6405039Y-12923508D02*
X6424086Y-12913984D01*
X6614562Y-12913984D02*
X6633610Y-12913984D01*
X6633610Y-12913984D02*
X6652658Y-12923508D01*
X6652658Y-12923508D02*
X6662182Y-12933031D01*
X6662182Y-12933031D02*
X6671705Y-12952079D01*
X6671705Y-12952079D02*
X6681229Y-12990174D01*
X6681229Y-12990174D02*
X6681229Y-13037793D01*
X6681229Y-13037793D02*
X6671705Y-13075888D01*
X6671705Y-13075888D02*
X6662182Y-13094936D01*
X6662182Y-13094936D02*
X6652658Y-13104460D01*
X6652658Y-13104460D02*
X6633610Y-13113984D01*
X6633610Y-13113984D02*
X6614562Y-13113984D01*
X6614562Y-13113984D02*
X6595515Y-13104460D01*
X6595515Y-13104460D02*
X6585991Y-13094936D01*
X6585991Y-13094936D02*
X6576467Y-13075888D01*
X6576467Y-13075888D02*
X6566943Y-13037793D01*
X6566943Y-13037793D02*
X6566943Y-12990174D01*
X6566943Y-12990174D02*
X6576467Y-12952079D01*
X6576467Y-12952079D02*
X6585991Y-12933031D01*
X6585991Y-12933031D02*
X6595515Y-12923508D01*
X6595515Y-12923508D02*
X6614562Y-12913984D01*
X6805039Y-12913984D02*
X6824086Y-12913984D01*
X6824086Y-12913984D02*
X6843134Y-12923508D01*
X6843134Y-12923508D02*
X6852658Y-12933031D01*
X6852658Y-12933031D02*
X6862182Y-12952079D01*
X6862182Y-12952079D02*
X6871705Y-12990174D01*
X6871705Y-12990174D02*
X6871705Y-13037793D01*
X6871705Y-13037793D02*
X6862182Y-13075888D01*
X6862182Y-13075888D02*
X6852658Y-13094936D01*
X6852658Y-13094936D02*
X6843134Y-13104460D01*
X6843134Y-13104460D02*
X6824086Y-13113984D01*
X6824086Y-13113984D02*
X6805039Y-13113984D01*
X6805039Y-13113984D02*
X6785991Y-13104460D01*
X6785991Y-13104460D02*
X6776467Y-13094936D01*
X6776467Y-13094936D02*
X6766943Y-13075888D01*
X6766943Y-13075888D02*
X6757420Y-13037793D01*
X6757420Y-13037793D02*
X6757420Y-12990174D01*
X6757420Y-12990174D02*
X6766943Y-12952079D01*
X6766943Y-12952079D02*
X6776467Y-12933031D01*
X6776467Y-12933031D02*
X6785991Y-12923508D01*
X6785991Y-12923508D02*
X6805039Y-12913984D01*
X6957420Y-13113984D02*
X6957420Y-12980650D01*
X6957420Y-12999698D02*
X6966943Y-12990174D01*
X6966943Y-12990174D02*
X6985991Y-12980650D01*
X6985991Y-12980650D02*
X7014563Y-12980650D01*
X7014563Y-12980650D02*
X7033610Y-12990174D01*
X7033610Y-12990174D02*
X7043134Y-13009222D01*
X7043134Y-13009222D02*
X7043134Y-13113984D01*
X7043134Y-13009222D02*
X7052658Y-12990174D01*
X7052658Y-12990174D02*
X7071705Y-12980650D01*
X7071705Y-12980650D02*
X7100277Y-12980650D01*
X7100277Y-12980650D02*
X7119324Y-12990174D01*
X7119324Y-12990174D02*
X7128848Y-13009222D01*
X7128848Y-13009222D02*
X7128848Y-13113984D01*
X7224086Y-13113984D02*
X7224086Y-12980650D01*
X7224086Y-12999698D02*
X7233610Y-12990174D01*
X7233610Y-12990174D02*
X7252658Y-12980650D01*
X7252658Y-12980650D02*
X7281229Y-12980650D01*
X7281229Y-12980650D02*
X7300277Y-12990174D01*
X7300277Y-12990174D02*
X7309801Y-13009222D01*
X7309801Y-13009222D02*
X7309801Y-13113984D01*
X7309801Y-13009222D02*
X7319324Y-12990174D01*
X7319324Y-12990174D02*
X7338372Y-12980650D01*
X7338372Y-12980650D02*
X7366943Y-12980650D01*
X7366943Y-12980650D02*
X7385991Y-12990174D01*
X7385991Y-12990174D02*
X7395515Y-13009222D01*
X7395515Y-13009222D02*
X7395515Y-13113984D01*
X7785991Y-12904460D02*
X7614563Y-13161603D01*
X8043134Y-12913984D02*
X8062182Y-12913984D01*
X8062182Y-12913984D02*
X8081229Y-12923508D01*
X8081229Y-12923508D02*
X8090753Y-12933031D01*
X8090753Y-12933031D02*
X8100277Y-12952079D01*
X8100277Y-12952079D02*
X8109801Y-12990174D01*
X8109801Y-12990174D02*
X8109801Y-13037793D01*
X8109801Y-13037793D02*
X8100277Y-13075888D01*
X8100277Y-13075888D02*
X8090753Y-13094936D01*
X8090753Y-13094936D02*
X8081229Y-13104460D01*
X8081229Y-13104460D02*
X8062182Y-13113984D01*
X8062182Y-13113984D02*
X8043134Y-13113984D01*
X8043134Y-13113984D02*
X8024086Y-13104460D01*
X8024086Y-13104460D02*
X8014563Y-13094936D01*
X8014563Y-13094936D02*
X8005039Y-13075888D01*
X8005039Y-13075888D02*
X7995515Y-13037793D01*
X7995515Y-13037793D02*
X7995515Y-12990174D01*
X7995515Y-12990174D02*
X8005039Y-12952079D01*
X8005039Y-12952079D02*
X8014563Y-12933031D01*
X8014563Y-12933031D02*
X8024086Y-12923508D01*
X8024086Y-12923508D02*
X8043134Y-12913984D01*
X8205039Y-13104460D02*
X8205039Y-13113984D01*
X8205039Y-13113984D02*
X8195515Y-13133031D01*
X8195515Y-13133031D02*
X8185991Y-13142555D01*
X8328848Y-12913984D02*
X8347896Y-12913984D01*
X8347896Y-12913984D02*
X8366944Y-12923508D01*
X8366944Y-12923508D02*
X8376467Y-12933031D01*
X8376467Y-12933031D02*
X8385991Y-12952079D01*
X8385991Y-12952079D02*
X8395515Y-12990174D01*
X8395515Y-12990174D02*
X8395515Y-13037793D01*
X8395515Y-13037793D02*
X8385991Y-13075888D01*
X8385991Y-13075888D02*
X8376467Y-13094936D01*
X8376467Y-13094936D02*
X8366944Y-13104460D01*
X8366944Y-13104460D02*
X8347896Y-13113984D01*
X8347896Y-13113984D02*
X8328848Y-13113984D01*
X8328848Y-13113984D02*
X8309801Y-13104460D01*
X8309801Y-13104460D02*
X8300277Y-13094936D01*
X8300277Y-13094936D02*
X8290753Y-13075888D01*
X8290753Y-13075888D02*
X8281229Y-13037793D01*
X8281229Y-13037793D02*
X8281229Y-12990174D01*
X8281229Y-12990174D02*
X8290753Y-12952079D01*
X8290753Y-12952079D02*
X8300277Y-12933031D01*
X8300277Y-12933031D02*
X8309801Y-12923508D01*
X8309801Y-12923508D02*
X8328848Y-12913984D01*
X8462182Y-12913984D02*
X8595515Y-12913984D01*
X8595515Y-12913984D02*
X8509801Y-13113984D01*
X8700277Y-12999698D02*
X8681229Y-12990174D01*
X8681229Y-12990174D02*
X8671706Y-12980650D01*
X8671706Y-12980650D02*
X8662182Y-12961603D01*
X8662182Y-12961603D02*
X8662182Y-12952079D01*
X8662182Y-12952079D02*
X8671706Y-12933031D01*
X8671706Y-12933031D02*
X8681229Y-12923508D01*
X8681229Y-12923508D02*
X8700277Y-12913984D01*
X8700277Y-12913984D02*
X8738372Y-12913984D01*
X8738372Y-12913984D02*
X8757420Y-12923508D01*
X8757420Y-12923508D02*
X8766944Y-12933031D01*
X8766944Y-12933031D02*
X8776468Y-12952079D01*
X8776468Y-12952079D02*
X8776468Y-12961603D01*
X8776468Y-12961603D02*
X8766944Y-12980650D01*
X8766944Y-12980650D02*
X8757420Y-12990174D01*
X8757420Y-12990174D02*
X8738372Y-12999698D01*
X8738372Y-12999698D02*
X8700277Y-12999698D01*
X8700277Y-12999698D02*
X8681229Y-13009222D01*
X8681229Y-13009222D02*
X8671706Y-13018746D01*
X8671706Y-13018746D02*
X8662182Y-13037793D01*
X8662182Y-13037793D02*
X8662182Y-13075888D01*
X8662182Y-13075888D02*
X8671706Y-13094936D01*
X8671706Y-13094936D02*
X8681229Y-13104460D01*
X8681229Y-13104460D02*
X8700277Y-13113984D01*
X8700277Y-13113984D02*
X8738372Y-13113984D01*
X8738372Y-13113984D02*
X8757420Y-13104460D01*
X8757420Y-13104460D02*
X8766944Y-13094936D01*
X8766944Y-13094936D02*
X8776468Y-13075888D01*
X8776468Y-13075888D02*
X8776468Y-13037793D01*
X8776468Y-13037793D02*
X8766944Y-13018746D01*
X8766944Y-13018746D02*
X8757420Y-13009222D01*
X8757420Y-13009222D02*
X8738372Y-12999698D01*
X8843134Y-12913984D02*
X8976468Y-12913984D01*
X8976468Y-12913984D02*
X8890753Y-13113984D01*
X9043134Y-12913984D02*
X9043134Y-12952079D01*
X9119325Y-12913984D02*
X9119325Y-12952079D01*
X9414563Y-13190174D02*
X9405039Y-13180650D01*
X9405039Y-13180650D02*
X9385991Y-13152079D01*
X9385991Y-13152079D02*
X9376468Y-13133031D01*
X9376468Y-13133031D02*
X9366944Y-13104460D01*
X9366944Y-13104460D02*
X9357420Y-13056841D01*
X9357420Y-13056841D02*
X9357420Y-13018746D01*
X9357420Y-13018746D02*
X9366944Y-12971127D01*
X9366944Y-12971127D02*
X9376468Y-12942555D01*
X9376468Y-12942555D02*
X9385991Y-12923508D01*
X9385991Y-12923508D02*
X9405039Y-12894936D01*
X9405039Y-12894936D02*
X9414563Y-12885412D01*
X9528849Y-12913984D02*
X9547896Y-12913984D01*
X9547896Y-12913984D02*
X9566944Y-12923508D01*
X9566944Y-12923508D02*
X9576468Y-12933031D01*
X9576468Y-12933031D02*
X9585991Y-12952079D01*
X9585991Y-12952079D02*
X9595515Y-12990174D01*
X9595515Y-12990174D02*
X9595515Y-13037793D01*
X9595515Y-13037793D02*
X9585991Y-13075888D01*
X9585991Y-13075888D02*
X9576468Y-13094936D01*
X9576468Y-13094936D02*
X9566944Y-13104460D01*
X9566944Y-13104460D02*
X9547896Y-13113984D01*
X9547896Y-13113984D02*
X9528849Y-13113984D01*
X9528849Y-13113984D02*
X9509801Y-13104460D01*
X9509801Y-13104460D02*
X9500277Y-13094936D01*
X9500277Y-13094936D02*
X9490753Y-13075888D01*
X9490753Y-13075888D02*
X9481230Y-13037793D01*
X9481230Y-13037793D02*
X9481230Y-12990174D01*
X9481230Y-12990174D02*
X9490753Y-12952079D01*
X9490753Y-12952079D02*
X9500277Y-12933031D01*
X9500277Y-12933031D02*
X9509801Y-12923508D01*
X9509801Y-12923508D02*
X9528849Y-12913984D01*
X9833611Y-13113984D02*
X9833611Y-12913984D01*
X9919325Y-13113984D02*
X9919325Y-13009222D01*
X9919325Y-13009222D02*
X9909801Y-12990174D01*
X9909801Y-12990174D02*
X9890753Y-12980650D01*
X9890753Y-12980650D02*
X9862182Y-12980650D01*
X9862182Y-12980650D02*
X9843134Y-12990174D01*
X9843134Y-12990174D02*
X9833611Y-12999698D01*
X10043134Y-13113984D02*
X10024087Y-13104460D01*
X10024087Y-13104460D02*
X10014563Y-13094936D01*
X10014563Y-13094936D02*
X10005039Y-13075888D01*
X10005039Y-13075888D02*
X10005039Y-13018746D01*
X10005039Y-13018746D02*
X10014563Y-12999698D01*
X10014563Y-12999698D02*
X10024087Y-12990174D01*
X10024087Y-12990174D02*
X10043134Y-12980650D01*
X10043134Y-12980650D02*
X10071706Y-12980650D01*
X10071706Y-12980650D02*
X10090753Y-12990174D01*
X10090753Y-12990174D02*
X10100277Y-12999698D01*
X10100277Y-12999698D02*
X10109801Y-13018746D01*
X10109801Y-13018746D02*
X10109801Y-13075888D01*
X10109801Y-13075888D02*
X10100277Y-13094936D01*
X10100277Y-13094936D02*
X10090753Y-13104460D01*
X10090753Y-13104460D02*
X10071706Y-13113984D01*
X10071706Y-13113984D02*
X10043134Y-13113984D01*
X10224087Y-13113984D02*
X10205039Y-13104460D01*
X10205039Y-13104460D02*
X10195515Y-13085412D01*
X10195515Y-13085412D02*
X10195515Y-12913984D01*
X10376468Y-13104460D02*
X10357420Y-13113984D01*
X10357420Y-13113984D02*
X10319325Y-13113984D01*
X10319325Y-13113984D02*
X10300277Y-13104460D01*
X10300277Y-13104460D02*
X10290753Y-13085412D01*
X10290753Y-13085412D02*
X10290753Y-13009222D01*
X10290753Y-13009222D02*
X10300277Y-12990174D01*
X10300277Y-12990174D02*
X10319325Y-12980650D01*
X10319325Y-12980650D02*
X10357420Y-12980650D01*
X10357420Y-12980650D02*
X10376468Y-12990174D01*
X10376468Y-12990174D02*
X10385992Y-13009222D01*
X10385992Y-13009222D02*
X10385992Y-13028269D01*
X10385992Y-13028269D02*
X10290753Y-13047317D01*
X10462182Y-13104460D02*
X10481230Y-13113984D01*
X10481230Y-13113984D02*
X10519325Y-13113984D01*
X10519325Y-13113984D02*
X10538373Y-13104460D01*
X10538373Y-13104460D02*
X10547896Y-13085412D01*
X10547896Y-13085412D02*
X10547896Y-13075888D01*
X10547896Y-13075888D02*
X10538373Y-13056841D01*
X10538373Y-13056841D02*
X10519325Y-13047317D01*
X10519325Y-13047317D02*
X10490753Y-13047317D01*
X10490753Y-13047317D02*
X10471706Y-13037793D01*
X10471706Y-13037793D02*
X10462182Y-13018746D01*
X10462182Y-13018746D02*
X10462182Y-13009222D01*
X10462182Y-13009222D02*
X10471706Y-12990174D01*
X10471706Y-12990174D02*
X10490753Y-12980650D01*
X10490753Y-12980650D02*
X10519325Y-12980650D01*
X10519325Y-12980650D02*
X10538373Y-12990174D01*
X10785992Y-13037793D02*
X10938373Y-13037793D01*
X10862182Y-13113984D02*
X10862182Y-12961603D01*
X11176468Y-12933031D02*
X11185992Y-12923508D01*
X11185992Y-12923508D02*
X11205039Y-12913984D01*
X11205039Y-12913984D02*
X11252658Y-12913984D01*
X11252658Y-12913984D02*
X11271706Y-12923508D01*
X11271706Y-12923508D02*
X11281230Y-12933031D01*
X11281230Y-12933031D02*
X11290753Y-12952079D01*
X11290753Y-12952079D02*
X11290753Y-12971127D01*
X11290753Y-12971127D02*
X11281230Y-12999698D01*
X11281230Y-12999698D02*
X11166944Y-13113984D01*
X11166944Y-13113984D02*
X11290753Y-13113984D01*
X11519325Y-13104460D02*
X11538373Y-13113984D01*
X11538373Y-13113984D02*
X11576468Y-13113984D01*
X11576468Y-13113984D02*
X11595515Y-13104460D01*
X11595515Y-13104460D02*
X11605039Y-13085412D01*
X11605039Y-13085412D02*
X11605039Y-13075888D01*
X11605039Y-13075888D02*
X11595515Y-13056841D01*
X11595515Y-13056841D02*
X11576468Y-13047317D01*
X11576468Y-13047317D02*
X11547896Y-13047317D01*
X11547896Y-13047317D02*
X11528849Y-13037793D01*
X11528849Y-13037793D02*
X11519325Y-13018746D01*
X11519325Y-13018746D02*
X11519325Y-13009222D01*
X11519325Y-13009222D02*
X11528849Y-12990174D01*
X11528849Y-12990174D02*
X11547896Y-12980650D01*
X11547896Y-12980650D02*
X11576468Y-12980650D01*
X11576468Y-12980650D02*
X11595515Y-12990174D01*
X11719325Y-13113984D02*
X11700277Y-13104460D01*
X11700277Y-13104460D02*
X11690754Y-13085412D01*
X11690754Y-13085412D02*
X11690754Y-12913984D01*
X11824087Y-13113984D02*
X11805039Y-13104460D01*
X11805039Y-13104460D02*
X11795515Y-13094936D01*
X11795515Y-13094936D02*
X11785992Y-13075888D01*
X11785992Y-13075888D02*
X11785992Y-13018746D01*
X11785992Y-13018746D02*
X11795515Y-12999698D01*
X11795515Y-12999698D02*
X11805039Y-12990174D01*
X11805039Y-12990174D02*
X11824087Y-12980650D01*
X11824087Y-12980650D02*
X11852658Y-12980650D01*
X11852658Y-12980650D02*
X11871706Y-12990174D01*
X11871706Y-12990174D02*
X11881230Y-12999698D01*
X11881230Y-12999698D02*
X11890754Y-13018746D01*
X11890754Y-13018746D02*
X11890754Y-13075888D01*
X11890754Y-13075888D02*
X11881230Y-13094936D01*
X11881230Y-13094936D02*
X11871706Y-13104460D01*
X11871706Y-13104460D02*
X11852658Y-13113984D01*
X11852658Y-13113984D02*
X11824087Y-13113984D01*
X11947896Y-12980650D02*
X12024087Y-12980650D01*
X11976468Y-12913984D02*
X11976468Y-13085412D01*
X11976468Y-13085412D02*
X11985992Y-13104460D01*
X11985992Y-13104460D02*
X12005039Y-13113984D01*
X12005039Y-13113984D02*
X12024087Y-13113984D01*
X12081230Y-13104460D02*
X12100277Y-13113984D01*
X12100277Y-13113984D02*
X12138373Y-13113984D01*
X12138373Y-13113984D02*
X12157420Y-13104460D01*
X12157420Y-13104460D02*
X12166944Y-13085412D01*
X12166944Y-13085412D02*
X12166944Y-13075888D01*
X12166944Y-13075888D02*
X12157420Y-13056841D01*
X12157420Y-13056841D02*
X12138373Y-13047317D01*
X12138373Y-13047317D02*
X12109801Y-13047317D01*
X12109801Y-13047317D02*
X12090754Y-13037793D01*
X12090754Y-13037793D02*
X12081230Y-13018746D01*
X12081230Y-13018746D02*
X12081230Y-13009222D01*
X12081230Y-13009222D02*
X12090754Y-12990174D01*
X12090754Y-12990174D02*
X12109801Y-12980650D01*
X12109801Y-12980650D02*
X12138373Y-12980650D01*
X12138373Y-12980650D02*
X12157420Y-12990174D01*
X12233611Y-13190174D02*
X12243135Y-13180650D01*
X12243135Y-13180650D02*
X12262182Y-13152079D01*
X12262182Y-13152079D02*
X12271706Y-13133031D01*
X12271706Y-13133031D02*
X12281230Y-13104460D01*
X12281230Y-13104460D02*
X12290754Y-13056841D01*
X12290754Y-13056841D02*
X12290754Y-13018746D01*
X12290754Y-13018746D02*
X12281230Y-12971127D01*
X12281230Y-12971127D02*
X12271706Y-12942555D01*
X12271706Y-12942555D02*
X12262182Y-12923508D01*
X12262182Y-12923508D02*
X12243135Y-12894936D01*
X12243135Y-12894936D02*
X12233611Y-12885412D01*
X5639500Y-13242500D02*
X5839500Y-13442500D01*
X5839500Y-13242500D02*
X5639500Y-13442500D01*
X5739500Y-13242500D02*
X5739500Y-13442500D01*
X5639500Y-13342500D02*
X5839500Y-13342500D01*
X6090753Y-13253031D02*
X6100277Y-13243508D01*
X6100277Y-13243508D02*
X6119324Y-13233984D01*
X6119324Y-13233984D02*
X6166943Y-13233984D01*
X6166943Y-13233984D02*
X6185991Y-13243508D01*
X6185991Y-13243508D02*
X6195515Y-13253031D01*
X6195515Y-13253031D02*
X6205039Y-13272079D01*
X6205039Y-13272079D02*
X6205039Y-13291127D01*
X6205039Y-13291127D02*
X6195515Y-13319698D01*
X6195515Y-13319698D02*
X6081229Y-13433984D01*
X6081229Y-13433984D02*
X6205039Y-13433984D01*
X6300277Y-13424460D02*
X6300277Y-13433984D01*
X6300277Y-13433984D02*
X6290753Y-13453031D01*
X6290753Y-13453031D02*
X6281229Y-13462555D01*
X6366943Y-13233984D02*
X6500277Y-13233984D01*
X6500277Y-13233984D02*
X6414562Y-13433984D01*
X6614562Y-13233984D02*
X6633610Y-13233984D01*
X6633610Y-13233984D02*
X6652658Y-13243508D01*
X6652658Y-13243508D02*
X6662182Y-13253031D01*
X6662182Y-13253031D02*
X6671705Y-13272079D01*
X6671705Y-13272079D02*
X6681229Y-13310174D01*
X6681229Y-13310174D02*
X6681229Y-13357793D01*
X6681229Y-13357793D02*
X6671705Y-13395888D01*
X6671705Y-13395888D02*
X6662182Y-13414936D01*
X6662182Y-13414936D02*
X6652658Y-13424460D01*
X6652658Y-13424460D02*
X6633610Y-13433984D01*
X6633610Y-13433984D02*
X6614562Y-13433984D01*
X6614562Y-13433984D02*
X6595515Y-13424460D01*
X6595515Y-13424460D02*
X6585991Y-13414936D01*
X6585991Y-13414936D02*
X6576467Y-13395888D01*
X6576467Y-13395888D02*
X6566943Y-13357793D01*
X6566943Y-13357793D02*
X6566943Y-13310174D01*
X6566943Y-13310174D02*
X6576467Y-13272079D01*
X6576467Y-13272079D02*
X6585991Y-13253031D01*
X6585991Y-13253031D02*
X6595515Y-13243508D01*
X6595515Y-13243508D02*
X6614562Y-13233984D01*
X6805039Y-13233984D02*
X6824086Y-13233984D01*
X6824086Y-13233984D02*
X6843134Y-13243508D01*
X6843134Y-13243508D02*
X6852658Y-13253031D01*
X6852658Y-13253031D02*
X6862182Y-13272079D01*
X6862182Y-13272079D02*
X6871705Y-13310174D01*
X6871705Y-13310174D02*
X6871705Y-13357793D01*
X6871705Y-13357793D02*
X6862182Y-13395888D01*
X6862182Y-13395888D02*
X6852658Y-13414936D01*
X6852658Y-13414936D02*
X6843134Y-13424460D01*
X6843134Y-13424460D02*
X6824086Y-13433984D01*
X6824086Y-13433984D02*
X6805039Y-13433984D01*
X6805039Y-13433984D02*
X6785991Y-13424460D01*
X6785991Y-13424460D02*
X6776467Y-13414936D01*
X6776467Y-13414936D02*
X6766943Y-13395888D01*
X6766943Y-13395888D02*
X6757420Y-13357793D01*
X6757420Y-13357793D02*
X6757420Y-13310174D01*
X6757420Y-13310174D02*
X6766943Y-13272079D01*
X6766943Y-13272079D02*
X6776467Y-13253031D01*
X6776467Y-13253031D02*
X6785991Y-13243508D01*
X6785991Y-13243508D02*
X6805039Y-13233984D01*
X6957420Y-13433984D02*
X6957420Y-13300650D01*
X6957420Y-13319698D02*
X6966943Y-13310174D01*
X6966943Y-13310174D02*
X6985991Y-13300650D01*
X6985991Y-13300650D02*
X7014563Y-13300650D01*
X7014563Y-13300650D02*
X7033610Y-13310174D01*
X7033610Y-13310174D02*
X7043134Y-13329222D01*
X7043134Y-13329222D02*
X7043134Y-13433984D01*
X7043134Y-13329222D02*
X7052658Y-13310174D01*
X7052658Y-13310174D02*
X7071705Y-13300650D01*
X7071705Y-13300650D02*
X7100277Y-13300650D01*
X7100277Y-13300650D02*
X7119324Y-13310174D01*
X7119324Y-13310174D02*
X7128848Y-13329222D01*
X7128848Y-13329222D02*
X7128848Y-13433984D01*
X7224086Y-13433984D02*
X7224086Y-13300650D01*
X7224086Y-13319698D02*
X7233610Y-13310174D01*
X7233610Y-13310174D02*
X7252658Y-13300650D01*
X7252658Y-13300650D02*
X7281229Y-13300650D01*
X7281229Y-13300650D02*
X7300277Y-13310174D01*
X7300277Y-13310174D02*
X7309801Y-13329222D01*
X7309801Y-13329222D02*
X7309801Y-13433984D01*
X7309801Y-13329222D02*
X7319324Y-13310174D01*
X7319324Y-13310174D02*
X7338372Y-13300650D01*
X7338372Y-13300650D02*
X7366943Y-13300650D01*
X7366943Y-13300650D02*
X7385991Y-13310174D01*
X7385991Y-13310174D02*
X7395515Y-13329222D01*
X7395515Y-13329222D02*
X7395515Y-13433984D01*
X7785991Y-13224460D02*
X7614563Y-13481603D01*
X8043134Y-13233984D02*
X8062182Y-13233984D01*
X8062182Y-13233984D02*
X8081229Y-13243508D01*
X8081229Y-13243508D02*
X8090753Y-13253031D01*
X8090753Y-13253031D02*
X8100277Y-13272079D01*
X8100277Y-13272079D02*
X8109801Y-13310174D01*
X8109801Y-13310174D02*
X8109801Y-13357793D01*
X8109801Y-13357793D02*
X8100277Y-13395888D01*
X8100277Y-13395888D02*
X8090753Y-13414936D01*
X8090753Y-13414936D02*
X8081229Y-13424460D01*
X8081229Y-13424460D02*
X8062182Y-13433984D01*
X8062182Y-13433984D02*
X8043134Y-13433984D01*
X8043134Y-13433984D02*
X8024086Y-13424460D01*
X8024086Y-13424460D02*
X8014563Y-13414936D01*
X8014563Y-13414936D02*
X8005039Y-13395888D01*
X8005039Y-13395888D02*
X7995515Y-13357793D01*
X7995515Y-13357793D02*
X7995515Y-13310174D01*
X7995515Y-13310174D02*
X8005039Y-13272079D01*
X8005039Y-13272079D02*
X8014563Y-13253031D01*
X8014563Y-13253031D02*
X8024086Y-13243508D01*
X8024086Y-13243508D02*
X8043134Y-13233984D01*
X8205039Y-13424460D02*
X8205039Y-13433984D01*
X8205039Y-13433984D02*
X8195515Y-13453031D01*
X8195515Y-13453031D02*
X8185991Y-13462555D01*
X8395515Y-13433984D02*
X8281229Y-13433984D01*
X8338372Y-13433984D02*
X8338372Y-13233984D01*
X8338372Y-13233984D02*
X8319325Y-13262555D01*
X8319325Y-13262555D02*
X8300277Y-13281603D01*
X8300277Y-13281603D02*
X8281229Y-13291127D01*
X8519325Y-13233984D02*
X8538372Y-13233984D01*
X8538372Y-13233984D02*
X8557420Y-13243508D01*
X8557420Y-13243508D02*
X8566944Y-13253031D01*
X8566944Y-13253031D02*
X8576468Y-13272079D01*
X8576468Y-13272079D02*
X8585991Y-13310174D01*
X8585991Y-13310174D02*
X8585991Y-13357793D01*
X8585991Y-13357793D02*
X8576468Y-13395888D01*
X8576468Y-13395888D02*
X8566944Y-13414936D01*
X8566944Y-13414936D02*
X8557420Y-13424460D01*
X8557420Y-13424460D02*
X8538372Y-13433984D01*
X8538372Y-13433984D02*
X8519325Y-13433984D01*
X8519325Y-13433984D02*
X8500277Y-13424460D01*
X8500277Y-13424460D02*
X8490753Y-13414936D01*
X8490753Y-13414936D02*
X8481229Y-13395888D01*
X8481229Y-13395888D02*
X8471706Y-13357793D01*
X8471706Y-13357793D02*
X8471706Y-13310174D01*
X8471706Y-13310174D02*
X8481229Y-13272079D01*
X8481229Y-13272079D02*
X8490753Y-13253031D01*
X8490753Y-13253031D02*
X8500277Y-13243508D01*
X8500277Y-13243508D02*
X8519325Y-13233984D01*
X8757420Y-13233984D02*
X8719325Y-13233984D01*
X8719325Y-13233984D02*
X8700277Y-13243508D01*
X8700277Y-13243508D02*
X8690753Y-13253031D01*
X8690753Y-13253031D02*
X8671706Y-13281603D01*
X8671706Y-13281603D02*
X8662182Y-13319698D01*
X8662182Y-13319698D02*
X8662182Y-13395888D01*
X8662182Y-13395888D02*
X8671706Y-13414936D01*
X8671706Y-13414936D02*
X8681229Y-13424460D01*
X8681229Y-13424460D02*
X8700277Y-13433984D01*
X8700277Y-13433984D02*
X8738372Y-13433984D01*
X8738372Y-13433984D02*
X8757420Y-13424460D01*
X8757420Y-13424460D02*
X8766944Y-13414936D01*
X8766944Y-13414936D02*
X8776468Y-13395888D01*
X8776468Y-13395888D02*
X8776468Y-13348269D01*
X8776468Y-13348269D02*
X8766944Y-13329222D01*
X8766944Y-13329222D02*
X8757420Y-13319698D01*
X8757420Y-13319698D02*
X8738372Y-13310174D01*
X8738372Y-13310174D02*
X8700277Y-13310174D01*
X8700277Y-13310174D02*
X8681229Y-13319698D01*
X8681229Y-13319698D02*
X8671706Y-13329222D01*
X8671706Y-13329222D02*
X8662182Y-13348269D01*
X8843134Y-13233984D02*
X8966944Y-13233984D01*
X8966944Y-13233984D02*
X8900277Y-13310174D01*
X8900277Y-13310174D02*
X8928849Y-13310174D01*
X8928849Y-13310174D02*
X8947896Y-13319698D01*
X8947896Y-13319698D02*
X8957420Y-13329222D01*
X8957420Y-13329222D02*
X8966944Y-13348269D01*
X8966944Y-13348269D02*
X8966944Y-13395888D01*
X8966944Y-13395888D02*
X8957420Y-13414936D01*
X8957420Y-13414936D02*
X8947896Y-13424460D01*
X8947896Y-13424460D02*
X8928849Y-13433984D01*
X8928849Y-13433984D02*
X8871706Y-13433984D01*
X8871706Y-13433984D02*
X8852658Y-13424460D01*
X8852658Y-13424460D02*
X8843134Y-13414936D01*
X9043134Y-13233984D02*
X9043134Y-13272079D01*
X9119325Y-13233984D02*
X9119325Y-13272079D01*
X9414563Y-13510174D02*
X9405039Y-13500650D01*
X9405039Y-13500650D02*
X9385991Y-13472079D01*
X9385991Y-13472079D02*
X9376468Y-13453031D01*
X9376468Y-13453031D02*
X9366944Y-13424460D01*
X9366944Y-13424460D02*
X9357420Y-13376841D01*
X9357420Y-13376841D02*
X9357420Y-13338746D01*
X9357420Y-13338746D02*
X9366944Y-13291127D01*
X9366944Y-13291127D02*
X9376468Y-13262555D01*
X9376468Y-13262555D02*
X9385991Y-13243508D01*
X9385991Y-13243508D02*
X9405039Y-13214936D01*
X9405039Y-13214936D02*
X9414563Y-13205412D01*
X9576468Y-13300650D02*
X9576468Y-13433984D01*
X9528849Y-13224460D02*
X9481230Y-13367317D01*
X9481230Y-13367317D02*
X9605039Y-13367317D01*
X9833611Y-13433984D02*
X9833611Y-13233984D01*
X9919325Y-13433984D02*
X9919325Y-13329222D01*
X9919325Y-13329222D02*
X9909801Y-13310174D01*
X9909801Y-13310174D02*
X9890753Y-13300650D01*
X9890753Y-13300650D02*
X9862182Y-13300650D01*
X9862182Y-13300650D02*
X9843134Y-13310174D01*
X9843134Y-13310174D02*
X9833611Y-13319698D01*
X10043134Y-13433984D02*
X10024087Y-13424460D01*
X10024087Y-13424460D02*
X10014563Y-13414936D01*
X10014563Y-13414936D02*
X10005039Y-13395888D01*
X10005039Y-13395888D02*
X10005039Y-13338746D01*
X10005039Y-13338746D02*
X10014563Y-13319698D01*
X10014563Y-13319698D02*
X10024087Y-13310174D01*
X10024087Y-13310174D02*
X10043134Y-13300650D01*
X10043134Y-13300650D02*
X10071706Y-13300650D01*
X10071706Y-13300650D02*
X10090753Y-13310174D01*
X10090753Y-13310174D02*
X10100277Y-13319698D01*
X10100277Y-13319698D02*
X10109801Y-13338746D01*
X10109801Y-13338746D02*
X10109801Y-13395888D01*
X10109801Y-13395888D02*
X10100277Y-13414936D01*
X10100277Y-13414936D02*
X10090753Y-13424460D01*
X10090753Y-13424460D02*
X10071706Y-13433984D01*
X10071706Y-13433984D02*
X10043134Y-13433984D01*
X10224087Y-13433984D02*
X10205039Y-13424460D01*
X10205039Y-13424460D02*
X10195515Y-13405412D01*
X10195515Y-13405412D02*
X10195515Y-13233984D01*
X10376468Y-13424460D02*
X10357420Y-13433984D01*
X10357420Y-13433984D02*
X10319325Y-13433984D01*
X10319325Y-13433984D02*
X10300277Y-13424460D01*
X10300277Y-13424460D02*
X10290753Y-13405412D01*
X10290753Y-13405412D02*
X10290753Y-13329222D01*
X10290753Y-13329222D02*
X10300277Y-13310174D01*
X10300277Y-13310174D02*
X10319325Y-13300650D01*
X10319325Y-13300650D02*
X10357420Y-13300650D01*
X10357420Y-13300650D02*
X10376468Y-13310174D01*
X10376468Y-13310174D02*
X10385992Y-13329222D01*
X10385992Y-13329222D02*
X10385992Y-13348269D01*
X10385992Y-13348269D02*
X10290753Y-13367317D01*
X10462182Y-13424460D02*
X10481230Y-13433984D01*
X10481230Y-13433984D02*
X10519325Y-13433984D01*
X10519325Y-13433984D02*
X10538373Y-13424460D01*
X10538373Y-13424460D02*
X10547896Y-13405412D01*
X10547896Y-13405412D02*
X10547896Y-13395888D01*
X10547896Y-13395888D02*
X10538373Y-13376841D01*
X10538373Y-13376841D02*
X10519325Y-13367317D01*
X10519325Y-13367317D02*
X10490753Y-13367317D01*
X10490753Y-13367317D02*
X10471706Y-13357793D01*
X10471706Y-13357793D02*
X10462182Y-13338746D01*
X10462182Y-13338746D02*
X10462182Y-13329222D01*
X10462182Y-13329222D02*
X10471706Y-13310174D01*
X10471706Y-13310174D02*
X10490753Y-13300650D01*
X10490753Y-13300650D02*
X10519325Y-13300650D01*
X10519325Y-13300650D02*
X10538373Y-13310174D01*
X10614563Y-13510174D02*
X10624087Y-13500650D01*
X10624087Y-13500650D02*
X10643134Y-13472079D01*
X10643134Y-13472079D02*
X10652658Y-13453031D01*
X10652658Y-13453031D02*
X10662182Y-13424460D01*
X10662182Y-13424460D02*
X10671706Y-13376841D01*
X10671706Y-13376841D02*
X10671706Y-13338746D01*
X10671706Y-13338746D02*
X10662182Y-13291127D01*
X10662182Y-13291127D02*
X10652658Y-13262555D01*
X10652658Y-13262555D02*
X10643134Y-13243508D01*
X10643134Y-13243508D02*
X10624087Y-13214936D01*
X10624087Y-13214936D02*
X10614563Y-13205412D01*
M02*
