%TF.GenerationSoftware,KiCad,Pcbnew,10.0.6*%
%TF.CreationDate,2026-09-24T16:20:29+03:00*%
%TF.ProjectId,VFD_IV6,5646445f-4956-4362-9e6b-696361645f70,rev?*%
%TF.SameCoordinates,Original*%
%TF.FileFunction,Copper,L2,Inr*%
%TF.FilePolarity,Positive*%
%FSLAX46Y46*%
G04 Gerber Fmt 4.6, Leading zero omitted, Abs format (unit mm)*
G04 Created by KiCad (PCBNEW 10.0.6) date 2026-09-24 16:20:29*
%MOMM*%
%LPD*%
G01*
G04 APERTURE LIST*
%TA.AperFunction,ComponentPad*%
%ADD10C,1.400000*%
%TD*%
%TA.AperFunction,ComponentPad*%
%ADD11C,4.700000*%
%TD*%
%TA.AperFunction,ComponentPad*%
%ADD12R,2.000000X2.000000*%
%TD*%
%TA.AperFunction,ComponentPad*%
%ADD13C,2.000000*%
%TD*%
%TA.AperFunction,ComponentPad*%
%ADD14R,2.500000X3.000000*%
%TD*%
%TA.AperFunction,ComponentPad*%
%ADD15O,1.700000X1.000000*%
%TD*%
%TA.AperFunction,ComponentPad*%
%ADD16R,1.700000X1.700000*%
%TD*%
%TA.AperFunction,ComponentPad*%
%ADD17C,1.700000*%
%TD*%
%TA.AperFunction,ViaPad*%
%ADD18C,0.400000*%
%TD*%
%TA.AperFunction,ViaPad*%
%ADD19C,0.600000*%
%TD*%
%TA.AperFunction,Conductor*%
%ADD20C,0.254000*%
%TD*%
%TA.AperFunction,Conductor*%
%ADD21C,0.200000*%
%TD*%
%TA.AperFunction,Conductor*%
%ADD22C,0.457200*%
%TD*%
G04 APERTURE END LIST*
D10*
%TO.N,Net-(U2-O4)*%
%TO.C,VFD1*%
X76271000Y-100211500D03*
%TO.N,Net-(U2-O3)*%
X74271000Y-100211500D03*
%TO.N,Net-(U2-O2)*%
X72271000Y-100211500D03*
%TO.N,Net-(U2-O1)*%
X70271000Y-100211500D03*
%TO.N,Net-(U2-O7)*%
X68271000Y-100211500D03*
%TO.N,Net-(U2-O6)*%
X66271000Y-100211500D03*
%TO.N,GND*%
X66271000Y-102461500D03*
%TO.N,+1V2*%
X68271000Y-102461500D03*
%TO.N,Net-(R1-Pad2)*%
X70271000Y-102461500D03*
%TO.N,Net-(U2-O5)*%
X72271000Y-102461500D03*
%TO.N,unconnected-(VFD1-dp-Pad11)*%
X74271000Y-102461500D03*
%TO.N,N/C*%
X76271000Y-102461500D03*
%TD*%
%TO.N,Net-(U12-O4)*%
%TO.C,VFD6*%
X145112000Y-100172000D03*
%TO.N,Net-(U12-O3)*%
X143112000Y-100172000D03*
%TO.N,Net-(U12-O2)*%
X141112000Y-100172000D03*
%TO.N,Net-(U12-O1)*%
X139112000Y-100172000D03*
%TO.N,Net-(U12-O7)*%
X137112000Y-100172000D03*
%TO.N,Net-(U12-O6)*%
X135112000Y-100172000D03*
%TO.N,GND*%
X135112000Y-102422000D03*
%TO.N,+1V2*%
X137112000Y-102422000D03*
%TO.N,Net-(R54-Pad2)*%
X139112000Y-102422000D03*
%TO.N,Net-(U12-O5)*%
X141112000Y-102422000D03*
%TO.N,unconnected-(VFD6-dp-Pad11)*%
X143112000Y-102422000D03*
%TO.N,N/C*%
X145112000Y-102422000D03*
%TD*%
D11*
%TO.N,N/C*%
%TO.C,H1*%
X62100000Y-106800000D03*
%TD*%
D10*
%TO.N,Net-(U4-O4)*%
%TO.C,VFD2*%
X89455000Y-100211500D03*
%TO.N,Net-(U4-O3)*%
X87455000Y-100211500D03*
%TO.N,Net-(U4-O2)*%
X85455000Y-100211500D03*
%TO.N,Net-(U4-O1)*%
X83455000Y-100211500D03*
%TO.N,Net-(U4-O7)*%
X81455000Y-100211500D03*
%TO.N,Net-(U4-O6)*%
X79455000Y-100211500D03*
%TO.N,GND*%
X79455000Y-102461500D03*
%TO.N,+1V2*%
X81455000Y-102461500D03*
%TO.N,Net-(R18-Pad2)*%
X83455000Y-102461500D03*
%TO.N,Net-(U4-O5)*%
X85455000Y-102461500D03*
%TO.N,unconnected-(VFD2-dp-Pad11)*%
X87455000Y-102461500D03*
%TO.N,N/C*%
X89455000Y-102461500D03*
%TD*%
D11*
%TO.N,N/C*%
%TO.C,H2*%
X62100000Y-60200000D03*
%TD*%
D10*
%TO.N,Net-(U6-O4)*%
%TO.C,VFD3*%
X104163000Y-100172000D03*
%TO.N,Net-(U6-O3)*%
X102163000Y-100172000D03*
%TO.N,Net-(U6-O2)*%
X100163000Y-100172000D03*
%TO.N,Net-(U6-O1)*%
X98163000Y-100172000D03*
%TO.N,Net-(U6-O7)*%
X96163000Y-100172000D03*
%TO.N,Net-(U6-O6)*%
X94163000Y-100172000D03*
%TO.N,GND*%
X94163000Y-102422000D03*
%TO.N,+1V2*%
X96163000Y-102422000D03*
%TO.N,Net-(R27-Pad2)*%
X98163000Y-102422000D03*
%TO.N,Net-(U6-O5)*%
X100163000Y-102422000D03*
%TO.N,unconnected-(VFD3-dp-Pad11)*%
X102163000Y-102422000D03*
%TO.N,N/C*%
X104163000Y-102422000D03*
%TD*%
D12*
%TO.N,/ENCA*%
%TO.C,SW1*%
X162647000Y-73014000D03*
D13*
%TO.N,/ENCB*%
X157647000Y-73014000D03*
%TO.N,GND*%
X160147000Y-73014000D03*
D14*
%TO.N,unconnected-(SW1-PadMP)_1*%
X165747000Y-80514000D03*
%TO.N,unconnected-(SW1-PadMP)*%
X154547000Y-80514000D03*
D13*
%TO.N,/ENCBUT*%
X162647000Y-87514000D03*
%TO.N,GND*%
X157647000Y-87514000D03*
%TD*%
D10*
%TO.N,Net-(U10-O4)*%
%TO.C,VFD5*%
X131928000Y-100172000D03*
%TO.N,Net-(U10-O3)*%
X129928000Y-100172000D03*
%TO.N,Net-(U10-O2)*%
X127928000Y-100172000D03*
%TO.N,Net-(U10-O1)*%
X125928000Y-100172000D03*
%TO.N,Net-(U10-O7)*%
X123928000Y-100172000D03*
%TO.N,Net-(U10-O6)*%
X121928000Y-100172000D03*
%TO.N,GND*%
X121928000Y-102422000D03*
%TO.N,+1V2*%
X123928000Y-102422000D03*
%TO.N,Net-(R45-Pad2)*%
X125928000Y-102422000D03*
%TO.N,Net-(U10-O5)*%
X127928000Y-102422000D03*
%TO.N,unconnected-(VFD5-dp-Pad11)*%
X129928000Y-102422000D03*
%TO.N,N/C*%
X131928000Y-102422000D03*
%TD*%
D11*
%TO.N,N/C*%
%TO.C,H4*%
X164900000Y-106800000D03*
%TD*%
%TO.N,N/C*%
%TO.C,H3*%
X164900000Y-60200000D03*
%TD*%
D10*
%TO.N,Net-(U8-O4)*%
%TO.C,VFD4*%
X117347000Y-100172000D03*
%TO.N,Net-(U8-O3)*%
X115347000Y-100172000D03*
%TO.N,Net-(U8-O2)*%
X113347000Y-100172000D03*
%TO.N,Net-(U8-O1)*%
X111347000Y-100172000D03*
%TO.N,Net-(U8-O7)*%
X109347000Y-100172000D03*
%TO.N,Net-(U8-O6)*%
X107347000Y-100172000D03*
%TO.N,GND*%
X107347000Y-102422000D03*
%TO.N,+1V2*%
X109347000Y-102422000D03*
%TO.N,Net-(R36-Pad2)*%
X111347000Y-102422000D03*
%TO.N,Net-(U8-O5)*%
X113347000Y-102422000D03*
%TO.N,unconnected-(VFD4-dp-Pad11)*%
X115347000Y-102422000D03*
%TO.N,N/C*%
X117347000Y-102422000D03*
%TD*%
D15*
%TO.N,GND*%
%TO.C,J2*%
X162898000Y-98744000D03*
X166698000Y-98744000D03*
X162898000Y-90104000D03*
X166698000Y-90104000D03*
%TD*%
D16*
%TO.N,GND*%
%TO.C,J1*%
X99060000Y-58420000D03*
D17*
%TO.N,/SWCLK*%
X96520000Y-58420000D03*
%TO.N,/SWDIO*%
X93980000Y-58420000D03*
%TO.N,+3V3*%
X91440000Y-58420000D03*
%TD*%
D16*
%TO.N,+5V*%
%TO.C,J4*%
X68580000Y-58420000D03*
D17*
%TO.N,/PA4*%
X71120000Y-58420000D03*
%TO.N,/PA9*%
X73660000Y-58420000D03*
%TO.N,/PA10*%
X76200000Y-58420000D03*
%TO.N,/PA11*%
X78740000Y-58420000D03*
%TO.N,/PA12*%
X81280000Y-58420000D03*
%TO.N,/PA15*%
X83820000Y-58420000D03*
%TO.N,GND*%
X86360000Y-58420000D03*
%TD*%
D16*
%TO.N,GND*%
%TO.C,J3*%
X104140000Y-58420000D03*
D17*
%TO.N,/PB2*%
X106680000Y-58420000D03*
%TO.N,/PB3*%
X109220000Y-58420000D03*
%TO.N,/PB4*%
X111760000Y-58420000D03*
%TO.N,/PB5*%
X114300000Y-58420000D03*
%TO.N,/PB6*%
X116840000Y-58420000D03*
%TO.N,/PB7*%
X119380000Y-58420000D03*
%TO.N,/PB8*%
X121920000Y-58420000D03*
%TO.N,/PB14*%
X124460000Y-58420000D03*
%TO.N,/PB15*%
X127000000Y-58420000D03*
%TD*%
D18*
%TO.N,/ENCB*%
X85496400Y-71145400D03*
%TO.N,/ENCA*%
X85013800Y-71856600D03*
%TO.N,GND*%
X148209000Y-92583000D03*
X102537000Y-77391000D03*
X86816450Y-64410123D03*
X153797000Y-101473000D03*
X89560400Y-93827600D03*
X145161000Y-61976000D03*
X104241600Y-93929200D03*
X156006800Y-93599000D03*
X133604000Y-86360000D03*
X93055000Y-63754000D03*
X77978000Y-86512400D03*
X150114000Y-67310000D03*
X76352400Y-93929200D03*
X154559000Y-101473000D03*
X150594400Y-67310000D03*
X87872700Y-77430500D03*
X145161000Y-60452000D03*
X63957200Y-85648800D03*
X156006800Y-94056200D03*
X151384000Y-79463900D03*
X75996800Y-69342000D03*
X90633628Y-82712495D03*
X70916800Y-64262000D03*
X152273000Y-88011000D03*
X115773200Y-77419200D03*
X102971600Y-84582000D03*
X96164400Y-66751200D03*
X104216200Y-64973200D03*
X153974800Y-85902800D03*
X116128800Y-84429600D03*
X88646000Y-72136000D03*
X148971000Y-78867000D03*
X74563100Y-77430500D03*
X153517600Y-85902800D03*
X152273000Y-87630000D03*
X142595600Y-78613000D03*
X160528000Y-96266000D03*
X81686400Y-74218800D03*
X145135600Y-93726000D03*
X74930000Y-74930000D03*
X101142800Y-73914000D03*
X87757000Y-66852800D03*
X101600000Y-70980000D03*
D19*
X112395000Y-65913000D03*
D18*
X143865600Y-84480400D03*
X149453600Y-78892400D03*
X84480400Y-73609200D03*
X154940000Y-101473000D03*
X75057000Y-84632800D03*
X149588997Y-67310000D03*
D19*
X142748000Y-70612000D03*
X129159000Y-67564000D03*
D18*
X101600000Y-66180000D03*
X154178000Y-101473000D03*
X117449600Y-93827600D03*
X63510200Y-74980800D03*
X159004000Y-96266000D03*
X130726200Y-84599800D03*
X118434164Y-82905600D03*
X145161000Y-61468000D03*
X130279400Y-77391000D03*
X145161000Y-59944000D03*
D19*
X105791000Y-88900000D03*
D18*
X131978400Y-93827600D03*
X96164400Y-70916800D03*
X145161000Y-60960000D03*
X147828000Y-92583000D03*
X152273000Y-88392000D03*
X88531700Y-84086700D03*
X93827600Y-69676000D03*
X153060400Y-85902800D03*
X154381200Y-85902800D03*
X156006800Y-93141800D03*
X62026800Y-65479900D03*
%TO.N,+1V2*%
X156845000Y-97663000D03*
X154914600Y-94869000D03*
%TO.N,+5V*%
X132450800Y-83581200D03*
X118618000Y-71628000D03*
X149623000Y-107497021D03*
D19*
X76795500Y-83605500D03*
D18*
X153543000Y-90750000D03*
X154051000Y-90750000D03*
X90830400Y-83694000D03*
X117195600Y-76403200D03*
X153035000Y-90750000D03*
X63957200Y-84785200D03*
X132486400Y-75234800D03*
X154559000Y-90750000D03*
X66600100Y-73099900D03*
X118593600Y-83694000D03*
X92913200Y-75285600D03*
X76860400Y-75895200D03*
D19*
X104648000Y-83566000D03*
D18*
%TO.N,+36V*%
X76352400Y-88188800D03*
X89560400Y-88112600D03*
X145135600Y-88188800D03*
X104241600Y-88341200D03*
X132003800Y-88138000D03*
X146304000Y-88188800D03*
X117398800Y-88239600D03*
X145542000Y-104902000D03*
%TO.N,Net-(D1-K)*%
X87884000Y-76047600D03*
%TO.N,Net-(U18-SW)*%
X148033000Y-106465612D03*
X150573000Y-106426000D03*
%TO.N,+3V3*%
X93268800Y-69149000D03*
X86881000Y-72974200D03*
X106730800Y-69138800D03*
X93929200Y-66350000D03*
D19*
X149352000Y-73025000D03*
D18*
X108585000Y-68808600D03*
X158445200Y-76149200D03*
D19*
X147955000Y-80137000D03*
D18*
X88742400Y-66350000D03*
%TO.N,/ENCA*%
X161848800Y-76962000D03*
%TO.N,/ENCB*%
X158445200Y-76962000D03*
%TO.N,/ENCBUT*%
X159157000Y-84227000D03*
X88900000Y-74371200D03*
D19*
%TO.N,Net-(BZ1--)*%
X147828000Y-75184000D03*
D18*
%TO.N,/SWCLK*%
X87985600Y-63347600D03*
%TO.N,/SWDIO*%
X88290400Y-67564000D03*
%TO.N,/DB*%
X93929200Y-71374000D03*
X120827800Y-82194400D03*
X64922400Y-82194400D03*
X92837000Y-78613000D03*
X92862400Y-82194400D03*
X78105000Y-82194400D03*
X133705600Y-82194400D03*
X105968800Y-82194400D03*
X64922400Y-78689200D03*
X133705600Y-78587600D03*
X120548400Y-78587600D03*
X78105000Y-78740000D03*
X105968800Y-78638400D03*
%TO.N,/DC*%
X94081600Y-81635600D03*
X134975600Y-81635600D03*
X95910400Y-72339200D03*
X121818400Y-81635600D03*
X66192400Y-81635600D03*
X134975600Y-78587600D03*
X66192400Y-78689200D03*
X107238800Y-81635600D03*
X79375000Y-78663800D03*
X121818400Y-78587600D03*
X107238800Y-78638400D03*
X79349600Y-81635600D03*
X94234000Y-78663800D03*
%TO.N,/DIMPWM*%
X96621600Y-78638400D03*
X91679432Y-69375000D03*
X109778800Y-78638400D03*
X96621600Y-81127600D03*
X94322900Y-73240900D03*
X67462400Y-78822600D03*
X67462400Y-81127600D03*
X81940400Y-81127600D03*
X124358400Y-81127600D03*
X109778800Y-81127600D03*
X137515600Y-78587600D03*
X81915000Y-78638400D03*
X124358400Y-78587600D03*
X137566400Y-81127600D03*
%TO.N,/DD*%
X126898400Y-78587600D03*
X140055600Y-80568800D03*
X112318800Y-78638400D03*
X99161600Y-78638400D03*
X126898400Y-80568800D03*
X140055600Y-78587600D03*
X71247000Y-78663800D03*
X71272400Y-80568800D03*
X112318800Y-80568800D03*
X84480400Y-80568800D03*
X84480400Y-78638400D03*
X99161600Y-80568800D03*
%TO.N,/DA*%
X93472000Y-80010000D03*
X85725000Y-78613000D03*
X100431600Y-78587600D03*
X72491600Y-78638400D03*
X113588800Y-78638400D03*
X141274800Y-80010000D03*
X100431600Y-80010000D03*
X113588800Y-80010000D03*
X128168400Y-78587600D03*
X72542400Y-80010000D03*
X85750400Y-80010000D03*
X141376400Y-78587600D03*
X128168400Y-80010000D03*
X93370400Y-70891400D03*
%TO.N,/PA4*%
X89725500Y-70269100D03*
X84734400Y-69545200D03*
%TO.N,/RTC_RES*%
X90946002Y-74810305D03*
X112979200Y-73507600D03*
%TO.N,/RTC_DAT*%
X90271600Y-74777600D03*
X111760000Y-72034400D03*
%TO.N,/PB2*%
X103581200Y-64008000D03*
X90297000Y-71975600D03*
X105918000Y-59690000D03*
%TO.N,/RTC_CLK*%
X110134400Y-73202800D03*
X89560400Y-74777600D03*
%TO.N,/PB14*%
X89052400Y-70358000D03*
%TO.N,/PB15*%
X88265000Y-70248400D03*
%TO.N,/PB3*%
X89103200Y-62687200D03*
%TO.N,/PB4*%
X89582000Y-63360052D03*
%TO.N,/PB5*%
X90474800Y-63106200D03*
%TO.N,/PB6*%
X90557000Y-63877000D03*
%TO.N,/PB7*%
X91313000Y-66167000D03*
%TO.N,/PB8*%
X91948000Y-66167000D03*
%TO.N,Net-(U20-Q0)*%
X70256400Y-72593200D03*
X71048599Y-70612000D03*
%TO.N,Net-(U5-~{EL})*%
X97891600Y-78689200D03*
X97840800Y-88544400D03*
%TO.N,Net-(U7-~{EL})*%
X111048800Y-88747600D03*
X111048800Y-78638400D03*
%TO.N,Net-(U9-~{EL})*%
X125628400Y-78613000D03*
X61671200Y-68783200D03*
X125730000Y-88544400D03*
X61468000Y-87426800D03*
%TO.N,Net-(U11-~{EL})*%
X66193700Y-70559900D03*
X138836400Y-88747600D03*
X62146200Y-88729800D03*
X138811000Y-78613000D03*
%TD*%
%TO.N,+5V*%
D20*
X90830400Y-83694000D02*
X90627200Y-83897200D01*
X90627200Y-83897200D02*
X90627200Y-87223600D01*
X90089600Y-78109200D02*
X92913200Y-75285600D01*
X90627200Y-87223600D02*
X90576400Y-87274400D01*
X90653600Y-83694000D02*
X90089600Y-83130000D01*
X90830400Y-83694000D02*
X90653600Y-83694000D01*
X90089600Y-83130000D02*
X90089600Y-78109200D01*
%TO.N,+36V*%
X89789000Y-87884000D02*
X89560400Y-88112600D01*
X104241600Y-87884000D02*
X89789000Y-87884000D01*
X76657200Y-87884000D02*
X76352400Y-88188800D01*
X89560400Y-88112600D02*
X89331800Y-87884000D01*
X89331800Y-87884000D02*
X76657200Y-87884000D01*
%TO.N,/ENCA*%
D21*
X86410800Y-74295000D02*
X85013800Y-72898000D01*
X85013800Y-72898000D02*
X85013800Y-71856600D01*
X88509882Y-73694518D02*
X87909400Y-74295000D01*
X87909400Y-74295000D02*
X86410800Y-74295000D01*
X90102920Y-73694518D02*
X88509882Y-73694518D01*
X91858238Y-71939200D02*
X90102920Y-73694518D01*
X96076800Y-70039200D02*
X94176800Y-71939200D01*
X94176800Y-71939200D02*
X91858238Y-71939200D01*
X136902557Y-70564643D02*
X136377114Y-70039200D01*
X145584891Y-80115043D02*
X136902557Y-71432709D01*
X136902557Y-71432709D02*
X136902557Y-70564643D01*
X146452957Y-80115043D02*
X145584891Y-80115043D01*
X147474914Y-81137000D02*
X146452957Y-80115043D01*
X152513000Y-79737438D02*
X151113437Y-81137000D01*
X136377114Y-70039200D02*
X96076800Y-70039200D01*
X152513000Y-78654486D02*
X152513000Y-79737438D01*
X158835514Y-78599000D02*
X158533514Y-78297000D01*
X158533514Y-78297000D02*
X152870486Y-78297000D01*
X151113437Y-81137000D02*
X147474914Y-81137000D01*
X160211800Y-78599000D02*
X158835514Y-78599000D01*
X152870486Y-78297000D02*
X152513000Y-78654486D01*
X161848800Y-76962000D02*
X160211800Y-78599000D01*
%TO.N,/RTC_RES*%
X112115600Y-72644000D02*
X112979200Y-73507600D01*
X101705693Y-72644000D02*
X112115600Y-72644000D01*
X100642800Y-73706893D02*
X101705693Y-72644000D01*
X100121848Y-74263200D02*
X100642800Y-73742248D01*
X90946002Y-74810305D02*
X91051695Y-74810305D01*
X91598800Y-74263200D02*
X100121848Y-74263200D01*
X91051695Y-74810305D02*
X91598800Y-74263200D01*
X100642800Y-73742248D02*
X100642800Y-73706893D01*
%TO.N,+3V3*%
D20*
X91916400Y-69902000D02*
X92669400Y-69149000D01*
X91515000Y-69902000D02*
X91916400Y-69902000D01*
X87058800Y-72796400D02*
X88874600Y-72796400D01*
X86881000Y-72974200D02*
X87058800Y-72796400D01*
X88874600Y-72796400D02*
X89662000Y-72009000D01*
X89662000Y-72009000D02*
X89662000Y-71755000D01*
X89662000Y-71755000D02*
X91515000Y-69902000D01*
%TO.N,/ENCB*%
D21*
X85513800Y-71162800D02*
X85496400Y-71145400D01*
X85513800Y-72677400D02*
X85513800Y-71162800D01*
X86696600Y-73895000D02*
X85496400Y-72694800D01*
X87706200Y-73895000D02*
X86696600Y-73895000D01*
X92906752Y-70325000D02*
X89960352Y-73271400D01*
X95394800Y-69639200D02*
X94709000Y-70325000D01*
X89960352Y-73271400D02*
X88329800Y-73271400D01*
X152113000Y-79571752D02*
X150947752Y-80737000D01*
X85496400Y-72694800D02*
X85513800Y-72677400D01*
X136542800Y-69639200D02*
X95394800Y-69639200D01*
X147640600Y-80737000D02*
X136542800Y-69639200D01*
X152113000Y-78488800D02*
X152113000Y-79571752D01*
X88329800Y-73271400D02*
X87706200Y-73895000D01*
X152704800Y-77897000D02*
X152113000Y-78488800D01*
X157510200Y-77897000D02*
X152704800Y-77897000D01*
X158445200Y-76962000D02*
X157510200Y-77897000D01*
X150947752Y-80737000D02*
X147640600Y-80737000D01*
X94709000Y-70325000D02*
X92906752Y-70325000D01*
X85521800Y-71170800D02*
X85496400Y-71145400D01*
%TO.N,/ENCBUT*%
X89176682Y-74094518D02*
X88900000Y-74371200D01*
X95264886Y-71416800D02*
X94342486Y-72339200D01*
X94342486Y-72339200D02*
X92023923Y-72339200D01*
X96371507Y-71416800D02*
X95264886Y-71416800D01*
X92023923Y-72339200D02*
X90268605Y-74094518D01*
X97349107Y-70439200D02*
X96371507Y-71416800D01*
X135343362Y-70439200D02*
X97349107Y-70439200D01*
X151279122Y-81537000D02*
X146441162Y-81537000D01*
X152913000Y-79903124D02*
X151279122Y-81537000D01*
X152913000Y-78820172D02*
X152913000Y-79903124D01*
X146441162Y-81537000D02*
X135343362Y-70439200D01*
X156097000Y-78714000D02*
X153019172Y-78714000D01*
X153019172Y-78714000D02*
X152913000Y-78820172D01*
X159157000Y-81774000D02*
X156097000Y-78714000D01*
X159157000Y-84227000D02*
X159157000Y-81774000D01*
X90268605Y-74094518D02*
X89176682Y-74094518D01*
%TO.N,+3V3*%
X108585000Y-68808600D02*
X108585000Y-69149000D01*
D20*
X108585000Y-69149000D02*
X93268800Y-69149000D01*
%TO.N,+5V*%
X132450800Y-75270400D02*
X132486400Y-75234800D01*
X63957200Y-84785200D02*
X64770000Y-85598000D01*
D22*
X68580000Y-71120000D02*
X68580000Y-87274400D01*
D20*
X118593600Y-83694000D02*
X118238000Y-83694000D01*
D22*
X90576400Y-87274400D02*
X76809600Y-87274400D01*
X68580000Y-58420000D02*
X68580000Y-71120000D01*
D20*
X64770000Y-87274400D02*
X68580000Y-87274400D01*
X76860400Y-83540600D02*
X76795500Y-83605500D01*
X117195600Y-73050400D02*
X118618000Y-71628000D01*
D22*
X68580000Y-71120000D02*
X66600100Y-73099900D01*
D20*
X76795500Y-87260300D02*
X76809600Y-87274400D01*
D22*
X153035000Y-90750000D02*
X149559400Y-87274400D01*
D20*
X64770000Y-85598000D02*
X64770000Y-87274400D01*
X76795500Y-83605500D02*
X76795500Y-87260300D01*
D22*
X118567200Y-87274400D02*
X104597200Y-87274400D01*
D20*
X76860400Y-75895200D02*
X76860400Y-83540600D01*
X117195600Y-82651600D02*
X117195600Y-76403200D01*
X118593600Y-87248000D02*
X118567200Y-87274400D01*
X104648000Y-83566000D02*
X104648000Y-87223600D01*
D22*
X76809600Y-87274400D02*
X68580000Y-87274400D01*
D20*
X118238000Y-83694000D02*
X117195600Y-82651600D01*
D22*
X149559400Y-87274400D02*
X132486400Y-87274400D01*
D20*
X132450800Y-83581200D02*
X132450800Y-87238800D01*
X104648000Y-87223600D02*
X104597200Y-87274400D01*
D22*
X104597200Y-87274400D02*
X90576400Y-87274400D01*
D20*
X118593600Y-83694000D02*
X118593600Y-87248000D01*
X132450800Y-83581200D02*
X132450800Y-75270400D01*
D22*
X132486400Y-87274400D02*
X118567200Y-87274400D01*
D20*
X117195600Y-76403200D02*
X117195600Y-73050400D01*
X132450800Y-87238800D02*
X132486400Y-87274400D01*
%TO.N,+36V*%
X145135600Y-88188800D02*
X145135600Y-87884000D01*
X146304000Y-88188800D02*
X146304000Y-104140000D01*
X117398800Y-87884000D02*
X104241600Y-87884000D01*
X117398800Y-88239600D02*
X117398800Y-87884000D01*
X145999200Y-87884000D02*
X145135600Y-87884000D01*
X146304000Y-104140000D02*
X145542000Y-104902000D01*
X145135600Y-87884000D02*
X117398800Y-87884000D01*
X146304000Y-88188800D02*
X145999200Y-87884000D01*
X104241600Y-88341200D02*
X104241600Y-87884000D01*
%TO.N,+3V3*%
X158445200Y-76149200D02*
X157124400Y-77470000D01*
X151839936Y-77470000D02*
X149172936Y-80137000D01*
X92669400Y-69149000D02*
X92669400Y-67015400D01*
X157124400Y-77470000D02*
X151839936Y-77470000D01*
X93929200Y-66350000D02*
X92512000Y-66350000D01*
X93268800Y-69149000D02*
X92669400Y-69149000D01*
X88742400Y-66350000D02*
X89407800Y-67015400D01*
X92506800Y-66344800D02*
X92506800Y-59486800D01*
X147955000Y-80137000D02*
X136967000Y-69149000D01*
X92512000Y-66350000D02*
X92506800Y-66344800D01*
X92506800Y-66852800D02*
X92506800Y-66344800D01*
X92669400Y-67015400D02*
X92506800Y-66852800D01*
X149172936Y-80137000D02*
X147955000Y-80137000D01*
X92506800Y-59486800D02*
X91440000Y-58420000D01*
X89407800Y-67015400D02*
X92669400Y-67015400D01*
X136967000Y-69149000D02*
X108585000Y-69149000D01*
%TO.N,/RTC_DAT*%
D21*
X111760000Y-72034400D02*
X96922307Y-72034400D01*
X95083000Y-73863200D02*
X91186000Y-73863200D01*
X91186000Y-73863200D02*
X90271600Y-74777600D01*
X96922307Y-72034400D02*
X96117507Y-72839200D01*
X96107000Y-72839200D02*
X95083000Y-73863200D01*
X96117507Y-72839200D02*
X96107000Y-72839200D01*
%TO.N,/RTC_CLK*%
X89560400Y-75488800D02*
X89560400Y-74777600D01*
X89763600Y-75692000D02*
X89560400Y-75488800D01*
D20*
X92704000Y-74783600D02*
X91795600Y-75692000D01*
X108553600Y-74783600D02*
X92704000Y-74783600D01*
X110134400Y-73202800D02*
X108553600Y-74783600D01*
D21*
X90474800Y-75692000D02*
X89763600Y-75692000D01*
D20*
X91795600Y-75692000D02*
X90474800Y-75692000D01*
%TD*%
M02*
