%TF.GenerationSoftware,KiCad,Pcbnew,10.0.6*%
%TF.CreationDate,2026-09-24T16:20:30+03:00*%
%TF.ProjectId,VFD_IV6,5646445f-4956-4362-9e6b-696361645f70,rev?*%
%TF.SameCoordinates,Original*%
%TF.FileFunction,Paste,Bot*%
%TF.FilePolarity,Positive*%
%FSLAX46Y46*%
G04 Gerber Fmt 4.6, Leading zero omitted, Abs format (unit mm)*
G04 Created by KiCad (PCBNEW 10.0.6) date 2026-09-24 16:20:30*
%MOMM*%
%LPD*%
G01*
G04 APERTURE LIST*
G04 Aperture macros list*
%AMRoundRect*
0 Rectangle with rounded corners*
0 $1 Rounding radius*
0 $2 $3 $4 $5 $6 $7 $8 $9 X,Y pos of 4 corners*
0 Add a 4 corners polygon primitive as box body*
4,1,4,$2,$3,$4,$5,$6,$7,$8,$9,$2,$3,0*
0 Add four circle primitives for the rounded corners*
1,1,$1+$1,$2,$3*
1,1,$1+$1,$4,$5*
1,1,$1+$1,$6,$7*
1,1,$1+$1,$8,$9*
0 Add four rect primitives between the rounded corners*
20,1,$1+$1,$2,$3,$4,$5,0*
20,1,$1+$1,$4,$5,$6,$7,0*
20,1,$1+$1,$6,$7,$8,$9,0*
20,1,$1+$1,$8,$9,$2,$3,0*%
G04 Aperture macros list end*
%ADD10RoundRect,0.150000X-0.587500X-0.150000X0.587500X-0.150000X0.587500X0.150000X-0.587500X0.150000X0*%
%ADD11RoundRect,0.250000X-0.400000X-0.700000X0.400000X-0.700000X0.400000X0.700000X-0.400000X0.700000X0*%
%ADD12RoundRect,0.225000X0.250000X-0.225000X0.250000X0.225000X-0.250000X0.225000X-0.250000X-0.225000X0*%
%ADD13RoundRect,0.200000X0.200000X0.275000X-0.200000X0.275000X-0.200000X-0.275000X0.200000X-0.275000X0*%
%ADD14RoundRect,0.200000X-0.275000X0.200000X-0.275000X-0.200000X0.275000X-0.200000X0.275000X0.200000X0*%
%ADD15RoundRect,0.150000X-0.150000X0.875000X-0.150000X-0.875000X0.150000X-0.875000X0.150000X0.875000X0*%
%ADD16RoundRect,0.200000X-0.200000X-0.275000X0.200000X-0.275000X0.200000X0.275000X-0.200000X0.275000X0*%
%ADD17RoundRect,0.162500X-0.162500X0.750000X-0.162500X-0.750000X0.162500X-0.750000X0.162500X0.750000X0*%
%ADD18RoundRect,0.075000X0.662500X0.075000X-0.662500X0.075000X-0.662500X-0.075000X0.662500X-0.075000X0*%
%ADD19RoundRect,0.075000X0.075000X0.662500X-0.075000X0.662500X-0.075000X-0.662500X0.075000X-0.662500X0*%
%ADD20RoundRect,0.150000X-0.825000X-0.150000X0.825000X-0.150000X0.825000X0.150000X-0.825000X0.150000X0*%
%ADD21RoundRect,0.162500X-0.162500X0.650000X-0.162500X-0.650000X0.162500X-0.650000X0.162500X0.650000X0*%
%ADD22RoundRect,0.225000X0.225000X0.250000X-0.225000X0.250000X-0.225000X-0.250000X0.225000X-0.250000X0*%
%ADD23RoundRect,0.250000X0.312500X0.625000X-0.312500X0.625000X-0.312500X-0.625000X0.312500X-0.625000X0*%
%ADD24RoundRect,0.250000X1.895000X-0.785000X1.895000X0.785000X-1.895000X0.785000X-1.895000X-0.785000X0*%
%ADD25RoundRect,0.250000X1.950000X1.150000X-1.950000X1.150000X-1.950000X-1.150000X1.950000X-1.150000X0*%
%ADD26RoundRect,0.225000X-0.250000X0.225000X-0.250000X-0.225000X0.250000X-0.225000X0.250000X0.225000X0*%
%ADD27RoundRect,0.250000X0.250000X0.475000X-0.250000X0.475000X-0.250000X-0.475000X0.250000X-0.475000X0*%
%ADD28RoundRect,0.250000X-0.475000X0.250000X-0.475000X-0.250000X0.475000X-0.250000X0.475000X0.250000X0*%
%ADD29RoundRect,0.250001X0.949999X-1.499999X0.949999X1.499999X-0.949999X1.499999X-0.949999X-1.499999X0*%
%ADD30RoundRect,0.250000X-0.250000X-0.475000X0.250000X-0.475000X0.250000X0.475000X-0.250000X0.475000X0*%
%ADD31R,1.500000X1.500000*%
G04 APERTURE END LIST*
D10*
%TO.C,Q3*%
X142651000Y-73403000D03*
X142651000Y-71503000D03*
X144526000Y-72453000D03*
%TD*%
D11*
%TO.C,Y2*%
X109264000Y-61773000D03*
X114764000Y-61773000D03*
X114764000Y-64973000D03*
X109264000Y-64973000D03*
%TD*%
D12*
%TO.C,C17*%
X102489000Y-66180000D03*
X102489000Y-64630000D03*
%TD*%
D13*
%TO.C,R28*%
X115760000Y-74930000D03*
X114110000Y-74930000D03*
%TD*%
D14*
%TO.C,R10*%
X75946000Y-76695800D03*
X75946000Y-78345800D03*
%TD*%
D13*
%TO.C,R62*%
X162432000Y-85090000D03*
X160782000Y-85090000D03*
%TD*%
D15*
%TO.C,U10*%
X121818400Y-86028000D03*
X123088400Y-86028000D03*
X124358400Y-86028000D03*
X125628400Y-86028000D03*
X126898400Y-86028000D03*
X128168400Y-86028000D03*
X129438400Y-86028000D03*
X130708400Y-86028000D03*
X131978400Y-86028000D03*
X131978400Y-95328000D03*
X130708400Y-95328000D03*
X129438400Y-95328000D03*
X128168400Y-95328000D03*
X126898400Y-95328000D03*
X125628400Y-95328000D03*
X124358400Y-95328000D03*
X123088400Y-95328000D03*
X121818400Y-95328000D03*
%TD*%
D14*
%TO.C,R63*%
X140462000Y-71692000D03*
X140462000Y-73342000D03*
%TD*%
D16*
%TO.C,R9*%
X68059800Y-74980800D03*
X69709800Y-74980800D03*
%TD*%
D13*
%TO.C,R64*%
X106717600Y-74205000D03*
X105067600Y-74205000D03*
%TD*%
D17*
%TO.C,U1*%
X64897000Y-77430500D03*
X66167000Y-77430500D03*
X67437000Y-77430500D03*
X68707000Y-77430500D03*
X69977000Y-77430500D03*
X71247000Y-77430500D03*
X72517000Y-77430500D03*
X73787000Y-77430500D03*
X73787000Y-83605500D03*
X72517000Y-83605500D03*
X71247000Y-83605500D03*
X69977000Y-83605500D03*
X68707000Y-83605500D03*
X67437000Y-83605500D03*
X66167000Y-83605500D03*
X64897000Y-83605500D03*
%TD*%
D18*
%TO.C,U15*%
X94967500Y-66350000D03*
X94967500Y-66850000D03*
X94967500Y-67350000D03*
X94967500Y-67850000D03*
X94967500Y-68350000D03*
X94967500Y-68850000D03*
X94967500Y-69350000D03*
X94967500Y-69850000D03*
X94967500Y-70350000D03*
X94967500Y-70850000D03*
X94967500Y-71350000D03*
X94967500Y-71850000D03*
D19*
X93555000Y-73262500D03*
X93055000Y-73262500D03*
X92555000Y-73262500D03*
X92055000Y-73262500D03*
X91555000Y-73262500D03*
X91055000Y-73262500D03*
X90555000Y-73262500D03*
X90055000Y-73262500D03*
X89555000Y-73262500D03*
X89055000Y-73262500D03*
X88555000Y-73262500D03*
X88055000Y-73262500D03*
D18*
X86642500Y-71850000D03*
X86642500Y-71350000D03*
X86642500Y-70850000D03*
X86642500Y-70350000D03*
X86642500Y-69850000D03*
X86642500Y-69350000D03*
X86642500Y-68850000D03*
X86642500Y-68350000D03*
X86642500Y-67850000D03*
X86642500Y-67350000D03*
X86642500Y-66850000D03*
X86642500Y-66350000D03*
D19*
X88055000Y-64937500D03*
X88555000Y-64937500D03*
X89055000Y-64937500D03*
X89555000Y-64937500D03*
X90055000Y-64937500D03*
X90555000Y-64937500D03*
X91055000Y-64937500D03*
X91555000Y-64937500D03*
X92055000Y-64937500D03*
X92555000Y-64937500D03*
X93055000Y-64937500D03*
X93555000Y-64937500D03*
%TD*%
D15*
%TO.C,U6*%
X94081600Y-86055200D03*
X95351600Y-86055200D03*
X96621600Y-86055200D03*
X97891600Y-86055200D03*
X99161600Y-86055200D03*
X100431600Y-86055200D03*
X101701600Y-86055200D03*
X102971600Y-86055200D03*
X104241600Y-86055200D03*
X104241600Y-95355200D03*
X102971600Y-95355200D03*
X101701600Y-95355200D03*
X100431600Y-95355200D03*
X99161600Y-95355200D03*
X97891600Y-95355200D03*
X96621600Y-95355200D03*
X95351600Y-95355200D03*
X94081600Y-95355200D03*
%TD*%
D20*
%TO.C,U14*%
X63403299Y-73099900D03*
X63403299Y-71829900D03*
X63403299Y-70559900D03*
X63403299Y-69289900D03*
X63403299Y-68019900D03*
X63403299Y-66749900D03*
X63403299Y-65479900D03*
X68353299Y-65479900D03*
X68353299Y-66749900D03*
X68353299Y-68019900D03*
X68353299Y-69289900D03*
X68353299Y-70559900D03*
X68353299Y-71829900D03*
X68353299Y-73099900D03*
%TD*%
D21*
%TO.C,U17*%
X108585000Y-67405500D03*
X109855000Y-67405500D03*
X111125000Y-67405500D03*
X112395000Y-67405500D03*
X112395000Y-74580500D03*
X111125000Y-74580500D03*
X109855000Y-74580500D03*
X108585000Y-74580500D03*
%TD*%
D16*
%TO.C,R46*%
X134607800Y-75234800D03*
X136257800Y-75234800D03*
%TD*%
D17*
%TO.C,U11*%
X133705600Y-77340200D03*
X134975600Y-77340200D03*
X136245600Y-77340200D03*
X137515600Y-77340200D03*
X138785600Y-77340200D03*
X140055600Y-77340200D03*
X141325600Y-77340200D03*
X142595600Y-77340200D03*
X142595600Y-83515200D03*
X141325600Y-83515200D03*
X140055600Y-83515200D03*
X138785600Y-83515200D03*
X137515600Y-83515200D03*
X136245600Y-83515200D03*
X134975600Y-83515200D03*
X133705600Y-83515200D03*
%TD*%
D14*
%TO.C,R66*%
X102489000Y-67755000D03*
X102489000Y-69405000D03*
%TD*%
D22*
%TO.C,C1*%
X162636800Y-75311000D03*
X161086800Y-75311000D03*
%TD*%
D15*
%TO.C,U12*%
X134975600Y-85950000D03*
X136245600Y-85950000D03*
X137515600Y-85950000D03*
X138785600Y-85950000D03*
X140055600Y-85950000D03*
X141325600Y-85950000D03*
X142595600Y-85950000D03*
X143865600Y-85950000D03*
X145135600Y-85950000D03*
X145135600Y-95250000D03*
X143865600Y-95250000D03*
X142595600Y-95250000D03*
X141325600Y-95250000D03*
X140055600Y-95250000D03*
X138785600Y-95250000D03*
X137515600Y-95250000D03*
X136245600Y-95250000D03*
X134975600Y-95250000D03*
%TD*%
D23*
%TO.C,R54*%
X144083500Y-104902000D03*
X141158500Y-104902000D03*
%TD*%
D12*
%TO.C,C13*%
X86233000Y-65164000D03*
X86233000Y-63614000D03*
%TD*%
D17*
%TO.C,U7*%
X105968800Y-77441800D03*
X107238800Y-77441800D03*
X108508800Y-77441800D03*
X109778800Y-77441800D03*
X111048800Y-77441800D03*
X112318800Y-77441800D03*
X113588800Y-77441800D03*
X114858800Y-77441800D03*
X114858800Y-83616800D03*
X113588800Y-83616800D03*
X112318800Y-83616800D03*
X111048800Y-83616800D03*
X109778800Y-83616800D03*
X108508800Y-83616800D03*
X107238800Y-83616800D03*
X105968800Y-83616800D03*
%TD*%
D10*
%TO.C,Q2*%
X81663300Y-75321200D03*
X81663300Y-73421200D03*
X83538300Y-74371200D03*
%TD*%
D24*
%TO.C,C31*%
X152781000Y-90695000D03*
X152781000Y-84455000D03*
%TD*%
D13*
%TO.C,R59*%
X86931000Y-75234800D03*
X85281000Y-75234800D03*
%TD*%
D15*
%TO.C,U8*%
X107238800Y-86055200D03*
X108508800Y-86055200D03*
X109778800Y-86055200D03*
X111048800Y-86055200D03*
X112318800Y-86055200D03*
X113588800Y-86055200D03*
X114858800Y-86055200D03*
X116128800Y-86055200D03*
X117398800Y-86055200D03*
X117398800Y-95355200D03*
X116128800Y-95355200D03*
X114858800Y-95355200D03*
X113588800Y-95355200D03*
X112318800Y-95355200D03*
X111048800Y-95355200D03*
X109778800Y-95355200D03*
X108508800Y-95355200D03*
X107238800Y-95355200D03*
%TD*%
D13*
%TO.C,R61*%
X159257000Y-76962000D03*
X157607000Y-76962000D03*
%TD*%
D17*
%TO.C,U9*%
X120548400Y-77391000D03*
X121818400Y-77391000D03*
X123088400Y-77391000D03*
X124358400Y-77391000D03*
X125628400Y-77391000D03*
X126898400Y-77391000D03*
X128168400Y-77391000D03*
X129438400Y-77391000D03*
X129438400Y-83566000D03*
X128168400Y-83566000D03*
X126898400Y-83566000D03*
X125628400Y-83566000D03*
X124358400Y-83566000D03*
X123088400Y-83566000D03*
X121818400Y-83566000D03*
X120548400Y-83566000D03*
%TD*%
D25*
%TO.C,BT1*%
X116079000Y-68072000D03*
X131979000Y-68072000D03*
%TD*%
D26*
%TO.C,C14*%
X96723200Y-70141800D03*
X96723200Y-71691800D03*
%TD*%
D16*
%TO.C,R19*%
X93701600Y-75438000D03*
X95351600Y-75438000D03*
%TD*%
D27*
%TO.C,C8*%
X77912000Y-74930000D03*
X76012000Y-74930000D03*
%TD*%
D22*
%TO.C,C11*%
X103645000Y-74205000D03*
X102095000Y-74205000D03*
%TD*%
D23*
%TO.C,R36*%
X116397500Y-104902000D03*
X113472500Y-104902000D03*
%TD*%
D22*
%TO.C,C10*%
X159157000Y-85090000D03*
X157607000Y-85090000D03*
%TD*%
D23*
%TO.C,R27*%
X103189500Y-104902000D03*
X100264500Y-104902000D03*
%TD*%
%TO.C,R18*%
X88457500Y-104902000D03*
X85532500Y-104902000D03*
%TD*%
D20*
%TO.C,U20*%
X72496499Y-73152000D03*
X72496499Y-71882000D03*
X72496499Y-70612000D03*
X72496499Y-69342000D03*
X72496499Y-68072000D03*
X72496499Y-66802000D03*
X72496499Y-65532000D03*
X72496499Y-64262000D03*
X77446499Y-64262000D03*
X77446499Y-65532000D03*
X77446499Y-66802000D03*
X77446499Y-68072000D03*
X77446499Y-69342000D03*
X77446499Y-70612000D03*
X77446499Y-71882000D03*
X77446499Y-73152000D03*
%TD*%
D16*
%TO.C,R37*%
X116370600Y-76403200D03*
X118020600Y-76403200D03*
%TD*%
D28*
%TO.C,C2*%
X62890400Y-83769200D03*
X62890400Y-85669200D03*
%TD*%
D17*
%TO.C,U5*%
X92811600Y-77441800D03*
X94081600Y-77441800D03*
X95351600Y-77441800D03*
X96621600Y-77441800D03*
X97891600Y-77441800D03*
X99161600Y-77441800D03*
X100431600Y-77441800D03*
X101701600Y-77441800D03*
X101701600Y-83616800D03*
X100431600Y-83616800D03*
X99161600Y-83616800D03*
X97891600Y-83616800D03*
X96621600Y-83616800D03*
X95351600Y-83616800D03*
X94081600Y-83616800D03*
X92811600Y-83616800D03*
%TD*%
D16*
%TO.C,R60*%
X161037000Y-76962000D03*
X162687000Y-76962000D03*
%TD*%
D22*
%TO.C,C9*%
X159182400Y-75311000D03*
X157632400Y-75311000D03*
%TD*%
D17*
%TO.C,U3*%
X78105000Y-77430500D03*
X79375000Y-77430500D03*
X80645000Y-77430500D03*
X81915000Y-77430500D03*
X83185000Y-77430500D03*
X84455000Y-77430500D03*
X85725000Y-77430500D03*
X86995000Y-77430500D03*
X86995000Y-83605500D03*
X85725000Y-83605500D03*
X84455000Y-83605500D03*
X83185000Y-83605500D03*
X81915000Y-83605500D03*
X80645000Y-83605500D03*
X79375000Y-83605500D03*
X78105000Y-83605500D03*
%TD*%
D29*
%TO.C,Y1*%
X99568000Y-71180000D03*
X99568000Y-65980000D03*
%TD*%
D14*
%TO.C,R76*%
X79908400Y-73546200D03*
X79908400Y-75196200D03*
%TD*%
D30*
%TO.C,C30*%
X64719200Y-74980800D03*
X66619200Y-74980800D03*
%TD*%
D15*
%TO.C,U2*%
X66167000Y-86067500D03*
X67437000Y-86067500D03*
X68707000Y-86067500D03*
X69977000Y-86067500D03*
X71247000Y-86067500D03*
X72517000Y-86067500D03*
X73787000Y-86067500D03*
X75057000Y-86067500D03*
X76327000Y-86067500D03*
X76327000Y-95367500D03*
X75057000Y-95367500D03*
X73787000Y-95367500D03*
X72517000Y-95367500D03*
X71247000Y-95367500D03*
X69977000Y-95367500D03*
X68707000Y-95367500D03*
X67437000Y-95367500D03*
X66167000Y-95367500D03*
%TD*%
D23*
%TO.C,R1*%
X75122500Y-104902000D03*
X72197500Y-104902000D03*
%TD*%
D26*
%TO.C,C12*%
X96723200Y-65976200D03*
X96723200Y-67526200D03*
%TD*%
D15*
%TO.C,U4*%
X79375000Y-86067500D03*
X80645000Y-86067500D03*
X81915000Y-86067500D03*
X83185000Y-86067500D03*
X84455000Y-86067500D03*
X85725000Y-86067500D03*
X86995000Y-86067500D03*
X88265000Y-86067500D03*
X89535000Y-86067500D03*
X89535000Y-95367500D03*
X88265000Y-95367500D03*
X86995000Y-95367500D03*
X85725000Y-95367500D03*
X84455000Y-95367500D03*
X83185000Y-95367500D03*
X81915000Y-95367500D03*
X80645000Y-95367500D03*
X79375000Y-95367500D03*
%TD*%
D22*
%TO.C,C15*%
X86881000Y-73609200D03*
X85331000Y-73609200D03*
%TD*%
D31*
%TO.C,RESET1*%
X105283000Y-64590000D03*
X105283000Y-72390000D03*
%TD*%
D26*
%TO.C,C16*%
X102489000Y-70980000D03*
X102489000Y-72530000D03*
%TD*%
D23*
%TO.C,R45*%
X130875500Y-104902000D03*
X127950500Y-104902000D03*
%TD*%
D16*
%TO.C,R65*%
X91631000Y-62738000D03*
X93281000Y-62738000D03*
%TD*%
M02*
